# Blender v3.0.0 OBJ File: 'Blender Medieval Village Megapack Low Poly .blend'
# www.blender.org
mtllib Bag_2.mtl
o Bag_2
v 0.001173 0.112194 -0.315729
v 0.001888 0.446178 -0.225880
v 0.150284 0.112886 -0.275634
v 0.117471 0.436570 -0.194005
v 0.266368 0.113894 -0.148856
v 0.202520 0.429834 -0.110553
v 0.303876 0.113669 0.000637
v 0.231654 0.427553 0.001790
v 0.262513 0.113565 0.151055
v 0.200529 0.432264 0.117602
v 0.152986 0.113784 0.265503
v 0.116702 0.442281 0.204453
v -0.000566 0.113344 0.321919
v 0.002646 0.450403 0.234337
v -0.148598 0.113809 0.284129
v -0.112646 0.457941 0.201693
v -0.264265 0.113703 0.154078
v -0.196880 0.463198 0.115199
v -0.304683 0.113899 0.000122
v -0.228814 0.466094 -0.000188
v -0.261636 0.113458 -0.151113
v -0.195962 0.462844 -0.114560
v -0.152778 0.114912 -0.267356
v -0.113279 0.456464 -0.200603
v 0.006548 0.505067 -0.237529
v 0.125292 0.495068 -0.204548
v 0.213122 0.488342 -0.117704
v 0.241571 0.484109 0.000225
v 0.212831 0.492556 0.123815
v 0.125760 0.502720 0.214911
v 0.008150 0.513829 0.247275
v -0.111258 0.518020 0.210208
v -0.199138 0.523278 0.119181
v -0.231468 0.525820 -0.000479
v -0.197714 0.520714 -0.118408
v -0.112193 0.514780 -0.206288
v -0.015239 0.049841 -0.303981
v 0.139734 0.049964 -0.269521
v 0.254301 0.050048 -0.162251
v 0.302416 0.050045 -0.014658
v 0.269046 0.050052 0.138273
v 0.163485 0.050184 0.252827
v 0.015510 0.049714 0.304338
v -0.139637 0.049905 0.270555
v -0.253618 0.050189 0.163005
v -0.302532 0.050058 0.014670
v -0.268950 0.050047 -0.138192
v -0.163786 0.050068 -0.253449
v -0.000189 0.001552 -0.257928
v 0.128765 0.001687 -0.223297
v 0.223064 0.001794 -0.128965
v 0.257787 0.001678 -0.000179
v 0.223346 0.001655 0.128765
v 0.128946 0.001875 0.222981
v 0.000208 0.001573 0.257901
v -0.128786 0.001636 0.223354
v -0.223037 0.001821 0.128947
v -0.257798 0.001667 0.000185
v -0.223343 0.001659 -0.128760
v -0.128960 0.001845 -0.223008
v 0.003604 0.469047 -0.266957
v 0.138329 0.457585 -0.228307
v 0.235191 0.448835 -0.129642
v 0.272464 0.417992 0.002433
v 0.234204 0.451899 0.137171
v 0.138135 0.466203 0.240907
v 0.003847 0.496475 0.274681
v -0.129750 0.503548 0.235204
v -0.226639 0.513539 0.133224
v -0.264156 0.511225 0.000299
v -0.227539 0.490175 -0.134171
v -0.129809 0.480247 -0.231786
v 0.024339 0.540886 -0.306412
v 0.174865 0.528367 -0.257708
v 0.281390 0.519484 -0.140275
v 0.314445 0.484018 0.014631
v 0.267069 0.523276 0.169767
v 0.150568 0.537609 0.283570
v -0.003799 0.573065 0.317516
v -0.155240 0.577370 0.262663
v -0.262928 0.589083 0.140605
v -0.293490 0.566943 -0.014588
v -0.248183 0.562594 -0.165910
v -0.130328 0.553698 -0.272580
v 0.008471 0.574424 -0.264530
v 0.140266 0.563405 -0.229033
v 0.236536 0.555341 -0.132070
v 0.272561 0.520045 0.000055
v 0.237258 0.560538 0.138278
v 0.141863 0.574149 0.241862
v 0.010011 0.608753 0.276769
v -0.122645 0.611842 0.235047
v -0.219765 0.621610 0.132134
v -0.255494 0.596378 0.000066
v -0.219902 0.593495 -0.132338
v -0.123355 0.585416 -0.229125
v 0.013092 0.585295 -0.211421
v 0.118408 0.576494 -0.183042
v 0.195632 0.569616 -0.105843
v 0.223554 0.538815 0.000143
v 0.196459 0.574732 0.111900
v 0.120088 0.586582 0.194347
v 0.014579 0.616534 0.222374
v -0.091243 0.619155 0.189380
v -0.169131 0.626401 0.106121
v -0.197902 0.603358 -0.000007
v -0.169483 0.600560 -0.105814
v -0.092145 0.594087 -0.182972
v 0.007600 0.516369 -0.211385
v 0.113083 0.507483 -0.182398
v 0.189642 0.500934 -0.104781
v 0.218315 0.498424 0.000168
v 0.189991 0.505282 0.110777
v 0.113950 0.515908 0.192986
v 0.008449 0.523568 0.220116
v -0.097431 0.528963 0.187862
v -0.175229 0.553335 0.105724
v -0.203127 0.555949 -0.000099
v -0.175014 0.553947 -0.106141
v -0.097995 0.525174 -0.183050
v -0.016853 0.281734 -0.243099
v 0.125353 0.275194 -0.214237
v 0.225216 0.270207 -0.133161
v 0.267467 0.269917 -0.013745
v 0.239934 0.271907 0.114444
v 0.149770 0.275046 0.218405
v 0.020289 0.280923 0.267661
v -0.135657 0.284801 0.241021
v -0.237880 0.288030 0.150140
v -0.281621 0.289024 0.022148
v -0.242753 0.288875 -0.115862
v -0.149461 0.283202 -0.214246
v 0.066976 0.564135 -0.036896
v 0.076786 0.562385 -0.015573
v 0.074577 0.561104 0.007848
v 0.060809 0.560709 0.027166
v 0.039073 0.561644 0.037454
v 0.015363 0.563335 0.035615
v -0.003682 0.564972 0.021848
v -0.013050 0.566210 0.000055
v -0.010720 0.568208 -0.023450
v 0.003033 0.568299 -0.042790
v 0.024561 0.568042 -0.052755
v 0.047720 0.565495 -0.050319
v 0.124772 0.531373 0.073998
v 0.070964 0.535423 0.118018
v -0.028346 0.561076 -0.119991
v 0.037319 0.547198 -0.130567
v 0.004053 0.541229 0.129778
v 0.098692 0.541335 -0.105786
v -0.057065 0.545855 0.104437
v -0.097392 0.550359 0.051108
v 0.139722 0.536009 -0.053907
v -0.105418 0.561147 -0.017262
v 0.149393 0.532226 0.011708
v -0.080426 0.563219 -0.079423
vt 0.947863 0.789105
vt 0.947863 0.789105
vt 0.947863 0.789105
vt 0.947863 0.789105
vt 0.947863 0.789105
vt 0.947863 0.789105
vt 0.947863 0.789105
vt 0.947863 0.789105
vt 0.947863 0.789105
vt 0.947863 0.789105
vt 0.947863 0.789105
vt 0.947863 0.789105
vt 0.947863 0.789105
vt 0.947863 0.789105
vt 0.947863 0.789105
vt 0.947863 0.789105
vt 0.947863 0.789105
vt 0.947863 0.789105
vt 0.947863 0.789105
vt 0.947863 0.789105
vt 0.947863 0.789105
vt 0.947863 0.789105
vt 0.947863 0.789105
vt 0.947863 0.789105
vt 0.947863 0.789105
vt 0.947863 0.789105
vt 0.947863 0.789105
vt 0.947863 0.789105
vt 0.947863 0.789105
vt 0.947863 0.789105
vt 0.947863 0.789105
vt 0.947863 0.789105
vt 0.947863 0.789105
vt 0.947863 0.789105
vt 0.947863 0.789105
vt 0.947863 0.789105
vt 0.947863 0.789105
vt 0.947863 0.789105
vt 0.947863 0.789105
vt 0.947863 0.789105
vt 0.947863 0.789105
vt 0.947863 0.789105
vt 0.947863 0.789105
vt 0.947863 0.789105
vt 0.947863 0.789105
vt 0.947863 0.789105
vt 0.947863 0.789105
vt 0.947863 0.789105
vt 0.947863 0.789105
vt 0.947863 0.789105
vt 0.947863 0.789105
vt 0.947863 0.789105
vt 0.947863 0.789105
vt 0.947863 0.789105
vt 0.947863 0.789105
vt 0.947863 0.789105
vt 0.947863 0.789105
vt 0.947863 0.789105
vt 0.947863 0.789105
vt 0.947863 0.789105
vt 0.947863 0.789105
vt 0.947863 0.789105
vt 0.947863 0.789105
vt 0.947863 0.789105
vt 0.947863 0.789105
vt 0.947863 0.789105
vt 0.947863 0.789105
vt 0.947863 0.789105
vt 0.947863 0.789105
vt 0.947863 0.789105
vt 0.947863 0.789105
vt 0.947863 0.789105
vt 0.947863 0.789105
vt 0.947863 0.789105
vt 0.947863 0.789105
vt 0.947863 0.789105
vt 0.947863 0.789105
vt 0.947863 0.789105
vt 0.947863 0.789105
vt 0.947863 0.789105
vt 0.947863 0.789105
vt 0.947863 0.789105
vt 0.947863 0.789105
vt 0.947863 0.789105
vt 0.947863 0.789105
vt 0.947863 0.789105
vt 0.947863 0.789105
vt 0.947863 0.789105
vt 0.947863 0.789105
vt 0.947863 0.789105
vt 0.947863 0.789105
vt 0.947863 0.789105
vt 0.947863 0.789105
vt 0.947863 0.789105
vt 0.947863 0.789105
vt 0.947863 0.789105
vt 0.947863 0.789105
vt 0.947863 0.789105
vt 0.947863 0.789105
vt 0.947863 0.789105
vt 0.947863 0.789105
vt 0.947863 0.789105
vt 0.947863 0.789105
vt 0.947863 0.789105
vt 0.947863 0.789105
vt 0.947863 0.789105
vt 0.947863 0.789105
vt 0.947863 0.789105
vt 0.947863 0.789105
vt 0.947863 0.789105
vt 0.947863 0.789105
vt 0.947863 0.789105
vt 0.947863 0.789105
vt 0.947863 0.789105
vt 0.947863 0.789105
vt 0.947863 0.789105
vt 0.947863 0.789105
vt 0.947863 0.789105
vt 0.947863 0.789105
vt 0.947863 0.789105
vt 0.947863 0.789105
vt 0.947863 0.789105
vt 0.947863 0.789105
vt 0.947863 0.789105
vt 0.947863 0.789105
vt 0.947863 0.789105
vt 0.947863 0.789105
vt 0.947863 0.789105
vt 0.947863 0.789105
vt 0.947863 0.789105
vt 0.947863 0.789105
vt 0.947863 0.789105
vt 0.509843 0.945812
vt 0.509843 0.945812
vt 0.509843 0.945812
vt 0.509843 0.945812
vt 0.509843 0.945812
vt 0.509843 0.945812
vt 0.509843 0.945812
vt 0.509843 0.945812
vt 0.509843 0.945812
vt 0.509843 0.945812
vt 0.509843 0.945812
vt 0.509843 0.945812
vt 0.509843 0.945812
vt 0.509843 0.945812
vt 0.509843 0.945812
vt 0.509843 0.945812
vt 0.509843 0.945812
vt 0.509843 0.945812
vt 0.509843 0.945812
vt 0.509843 0.945812
vt 0.509843 0.945812
vt 0.509843 0.945812
vt 0.509843 0.945812
vt 0.509843 0.945812
vt 0.509843 0.945812
vt 0.509843 0.945812
vt 0.509843 0.945812
vt 0.509843 0.945812
vt 0.509843 0.945812
vt 0.509843 0.945812
vt 0.509843 0.945812
vt 0.509843 0.945812
vt 0.509843 0.945812
vt 0.509843 0.945812
vt 0.509843 0.945812
vt 0.509843 0.945812
vn -0.9310 0.2481 -0.2679
vn 0.9499 -0.1905 0.2480
vn -0.2460 0.0399 -0.9684
vn 0.1474 -0.6340 0.7592
vn -0.6410 -0.5522 -0.5332
vn 0.5175 -0.6674 -0.5355
vn -0.2958 -0.4571 0.8388
vn 0.9357 0.2069 -0.2859
vn 0.2342 0.1033 -0.9667
vn -0.9500 0.1577 -0.2694
vn -0.9638 -0.0476 0.2624
vn -0.6570 0.2708 0.7036
vn 0.7229 -0.0463 -0.6894
vn -0.2063 0.1223 -0.9708
vn -0.7264 0.0775 -0.6829
vn -0.9607 -0.0456 -0.2738
vn 0.2945 -0.0001 -0.9556
vn -0.7181 -0.0771 0.6917
vn -0.1945 0.2890 0.9374
vn 0.9515 -0.1881 -0.2433
vn -0.2884 -0.1482 0.9460
vn -0.7028 0.1974 -0.6835
vn -0.7196 -0.0609 -0.6917
vn 0.6772 -0.2131 -0.7043
vn -0.4440 0.7587 0.4766
vn 0.2345 -0.9254 -0.2976
vn -0.9600 0.1049 -0.2594
vn 0.1375 0.9680 -0.2101
vn 0.2938 0.9458 0.1380
vn 0.0881 -0.5004 0.8613
vn 0.5775 -0.5165 0.6323
vn 0.5069 0.8572 0.0908
vn -0.9696 -0.0134 -0.2443
vn 0.2583 -0.0215 0.9658
vn -0.8808 -0.4218 -0.2150
vn -0.0618 0.9876 -0.1444
vn -0.8752 -0.4542 0.1664
vn 0.7243 -0.6671 0.1742
vn -0.1715 -0.6823 0.7107
vn 0.0271 0.9789 -0.2025
vn -0.1156 0.9918 -0.0547
vn -0.0207 0.9897 0.1418
vn -0.7337 -0.0371 -0.6785
vn -0.7148 -0.6650 0.2165
vn -0.7243 -0.6670 -0.1748
vn 0.7326 0.1837 0.6554
vn -0.2436 -0.4427 -0.8629
vn 0.6637 0.3031 -0.6838
vn -0.6451 -0.4132 -0.6427
vn -0.7082 0.2183 -0.6714
vn 0.3244 0.7015 0.6346
vn -0.2412 0.3293 -0.9129
vn 0.3521 -0.9308 -0.0982
vn 0.7994 -0.5121 -0.3142
vn 0.2388 0.9585 -0.1557
vn 0.1747 -0.6764 -0.7155
vn 0.5415 -0.6608 0.5198
vn -0.2216 -0.2722 0.9364
vn -0.2006 0.2062 0.9577
vn -0.8785 -0.4524 -0.1537
vn 0.9515 0.2120 0.2229
vn -0.2656 -0.5888 0.7634
vn -0.8733 -0.4227 0.2422
vn -0.5178 -0.6697 0.5324
vn 0.2388 0.7762 -0.5836
vn 0.4830 -0.6922 0.5363
vn -0.0368 0.9914 0.1252
vn 0.1070 -0.8698 -0.4817
vn 0.2344 -0.1865 -0.9541
vn 0.6441 0.7640 0.0375
vn -0.7125 -0.1348 0.6886
vn -0.1445 0.9767 -0.1588
vn 0.5320 -0.8141 0.2327
vn 0.5430 0.7170 0.4371
vn 0.6618 0.1608 -0.7323
vn -0.2189 -0.6731 -0.7064
vn 0.7098 -0.0865 -0.6991
vn 0.2223 -0.6729 0.7056
vn 0.9709 -0.0141 0.2392
vn -0.1962 0.7478 0.6343
vn -0.9581 -0.0441 0.2831
vn 0.7118 0.7023 0.0097
vn 0.7283 -0.0394 0.6841
vn 0.4952 0.7671 -0.4078
vn 0.2451 -0.2052 -0.9475
vn 0.9483 0.2156 0.2330
vn 0.7201 0.2296 0.6548
vn -0.2605 0.0252 0.9651
vn -0.6999 0.1741 0.6927
vn -0.9126 0.2899 0.2884
vn 0.6915 -0.2175 0.6888
vn 0.9596 -0.1109 0.2586
vn 0.6965 -0.0711 0.7141
vn 0.2378 -0.2072 0.9490
vn -0.7050 0.0667 0.7061
vn -0.2434 -0.1302 -0.9612
vn 0.3134 0.1782 0.9328
vn -0.9568 0.1012 0.2727
vn 0.3421 0.2600 0.9030
vn 0.5993 -0.5223 -0.6067
vn 0.9326 0.2326 -0.2762
vn 0.2195 0.3897 -0.8944
vn -0.6166 -0.5447 0.5684
vn 0.9643 -0.0896 -0.2492
vn -0.9512 0.1199 0.2844
vn -0.6893 -0.4224 0.5885
vn 0.2165 -0.4936 -0.8423
vn -0.6072 0.7945 0.0091
vn 0.3335 -0.1516 0.9305
vn 0.2686 0.9561 0.1171
vn 0.9601 -0.0396 -0.2767
vn -0.3836 0.7947 -0.4705
vn -0.5837 0.7903 -0.1866
vn 0.7140 -0.6666 -0.2143
vn -0.5413 -0.6637 -0.5162
vn -0.2872 -0.6957 -0.6584
vn -0.0822 0.7875 -0.6108
vn 0.7646 -0.5341 0.3607
vn 0.3851 0.9051 -0.1805
vn -0.0006 -1.0000 0.0062
vn -0.0006 -1.0000 0.0017
vn -0.0021 -1.0000 -0.0003
vn -0.0034 -1.0000 -0.0011
vn 0.0009 -1.0000 -0.0052
vn 0.0009 -1.0000 -0.0029
vn 0.0023 -1.0000 0.0006
vn 0.0028 -1.0000 0.0008
vn 0.4115 0.8985 0.1527
vn -0.3095 -0.1234 -0.9429
vn -0.0000 -1.0000 0.0001
vn 0.1180 0.9755 0.1855
vn 0.3289 0.9342 -0.1381
vn 0.1073 0.9614 0.2533
vn 0.0173 0.9972 0.0732
vn 0.0644 0.9966 0.0507
vn 0.2047 0.8982 -0.3890
vn -0.0739 0.9970 -0.0229
vn 0.1724 0.9553 -0.2402
vn 0.3283 0.9294 0.1686
vn 0.3927 0.8772 -0.2762
vn -0.0728 0.9971 0.0242
vn 0.4709 0.8791 -0.0734
vn -0.0078 0.9811 0.1935
vn -0.0308 0.9972 -0.0680
vn -0.0295 0.9758 0.2168
vn 0.2172 0.9521 -0.2151
vn 0.0641 0.9859 0.1543
vn -0.1076 0.9834 0.1464
vn 0.2512 0.9567 0.1472
vn -0.0771 0.9401 -0.3321
vn 0.2323 0.9434 0.2366
vn 0.1133 0.9752 -0.1902
vn 0.3922 0.9156 0.0883
vn 0.3767 0.9261 0.0211
vn 0.0211 0.9013 -0.4326
vn 0.0497 0.9965 0.0668
vn 0.0373 0.9976 0.0581
vn 0.0197 0.9972 0.0728
vn 0.0901 0.9814 0.1694
vn 0.0719 0.9959 0.0558
vn 0.0676 0.9973 0.0276
vn 0.0694 0.9973 0.0226
vn -0.0848 0.9826 0.1650
g Bag_2_Bag_2_CollorMaterial
usemtl CollorMaterial
s off
f 20/1/1 22/2/1 131/3/1 130/4/1
f 10/5/2 8/6/2 28/7/2 29/8/2
f 102/9/3 114/10/3 115/11/3 103/12/3
f 36/13/4 72/14/4 61/15/4 25/16/4
f 29/8/5 65/17/5 66/18/5 30/19/5
f 39/20/6 51/21/6 50/22/6 38/23/6
f 68/24/7 67/25/7 79/26/7 80/27/7
f 6/28/8 8/6/8 124/29/8 123/30/8
f 121/31/9 2/32/9 4/33/9 122/34/9
f 19/35/10 130/4/10 131/3/10 21/36/10
f 20/1/11 18/37/11 33/38/11 34/39/11
f 16/40/12 18/37/12 129/41/12 128/42/12
f 104/43/13 116/44/13 117/45/13 105/46/13
f 24/47/14 2/32/14 121/31/14 132/48/14
f 101/49/15 113/50/15 114/10/15 102/9/15
f 20/1/16 34/39/16 35/51/16 22/2/16
f 104/43/17 103/12/17 115/11/17 116/44/17
f 16/40/18 32/52/18 33/38/18 18/37/18
f 13/53/19 127/54/19 128/42/19 15/55/19
f 6/28/20 27/56/20 28/7/20 8/6/20
f 14/57/21 31/58/21 32/52/21 16/40/21
f 22/2/22 24/47/22 132/48/22 131/3/22
f 24/47/23 22/2/23 35/51/23 36/13/23
f 4/33/24 26/59/24 27/56/24 6/28/24
f 80/27/25 92/60/25 93/61/25 81/62/25
f 33/38/26 32/52/26 68/24/26 69/63/26
f 100/64/27 112/65/27 113/50/27 101/49/27
f 86/66/28 85/67/28 97/68/28 98/69/28
f 90/70/29 102/9/29 103/12/29 91/71/29
f 67/25/30 66/18/30 78/72/30 79/26/30
f 66/18/31 65/17/31 77/73/31 78/72/31
f 75/74/32 87/75/32 100/64/32 88/76/32
f 19/35/33 21/36/33 47/77/33 46/78/33
f 97/68/34 108/79/34 120/80/34 109/81/34
f 71/82/35 70/83/35 82/84/35 83/85/35
f 96/86/36 95/87/36 107/88/36 108/79/36
f 28/7/37 27/56/37 63/89/37 64/90/37
f 41/91/38 53/92/38 52/93/38 40/94/38
f 44/95/39 56/96/39 55/97/39 43/98/39
f 85/67/40 96/86/40 108/79/40 97/68/40
f 95/87/41 94/99/41 106/100/41 107/88/41
f 91/71/42 103/12/42 104/43/42 92/60/42
f 21/36/43 23/101/43 48/102/43 47/77/43
f 46/78/44 58/103/44 57/104/44 45/105/44
f 47/77/45 59/106/45 58/103/45 46/78/45
f 10/5/46 12/107/46 126/108/46 125/109/46
f 61/15/47 72/14/47 84/110/47 73/111/47
f 3/112/48 122/34/48 123/30/48 5/113/48
f 72/14/49 71/82/49 83/85/49 84/110/49
f 21/36/50 131/3/50 132/48/50 23/101/50
f 78/72/51 90/70/51 91/71/51 79/26/51
f 23/101/52 132/48/52 121/31/52 1/114/52
f 34/39/53 33/38/53 69/63/53 70/83/53
f 63/89/54 75/74/54 76/115/54 64/90/54
f 87/75/55 86/66/55 98/69/55 99/116/55
f 38/23/56 50/22/56 49/117/56 37/118/56
f 42/119/57 54/120/57 53/92/57 41/91/57
f 13/53/58 15/55/58 44/95/58 43/98/58
f 14/57/59 16/40/59 128/42/59 127/54/59
f 28/7/60 64/90/60 65/17/60 29/8/60
f 8/6/61 10/5/61 125/109/61 124/29/61
f 26/59/62 25/16/62 61/15/62 62/121/62
f 70/83/63 69/63/63 81/62/63 82/84/63
f 45/105/64 57/104/64 56/96/64 44/95/64
f 73/111/65 85/67/65 86/66/65 74/122/65
f 35/51/66 71/82/66 72/14/66 36/13/66
f 92/60/67 104/43/67 105/46/67 93/61/67
f 32/52/68 31/58/68 67/25/68 68/24/68
f 1/114/69 3/112/69 38/23/69 37/118/69
f 75/74/70 88/76/70 76/115/70
f 15/55/71 17/123/71 45/105/71 44/95/71
f 93/61/72 105/46/72 106/100/72 94/99/72
f 34/39/73 70/83/73 71/82/73 35/51/73
f 77/73/74 89/124/74 90/70/74 78/72/74
f 122/34/75 4/33/75 6/28/75 123/30/75
f 37/118/76 49/117/76 60/125/76 48/102/76
f 3/112/77 5/113/77 39/20/77 38/23/77
f 43/98/78 55/97/78 54/120/78 42/119/78
f 7/126/79 9/127/79 41/91/79 40/94/79
f 79/26/80 91/71/80 92/60/80 80/27/80
f 17/123/81 19/35/81 46/78/81 45/105/81
f 76/115/82 88/76/82 89/124/82 77/73/82
f 9/127/83 11/128/83 42/119/83 41/91/83
f 74/122/84 86/66/84 87/75/84 75/74/84
f 2/32/85 25/16/85 26/59/85 4/33/85
f 7/126/86 124/29/86 125/109/86 9/127/86
f 9/127/87 125/109/87 126/108/87 11/128/87
f 98/69/88 97/68/88 109/81/88 110/129/88
f 128/42/89 129/41/89 17/123/89 15/55/89
f 18/37/90 20/1/90 130/4/90 129/41/90
f 12/107/91 10/5/91 29/8/91 30/19/91
f 106/100/92 118/130/92 119/131/92 107/88/92
f 108/79/93 107/88/93 119/131/93 120/80/93
f 14/57/94 12/107/94 30/19/94 31/58/94
f 99/116/95 98/69/95 110/129/95 111/132/95
f 24/47/96 36/13/96 25/16/96 2/32/96
f 12/107/97 14/57/97 127/54/97 126/108/97
f 100/64/98 99/116/98 111/132/98 112/65/98
f 11/128/99 126/108/99 127/54/99 13/53/99
f 63/89/100 62/121/100 74/122/100 75/74/100
f 5/113/101 123/30/101 124/29/101 7/126/101
f 1/114/102 121/31/102 122/34/102 3/112/102
f 27/56/103 26/59/103 62/121/103 63/89/103
f 106/100/104 105/46/104 117/45/104 118/130/104
f 17/123/105 129/41/105 130/4/105 19/35/105
f 69/63/106 68/24/106 80/27/106 81/62/106
f 62/121/107 61/15/107 73/111/107 74/122/107
f 81/62/108 93/61/108 94/99/108 82/84/108
f 11/128/109 13/53/109 43/98/109 42/119/109
f 89/124/110 101/49/110 102/9/110 90/70/110
f 5/113/111 7/126/111 40/94/111 39/20/111
f 83/85/112 95/87/112 96/86/112 84/110/112
f 82/84/113 94/99/113 95/87/113 83/85/113
f 40/94/114 52/93/114 51/21/114 39/20/114
f 48/102/115 60/125/115 59/106/115 47/77/115
f 31/58/116 30/19/116 66/18/116 67/25/116
f 84/110/117 96/86/117 85/67/117 73/111/117
f 65/17/118 64/90/118 76/115/118 77/73/118
f 89/124/119 88/76/119 100/64/119 101/49/119
f 60/125/120 49/117/120 50/22/120
f 50/22/121 51/21/121 60/125/121
f 51/21/122 52/93/122 54/120/122
f 52/93/123 53/92/123 54/120/123
f 54/120/124 55/97/124 56/96/124
f 56/96/125 57/104/125 54/120/125
f 57/104/126 58/103/126 60/125/126
f 58/103/127 59/106/127 60/125/127
f 87/75/128 99/116/128 100/64/128
f 23/101/129 1/114/129 37/118/129 48/102/129
f 60/125/130 51/21/130 54/120/130 57/104/130
f 115/133/131 114/134/131 146/135/131 149/136/131
f 153/137/132 150/138/132 133/139/132 134/140/132
f 149/136/133 146/135/133 137/141/133 138/142/133
f 118/143/134 117/144/134 152/145/134 154/146/134
f 141/147/135 136/148/135 135/149/135 144/150/135
f 110/151/136 109/152/136 148/153/136 150/138/136
f 119/154/137 118/143/137 154/146/137 156/155/137
f 150/138/138 148/153/138 143/156/138 144/150/138
f 145/157/139 155/158/139 135/149/139 136/148/139
f 111/159/140 110/151/140 150/138/140 153/137/140
f 156/155/141 154/146/141 140/160/141 141/147/141
f 112/161/142 111/159/142 153/137/142 155/158/142
f 116/162/143 115/133/143 149/136/143 151/163/143
f 147/164/144 156/155/144 141/147/144 142/165/144
f 151/163/145 149/136/145 138/142/145 139/166/145
f 150/138/146 144/150/146 133/139/146
f 117/144/147 116/162/147 151/163/147 152/145/147
f 152/145/148 151/163/148 139/166/148 140/160/148
f 114/134/149 113/167/149 145/157/149 146/135/149
f 120/168/150 119/154/150 156/155/150 147/164/150
f 146/135/151 145/157/151 136/148/151 137/141/151
f 148/153/152 147/164/152 142/165/152 143/156/152
f 113/167/153 112/161/153 155/158/153 145/157/153
f 155/158/154 153/137/154 134/140/154 135/149/154
f 109/152/155 120/168/155 147/164/155 148/153/155
f 141/147/156 140/160/156 137/141/156 136/148/156
f 135/149/157 134/140/157 144/150/157
f 134/140/158 133/139/158 144/150/158
f 144/150/159 143/156/159 142/165/159
f 142/165/160 141/147/160 144/150/160
f 140/160/161 139/166/161 137/141/161
f 139/166/162 138/142/162 137/141/162
f 154/146/163 152/145/163 140/160/163
