# Blender v3.0.0 OBJ File: 'Blender Medieval Village Megapack Low Poly .blend'
# www.blender.org
mtllib Bag_1.mtl
o Bag_1
v -0.157125 -0.001289 0.134232
v -0.202368 0.007500 -0.124542
v -0.097065 0.703311 -0.026525
v 0.251739 0.002646 0.063778
v 0.138824 0.665189 -0.022126
v 0.176886 -0.003080 -0.182416
v -0.266994 0.155373 0.161464
v -0.201363 0.528327 0.136468
v -0.292758 0.547406 -0.107719
v -0.325242 0.194334 -0.116264
v 0.239841 0.514326 -0.175559
v 0.282480 0.182655 -0.214096
v 0.270220 0.502844 0.075834
v 0.330851 0.170179 0.069493
v -0.266240 0.375424 0.162581
v -0.343873 0.396957 -0.125288
v 0.278673 0.388268 -0.200773
v 0.311273 0.366050 0.089891
v -0.052192 0.503410 0.177589
v -0.187721 0.193361 -0.243411
v -0.122076 0.023136 -0.218861
v 0.053203 0.012703 -0.237228
v 0.110285 0.168164 -0.262422
v 0.184616 0.146208 0.196207
v 0.147747 -0.002128 0.165444
v -0.047259 0.001175 0.193063
v -0.108911 0.151843 0.230457
v -0.094814 0.362241 0.228668
v -0.176201 0.525017 -0.238109
v -0.199494 0.393556 -0.267161
v 0.094695 0.487046 -0.246428
v 0.111505 0.356756 -0.261700
v 0.156125 0.481044 0.170877
v 0.159286 0.339527 0.216772
v -0.140479 0.657240 0.103337
v -0.232726 0.686386 -0.098736
v 0.196984 0.638092 -0.152461
v 0.229175 0.630235 0.055271
v -0.017033 0.627029 0.130463
v -0.141882 0.660438 -0.195832
v 0.075978 0.626149 -0.217622
v 0.148090 0.616460 0.121220
v -0.195365 -0.003191 0.007371
v -0.098967 0.704463 -0.010866
v 0.237896 -0.004719 -0.065253
v 0.337349 0.184920 -0.079478
v 0.275663 0.517267 -0.052071
v -0.323785 0.170400 0.027263
v -0.270656 0.537472 0.026687
v -0.333768 0.382792 0.035276
v 0.320335 0.390965 -0.067080
v 0.229728 0.633060 -0.043241
v -0.204704 0.674703 0.013503
v -0.088334 0.680200 0.040810
v -0.010591 0.659641 0.054756
v -0.132986 0.692764 -0.056179
v 0.143175 0.652765 -0.088161
v 0.163213 0.648236 0.007976
v -0.072886 0.674118 -0.104399
v 0.065605 0.647302 -0.117414
v 0.105174 0.640331 0.040347
v 0.165489 0.651681 -0.039715
v -0.123145 0.689009 -0.003592
v -0.081963 0.698141 0.007549
v -0.043073 0.693244 -0.061894
v 0.131293 0.666993 -0.057163
v 0.069002 0.671069 -0.073534
v -0.178300 0.807666 0.008154
v -0.181329 0.812424 -0.047398
v 0.177112 0.758119 -0.093231
v 0.202970 0.760221 -0.046072
v 0.197987 0.762374 0.003693
v -0.138876 0.798174 0.053661
v -0.035571 0.764486 0.061220
v -0.093909 0.799610 -0.100586
v 0.082512 0.766113 -0.119025
v 0.119511 0.753886 0.039472
v -0.199633 0.798551 0.011439
v -0.204509 0.806386 -0.053759
v 0.191748 0.751465 -0.103764
v 0.218205 0.752224 -0.046551
v 0.215770 0.757872 0.011821
v -0.154247 0.786970 0.067223
v -0.037639 0.755476 0.072682
v -0.108963 0.788568 -0.118530
v 0.087510 0.753845 -0.140698
v 0.130619 0.744813 0.052534
v -0.217783 0.773951 0.015827
v -0.222874 0.778138 -0.054130
v 0.207746 0.727187 -0.113060
v 0.234737 0.727020 -0.047604
v 0.233219 0.732738 0.017880
v -0.167930 0.760164 0.076248
v -0.038880 0.726722 0.083135
v -0.119427 0.758499 -0.125777
v 0.094495 0.721432 -0.152346
v 0.140294 0.712335 0.061373
v 0.145705 0.667224 -0.039751
v -0.018624 0.681573 0.007077
v 0.084376 0.663837 -0.006473
v -0.081125 0.700813 0.004844
v 0.130465 0.668123 -0.053712
v -0.042668 0.694754 -0.058605
v 0.069119 0.673472 -0.070380
v -0.178009 0.811492 0.008695
v -0.181033 0.816198 -0.047588
v 0.176772 0.761922 -0.092740
v 0.202658 0.764052 -0.046268
v 0.197535 0.766125 0.003658
v -0.138290 0.801805 0.054064
v -0.035234 0.768331 0.060875
v -0.093454 0.803312 -0.100115
v 0.082672 0.769794 -0.118006
v 0.119380 0.757632 0.038664
v -0.200716 0.801655 0.012911
v -0.205692 0.809468 -0.055141
v 0.192435 0.754488 -0.105847
v 0.219554 0.755337 -0.047337
v 0.216724 0.761049 0.013433
v -0.154619 0.789462 0.070156
v -0.037439 0.757577 0.075837
v -0.109260 0.790989 -0.121541
v 0.087731 0.756285 -0.143634
v 0.130934 0.747146 0.055533
v -0.219253 0.776771 0.017257
v -0.224590 0.780623 -0.055374
v 0.208893 0.729641 -0.115375
v 0.236429 0.729745 -0.048395
v 0.234751 0.735302 0.019485
v -0.168575 0.762081 0.079385
v -0.038716 0.728119 0.086705
v -0.119865 0.759985 -0.129188
v 0.094731 0.722954 -0.155810
v 0.140663 0.713747 0.064822
v -0.097617 0.707616 -0.011717
v -0.095748 0.705807 -0.024363
v 0.144076 0.670947 -0.039095
v 0.137812 0.667082 -0.024917
v -0.018738 0.682847 0.003403
v 0.084226 0.666327 -0.009574
vt 0.055552 0.527091
vt 0.055552 0.527091
vt 0.055552 0.527091
vt 0.055552 0.527091
vt 0.055552 0.527091
vt 0.055552 0.527091
vt 0.055552 0.527091
vt 0.055552 0.527091
vt 0.055552 0.527091
vt 0.055552 0.527091
vt 0.055552 0.527091
vt 0.055552 0.527091
vt 0.055552 0.527091
vt 0.055552 0.527091
vt 0.055552 0.527091
vt 0.055552 0.527091
vt 0.055552 0.527091
vt 0.055552 0.527091
vt 0.055552 0.527091
vt 0.055552 0.527091
vt 0.055552 0.527091
vt 0.055552 0.527091
vt 0.055552 0.527091
vt 0.055552 0.527091
vt 0.055552 0.527091
vt 0.055552 0.527091
vt 0.055552 0.527091
vt 0.055552 0.527091
vt 0.055552 0.527091
vt 0.055552 0.527091
vt 0.960374 0.775423
vt 0.960374 0.775423
vt 0.960374 0.775423
vt 0.960374 0.775423
vt 0.960374 0.775423
vt 0.960374 0.775423
vt 0.960374 0.775423
vt 0.960374 0.775423
vt 0.960374 0.775423
vt 0.960374 0.775423
vt 0.960374 0.775423
vt 0.960374 0.775423
vt 0.960374 0.775423
vt 0.960374 0.775423
vt 0.960374 0.775423
vt 0.960374 0.775423
vt 0.960374 0.775423
vt 0.960374 0.775423
vt 0.960374 0.775423
vt 0.960374 0.775423
vt 0.960374 0.775423
vt 0.960374 0.775423
vt 0.960374 0.775423
vt 0.960374 0.775423
vt 0.960374 0.775423
vt 0.960374 0.775423
vt 0.960374 0.775423
vt 0.960374 0.775423
vt 0.960374 0.775423
vt 0.960374 0.775423
vt 0.960374 0.775423
vt 0.960374 0.775423
vt 0.960374 0.775423
vt 0.960374 0.775423
vt 0.960374 0.775423
vt 0.960374 0.775423
vt 0.960374 0.775423
vt 0.960374 0.775423
vt 0.960374 0.775423
vt 0.960374 0.775423
vt 0.960374 0.775423
vt 0.960374 0.775423
vt 0.960374 0.775423
vt 0.960374 0.775423
vt 0.960374 0.775423
vt 0.960374 0.775423
vt 0.960374 0.775423
vt 0.960374 0.775423
vt 0.960374 0.775423
vt 0.960374 0.775423
vt 0.960374 0.775423
vt 0.960374 0.775423
vt 0.960374 0.775423
vt 0.960374 0.775423
vt 0.960374 0.775423
vt 0.960374 0.775423
vt 0.960374 0.775423
vt 0.960374 0.775423
vt 0.960374 0.775423
vt 0.960374 0.775423
vt 0.960374 0.775423
vt 0.960374 0.775423
vt 0.960374 0.775423
vt 0.960374 0.775423
vt 0.960374 0.775423
vt 0.960374 0.775423
vt 0.960374 0.775423
vt 0.960374 0.775423
vt 0.960374 0.775423
vt 0.960374 0.775423
vt 0.960374 0.775423
vt 0.960374 0.775423
vt 0.960374 0.775423
vt 0.960374 0.775423
vt 0.960374 0.775423
vt 0.960374 0.775423
vt 0.960374 0.775423
vt 0.960374 0.775423
vt 0.960374 0.775423
vt 0.960374 0.775423
vt 0.960374 0.775423
vt 0.960374 0.775423
vt 0.960374 0.775423
vt 0.960374 0.775423
vt 0.960374 0.775423
vt 0.960374 0.775423
vt 0.960374 0.775423
vt 0.960374 0.775423
vt 0.960374 0.775423
vt 0.960374 0.775423
vt 0.960374 0.775423
vt 0.960374 0.775423
vt 0.960374 0.775423
vt 0.960374 0.775423
vt 0.960374 0.775423
vt 0.960374 0.775423
vt 0.960374 0.775423
vt 0.960374 0.775423
vt 0.960374 0.775423
vt 0.960374 0.775423
vt 0.960374 0.775423
vt 0.960374 0.775423
vt 0.960374 0.775423
vt 0.960374 0.775423
vt 0.960374 0.775423
vt 0.960374 0.775423
vt 0.960374 0.775423
vt 0.960374 0.775423
vt 0.960374 0.775423
vt 0.960374 0.775423
vt 0.960374 0.775423
vt 0.960374 0.775423
vt 0.960374 0.775423
vt 0.960374 0.775423
vt 0.960374 0.775423
vt 0.960374 0.775423
vt 0.960374 0.775423
vt 0.960374 0.775423
vt 0.960374 0.775423
vt 0.960374 0.775423
vt 0.960374 0.775423
vt 0.960374 0.775423
vt 0.960374 0.775423
vt 0.960374 0.775423
vt 0.960374 0.775423
vt 0.960374 0.775423
vt 0.960374 0.775423
vt 0.960374 0.775423
vt 0.960374 0.775423
vt 0.960374 0.775423
vt 0.960374 0.775423
vt 0.960374 0.775423
vt 0.960374 0.775423
vt 0.960374 0.775423
vt 0.960374 0.775423
vt 0.960374 0.775423
vt 0.960374 0.775423
vt 0.960374 0.775423
vt 0.960374 0.775423
vt 0.960374 0.775423
vn -0.4987 0.8529 0.1542
vn 0.6154 0.7835 0.0860
vn -0.2061 0.9737 -0.0967
vn 0.3394 0.9101 0.2376
vn -0.3014 0.8621 0.4073
vn -0.3192 0.9406 0.1154
vn 0.4349 0.8982 -0.0642
vn 0.1335 0.8898 -0.4364
vn 0.1028 0.9040 0.4151
vn 0.1228 0.8693 -0.4788
vn -0.3208 0.7648 0.5587
vn 0.1831 0.9786 0.0936
vn 0.0389 0.9959 0.0812
vn 0.2011 0.9054 0.3740
vn -0.0278 0.9331 -0.3584
vn 0.1910 0.8821 0.4306
vn 0.5052 0.8193 -0.2711
vn 0.2627 0.9625 0.0673
vn -0.4591 -0.7695 -0.4439
vn 0.9383 0.0686 -0.3389
vn -0.0526 -0.9849 -0.1648
vn -0.0275 -0.9968 -0.0749
vn -0.0819 -0.9696 -0.2304
vn -0.2274 -0.5114 0.8287
vn 0.2560 0.9656 0.0464
vn -0.1407 -0.5613 0.8155
vn 0.2253 0.5269 -0.8195
vn 0.2257 -0.8270 -0.5149
vn -0.0398 -0.9961 -0.0786
vn 0.1458 0.5712 -0.8077
vn 0.1365 0.3191 0.9378
vn -0.6769 0.2905 -0.6763
vn -0.1593 0.3535 0.9218
vn 0.2002 -0.4460 -0.8724
vn -0.8119 0.5739 0.1071
vn 0.9470 0.3082 0.0908
vn 0.9396 0.3385 0.0507
vn 0.3441 0.2189 -0.9131
vn 0.0702 0.3427 0.9368
vn 0.8979 0.3414 -0.2780
vn -0.7197 0.4369 0.5396
vn -0.2921 -0.4334 0.8526
vn 0.1808 0.7344 0.6542
vn -0.7919 -0.6104 -0.0184
vn 0.3650 0.9302 -0.0392
vn -0.0375 -0.3216 -0.9461
vn -0.0224 0.2518 -0.9675
vn -0.1360 -0.3147 -0.9394
vn 0.0622 -0.2921 0.9544
vn 0.8936 0.3659 -0.2600
vn 0.1440 0.9649 -0.2194
vn 0.0166 0.1665 -0.9859
vn -0.6871 -0.1103 -0.7182
vn 0.1698 0.9020 -0.3969
vn 0.3417 0.3830 0.8582
vn -0.2036 -0.8992 -0.3873
vn -0.6540 0.3501 -0.6706
vn -0.1952 0.4570 0.8678
vn -0.8297 -0.5576 0.0247
vn -0.0610 0.2970 -0.9529
vn 0.4857 -0.3450 0.8032
vn 0.6584 -0.3204 0.6811
vn 0.5708 0.3098 0.7604
vn 0.4069 0.2678 -0.8733
vn 0.5970 -0.5274 -0.6045
vn -0.8211 -0.5689 -0.0463
vn -0.9037 -0.0283 0.4272
vn 0.8137 -0.5706 -0.1108
vn -0.7885 0.3824 0.4817
vn -0.0031 -1.0000 0.0024
vn -0.3786 0.0145 0.9254
vn 0.0816 -0.0440 0.9957
vn 0.0450 0.9603 0.2755
vn -0.1721 -0.4069 -0.8971
vn 0.0167 -0.9990 0.0413
vn 0.8366 -0.5274 0.1482
vn -0.0892 -0.1527 -0.9842
vn 0.3605 0.9093 -0.2078
vn -0.3674 -0.9063 0.2090
vn 0.7362 -0.5136 -0.4406
vn 0.0131 0.9781 -0.2079
vn 0.2454 0.9682 -0.0481
vn -0.3406 0.4929 -0.8007
vn 0.3129 -0.2994 -0.9014
vn -0.3623 -0.9311 0.0423
vn -0.0979 -0.8467 0.5230
vn -0.4900 0.3468 -0.7997
vn -0.3352 0.9350 0.1157
vn -0.6503 -0.6575 0.3807
vn 0.3996 -0.7875 0.4693
vn 0.3273 -0.9374 -0.1192
vn 0.5108 0.5199 0.6847
vn -0.7359 0.5201 0.4336
vn 0.6660 0.5985 -0.4452
vn 0.8935 -0.4476 -0.0355
vn 0.0688 0.3151 0.9466
vn -0.3358 -0.3809 -0.8615
vn -0.9972 -0.0687 0.0293
vn 0.8277 0.5608 -0.0201
vn -0.0620 0.5170 -0.8537
vn -0.6709 -0.5926 0.4457
vn 0.1190 -0.2113 0.9702
vn 0.1242 0.8418 0.5253
vn -0.8562 -0.5155 0.0336
vn -0.7550 -0.5657 0.3317
vn -0.1294 0.9841 0.1219
vn 0.5906 0.2585 0.7644
vn -0.0283 -0.0599 -0.9978
vn 0.1716 0.4191 0.8916
vn -0.0912 -0.8904 -0.4460
vn -0.7679 -0.5898 0.2499
vn 0.1268 -0.8944 0.4290
vn -0.1262 -0.8201 -0.5581
vn -0.5138 -0.5124 -0.6881
vn 0.3469 -0.4829 0.8041
vn 0.2942 0.4359 -0.8505
vn 0.8476 -0.5267 0.0648
vn -0.1686 -0.7061 -0.6878
vn 0.7448 -0.5925 -0.3069
vn 0.0623 -0.5048 0.8610
vn 0.7910 0.6117 0.0125
vn 0.7973 -0.4802 -0.3657
vn -0.9299 0.3443 0.1297
vn -0.5975 0.5282 0.6033
vn -0.1201 0.8982 -0.4228
vn 0.2853 -0.8623 -0.4183
vn -0.1777 -0.8920 0.4157
vn 0.0804 0.8983 0.4319
vn 0.1264 0.9422 0.3104
vn 0.3018 0.0359 -0.9527
vn 0.0664 0.9712 -0.2290
vn 0.7533 0.5676 -0.3324
vn -0.2630 0.3338 0.9052
vn -0.8371 0.5303 -0.1339
vn 0.1043 0.8616 -0.4968
vn -0.1079 0.9576 0.2670
vn -0.2505 -0.8750 0.4143
vn -0.8871 0.4079 0.2160
vn -0.0289 -0.9272 0.3734
vn 0.1405 0.8966 0.4200
vn -0.3967 -0.3956 0.8283
vn -0.6491 -0.3729 -0.6631
vn -0.2761 0.8666 0.4157
vn 0.0367 0.3244 0.9452
vn 0.9944 0.0855 0.0617
vn 0.6483 -0.0053 0.7613
g Bag_1_Bag_1_CollorMaterial
usemtl CollorMaterial
s off
f 44/1/1 56/2/1 63/3/1
f 98/4/2 58/5/2 62/6/2
f 44/1/3 3/7/3 56/2/3
f 98/4/4 5/8/4 58/5/4
f 64/9/5 63/3/5 54/10/5
f 102/11/6 138/12/6 137/13/6
f 136/14/7 135/15/7 101/16/7
f 67/17/8 66/18/8 57/19/8 60/20/8
f 61/21/9 58/5/9 5/8/9 100/22/9
f 60/20/10 59/23/10 65/24/10 67/17/10
f 64/9/11 44/1/11 63/3/11
f 104/25/12 103/26/12 139/27/12 140/28/12
f 102/11/13 104/25/13 140/28/13 138/12/13
f 55/29/14 61/21/14 100/22/14 99/30/14
f 59/23/15 56/2/15 3/7/15 65/24/15
f 99/30/16 64/9/16 54/10/16 55/29/16
f 62/6/17 57/19/17 66/18/17 98/4/17
f 103/26/18 136/14/18 101/16/18 139/27/18
f 95/31/19 89/32/19 126/33/19 132/34/19
f 46/35/20 12/36/20 17/37/20 51/38/20
f 2/39/21 22/40/21 6/41/21
f 4/42/22 25/43/22 26/44/22
f 2/39/23 21/45/23 22/40/23
f 64/46/24 74/47/24 73/48/24
f 52/49/25 62/50/25 58/51/25 38/52/25
f 64/46/26 99/53/26 74/47/26
f 101/54/27 110/55/27 111/56/27
f 127/57/28 90/58/28 96/59/28 133/60/28
f 6/41/29 43/61/29 2/39/29
f 101/54/30 111/56/30 139/62/30
f 124/63/31 121/64/31 131/65/31 134/66/31
f 16/67/32 9/68/32 29/69/32 30/70/32
f 19/71/33 39/72/33 35/73/33 8/74/33
f 76/75/34 70/76/34 66/77/34 67/78/34
f 115/79/35 116/80/35 126/33/35 125/81/35
f 51/38/36 47/82/36 13/83/36 18/84/36
f 47/82/37 52/49/37 38/52/37 13/83/37
f 31/85/38 11/86/38 17/37/38 32/87/38
f 33/88/39 42/89/39 39/72/39 19/71/39
f 51/38/40 17/37/40 11/86/40 47/82/40
f 53/90/41 49/91/41 8/74/41 35/73/41
f 96/59/42 90/58/42 80/92/42 86/93/42
f 110/55/43 120/94/43 121/64/43 111/56/43
f 69/95/44 3/96/44 44/97/44 68/98/44
f 109/99/45 119/100/45 118/101/45 108/102/45
f 93/103/46 83/104/46 84/105/46 94/106/46
f 29/69/47 40/107/47 41/108/47 31/85/47
f 94/106/48 84/105/48 87/109/48 97/110/48
f 86/93/49 85/111/49 95/31/49 96/59/49
f 47/82/50 11/86/50 37/112/50 52/49/50
f 41/108/51 40/107/51 59/113/51 60/114/51
f 30/70/52 29/69/52 31/85/52 32/87/52
f 30/70/53 20/115/53 10/116/53 16/67/53
f 107/117/54 117/118/54 123/119/54 113/120/54
f 119/100/55 124/63/55 134/66/55 129/121/55
f 96/59/56 95/31/56 132/34/56 133/60/56
f 9/68/57 36/122/57 40/107/57 29/69/57
f 102/123/58 107/117/58 113/120/58 104/124/58
f 92/125/59 82/126/59 81/127/59 91/128/59
f 123/119/60 133/60/60 132/34/60 122/129/60
f 95/31/61 85/111/61 79/130/61 89/32/61
f 24/131/62 25/43/62 4/42/62 14/132/62
f 13/83/63 38/52/63 42/89/63 33/88/63
f 41/108/64 37/112/64 11/86/64 31/85/64
f 93/103/65 88/133/65 78/134/65 83/104/65
f 2/39/66 43/61/66 48/135/66 10/116/66
f 48/135/67 7/136/67 15/137/67 50/138/67
f 89/32/68 79/130/68 78/134/68 88/133/68
f 49/91/69 50/138/69 15/137/69 8/74/69
f 6/41/70 45/139/70 1/140/70 43/61/70
f 28/141/71 15/137/71 7/136/71 27/142/71
f 27/142/72 24/131/72 34/143/72 28/141/72
f 42/89/73 38/52/73 58/51/73 61/144/73
f 76/75/74 67/78/74 65/145/74 75/146/74
f 45/139/75 4/42/75 26/44/75 1/140/75
f 72/147/76 5/148/76 98/149/76 71/150/76
f 21/45/77 20/115/77 23/151/77 22/40/77
f 108/102/78 118/101/78 117/118/78 107/117/78
f 80/92/79 81/127/79 71/150/79 70/76/79
f 70/76/80 71/150/80 98/149/80 66/77/80
f 60/114/81 57/152/81 37/112/81 41/108/81
f 52/49/82 37/112/82 57/152/82 62/50/82
f 138/153/83 140/154/83 114/155/83 109/99/83
f 23/151/84 12/36/84 6/41/84 22/40/84
f 72/147/85 71/150/85 81/127/85 82/126/85
f 86/93/86 76/75/86 75/146/86 85/111/86
f 116/80/87 122/129/87 132/34/87 126/33/87
f 106/156/88 116/80/88 115/79/88 105/157/88
f 125/81/89 88/133/89 93/103/89 130/158/89
f 134/66/90 97/110/90 92/125/90 129/121/90
f 69/95/91 68/98/91 78/134/91 79/130/91
f 136/159/92 103/160/92 112/161/92 106/156/92
f 137/162/93 108/102/93 107/117/93 102/123/93
f 135/163/94 105/157/94 110/55/94 101/54/94
f 14/132/95 4/42/95 45/139/95 46/35/95
f 19/71/96 28/141/96 34/143/96 33/88/96
f 97/110/97 87/109/97 82/126/97 92/125/97
f 10/116/98 48/135/98 50/138/98 16/67/98
f 118/101/99 119/100/99 129/121/99 128/164/99
f 139/62/100 111/56/100 114/155/100 140/154/100
f 73/48/101 68/98/101 44/97/101 64/46/101
f 26/44/102 25/43/102 24/131/102 27/142/102
f 114/155/103 111/56/103 121/64/103 124/63/103
f 125/81/104 126/33/104 89/32/104 88/133/104
f 90/58/105 91/128/105 81/127/105 80/92/105
f 53/90/106 63/165/106 56/166/106 36/122/106
f 18/84/107 13/83/107 33/88/107 34/143/107
f 20/115/108 30/70/108 32/87/108 23/151/108
f 113/120/109 112/161/109 103/160/109 104/124/109
f 87/109/110 77/167/110 72/147/110 82/126/110
f 43/61/111 1/140/111 7/136/111 48/135/111
f 69/95/112 79/130/112 85/111/112 75/146/112
f 84/105/113 74/47/113 77/167/113 87/109/113
f 75/146/114 65/145/114 3/96/114 69/95/114
f 77/167/115 100/168/115 5/148/115 72/147/115
f 117/118/116 127/57/116 133/60/116 123/119/116
f 128/164/117 129/121/117 92/125/117 91/128/117
f 84/105/118 83/104/118 73/48/118 74/47/118
f 128/164/119 91/128/119 90/58/119 127/57/119
f 99/53/120 100/168/120 77/167/120 74/47/120
f 135/163/121 136/159/121 106/156/121 105/157/121
f 45/139/122 6/41/122 12/36/122 46/35/122
f 16/67/123 50/138/123 49/91/123 9/68/123
f 115/79/124 125/81/124 130/158/124 120/94/124
f 122/129/125 116/80/125 106/156/125 112/161/125
f 83/104/126 78/134/126 68/98/126 73/48/126
f 86/93/127 80/92/127 70/76/127 76/75/127
f 109/99/128 114/155/128 124/63/128 119/100/128
f 39/72/129 42/89/129 61/144/129 55/169/129
f 32/87/130 17/37/130 12/36/130 23/151/130
f 40/107/131 36/122/131 56/166/131 59/113/131
f 118/101/132 128/164/132 127/57/132 117/118/132
f 28/141/133 19/71/133 8/74/133 15/137/133
f 137/162/134 138/153/134 109/99/134 108/102/134
f 112/161/135 113/120/135 123/119/135 122/129/135
f 63/165/136 53/90/136 35/73/136 54/170/136
f 131/65/137 130/158/137 93/103/137 94/106/137
f 9/68/138 49/91/138 53/90/138 36/122/138
f 94/106/139 97/110/139 134/66/139 131/65/139
f 39/72/140 55/169/140 54/170/140 35/73/140
f 27/142/141 7/136/141 1/140/141 26/44/141
f 20/115/142 21/45/142 2/39/142 10/116/142
f 105/157/143 115/79/143 120/94/143 110/55/143
f 130/158/144 131/65/144 121/64/144 120/94/144
f 18/84/145 14/132/145 46/35/145 51/38/145
f 24/131/146 14/132/146 18/84/146 34/143/146
