# Blender v3.0.0 OBJ File: 'Blender Medieval Village Megapack Low Poly .blend'
# www.blender.org
mtllib Bag_3.mtl
o Bag_3
v 0.042327 0.146601 -0.428229
v -0.010557 0.607628 -0.316193
v 0.237496 0.146571 -0.356532
v 0.149537 0.594862 -0.281786
v 0.372336 0.147331 -0.170067
v 0.270817 0.585252 -0.170091
v 0.405402 0.147029 0.039025
v 0.318949 0.581416 -0.012457
v 0.331739 0.158883 0.236276
v 0.282798 0.597414 0.148577
v 0.169593 0.147618 0.372849
v 0.171237 0.594599 0.269091
v -0.042140 0.146856 0.433759
v 0.014511 0.607887 0.317840
v -0.237293 0.146558 0.361568
v -0.145598 0.621256 0.281624
v -0.371976 0.147234 0.170299
v -0.266051 0.630879 0.169747
v -0.405565 0.147041 -0.038958
v -0.315827 0.634646 0.011969
v -0.330602 0.146925 -0.236049
v -0.277711 0.630500 -0.147726
v -0.169243 0.147656 -0.373000
v -0.167276 0.621376 -0.270598
v -0.014251 0.058486 -0.434535
v 0.205390 0.059000 -0.382632
v 0.366968 0.058578 -0.227809
v 0.433069 0.058492 -0.013930
v 0.381851 0.071236 0.204285
v 0.228251 0.057995 0.366392
v 0.014333 0.058437 0.434798
v -0.205586 0.059068 0.382773
v -0.366769 0.058619 0.227674
v -0.432996 0.058544 0.013976
v -0.381974 0.058543 -0.204395
v -0.228285 0.058101 -0.366594
v 0.028739 -0.008166 -0.355796
v 0.202785 -0.007828 -0.293760
v 0.322494 -0.007489 -0.153011
v 0.355691 -0.007152 0.028640
v 0.293918 0.000776 0.203017
v 0.152959 -0.007141 0.322371
v -0.028742 -0.007489 0.355794
v -0.202788 -0.007828 0.293758
v -0.322498 -0.008166 0.153010
v -0.355795 -0.008414 -0.028738
v -0.293757 -0.008504 -0.202785
v -0.153008 -0.008414 -0.322497
v 0.008776 0.809610 -0.030576
v 0.056075 0.807175 -0.028514
v 0.107285 0.821632 -0.019642
v 0.006199 0.798176 -0.031123
v -0.010736 0.798351 -0.017011
v -0.015516 0.797301 0.003023
v -0.007431 0.796020 0.023461
v 0.007861 0.795380 0.037807
v 0.028995 0.793894 0.042695
v 0.050187 0.794090 0.036210
v 0.066516 0.796036 0.021045
v 0.075471 0.794102 0.001873
v 0.073795 0.794328 -0.016384
v 0.054215 0.795913 -0.031300
v 0.028185 0.797377 -0.036985
v 0.048301 0.432237 -0.329460
v 0.219810 0.423529 -0.264762
v 0.331019 0.417051 -0.130113
v 0.354494 0.415157 0.051507
v 0.282890 0.429545 0.220622
v 0.135961 0.422975 0.330732
v -0.045645 0.431745 0.354947
v -0.235198 0.439877 0.278441
v -0.345050 0.445611 0.131136
v -0.366229 0.447549 -0.050009
v -0.277574 0.446060 -0.217211
v -0.129308 0.439044 -0.324226
v 0.023840 0.764681 -0.096384
v 0.075449 0.759738 -0.082932
v 0.114077 0.756514 -0.045537
v 0.122543 0.756856 0.004195
v 0.101200 0.769080 0.050430
v 0.065268 0.761249 0.086574
v 0.013067 0.765423 0.094547
v -0.034462 0.769236 0.078501
v -0.068302 0.771445 0.041612
v -0.081266 0.773166 -0.006118
v -0.066215 0.772926 -0.051285
v -0.026912 0.769627 -0.083928
v -0.076739 0.705574 -0.201787
v -0.162286 0.713524 -0.129329
v -0.199554 0.716876 -0.025207
v -0.181555 0.714823 0.082240
v -0.114961 0.708584 0.167425
v -0.015121 0.699013 0.210218
v 0.094347 0.688474 0.197915
v 0.183665 0.693367 0.129820
v 0.229009 0.676910 0.025408
v 0.213691 0.679298 -0.089085
v 0.142099 0.685881 -0.179635
v 0.035142 0.695602 -0.220932
v 0.105964 0.821700 0.007930
v 0.083368 0.824119 0.034044
v 0.048344 0.806165 0.035709
v 0.025927 0.826483 0.070099
v -0.004158 0.825707 0.060565
v -0.008100 0.810242 -0.018384
v -0.039254 0.827715 -0.001303
v -0.005253 0.807638 0.022722
v 0.029969 0.808786 -0.035310
v 0.032427 0.908145 -0.065301
v 0.096367 0.904763 -0.048605
v 0.144465 0.900317 -0.010847
v 0.136579 0.901670 0.030177
v 0.124402 0.902798 0.071635
v 0.074581 0.899052 0.102101
v 0.008414 0.901255 0.109990
v -0.054463 0.904212 0.093997
v -0.094532 0.906574 0.058837
v -0.105290 0.909144 0.013486
v -0.082429 0.910509 -0.028765
v -0.031576 0.910054 -0.057066
v -0.006597 0.863790 -0.061730
v -0.038096 0.864013 -0.039204
v -0.049299 0.861499 -0.003888
v -0.036946 0.858738 0.034584
v -0.011866 0.858258 0.062836
v 0.022500 0.858153 0.073966
v 0.061281 0.857188 0.066385
v 0.094613 0.857499 0.042035
v 0.120417 0.856199 0.011227
v 0.126269 0.855540 -0.019167
v 0.086745 0.858680 -0.051988
v 0.034196 0.862281 -0.068255
v 0.033773 0.810736 -0.037881
v 0.062326 0.810745 -0.029245
v 0.082783 0.810518 -0.012122
v 0.081869 0.810688 0.005950
v 0.067020 0.810804 0.022655
v 0.049878 0.810634 0.037062
v 0.030056 0.810757 0.041783
v 0.012607 0.810698 0.036265
v -0.000871 0.810614 0.020944
v -0.008327 0.810659 -0.000231
v -0.003643 0.810736 -0.020287
v 0.011613 0.810791 -0.033621
v 0.032916 0.908286 -0.073580
v 0.100253 0.904323 -0.055889
v 0.152030 0.897896 -0.013014
v 0.143255 0.897483 0.032792
v 0.129278 0.897620 0.075882
v 0.076797 0.893469 0.107829
v 0.007697 0.895635 0.116057
v -0.057589 0.898087 0.098631
v -0.099227 0.900113 0.061148
v -0.110934 0.903102 0.012880
v -0.087887 0.906177 -0.033006
v -0.034771 0.908612 -0.064451
v -0.009173 0.861711 -0.069026
v -0.043527 0.859802 -0.044331
v -0.055171 0.855748 -0.004700
v -0.042068 0.852715 0.037235
v -0.015150 0.852701 0.068105
v 0.022141 0.852960 0.080853
v 0.063802 0.852152 0.072084
v 0.099216 0.852451 0.046537
v 0.126773 0.851385 0.013741
v 0.133054 0.851605 -0.022182
v 0.090366 0.856483 -0.059151
v 0.034687 0.860653 -0.076367
v 0.031968 0.827219 -0.059501
v 0.076007 0.824226 -0.046162
v -0.012978 0.808943 0.001895
v 0.009132 0.807348 0.037730
v 0.064308 0.807052 0.021394
v 0.056841 0.822939 0.056301
v 0.028553 0.806759 0.042735
v 0.075151 0.805727 -0.013202
v -0.026927 0.825611 0.034411
v 0.075570 0.805518 0.004086
v -0.031077 0.830675 -0.035965
v -0.002445 0.828412 -0.053212
v 0.180570 0.284808 -0.347317
v 0.328307 0.281879 -0.203900
v 0.386621 0.281004 -0.012612
v 0.341513 0.294260 0.182294
v 0.205460 0.285381 0.328325
v 0.015618 0.289291 0.402613
v -0.189419 0.292935 0.356660
v -0.336515 0.296034 0.204160
v -0.394984 0.297465 0.012575
v -0.339652 0.296425 -0.180715
v -0.203133 0.293627 -0.327241
v -0.015130 0.289341 -0.386341
vt 0.061601 0.500000
vt 0.061601 0.500000
vt 0.061601 0.500000
vt 0.061601 0.500000
vt 0.061601 0.500000
vt 0.061601 0.500000
vt 0.061601 0.500000
vt 0.061601 0.500000
vt 0.061601 0.500000
vt 0.061601 0.500000
vt 0.061601 0.500000
vt 0.061601 0.500000
vt 0.061601 0.500000
vt 0.061601 0.500000
vt 0.061601 0.500000
vt 0.061601 0.500000
vt 0.061601 0.500000
vt 0.061601 0.500000
vt 0.061601 0.500000
vt 0.061601 0.500000
vt 0.061601 0.500000
vt 0.061601 0.500000
vt 0.061601 0.500000
vt 0.061601 0.500000
vt 0.930411 0.800215
vt 0.930411 0.800215
vt 0.930411 0.800215
vt 0.930411 0.800215
vt 0.930411 0.800215
vt 0.930411 0.800215
vt 0.930411 0.800215
vt 0.930411 0.800215
vt 0.930411 0.800215
vt 0.930411 0.800215
vt 0.930411 0.800215
vt 0.930411 0.800215
vt 0.930411 0.800215
vt 0.930411 0.800215
vt 0.930411 0.800215
vt 0.930411 0.800215
vt 0.930411 0.800215
vt 0.930411 0.800215
vt 0.930411 0.800215
vt 0.930411 0.800215
vt 0.930411 0.800215
vt 0.930411 0.800215
vt 0.930411 0.800215
vt 0.930411 0.800215
vt 0.930411 0.800215
vt 0.930411 0.800215
vt 0.930411 0.800215
vt 0.930411 0.800215
vt 0.930411 0.800215
vt 0.930411 0.800215
vt 0.930411 0.800215
vt 0.930411 0.800215
vt 0.930411 0.800215
vt 0.930411 0.800215
vt 0.930411 0.800215
vt 0.930411 0.800215
vt 0.930411 0.800215
vt 0.930411 0.800215
vt 0.930411 0.800215
vt 0.930411 0.800215
vt 0.930411 0.800215
vt 0.930411 0.800215
vt 0.930411 0.800215
vt 0.930411 0.800215
vt 0.930411 0.800215
vt 0.930411 0.800215
vt 0.930411 0.800215
vt 0.930411 0.800215
vt 0.930411 0.800215
vt 0.930411 0.800215
vt 0.930411 0.800215
vt 0.930411 0.800215
vt 0.930411 0.800215
vt 0.930411 0.800215
vt 0.930411 0.800215
vt 0.930411 0.800215
vt 0.930411 0.800215
vt 0.930411 0.800215
vt 0.930411 0.800215
vt 0.930411 0.800215
vt 0.930411 0.800215
vt 0.930411 0.800215
vt 0.930411 0.800215
vt 0.930411 0.800215
vt 0.930411 0.800215
vt 0.930411 0.800215
vt 0.930411 0.800215
vt 0.930411 0.800215
vt 0.930411 0.800215
vt 0.930411 0.800215
vt 0.930411 0.800215
vt 0.930411 0.800215
vt 0.930411 0.800215
vt 0.930411 0.800215
vt 0.930411 0.800215
vt 0.930411 0.800215
vt 0.930411 0.800215
vt 0.930411 0.800215
vt 0.930411 0.800215
vt 0.930411 0.800215
vt 0.930411 0.800215
vt 0.930411 0.800215
vt 0.930411 0.800215
vt 0.930411 0.800215
vt 0.930411 0.800215
vt 0.930411 0.800215
vt 0.930411 0.800215
vt 0.930411 0.800215
vt 0.930411 0.800215
vt 0.930411 0.800215
vt 0.930411 0.800215
vt 0.930411 0.800215
vt 0.930411 0.800215
vt 0.930411 0.800215
vt 0.930411 0.800215
vt 0.930411 0.800215
vt 0.930411 0.800215
vt 0.930411 0.800215
vt 0.930411 0.800215
vt 0.930411 0.800215
vt 0.930411 0.800215
vt 0.930411 0.800215
vt 0.930411 0.800215
vt 0.930411 0.800215
vt 0.930411 0.800215
vt 0.930411 0.800215
vt 0.930411 0.800215
vt 0.930411 0.800215
vt 0.930411 0.800215
vt 0.930411 0.800215
vt 0.930411 0.800215
vt 0.930411 0.800215
vt 0.930411 0.800215
vt 0.930411 0.800215
vt 0.930411 0.800215
vt 0.930411 0.800215
vt 0.930411 0.800215
vt 0.930411 0.800215
vt 0.930411 0.800215
vt 0.930411 0.800215
vt 0.930411 0.800215
vt 0.930411 0.800215
vt 0.930411 0.800215
vt 0.930411 0.800215
vt 0.930411 0.800215
vt 0.930411 0.800215
vt 0.930411 0.800215
vt 0.930411 0.800215
vt 0.930411 0.800215
vt 0.930411 0.800215
vt 0.930411 0.800215
vt 0.930411 0.800215
vt 0.930411 0.800215
vt 0.930411 0.800215
vt 0.930411 0.800215
vt 0.930411 0.800215
vt 0.930411 0.800215
vt 0.930411 0.800215
vt 0.930411 0.800215
vt 0.930411 0.800215
vt 0.930411 0.800215
vt 0.930411 0.800215
vt 0.930411 0.800215
vt 0.930411 0.800215
vt 0.930411 0.800215
vt 0.930411 0.800215
vt 0.930411 0.800215
vt 0.930411 0.800215
vt 0.930411 0.800215
vt 0.930411 0.800215
vt 0.930411 0.800215
vt 0.930411 0.800215
vt 0.930411 0.800215
vt 0.930411 0.800215
vt 0.930411 0.800215
vt 0.930411 0.800215
vt 0.930411 0.800215
vt 0.930411 0.800215
vt 0.930411 0.800215
vt 0.930411 0.800215
vt 0.930411 0.800215
vt 0.930411 0.800215
vt 0.930411 0.800215
vt 0.930411 0.800215
vt 0.930411 0.800215
vt 0.930411 0.800215
vt 0.930411 0.800215
vt 0.930411 0.800215
vt 0.930411 0.800215
vt 0.930411 0.800215
vt 0.930411 0.800215
vt 0.930411 0.800215
vt 0.930411 0.800215
vt 0.930411 0.800215
vt 0.930411 0.800215
vt 0.930411 0.800215
vt 0.930411 0.800215
vt 0.930411 0.800215
vt 0.930411 0.800215
vt 0.930411 0.800215
vt 0.930411 0.800215
vt 0.930411 0.800215
vt 0.930411 0.800215
vt 0.930411 0.800215
vt 0.930411 0.800215
vt 0.930411 0.800215
vt 0.930411 0.800215
vt 0.930411 0.800215
vt 0.930411 0.800215
vt 0.930411 0.800215
vt 0.930411 0.800215
vt 0.930411 0.800215
vt 0.486552 0.933098
vt 0.486552 0.933098
vt 0.486552 0.933098
vt 0.486552 0.933098
vt 0.486552 0.933098
vt 0.486552 0.933098
vt 0.486552 0.933098
vt 0.486552 0.933098
vt 0.486552 0.933098
vt 0.486552 0.933098
vt 0.486552 0.933098
vt 0.486552 0.933098
vn 0.8754 0.0272 0.4826
vn 0.6174 0.1173 -0.7778
vn -0.6088 0.1082 -0.7859
vn 0.2386 0.1504 -0.9594
vn -0.9577 0.1873 -0.2185
vn -0.9078 0.2130 0.3612
vn -0.2312 0.1378 -0.9631
vn 0.6634 0.1213 0.7383
vn 0.9970 -0.0495 -0.0594
vn -0.6956 0.1262 0.7073
vn -0.2365 0.0094 0.9716
vn 0.3132 0.0462 0.9486
vn 0.7106 0.1559 0.6861
vn -0.3002 0.1303 -0.9449
vn 0.3023 0.1298 0.9444
vn 0.5676 0.2267 0.7915
vn -0.5599 -0.2279 -0.7966
vn 0.0016 -1.0000 0.0013
vn 0.0014 -1.0000 0.0014
vn 0.0008 -1.0000 0.0017
vn 0.1334 -0.9868 0.0921
vn 0.0019 -1.0000 0.0000
vn 0.0019 -1.0000 0.0008
vn 0.0018 -1.0000 0.0010
vn 0.0017 -1.0000 0.0011
vn 0.4713 0.2602 0.8427
vn -0.4834 -0.2581 -0.8365
vn -0.2875 0.2251 -0.9310
vn 0.3606 0.2005 0.9109
vn 0.7076 0.2171 0.6725
vn -0.1400 0.1453 -0.9794
vn 0.1751 0.9809 -0.0846
vn -0.6937 -0.6378 -0.3346
vn -0.6469 0.1814 -0.7407
vn -0.1207 0.7737 0.6219
vn -0.2747 0.2174 0.9366
vn 0.2649 0.2759 -0.9239
vn -0.6814 0.1463 -0.7171
vn 0.7420 0.2174 -0.6342
vn 0.2664 0.3479 -0.8989
vn 0.1866 -0.7461 -0.6391
vn -0.6645 0.2627 -0.6996
vn -0.6460 -0.7404 -0.1859
vn -0.9408 0.2562 0.2219
vn -0.7539 0.1294 0.6441
vn 0.9361 0.2071 0.2844
vn 0.7464 0.1497 -0.6484
vn 0.9412 0.2560 -0.2204
vn 0.9233 0.2819 0.2608
vn -0.1662 -0.4417 -0.8816
vn 0.6481 -0.7441 -0.1622
vn 0.1647 -0.7500 0.6406
vn -0.6536 -0.7386 0.1651
vn -0.9019 0.2473 -0.3540
vn -0.1645 -0.7438 -0.6479
vn -0.9169 0.1564 -0.3673
vn 0.7226 0.1650 -0.6712
vn 0.6248 0.1894 0.7574
vn -0.4869 -0.7399 0.4642
vn 0.4858 -0.7417 -0.4625
vn -0.5804 0.7923 -0.1883
vn -0.2333 0.5027 0.8324
vn -0.5827 -0.7971 0.1586
vn -0.1128 0.8698 0.4803
vn -0.5590 -0.8058 -0.1953
vn 0.5993 0.7968 -0.0769
vn -0.5043 0.5749 0.6444
vn -0.4277 0.8975 0.1072
vn 0.3049 0.8297 0.4676
vn 0.1745 -0.7937 0.5827
vn -0.4175 0.7677 -0.4860
vn -0.2246 0.9140 -0.3380
vn 0.2448 -0.4284 0.8698
vn -0.0758 0.8789 0.4710
vn 0.5956 0.7954 0.1122
vn 0.4899 -0.7424 0.4569
vn -0.9652 0.1591 0.2077
vn -0.2750 0.2962 0.9147
vn -0.9197 0.2763 -0.2790
vn -0.6454 0.2141 -0.7332
vn 0.2854 0.0326 -0.9579
vn 0.2554 0.2693 0.9286
vn -0.1587 0.2727 -0.9489
vn 0.9552 0.2108 -0.2079
vn -0.7425 0.1914 0.6420
vn -0.2866 -0.0226 0.9578
vn 0.7103 0.2637 -0.6526
vn -0.0928 0.6418 -0.7612
vn -0.1471 -0.7881 -0.5977
vn -0.1545 0.6926 0.7046
vn 0.0567 0.9984 -0.0032
vn 0.4245 -0.7864 0.4487
vn -0.3477 0.9329 -0.0942
vn 0.5618 0.8114 0.1616
vn 0.4626 0.8206 -0.3356
vn -0.0477 0.8834 -0.4663
vn -0.4674 -0.7633 0.4460
vn -0.9419 0.1170 -0.3147
vn 0.9632 0.1555 -0.2194
vn 0.7310 0.6645 -0.1552
vn 0.2192 0.2104 0.9527
vn 0.0059 0.9965 -0.0838
vn 0.2736 0.1313 0.9528
vn 0.9500 0.1410 0.2787
vn -0.4036 0.7981 0.4473
vn -0.7633 0.1540 0.6274
vn 0.3141 -0.8314 -0.4584
vn -0.0997 0.7266 -0.6798
vn 0.2873 0.8437 0.4534
vn 0.2127 0.7396 0.6386
vn 0.1921 0.8468 -0.4960
vn 0.7824 -0.6159 0.0922
vn -0.6201 0.0895 0.7794
vn -0.6096 0.5814 -0.5389
vn -0.2467 0.1971 -0.9488
vn 0.0996 -0.6411 0.7610
vn 0.1043 0.7277 0.6779
vn -0.4321 0.6678 -0.6061
vn 0.6361 -0.0939 -0.7659
vn 0.4325 0.8044 -0.4073
vn 0.4300 -0.6697 0.6055
vn -0.5095 0.5560 -0.6567
vn -0.8397 -0.4720 -0.2686
vn -0.6767 -0.4400 0.5903
vn 0.3029 0.7476 0.5911
vn 0.7588 0.6031 0.2459
vn 0.5108 0.5467 0.6635
vn 0.6520 0.1968 0.7322
vn -0.1456 0.0349 -0.9887
vn 0.4162 -0.8171 0.3989
vn -0.5672 0.8073 0.1627
vn 0.1464 0.8478 0.5097
vn 0.1581 0.5024 0.8500
vn 0.2316 -0.4518 -0.8616
vn -0.3459 0.9266 0.1476
vn 0.6522 -0.7236 0.2258
vn -0.4436 -0.8037 0.3966
vn 0.2520 0.5692 -0.7826
vn 0.4568 -0.8896 0.0064
vn 0.1417 0.8442 0.5170
vn -0.2708 0.9112 0.3104
vn 0.6010 0.6015 -0.5263
vn -0.4989 -0.4420 -0.7455
vn 0.1380 -0.0418 0.9896
vn 0.2751 0.0375 -0.9607
vn -0.2852 -0.3799 0.8800
vn -0.1625 0.5451 -0.8225
vn -0.1623 -0.8102 0.5632
vn 0.5246 -0.5338 0.6632
vn -0.1848 -0.7489 0.6363
vn 0.2184 0.6725 -0.7071
vn 0.6317 0.7693 -0.0955
vn 0.1217 -0.7875 -0.6041
vn -0.3208 0.8895 0.3255
vn -0.2744 -0.0428 0.9607
vn -0.4095 0.8973 -0.1651
vn -0.2883 0.2094 0.9343
vn -0.4940 0.6348 0.5941
vn -0.7165 0.5744 -0.3959
vn -0.9710 0.0857 0.2233
vn 0.7582 0.6128 -0.2230
vn -0.8457 -0.4738 0.2456
vn -0.8988 0.3978 -0.1841
vn 0.2908 0.0980 -0.9518
vn -0.7380 0.6396 0.2151
vn 0.5902 0.8010 0.1000
vn -0.5918 0.7595 -0.2700
vn -0.2414 0.8919 -0.3823
vn 0.5297 -0.5106 -0.6773
vn -0.7153 0.2548 0.6507
vn 0.4769 0.6963 0.5364
vn 0.7134 -0.5757 0.3996
vn -0.1980 0.9286 -0.3138
vn 0.2501 0.6927 -0.6765
vn -0.9408 0.2725 0.2015
vn 0.9340 0.2156 0.2850
vn 0.6924 0.6386 0.3360
vn 0.4181 0.9057 0.0704
vn 0.6448 0.2213 0.7317
vn 0.9569 0.2123 -0.1984
vn 0.7117 0.6895 0.1342
vn 0.4676 0.7631 -0.4462
vn 0.0017 -1.0000 0.0012
vn 0.5616 0.6727 -0.4817
vn -0.0128 0.8773 -0.4798
vn 0.2396 0.8518 -0.4659
vn 0.6129 -0.5624 0.5551
vn -0.2223 -0.6713 0.7070
vn 0.9034 -0.3966 0.1633
vn -0.7373 0.6658 -0.1143
vn -0.3595 -0.8021 -0.4768
vn -0.4670 -0.7382 -0.4868
vn 0.6129 0.7811 -0.1193
vn -0.6130 -0.7815 0.1164
vn 0.0182 0.9998 -0.0085
vn -0.0004 1.0000 0.0037
vn -0.0019 1.0000 0.0028
vn -0.0023 1.0000 -0.0035
vn 0.0034 0.9999 -0.0119
vn 0.0059 1.0000 -0.0017
vn -0.0038 1.0000 0.0010
vn 0.0001 1.0000 0.0022
g Bag_3_Bag_3_CollorMaterial
usemtl CollorMaterial
s off
f 178/1/1 173/2/1 59/3/1 60/4/1
f 50/5/2 176/6/2 61/7/2 62/8/2
f 105/9/3 49/10/3 52/11/3 53/12/3
f 108/13/4 50/5/4 62/8/4 63/14/4
f 171/15/5 105/9/5 53/12/5 54/16/5
f 107/17/6 171/15/6 54/16/6 55/18/6
f 49/10/7 108/13/7 63/14/7 52/11/7
f 173/2/8 102/19/8 58/20/8 59/3/8
f 176/6/9 178/1/9 60/4/9 61/7/9
f 107/17/10 55/18/10 56/21/10 172/22/10
f 175/23/11 172/22/11 56/21/11 57/24/11
f 102/19/12 175/23/12 57/24/12 58/20/12
f 9/25/13 30/26/13 29/27/13
f 23/28/14 25/29/14 36/30/14
f 11/31/15 31/32/15 30/26/15
f 120/33/16 122/34/16 121/35/16
f 158/36/17 156/37/17 157/38/17
f 48/39/18 37/40/18 40/41/18
f 37/40/19 38/42/19 40/41/19
f 38/42/20 39/43/20 40/41/20
f 40/41/21 41/44/21 42/45/21
f 42/45/22 43/46/22 44/47/22
f 44/47/23 45/48/23 42/45/23
f 45/48/24 46/49/24 42/45/24
f 46/49/25 47/50/25 42/45/25
f 120/33/26 119/51/26 122/34/26
f 158/36/27 155/52/27 156/37/27
f 23/28/28 191/53/28 192/54/28
f 11/31/29 185/55/29 186/56/29
f 9/25/30 184/57/30 185/55/30
f 2/58/31 64/59/31 75/60/31 24/61/31
f 146/62/32 110/63/32 111/64/32 147/65/32
f 155/52/33 158/36/33 159/66/33 154/67/33
f 24/61/34 75/60/34 74/68/34 22/69/34
f 93/70/35 92/71/35 16/72/35 14/73/35
f 187/74/36 15/75/36 13/76/36 186/56/36
f 181/77/37 3/78/37 1/79/37 192/54/37
f 191/53/38 23/28/38 21/80/38 190/81/38
f 182/82/39 5/83/39 3/78/39 181/77/39
f 181/77/40 192/54/40 64/59/40 65/84/40
f 37/40/41 25/29/41 26/85/41 38/42/41
f 36/30/42 35/86/42 21/80/42 23/28/42
f 46/49/43 34/87/43 35/86/43 47/50/43
f 34/87/44 33/88/44 17/89/44 19/90/44
f 33/88/45 32/91/45 15/75/45 17/89/45
f 184/57/46 183/92/46 67/93/46 68/94/46
f 27/95/47 26/85/47 3/78/47 5/83/47
f 28/96/48 27/95/48 5/83/48 7/97/48
f 29/27/49 28/96/49 7/97/49 9/25/49
f 168/98/50 169/99/50 180/100/50 157/38/50
f 39/43/51 27/95/51 28/96/51 40/41/51
f 42/45/52 30/26/52 31/32/52 43/46/52
f 45/48/53 33/88/53 34/87/53 46/49/53
f 22/69/54 74/68/54 73/101/54 20/102/54
f 48/39/55 36/30/55 25/29/55 37/40/55
f 190/81/56 189/103/56 73/101/56 74/68/56
f 6/104/57 66/105/57 65/84/57 4/106/57
f 9/25/58 185/55/58 11/31/58 30/26/58
f 44/47/59 32/91/59 33/88/59 45/48/59
f 38/42/60 26/85/60 27/95/60 39/43/60
f 90/107/61 89/108/61 22/69/61 20/102/61
f 132/109/62 133/110/62 134/111/62 131/112/62
f 177/113/63 106/114/63 171/115/63 107/116/63
f 83/117/64 92/71/64 93/70/64 82/118/64
f 106/114/65 179/119/65 105/120/65 171/115/65
f 79/121/66 96/122/66 97/123/66 78/124/66
f 131/112/67 134/111/67 135/125/67 130/126/67
f 85/127/68 90/107/68 91/128/68 84/129/68
f 81/130/69 94/131/69 95/132/69 80/133/69
f 174/134/70 103/135/70 175/136/70 102/137/70
f 89/108/71 88/138/71 24/61/71 22/69/71
f 53/139/72 52/140/72 87/141/72 86/142/72
f 163/143/73 162/144/73 103/135/73 174/134/73
f 56/145/74 83/117/74 82/118/74 57/146/74
f 79/121/75 80/133/75 95/132/75 96/122/75
f 41/44/76 29/27/76 30/26/76 42/45/76
f 189/103/77 188/147/77 72/148/77 73/101/77
f 187/74/78 186/56/78 70/149/78 71/150/78
f 35/86/79 34/87/79 19/90/79 21/80/79
f 191/53/80 190/81/80 74/68/80 75/60/80
f 26/85/81 25/29/81 1/79/81 3/78/81
f 186/56/82 185/55/82 69/151/82 70/149/82
f 192/54/83 191/53/83 75/60/83 64/59/83
f 183/92/84 182/82/84 66/105/84 67/93/84
f 188/147/85 187/74/85 71/150/85 72/148/85
f 32/91/86 31/32/86 13/76/86 15/75/86
f 182/82/87 181/77/87 65/84/87 66/105/87
f 114/152/88 127/153/88 126/154/88 115/155/88
f 169/99/89 108/156/89 49/157/89 180/100/89
f 151/158/90 115/155/90 116/159/90 152/160/90
f 145/161/91 109/162/91 110/63/91 146/62/91
f 174/134/92 102/137/92 173/163/92 101/164/92
f 53/139/93 86/142/93 85/127/93 54/165/93
f 148/166/94 112/167/94 113/168/94 149/169/94
f 78/124/95 97/123/95 98/170/95 77/171/95
f 52/140/96 63/172/96 76/173/96 87/141/96
f 152/160/97 153/174/97 160/175/97 161/176/97
f 190/81/98 21/80/98 19/90/98 189/103/98
f 183/92/99 7/97/99 5/83/99 182/82/99
f 97/123/100 96/122/100 8/177/100 6/104/100
f 14/73/101 70/149/101 69/151/101 12/178/101
f 145/161/102 156/37/102 120/33/102 109/162/102
f 11/31/103 186/56/103 13/76/103 31/32/103
f 184/57/104 9/25/104 7/97/104 183/92/104
f 92/71/105 91/128/105 18/179/105 16/72/105
f 188/147/106 17/89/106 15/75/106 187/74/106
f 170/180/107 51/181/107 176/182/107 50/183/107
f 88/138/108 99/184/108 2/58/108 24/61/108
f 58/185/109 81/130/109 80/133/109 59/186/109
f 94/131/110 93/70/110 14/73/110 12/178/110
f 63/172/111 62/187/111 77/171/111 76/173/111
f 165/188/112 100/189/112 51/181/112 166/190/112
f 110/63/113 131/112/113 130/126/113 111/64/113
f 136/191/114 137/192/114 128/193/114 129/194/114
f 23/28/115 192/54/115 1/79/115 25/29/115
f 150/195/116 151/158/116 162/144/116 163/143/116
f 151/158/117 150/195/117 114/152/117 115/155/117
f 128/193/118 127/153/118 114/152/118 113/168/118
f 146/62/119 147/65/119 166/190/119 167/196/119
f 62/187/120 61/197/120 78/124/120 77/171/120
f 150/195/121 163/143/121 164/198/121 149/169/121
f 137/192/122 138/199/122 127/153/122 128/193/122
f 159/66/123 158/36/123 179/119/123 106/114/123
f 161/176/124 160/175/124 177/113/124 104/200/124
f 150/195/125 149/169/125 113/168/125 114/152/125
f 123/201/126 142/202/126 143/203/126 122/34/126
f 143/203/127 144/204/127 121/35/127 122/34/127
f 185/55/128 184/57/128 68/94/128 69/151/128
f 145/161/129 168/98/129 157/38/129 156/37/129
f 101/164/130 173/163/130 178/205/130 100/189/130
f 91/128/131 90/107/131 20/102/131 18/179/131
f 57/146/132 82/118/132 81/130/132 58/185/132
f 144/204/133 133/110/133 132/109/133 121/35/133
f 168/98/134 167/196/134 170/180/134 169/99/134
f 54/165/135 85/127/135 84/129/135 55/206/135
f 40/41/136 28/96/136 29/27/136 41/44/136
f 177/113/137 107/116/137 172/207/137 104/200/137
f 126/154/138 139/208/138 140/209/138 125/210/138
f 100/189/139 178/205/139 176/182/139 51/181/139
f 82/118/140 93/70/140 94/131/140 81/130/140
f 55/206/141 84/129/141 83/117/141 56/145/141
f 125/210/142 140/209/142 141/211/142 124/212/142
f 157/38/143 180/100/143 179/119/143 158/36/143
f 121/35/144 132/109/144 109/162/144 120/33/144
f 145/161/145 146/62/145 167/196/145 168/98/145
f 162/144/146 161/176/146 104/200/146 103/135/146
f 127/153/147 138/199/147 139/208/147 126/154/147
f 103/135/148 104/200/148 172/207/148 175/136/148
f 163/143/149 174/134/149 101/164/149 164/198/149
f 43/46/150 31/32/150 32/91/150 44/47/150
f 115/155/151 126/154/151 125/210/151 116/159/151
f 61/197/152 60/213/152 79/121/152 78/124/152
f 169/99/153 170/180/153 50/183/153 108/156/153
f 84/129/154 91/128/154 92/71/154 83/117/154
f 109/162/155 132/109/155 131/112/155 110/63/155
f 86/142/156 89/108/156 90/107/156 85/127/156
f 16/72/157 71/150/157 70/149/157 14/73/157
f 152/160/158 116/159/158 117/214/158 153/174/158
f 112/167/159 129/194/159 128/193/159 113/168/159
f 189/103/160 19/90/160 17/89/160 188/147/160
f 124/212/161 141/211/161 142/202/161 123/201/161
f 160/175/162 159/66/162 106/114/162 177/113/162
f 111/64/163 130/126/163 129/194/163 112/167/163
f 4/106/164 65/84/164 64/59/164 2/58/164
f 153/174/165 117/214/165 118/215/165 154/67/165
f 60/213/166 59/186/166 80/133/166 79/121/166
f 155/52/167 154/67/167 118/215/167 119/51/167
f 87/141/168 88/138/168 89/108/168 86/142/168
f 167/196/169 166/190/169 51/181/169 170/180/169
f 18/179/170 72/148/170 71/150/170 16/72/170
f 95/132/171 94/131/171 12/178/171 10/216/171
f 148/166/172 149/169/172 164/198/172 165/188/172
f 156/37/173 155/52/173 119/51/173 120/33/173
f 99/184/174 98/170/174 4/106/174 2/58/174
f 20/102/175 73/101/175 72/148/175 18/179/175
f 10/216/176 68/94/176 67/93/176 8/177/176
f 123/201/177 122/34/177 119/51/177 118/215/177
f 148/166/178 147/65/178 111/64/178 112/167/178
f 12/178/179 69/151/179 68/94/179 10/216/179
f 8/177/180 67/93/180 66/105/180 6/104/180
f 96/122/181 95/132/181 10/216/181 8/177/181
f 116/159/182 125/210/182 124/212/182 117/214/182
f 42/45/183 47/50/183 48/39/183 40/41/183
f 98/170/184 97/123/184 6/104/184 4/106/184
f 76/173/185 99/184/185 88/138/185 87/141/185
f 77/171/186 98/170/186 99/184/186 76/173/186
f 164/198/187 101/164/187 100/189/187 165/188/187
f 151/158/188 152/160/188 161/176/188 162/144/188
f 147/65/189 148/166/189 165/188/189 166/190/189
f 135/125/190 136/191/190 129/194/190 130/126/190
f 180/100/191 49/157/191 105/120/191 179/119/191
f 47/50/192 35/86/192 36/30/192 48/39/192
f 124/212/193 123/201/193 118/215/193 117/214/193
f 154/67/194 159/66/194 160/175/194 153/174/194
f 135/217/195 134/218/195 136/219/195
f 144/220/196 143/221/196 142/222/196
f 141/223/197 144/220/197 142/222/197
f 141/223/198 140/224/198 139/225/198
f 139/225/199 138/226/199 141/223/199
f 137/227/200 136/219/200 134/218/200
f 133/228/201 138/226/201 137/227/201 134/218/201
f 141/223/202 138/226/202 133/228/202 144/220/202
