# Blender v3.0.0 OBJ File: 'Blender Medieval Village Megapack Low Poly .blend'
# www.blender.org
mtllib Battle_Axe.mtl
o Battle_Axe
v 0.065751 0.705989 -0.012829
v 0.086246 0.706041 -0.018968
v 0.105830 0.706040 -0.012740
v 0.113932 0.706040 0.002116
v 0.066752 0.706037 0.016974
v 0.063473 0.617754 0.014568
v 0.069421 0.527012 0.013909
v 0.068562 0.440689 0.014990
v 0.042630 0.182671 0.014634
v 0.022193 0.088191 0.016508
v 0.067729 0.617783 -0.014560
v 0.067560 0.530056 -0.017227
v 0.068541 0.440685 -0.014902
v 0.042635 0.182670 -0.016076
v 0.022191 0.088180 -0.022008
v 0.072343 0.074319 -0.021961
v 0.083815 0.180823 -0.016006
v 0.107704 0.440692 -0.014856
v 0.107635 0.530019 -0.017140
v 0.104756 0.617769 -0.014857
v 0.085234 0.617772 0.020909
v 0.087991 0.530017 0.018972
v 0.088191 0.440689 0.020877
v 0.063403 0.181839 0.020943
v 0.047512 0.081316 0.024311
v 0.047465 0.081347 -0.029894
v 0.063399 0.181840 -0.022394
v 0.088051 0.530020 -0.023367
v 0.085232 0.617767 -0.020899
v 0.104750 0.617769 0.014837
v 0.107644 0.530019 0.012600
v 0.083816 0.180823 0.014554
v 0.072336 0.074315 0.016309
v 0.112858 0.617769 -0.000000
v 0.115738 0.530019 -0.002283
v 0.115824 0.440690 -0.000000
v 0.092202 0.180396 -0.000725
v 0.082671 0.071363 -0.002800
v 0.011030 0.090686 -0.002774
v 0.033714 0.182770 -0.000727
v 0.060501 0.440703 0.000024
v 0.062628 0.788786 0.000020
v 0.070517 0.788793 -0.014916
v 0.090173 0.788791 -0.020996
v 0.109726 0.788791 -0.014852
v 0.117829 0.788791 -0.000000
v 0.109726 0.788791 0.014852
v 0.090167 0.788791 0.021010
v 0.070565 0.788793 0.014879
v 0.067187 0.953760 0.000010
v 0.074990 0.953756 -0.014282
v 0.093798 0.953760 -0.020214
v 0.112694 0.953755 -0.014316
v 0.120181 0.953750 -0.000000
v 0.112697 0.953758 0.014323
v 0.093791 0.953763 0.020225
v 0.093793 0.953756 -0.000000
v -0.043474 0.024963 0.000000
v 0.064330 0.140519 0.023682
v -0.033275 0.018258 -0.022369
v 0.031297 0.143810 -0.000007
v -0.008671 0.002066 -0.031639
v 0.086882 0.137719 0.016701
v 0.015931 -0.014107 -0.022358
v 0.064352 0.140512 -0.023679
v 0.026116 -0.020804 -0.000000
v 0.096183 0.136525 0.000006
v 0.015931 -0.014109 0.022360
v 0.086882 0.137718 -0.016672
v -0.008672 0.002067 0.031639
v 0.041355 0.143096 -0.016789
v -0.033276 0.018259 0.022366
v 0.041355 0.143093 0.016755
v -0.008674 0.002074 -0.000000
v -0.043599 0.032781 -0.000095
v -0.032056 0.025356 -0.025390
v -0.004039 0.007243 -0.036010
v 0.024001 -0.010918 -0.025469
v 0.035626 -0.018446 -0.000079
v 0.024008 -0.010916 0.025339
v -0.004065 0.007267 0.035842
v -0.032059 0.025348 0.025172
v 0.066093 0.950803 -0.000008
v 0.074189 0.950806 -0.014857
v 0.093746 0.950804 -0.020999
v 0.113240 0.950804 -0.014842
v 0.121220 0.935164 -0.000000
v 0.113239 0.950804 0.014837
v 0.093749 0.950801 0.020988
v 0.073986 0.942109 0.014869
v 0.076031 0.440690 -0.017151
v 0.088147 0.453403 -0.021300
v 0.100272 0.440692 -0.017184
v 0.061662 0.529985 -0.002040
v 0.059862 0.706095 0.002360
v 0.080449 0.953756 0.010135
v 0.073574 0.953749 0.009043
v 0.081116 0.953750 0.015042
v 0.109772 0.706040 0.009744
v 0.106217 0.714263 0.016762
v 0.086274 0.706041 0.023101
v 0.105733 0.697809 0.016785
v 0.099204 0.440690 0.017472
v 0.106878 0.431834 0.014841
v 0.111966 0.440691 0.007046
v 0.040483 0.824945 -0.015984
v 0.040717 0.924743 -0.016027
v 0.140889 0.821565 -0.011705
v 0.194305 0.825608 -0.011702
v 0.194419 0.913391 -0.011541
v 0.264669 0.826014 -0.009529
v 0.255183 0.920456 -0.011957
v 0.232405 0.570518 -0.011414
v 0.318931 0.774507 -0.008188
v 0.266890 0.591641 -0.011569
v 0.333820 0.825472 -0.013368
v 0.356224 0.721930 -0.011442
v 0.303557 0.648735 -0.010854
v 0.194296 0.847800 -0.011487
v 0.140868 0.918071 -0.011674
v 0.325794 0.942447 -0.011702
v 0.073817 0.811340 -0.041750
v 0.073665 0.928937 -0.041707
v 0.106985 0.809866 -0.041767
v 0.107005 0.930018 -0.041755
v 0.233215 0.522604 -0.011049
v 0.405128 0.825644 -0.011480
v 0.386850 0.721859 -0.011077
v 0.349634 0.640195 -0.011282
v 0.285931 0.566864 -0.011308
v 0.397371 0.959097 -0.011180
v 0.040429 0.825956 0.016165
v 0.140846 0.821886 0.011916
v 0.140771 0.917889 0.000000
v 0.194290 0.825802 0.011684
v 0.194190 0.914632 -0.000276
v 0.232306 0.585391 -0.000009
v 0.194284 0.914220 0.010436
v 0.289189 0.773123 0.000025
v 0.302260 0.721925 -0.000009
v 0.254547 0.602048 -0.000009
v 0.283182 0.651718 -0.000009
v 0.264665 0.826023 0.009768
v 0.255418 0.926189 0.000517
v 0.318924 0.774517 0.008103
v 0.266890 0.591641 0.011551
v 0.333821 0.825466 0.013190
v 0.325428 0.943707 -0.000264
v 0.232405 0.570519 0.011397
v 0.326594 0.931034 0.011264
v 0.356224 0.721930 0.011405
v 0.303557 0.648735 0.010836
v 0.435731 0.824651 0.000008
v 0.233248 0.499145 -0.000009
v 0.412243 0.719477 -0.000013
v 0.371717 0.629720 -0.000009
v 0.297989 0.550605 -0.000009
v 0.228437 0.816703 -0.000009
v 0.041089 0.924821 0.014798
v 0.194297 0.847793 0.010845
v 0.140856 0.918212 0.011452
v 0.255166 0.927379 0.011205
v 0.428100 0.970188 -0.000033
v 0.074474 0.810771 0.039428
v 0.090106 0.808826 0.002899
v 0.107115 0.929878 0.040988
v 0.106844 0.809645 0.042876
v 0.386851 0.721859 0.011074
v 0.397393 0.959369 -0.000012
v 0.155515 0.546586 -0.000009
v 0.233215 0.522604 0.011032
v 0.397370 0.959132 0.011012
v 0.405121 0.825646 0.011562
v 0.349634 0.640195 0.011265
v 0.285931 0.566864 0.011291
v 0.090467 0.930091 0.002793
v 0.331321 0.944525 0.009593
v 0.325535 0.943410 0.003550
v 0.081937 0.929086 0.022451
v 0.070535 0.927770 0.039062
v 0.076569 0.930121 0.036965
v 0.080380 0.929186 0.041703
vt 0.784453 0.503800
vt 0.784453 0.503800
vt 0.784453 0.503800
vt 0.784453 0.503800
vt 0.784453 0.503800
vt 0.784453 0.503800
vt 0.784453 0.503800
vt 0.784453 0.503800
vt 0.784453 0.503800
vt 0.784453 0.503800
vt 0.784453 0.503800
vt 0.784453 0.503800
vt 0.784453 0.503800
vt 0.784453 0.503800
vt 0.784453 0.503800
vt 0.784453 0.503800
vt 0.784453 0.503800
vt 0.784453 0.503800
vt 0.784453 0.503800
vt 0.784453 0.503800
vt 0.784453 0.503800
vt 0.784453 0.503800
vt 0.784453 0.503800
vt 0.784453 0.503800
vt 0.784453 0.503800
vt 0.784453 0.503800
vt 0.784453 0.503800
vt 0.784453 0.503800
vt 0.784453 0.503800
vt 0.784453 0.503800
vt 0.784453 0.503800
vt 0.784453 0.503800
vt 0.784453 0.503800
vt 0.784453 0.503800
vt 0.784453 0.503800
vt 0.784453 0.503800
vt 0.784453 0.503800
vt 0.784453 0.503800
vt 0.784453 0.503800
vt 0.784453 0.503800
vt 0.784453 0.503800
vt 0.784453 0.503800
vt 0.784453 0.503800
vt 0.784453 0.503800
vt 0.784453 0.503800
vt 0.784453 0.503800
vt 0.784453 0.503800
vt 0.784453 0.503800
vt 0.784453 0.503800
vt 0.784453 0.503800
vt 0.784453 0.503800
vt 0.784453 0.503800
vt 0.784453 0.503800
vt 0.784453 0.503800
vt 0.784453 0.503800
vt 0.784453 0.503800
vt 0.784453 0.503800
vt 0.784453 0.503800
vt 0.784453 0.503800
vt 0.784453 0.503800
vt 0.784453 0.503800
vt 0.784453 0.503800
vt 0.784453 0.503800
vt 0.784453 0.503800
vt 0.784453 0.503800
vt 0.784453 0.503800
vt 0.784453 0.503800
vt 0.784453 0.503800
vt 0.784453 0.503800
vt 0.784453 0.503800
vt 0.784453 0.503800
vt 0.784453 0.503800
vt 0.784453 0.503800
vt 0.784453 0.503800
vt 0.784453 0.503800
vt 0.784453 0.503800
vt 0.784453 0.503800
vt 0.784453 0.503800
vt 0.784453 0.503800
vt 0.784453 0.503800
vt 0.784453 0.503800
vt 0.784453 0.503800
vt 0.784453 0.503800
vt 0.784453 0.503800
vt 0.784453 0.503800
vt 0.784453 0.503800
vt 0.784453 0.503800
vt 0.784453 0.503800
vt 0.784453 0.503800
vt 0.784453 0.503800
vt 0.784453 0.503800
vt 0.784453 0.503800
vt 0.784453 0.503800
vt 0.784453 0.503800
vt 0.784453 0.503800
vt 0.784453 0.503800
vt 0.784453 0.503800
vt 0.784453 0.503800
vt 0.784453 0.503800
vt 0.784453 0.503800
vt 0.784453 0.503800
vt 0.784453 0.503800
vt 0.784453 0.503800
vt 0.784453 0.503800
vt 0.784453 0.503800
vt 0.910877 0.255079
vt 0.910877 0.255079
vt 0.910877 0.255079
vt 0.910877 0.255079
vt 0.910877 0.255079
vt 0.910877 0.255079
vt 0.910877 0.255079
vt 0.910877 0.255079
vt 0.910877 0.255079
vt 0.910877 0.255079
vt 0.910877 0.255079
vt 0.910877 0.255079
vt 0.910877 0.255079
vt 0.910877 0.255079
vt 0.910877 0.255079
vt 0.910877 0.255079
vt 0.910877 0.255079
vt 0.910877 0.255079
vt 0.910877 0.255079
vt 0.910877 0.255079
vt 0.910877 0.255079
vt 0.910877 0.255079
vt 0.910877 0.255079
vt 0.910877 0.255079
vt 0.910877 0.255079
vt 0.910877 0.255079
vt 0.910877 0.255079
vt 0.910877 0.255079
vt 0.910877 0.255079
vt 0.910877 0.255079
vt 0.910877 0.255079
vt 0.910877 0.255079
vt 0.910877 0.255079
vt 0.910877 0.255079
vt 0.910877 0.255079
vt 0.910877 0.255079
vt 0.910877 0.255079
vt 0.910877 0.255079
vt 0.910877 0.255079
vt 0.910877 0.255079
vt 0.910877 0.255079
vt 0.910877 0.255079
vt 0.910877 0.255079
vt 0.910877 0.255079
vt 0.910877 0.255079
vt 0.910877 0.255079
vt 0.910877 0.255079
vt 0.910877 0.255079
vt 0.910877 0.255079
vt 0.910877 0.255079
vt 0.910877 0.255079
vt 0.910877 0.255079
vt 0.910877 0.255079
vt 0.910877 0.255079
vt 0.910877 0.255079
vt 0.910877 0.255079
vt 0.910877 0.255079
vt 0.910877 0.255079
vt 0.910877 0.255079
vt 0.910877 0.255079
vt 0.910877 0.255079
vt 0.910877 0.255079
vt 0.910877 0.255079
vt 0.910877 0.255079
vt 0.910877 0.255079
vt 0.910877 0.255079
vt 0.910877 0.255079
vt 0.910877 0.255079
vt 0.910877 0.255079
vt 0.910877 0.255079
vt 0.910877 0.255079
vt 0.910877 0.255079
vt 0.910877 0.255079
vt 0.910877 0.255079
vt 0.910877 0.255079
vt 0.910877 0.255079
vt 0.910877 0.255079
vn -0.5497 -0.8354 -0.0002
vn 0.4369 -0.4672 0.7686
vn -0.0013 -0.3091 -0.9510
vn 0.2988 -0.0239 -0.9540
vn -0.9020 -0.0622 0.4272
vn 0.6029 0.3031 0.7380
vn -0.5494 -0.8355 -0.0002
vn 0.8743 -0.0811 0.4786
vn -0.0001 1.0000 0.0002
vn -0.1414 0.4391 0.8872
vn 0.9008 0.0503 -0.4313
vn 0.8721 -0.0189 0.4889
vn 0.8722 -0.0189 -0.4888
vn -0.9043 0.0220 0.4264
vn -0.7844 0.2552 0.5653
vn 0.8612 0.2366 0.4499
vn -0.0015 1.0000 0.0014
vn -0.5497 -0.8354 0.0002
vn -0.5494 -0.8356 0.0002
vn 0.0002 1.0000 0.0002
vn -0.0013 0.0203 -0.9998
vn -0.8478 0.5175 0.1158
vn -0.3742 0.2157 0.9019
vn 0.4418 0.4480 0.7772
vn 0.8777 -0.0213 0.4787
vn 0.6326 -0.0175 0.7743
vn 0.2952 -0.0279 0.9550
vn -0.0014 1.0000 0.0023
vn -0.2874 -0.0383 -0.9570
vn 0.8776 -0.0291 0.4786
vn 0.8604 0.2394 -0.4499
vn 0.8777 -0.0203 0.4789
vn 0.8776 -0.0203 -0.4789
vn -0.7822 0.2860 0.5535
vn 0.9008 0.0503 0.4314
vn -0.3679 0.2369 0.8992
vn 0.0002 1.0000 -0.0000
vn -0.0000 1.0000 -0.0004
vn -0.6366 0.6174 0.4620
vn 0.3020 0.0693 0.9508
vn -0.0745 -0.5809 0.8105
vn 0.8743 0.0705 -0.4803
vn 0.8775 -0.0291 0.4787
vn -0.2976 0.0068 -0.9547
vn 0.8779 0.0165 0.4786
vn 0.2918 0.2255 0.9295
vn 0.8497 -0.1976 0.4889
vn -0.8810 0.0195 -0.4728
vn 0.8780 0.0129 0.4785
vn -0.8687 0.0905 -0.4870
vn 0.7718 -0.4184 -0.4788
vn 0.8739 -0.0781 -0.4798
vn 0.3006 -0.0247 -0.9534
vn -0.2849 0.0587 0.9568
vn 0.2235 -0.9016 0.3704
vn -0.2871 0.0248 -0.9576
vn 0.8736 0.0866 0.4789
vn -0.2891 0.0334 -0.9567
vn 0.2182 -0.9035 -0.3688
vn 0.3028 0.0118 -0.9530
vn -0.8337 0.3130 -0.4549
vn -0.8599 0.0404 -0.5089
vn -0.2768 0.0174 0.9608
vn 0.8776 -0.0223 0.4788
vn 0.2873 -0.0716 0.9552
vn -0.2565 0.1763 -0.9503
vn -0.2884 0.0278 0.9571
vn 0.7838 -0.3949 0.4794
vn -0.8004 0.3292 -0.5010
vn -0.2891 -0.0179 0.9571
vn -0.2911 -0.0085 -0.9567
vn -0.3119 0.0231 -0.9498
vn 0.8735 -0.0807 0.4801
vn 0.2915 0.2305 -0.9284
vn 0.3005 -0.0066 -0.9538
vn 0.3012 -0.0381 -0.9528
vn 0.3005 0.0363 -0.9531
vn 0.3013 -0.0662 0.9512
vn -0.8802 0.0193 0.4742
vn -0.8923 0.0475 0.4489
vn 0.2993 0.0183 -0.9540
vn 0.2992 0.0355 -0.9535
vn 0.3027 -0.0129 0.9530
vn -0.2745 0.0898 0.9574
vn -0.8151 0.2834 0.5052
vn -0.2903 0.2545 -0.9225
vn -0.5495 -0.8355 0.0000
vn 0.8772 0.0412 -0.4784
vn 0.3006 -0.0065 0.9537
vn 0.2963 -0.0282 0.9547
vn -0.1913 0.2864 0.9388
vn 0.8779 0.0008 -0.4788
vn -0.2985 0.0067 0.9544
vn 0.2976 -0.0270 0.9543
vn 0.2978 -0.0232 -0.9543
vn -0.3119 0.0180 -0.9499
vn 0.3037 0.0221 0.9525
vn -0.9089 0.0302 -0.4158
vn 0.8585 -0.1566 -0.4883
vn 0.2997 0.0102 0.9540
vn -0.8691 0.0878 0.4869
vn -0.8589 0.0588 0.5088
vn -0.9107 -0.0084 0.4131
vn -0.6555 0.5938 -0.4666
vn 0.2776 -0.1163 -0.9536
vn -0.4883 -0.2675 -0.8307
vn -0.4817 -0.2506 0.8397
vn -0.5494 -0.8355 -0.0000
vn -0.8893 0.0184 0.4569
vn -0.9739 -0.0440 -0.2229
vn 0.8776 -0.0115 -0.4792
vn -0.2190 0.2348 -0.9471
vn -0.9075 -0.0094 -0.4200
vn -0.2988 0.0380 0.9536
vn -0.9118 -0.0188 -0.4103
vn -0.0834 -0.5910 -0.8023
vn -0.2905 -0.0272 -0.9565
vn 0.0002 1.0000 -0.0001
vn -0.9741 0.0355 -0.2231
vn -0.2701 -0.0272 0.9624
vn 0.8766 -0.0535 -0.4782
vn 0.0197 -0.9778 -0.2088
vn -0.2549 -0.9669 0.0079
vn -0.3322 0.9429 -0.0224
vn -0.1834 -0.2565 -0.9490
vn -0.0493 0.0277 0.9984
vn -0.2517 -0.4124 -0.8755
vn -0.2934 0.5805 -0.7596
vn -0.0324 0.9994 -0.0137
vn -0.1132 0.9934 0.0170
vn -0.4522 0.1229 0.8834
vn -0.0489 0.0271 -0.9984
vn -0.0007 0.0097 -1.0000
vn -0.3480 -0.9322 -0.0993
vn 0.3262 0.0093 -0.9452
vn -0.0015 -0.0016 1.0000
vn -0.0444 -0.9982 -0.0400
vn 0.2829 -0.9311 -0.2301
vn -0.3322 0.9430 0.0196
vn -0.1882 -0.2616 0.9467
vn -0.0277 0.5271 0.8494
vn -0.2517 -0.4124 0.8755
vn -0.2934 0.5805 0.7596
vn -0.4192 0.8814 -0.2179
vn 0.2634 -0.9616 0.0771
vn 0.0015 0.0381 0.9993
vn -0.2627 -0.0664 -0.9626
vn -0.4522 0.1229 -0.8834
vn 0.3323 0.0359 0.9425
vn -0.2587 -0.0667 0.9637
vn -0.7120 0.3265 0.6216
vn 0.2231 0.9747 0.0130
vn -0.0523 0.9982 0.0283
vn -0.1051 0.9944 0.0066
vn -0.1601 -0.0516 0.9858
vn -0.1157 -0.4533 -0.8838
vn -0.0524 0.1408 0.9886
vn -0.1244 -0.4461 0.8863
vn -0.2710 0.9590 0.0825
vn -0.1609 -0.0532 -0.9855
vn -0.0260 0.9996 -0.0073
vn -0.1437 -0.0100 0.9896
vn -0.1437 -0.0100 -0.9896
vn 0.2470 -0.9689 0.0136
vn -0.6687 0.0974 -0.7371
vn -0.6674 0.0976 0.7383
vn -0.0010 -0.0019 -1.0000
vn -0.1129 -0.1507 0.9821
vn 0.0158 0.0088 -0.9998
vn 0.0677 0.9977 0.0035
vn -0.0248 0.0004 0.9997
vn 0.3426 0.0209 0.9392
vn -0.1175 0.0192 0.9929
vn -0.0010 0.0002 -1.0000
vn 0.0014 -0.0082 1.0000
vn 0.0110 0.0110 0.9999
vn 0.0101 -0.0149 -0.9998
vn 0.0184 0.0054 0.9998
vn -0.2612 0.9261 -0.2723
vn -0.1978 0.9795 -0.0371
vn -0.4588 0.2863 0.8411
vn -0.4588 0.2863 -0.8411
vn 0.3437 -0.3097 -0.8866
vn 0.0192 -0.0106 0.9998
vn 0.3686 -0.0754 -0.9265
vn 0.3698 -0.0762 0.9260
vn 0.6638 0.0002 -0.7479
vn 0.1481 -0.9881 -0.0418
vn -1.0000 0.0045 0.0050
vn 0.0002 0.0055 1.0000
vn -0.3535 0.5277 -0.7724
vn -0.2145 0.9762 0.0332
vn 0.0002 0.0055 -1.0000
vn -0.1441 0.9494 -0.2789
vn 0.0739 0.9963 -0.0450
vn 0.0033 -0.0001 -1.0000
vn -0.3535 0.5277 0.7724
vn -0.1183 -0.1502 -0.9815
vn -0.2355 0.9699 -0.0620
vn 0.0020 -0.0060 1.0000
vn -0.3258 -0.9441 0.0504
vn 0.3437 -0.3097 0.8866
vn 0.3810 -0.1717 -0.9085
vn -0.2187 0.9733 -0.0693
vn -0.1058 0.9944 0.0012
vn 0.2423 0.9666 -0.0838
vn 0.0221 -0.0108 -0.9997
vn 0.6660 0.0072 0.7459
vn 0.3161 -0.3902 0.8648
vn 0.0014 -0.0082 -1.0000
vn -0.0248 -0.0057 -0.9997
vn -0.6131 0.0002 -0.7900
vn 0.3433 0.0198 -0.9390
vn 0.2520 0.9647 0.0764
vn 0.3161 -0.3902 -0.8648
vn 0.3813 -0.1719 0.9083
vn -0.5447 0.0216 0.8383
vn 0.0743 -0.9972 0.0110
g Battle_Axe_Battle_Axe_CollorMaterial
usemtl CollorMaterial
s off
f 72/1/1 74/2/1 70/3/1
f 99/4/2 100/5/2 101/6/2
f 91/7/3 92/8/3 93/9/3
f 18/10/4 93/9/4 92/8/4
f 7/11/5 6/12/5 94/13/5
f 103/14/6 104/15/6 105/16/6
f 70/3/7 74/2/7 68/17/7
f 36/18/8 105/16/8 104/15/8
f 51/19/9 57/20/9 52/21/9
f 96/22/10 97/23/10 90/24/10
f 86/25/11 54/26/11 87/27/11
f 47/28/12 87/27/12 88/29/12
f 87/27/13 45/30/13 86/25/13
f 5/31/14 95/32/14 6/12/14
f 97/23/15 83/33/15 90/24/15
f 88/29/16 54/26/16 55/34/16
f 56/35/17 96/22/17 98/36/17
f 62/37/18 74/2/18 60/38/18
f 64/39/19 74/2/19 62/37/19
f 52/21/20 57/20/20 53/40/20
f 91/7/21 93/9/21 27/41/21
f 96/22/22 90/24/22 98/36/22
f 89/42/23 98/36/23 90/24/23
f 99/4/24 101/6/24 102/43/24
f 4/44/25 99/4/25 102/43/25
f 103/14/26 105/16/26 31/45/26
f 104/15/27 103/14/27 23/46/27
f 50/47/28 97/23/28 96/22/28
f 91/7/29 13/48/29 92/8/29
f 100/5/30 99/4/30 4/44/30
f 86/25/31 53/40/31 54/26/31
f 47/28/32 46/49/32 87/27/32
f 87/27/33 46/49/33 45/30/33
f 97/23/34 50/47/34 83/33/34
f 88/29/35 87/27/35 54/26/35
f 89/42/36 56/35/36 98/36/36
f 51/19/37 50/47/37 96/22/37 57/20/37
f 56/35/38 55/34/38 57/20/38 96/22/38
f 82/50/39 10/51/39 39/52/39 75/53/39
f 32/54/40 24/55/40 59/56/40 63/57/40
f 81/58/41 70/3/41 68/17/41 80/59/41
f 69/60/42 17/61/42 37/62/42 67/63/42
f 46/49/43 47/28/43 100/5/43 4/44/43
f 44/64/44 43/65/44 84/66/44 85/67/44
f 34/68/45 30/69/45 31/45/45 35/70/45
f 89/42/46 88/29/46 55/34/46 56/35/46
f 67/63/47 63/57/47 33/71/47 38/72/47
f 43/65/48 42/73/48 83/33/48 84/66/48
f 35/70/49 31/45/49 105/16/49 36/18/49
f 41/74/50 13/48/50 14/75/50 40/76/50
f 79/77/51 78/78/51 16/79/51 38/72/51
f 37/62/52 17/61/52 18/10/52 36/18/52
f 92/8/53 28/80/53 19/81/53 18/10/53
f 24/55/54 9/82/54 73/83/54 59/56/54
f 80/59/55 68/17/55 66/84/55 79/77/55
f 71/85/56 14/75/56 27/41/56 65/86/56
f 37/62/57 32/54/57 63/57/57 67/63/57
f 27/41/58 14/75/58 13/48/58 91/7/58
f 66/84/59 64/39/59 78/78/59 79/77/59
f 65/86/60 69/60/60 16/79/60 26/87/60
f 84/66/61 83/33/61 50/47/61 51/19/61
f 40/76/62 14/75/62 71/85/62 61/88/62
f 23/46/63 22/89/63 7/11/63 8/90/63
f 102/43/64 30/69/64 34/68/64 4/44/64
f 33/71/65 63/57/65 59/56/65 25/91/65
f 71/85/66 65/86/66 26/87/66 15/92/66
f 24/55/67 23/46/67 8/90/67 9/82/67
f 79/77/68 38/72/68 33/71/68 80/59/68
f 61/88/69 71/85/69 15/92/69 39/52/69
f 21/93/70 101/6/70 5/31/70 6/12/70
f 2/94/71 1/95/71 43/65/71 44/64/71
f 12/96/72 11/97/72 29/98/72 28/80/72
f 104/15/73 32/54/73 37/62/73 36/18/73
f 85/67/74 52/21/74 53/40/74 86/25/74
f 45/30/75 44/64/75 85/67/75 86/25/75
f 3/99/76 2/94/76 44/64/76 45/30/76
f 17/61/77 69/60/77 65/86/77 27/41/77
f 80/59/78 33/71/78 25/91/78 81/58/78
f 42/73/79 49/100/79 90/24/79 83/33/79
f 95/32/80 5/31/80 49/100/80 42/73/80
f 2/94/81 3/99/81 20/101/81 29/98/81
f 20/101/82 19/81/82 28/80/82 29/98/82
f 30/69/83 21/93/83 22/89/83 31/45/83
f 25/91/84 59/56/84 73/83/84 10/51/84
f 10/51/85 73/83/85 61/88/85 39/52/85
f 85/67/86 84/66/86 51/19/86 52/21/86
f 58/102/87 60/38/87 74/2/87 72/1/87
f 20/101/88 34/68/88 35/70/88 19/81/88
f 89/42/89 48/103/89 47/28/89 88/29/89
f 24/55/90 32/54/90 104/15/90 23/46/90
f 81/58/91 25/91/91 10/51/91 82/50/91
f 3/99/92 4/44/92 34/68/92 20/101/92
f 90/24/93 49/100/93 48/103/93 89/42/93
f 102/43/94 101/6/94 21/93/94 30/69/94
f 17/61/95 27/41/95 93/9/95 18/10/95
f 2/94/96 29/98/96 11/97/96 1/95/96
f 103/14/97 31/45/97 22/89/97 23/46/97
f 1/95/98 95/32/98 42/73/98 43/65/98
f 69/60/99 67/63/99 38/72/99 16/79/99
f 48/103/100 101/6/100 100/5/100 47/28/100
f 9/82/101 8/90/101 41/74/101 40/76/101
f 9/82/102 40/76/102 61/88/102 73/83/102
f 58/102/103 72/1/103 82/50/103 75/53/103
f 39/52/104 15/92/104 76/104/104 75/53/104
f 26/87/105 16/79/105 78/78/105 77/105/105
f 62/37/106 60/38/106 76/104/106 77/105/106
f 82/50/107 72/1/107 70/3/107 81/58/107
f 74/2/108 64/39/108 66/84/108 68/17/108
f 7/11/109 94/13/109 41/74/109 8/90/109
f 95/32/110 1/95/110 11/97/110 6/12/110
f 18/10/111 19/81/111 35/70/111 36/18/111
f 15/92/112 26/87/112 77/105/112 76/104/112
f 94/13/113 12/96/113 13/48/113 41/74/113
f 49/100/114 5/31/114 101/6/114 48/103/114
f 76/104/115 60/38/115 58/102/115 75/53/115
f 64/39/116 62/37/116 77/105/116 78/78/116
f 92/8/117 13/48/117 12/96/117 28/80/117
f 57/20/118 55/34/118 54/26/118 53/40/118
f 11/97/119 12/96/119 94/13/119 6/12/119
f 22/89/120 21/93/120 6/12/120 7/11/120
f 4/44/121 3/99/121 45/30/121 46/49/121
g Battle_Axe_Battle_Axe_Metal1
usemtl Metal1
f 166/106/122 182/107/122 181/108/122
f 135/109/123 109/110/123 158/111/123
f 131/112/124 169/113/124 163/114/124
f 111/115/125 139/116/125 158/111/125
f 152/117/126 151/118/126 145/119/126
f 170/120/127 126/121/127 154/122/127
f 170/120/128 137/123/128 113/124/128
f 176/125/129 125/126/129 123/127/129
f 176/125/130 123/127/130 107/128/130
f 152/117/131 140/129/131 142/130/131
f 117/131/132 118/132/132 114/133/132
f 108/134/133 119/135/133 109/110/133
f 165/136/134 164/137/134 132/138/134
f 119/135/135 158/111/135 109/110/135
f 151/118/136 152/117/136 174/139/136 168/140/136
f 165/136/137 122/141/137 124/142/137
f 181/108/138 180/143/138 159/144/138
f 169/113/139 172/145/139 163/114/139
f 139/116/140 143/146/140 158/111/140
f 178/147/141 162/148/141 150/149/141
f 170/120/142 154/122/142 171/150/142
f 137/123/143 170/120/143 149/151/143
f 179/152/144 180/143/144 181/108/144
f 108/134/145 165/136/145 124/142/145
f 160/153/146 133/154/146 135/109/146
f 114/133/147 140/129/147 139/116/147
f 140/129/148 118/132/148 142/130/148
f 158/111/149 160/153/149 135/109/149
f 140/129/150 145/119/150 139/116/150
f 178/147/151 150/149/151 177/155/151
f 179/152/152 181/108/152 182/107/152
f 179/152/153 166/106/153 176/125/153
f 159/144/154 180/143/154 179/152/154
f 145/119/155 151/118/155 147/156/155
f 119/135/156 111/115/156 158/111/156
f 172/145/157 177/155/157 150/149/157
f 158/111/158 143/146/158 160/153/158
f 148/157/159 178/147/159 177/155/159
f 116/158/160 117/131/160 114/133/160
f 179/152/161 182/107/161 166/106/161
f 170/120/162 171/150/162 149/151/162
f 170/120/163 113/124/163 126/121/163
f 108/134/164 133/154/164 165/136/164
f 114/133/165 118/132/165 140/129/165
f 140/129/166 152/117/166 145/119/166
f 129/159/167 118/132/167 117/131/167 128/160/167
f 139/116/168 145/119/168 147/156/168 143/146/168
f 121/161/169 131/112/169 127/162/169 116/158/169
f 138/163/170 136/164/170 134/165/170 161/166/170
f 143/146/171 147/156/171 150/149/171 162/148/171
f 153/167/172 163/114/172 172/145/172 173/168/172
f 164/137/173 167/169/173 166/106/173 181/108/173
f 122/141/174 123/127/174 125/126/174 124/142/174
f 149/151/175 171/150/175 175/170/175 146/171/175
f 173/168/176 172/145/176 150/149/176 147/156/176
f 119/135/177 110/172/177 112/173/177 111/115/177
f 161/166/178 133/154/178 160/153/178 138/163/178
f 144/174/179 148/157/179 121/161/179 112/173/179
f 138/163/180 162/148/180 144/174/180 136/164/180
f 146/171/181 152/117/181 142/130/181 141/175/181
f 115/176/182 141/175/182 142/130/182 118/132/182
f 129/159/183 156/177/183 157/178/183 130/179/183
f 173/168/184 147/156/184 151/118/184 168/140/184
f 127/162/185 153/167/185 155/180/185 128/160/185
f 155/180/186 153/167/186 173/168/186 168/140/186
f 120/181/187 108/134/187 124/142/187 125/126/187
f 167/169/188 164/137/188 165/136/188 133/154/188
f 107/128/189 106/182/189 132/138/189 159/144/189
f 175/170/190 174/139/190 152/117/190 146/171/190
f 115/176/191 113/124/191 137/123/191 141/175/191
f 177/155/192 172/145/192 169/113/192 148/157/192
f 130/179/193 115/176/193 118/132/193 129/159/193
f 136/164/194 144/174/194 112/173/194 110/172/194
f 136/164/195 110/172/195 120/181/195 134/165/195
f 120/181/196 110/172/196 119/135/196 108/134/196
f 146/171/197 141/175/197 137/123/197 149/151/197
f 139/116/198 111/115/198 116/158/198 114/133/198
f 178/147/199 148/157/199 144/174/199 162/148/199
f 162/148/200 138/163/200 160/153/200 143/146/200
f 106/182/201 122/141/201 165/136/201 132/138/201
f 157/178/202 156/177/202 174/139/202 175/170/202
f 128/160/203 155/180/203 156/177/203 129/159/203
f 148/157/204 169/113/204 131/112/204 121/161/204
f 159/144/205 179/152/205 176/125/205 107/128/205
f 161/166/206 134/165/206 176/125/206 166/106/206
f 127/162/207 128/160/207 117/131/207 116/158/207
f 166/106/208 167/169/208 133/154/208 161/166/208
f 157/178/209 175/170/209 171/150/209 154/122/209
f 130/179/210 126/121/210 113/124/210 115/176/210
f 112/173/211 121/161/211 116/158/211 111/115/211
f 106/182/212 107/128/212 123/127/212 122/141/212
f 131/112/213 163/114/213 153/167/213 127/162/213
f 120/181/214 125/126/214 176/125/214 134/165/214
f 157/178/215 154/122/215 126/121/215 130/179/215
f 156/177/216 155/180/216 168/140/216 174/139/216
f 181/108/217 159/144/217 132/138/217 164/137/217
f 135/109/218 133/154/218 108/134/218 109/110/218
