# Blender v3.0.0 OBJ File: 'Blender Medieval Village Megapack Low Poly .blend'
# www.blender.org
mtllib Bellows.mtl
o Bellows
v -0.069677 -0.000000 -0.151132
v 0.055112 -0.000000 -0.151132
v -0.039309 -0.000000 -0.255102
v 0.019890 -0.000000 -0.255102
v -0.173381 -0.000000 -0.062357
v 0.158816 -0.000000 -0.062357
v -0.207309 0.000000 0.040289
v 0.192744 0.000000 0.040289
v -0.178296 0.000000 0.174838
v 0.163731 0.000000 0.174838
v -0.062207 0.000000 0.313548
v 0.047642 0.000000 0.313548
v -0.035599 0.000000 0.513291
v 0.021035 0.000000 0.513291
v -0.069687 0.021668 -0.151135
v 0.054992 0.021508 -0.150987
v -0.039299 0.021634 -0.255099
v 0.019890 0.021651 -0.255102
v -0.173192 0.021490 -0.062291
v 0.158793 0.021672 -0.062451
v -0.207278 0.021612 0.040205
v 0.192713 0.021612 0.040205
v -0.178307 0.021619 0.174741
v 0.163742 0.021619 0.174741
v -0.062337 0.021805 0.313653
v 0.047772 0.021805 0.313653
v -0.035599 0.021652 0.513291
v 0.021035 0.021652 0.513291
v -0.069677 0.081619 -0.158018
v 0.055112 0.081619 -0.158018
v -0.039309 0.042238 -0.254242
v 0.019900 0.042237 -0.254245
v -0.173376 0.115245 -0.075848
v 0.158811 0.115245 -0.075848
v -0.207212 0.154118 0.019123
v 0.192744 0.154123 0.019140
v -0.178393 0.205160 0.143786
v 0.163731 0.205086 0.143664
v -0.062213 0.257612 0.271959
v 0.047642 0.257625 0.272039
v -0.036170 0.333389 0.456915
v 0.021035 0.333282 0.456899
v -0.069677 0.101657 -0.166219
v 0.055112 0.101657 -0.166219
v 0.019890 0.062276 -0.262443
v -0.173381 0.135282 -0.084059
v 0.158816 0.135282 -0.084059
v 0.192744 0.174161 0.010939
v -0.178003 0.225004 0.135242
v -0.058143 0.277687 0.263977
v 0.047642 0.277663 0.263838
v -0.034743 0.353158 0.448674
v -0.054746 0.030921 -0.151332
v -0.069572 0.039183 -0.152944
v -0.054514 0.048434 -0.153234
v -0.069777 0.055889 -0.154979
v -0.054597 0.065601 -0.155148
v -0.069716 0.072970 -0.157007
v -0.034982 0.024521 -0.254239
v -0.039140 0.026784 -0.254089
v -0.027819 0.030141 -0.254378
v -0.038965 0.033233 -0.254079
v -0.029986 0.035722 -0.254406
v -0.039258 0.039381 -0.254255
v 0.015875 0.024558 -0.254228
v 0.019741 0.026796 -0.254091
v 0.008733 0.030179 -0.254389
v 0.019560 0.033263 -0.254076
v 0.010893 0.035767 -0.254406
v 0.019838 0.039378 -0.254251
v -0.158675 0.036494 -0.063332
v -0.173222 0.048418 -0.066324
v -0.158671 0.062940 -0.067081
v -0.173046 0.075300 -0.070099
v -0.158704 0.089772 -0.070912
v -0.173221 0.102050 -0.073942
v -0.189387 0.040669 0.029386
v -0.207200 0.059483 0.034031
v -0.189385 0.078543 0.023352
v -0.207200 0.097336 0.027985
v -0.189387 0.116416 0.017310
v -0.207243 0.135243 0.022032
v -0.162145 0.046495 0.153743
v -0.178312 0.074017 0.165662
v -0.162146 0.098940 0.144817
v -0.178314 0.126426 0.156757
v -0.162157 0.151384 0.135882
v -0.178375 0.178883 0.148025
v -0.054252 0.052489 0.282191
v -0.062649 0.089084 0.302050
v -0.054262 0.119927 0.270319
v -0.062645 0.156539 0.290186
v -0.054278 0.187365 0.258452
v -0.062374 0.223749 0.278170
v 0.039687 0.052489 0.282191
v 0.048084 0.089084 0.302050
v 0.039697 0.119927 0.270319
v 0.048081 0.156539 0.290186
v 0.039714 0.187365 0.258452
v 0.047809 0.223749 0.278170
v 0.147580 0.046495 0.153743
v 0.163747 0.074017 0.165662
v 0.147581 0.098940 0.144817
v 0.163749 0.126426 0.156757
v 0.147593 0.151384 0.135882
v 0.163740 0.178879 0.148010
v 0.174823 0.040669 0.029386
v 0.192635 0.059483 0.034031
v 0.174820 0.078543 0.023352
v 0.192635 0.097336 0.027985
v 0.174822 0.116416 0.017310
v 0.192698 0.135232 0.022065
v 0.143910 0.036328 -0.063184
v 0.158662 0.048418 -0.066330
v 0.144102 0.062935 -0.067076
v 0.158486 0.075306 -0.070106
v 0.144135 0.089765 -0.070905
v 0.158657 0.102050 -0.073942
v 0.040486 0.031169 -0.151144
v 0.054992 0.039177 -0.152938
v 0.040172 0.048481 -0.152919
v 0.055199 0.055863 -0.154974
v 0.040260 0.065655 -0.154840
v 0.055152 0.072973 -0.157011
v 0.163731 0.212453 0.140648
v 0.166617 0.220055 0.123077
v 0.150041 0.225124 0.135463
v 0.021035 0.344797 0.452187
v 0.022251 0.349862 0.440250
v 0.011826 0.353320 0.448698
v -0.081789 0.174161 0.010939
v -0.204226 0.170629 0.002308
v -0.207309 0.165071 0.014659
v -0.205510 0.177813 0.019881
v -0.043016 0.067083 -0.250697
v -0.026088 0.062276 -0.262443
v -0.039309 0.050040 -0.257435
v -0.048327 0.295330 0.364451
v 0.034339 0.295453 0.364469
v -0.042045 0.320783 0.354951
v 0.014454 0.023505 -0.254962
v -0.033850 0.023505 -0.254962
v 0.014454 0.040303 -0.254260
v -0.033850 0.040303 -0.254260
v -0.033850 0.037903 -0.254260
v 0.014454 0.037903 -0.254260
v -0.024080 0.025691 -0.254260
v -0.033850 0.028304 -0.254260
v -0.024164 0.030191 -0.254260
v -0.033850 0.033103 -0.254260
v -0.024317 0.034704 -0.254260
v 0.004964 0.025729 -0.254260
v 0.014454 0.028304 -0.254260
v 0.005048 0.030242 -0.254260
v 0.014454 0.033103 -0.254260
v 0.005199 0.034767 -0.254260
v -0.009645 0.060111 -0.054394
vt 0.077380 0.921653
vt 0.077380 0.921653
vt 0.077380 0.921653
vt 0.077380 0.921653
vt 0.077380 0.921653
vt 0.077380 0.921653
vt 0.077380 0.921653
vt 0.077380 0.921653
vt 0.077380 0.921653
vt 0.077380 0.921653
vt 0.077380 0.921653
vt 0.077380 0.921653
vt 0.077380 0.921653
vt 0.077380 0.921653
vt 0.077380 0.921653
vt 0.077380 0.921653
vt 0.077380 0.921653
vt 0.077380 0.921653
vt 0.077380 0.921653
vt 0.077380 0.921653
vt 0.077380 0.921653
vt 0.077380 0.921653
vt 0.077380 0.921653
vt 0.077380 0.921653
vt 0.077380 0.921653
vt 0.077380 0.921653
vt 0.077380 0.921653
vt 0.077380 0.921653
vt 0.077380 0.921653
vt 0.077380 0.921653
vt 0.077380 0.921653
vt 0.077380 0.921653
vt 0.077380 0.921653
vt 0.077380 0.921653
vt 0.077380 0.921653
vt 0.077380 0.921653
vt 0.077380 0.921653
vt 0.077380 0.921653
vt 0.077380 0.921653
vt 0.077380 0.921653
vt 0.077380 0.921653
vt 0.077380 0.921653
vt 0.077380 0.921653
vt 0.077380 0.921653
vt 0.077380 0.921653
vt 0.077380 0.921653
vt 0.077380 0.921653
vt 0.077380 0.921653
vt 0.077380 0.921653
vt 0.077380 0.921653
vt 0.077380 0.921653
vt 0.077380 0.921653
vt 0.077380 0.921653
vt 0.077380 0.921653
vt 0.077380 0.921653
vt 0.077380 0.921653
vt 0.077380 0.921653
vt 0.077380 0.921653
vt 0.077380 0.921653
vt 0.077380 0.921653
vt 0.077380 0.921653
vt 0.077380 0.921653
vt 0.077380 0.921653
vt 0.077380 0.921653
vt 0.077380 0.921653
vt 0.077380 0.921653
vt 0.077380 0.921653
vt 0.077380 0.921653
vt 0.077380 0.921653
vt 0.077380 0.921653
vt 0.059744 0.513445
vt 0.059744 0.513445
vt 0.059744 0.513445
vt 0.059744 0.513445
vt 0.059744 0.513445
vt 0.059744 0.513445
vt 0.059744 0.513445
vt 0.059744 0.513445
vt 0.059744 0.513445
vt 0.059744 0.513445
vt 0.059744 0.513445
vt 0.059744 0.513445
vt 0.059744 0.513445
vt 0.059744 0.513445
vt 0.059744 0.513445
vt 0.059744 0.513445
vt 0.059744 0.513445
vt 0.059744 0.513445
vt 0.059744 0.513445
vt 0.059744 0.513445
vt 0.059744 0.513445
vt 0.059744 0.513445
vt 0.059744 0.513445
vt 0.059744 0.513445
vt 0.059744 0.513445
vt 0.059744 0.513445
vt 0.059744 0.513445
vt 0.059744 0.513445
vt 0.059744 0.513445
vt 0.059744 0.513445
vt 0.059744 0.513445
vt 0.059744 0.513445
vt 0.059744 0.513445
vt 0.059744 0.513445
vt 0.059744 0.513445
vt 0.059744 0.513445
vt 0.059744 0.513445
vt 0.059744 0.513445
vt 0.059744 0.513445
vt 0.059744 0.513445
vt 0.059744 0.513445
vt 0.059744 0.513445
vt 0.059744 0.513445
vt 0.059744 0.513445
vt 0.059744 0.513445
vt 0.059744 0.513445
vt 0.059744 0.513445
vt 0.059744 0.513445
vt 0.059744 0.513445
vt 0.059744 0.513445
vt 0.059744 0.513445
vt 0.059744 0.513445
vt 0.059744 0.513445
vt 0.059744 0.513445
vt 0.059744 0.513445
vt 0.059744 0.513445
vt 0.059744 0.513445
vt 0.059744 0.513445
vt 0.059744 0.513445
vt 0.059744 0.513445
vt 0.059744 0.513445
vt 0.059744 0.513445
vt 0.059744 0.513445
vt 0.059744 0.513445
vt 0.059744 0.513445
vt 0.059744 0.513445
vt 0.059744 0.513445
vt 0.059744 0.513445
vt 0.059744 0.513445
vt 0.059744 0.513445
vt 0.059744 0.513445
vt 0.059744 0.513445
vt 0.059744 0.513445
vt 0.059744 0.513445
vt 0.059744 0.513445
vt 0.059744 0.513445
vt 0.059744 0.513445
vt 0.059744 0.513445
vt 0.059744 0.513445
vt 0.059744 0.513445
vt 0.059744 0.513445
vt 0.059744 0.513445
vt 0.059744 0.513445
vt 0.059744 0.513445
vt 0.059744 0.513445
vt 0.059744 0.513445
vt 0.059744 0.513445
vt 0.059744 0.513445
vt 0.059744 0.513445
vt 0.059744 0.513445
vt 0.059744 0.513445
vt 0.059744 0.513445
vt 0.059744 0.513445
vt 0.059744 0.513445
vt 0.059744 0.513445
vt 0.059744 0.513445
vt 0.059744 0.513445
vt 0.059744 0.513445
vt 0.059744 0.513445
vt 0.059744 0.513445
vt 0.059744 0.513445
vt 0.059744 0.513445
vt 0.059744 0.513445
vt 0.059744 0.513445
vt 0.059744 0.513445
vt 0.059744 0.513445
vt 0.059744 0.513445
vt 0.059744 0.513445
vt 0.059744 0.513445
vt 0.059744 0.513445
vt 0.059744 0.513445
vt 0.059744 0.513445
vt 0.059744 0.513445
vt 0.059744 0.513445
vn 0.0000 -1.0000 0.0000
vn 0.0000 0.0753 -0.9972
vn 0.0000 -0.3788 -0.9255
vn 0.0000 0.9255 -0.3788
vn -0.9471 -0.1282 -0.2941
vn -0.9763 0.1015 0.1913
vn 0.9912 0.0500 0.1222
vn -0.0545 0.9156 0.3984
vn -0.0030 0.9242 -0.3819
vn 0.5319 0.7419 0.4083
vn 0.6268 0.7554 0.1908
vn -0.0003 0.9254 -0.3790
vn 0.5501 0.7471 0.3731
vn -0.0000 0.3788 0.9255
vn -0.0552 0.3853 -0.9211
vn -0.5144 0.2162 -0.8299
vn -0.0001 0.0732 -0.9973
vn -0.9815 0.0647 0.1801
vn 0.9775 0.0798 0.1951
vn 0.0706 0.9267 -0.3691
vn -0.0004 0.9038 -0.4281
vn 0.0063 0.9450 -0.3269
vn -0.0000 0.9256 -0.3786
vn -0.9599 -0.1062 -0.2595
vn -0.9829 0.1810 0.0343
vn 0.0000 1.0000 0.0008
vn 0.9912 -0.0033 0.1324
vn -0.7673 -0.0026 0.6413
vn 0.7673 -0.0026 0.6413
vn 0.7669 0.2431 0.5940
vn -0.9776 0.0013 0.2106
vn -0.9912 -0.0033 0.1324
vn -0.9492 0.0047 -0.3147
vn 0.9495 -0.0001 -0.3138
vn -0.6508 0.0038 -0.7592
vn 0.9474 0.0037 -0.3202
vn 0.9776 0.0013 0.2106
vn 0.9471 -0.1213 -0.2970
vn 0.6496 0.0030 -0.7603
vn 0.0005 -0.9257 0.3782
vn -0.0000 -0.3787 -0.9255
vn -0.9692 0.2405 0.0525
vn -0.6503 -0.2880 -0.7030
vn 0.6503 -0.2880 -0.7030
vn 0.9495 -0.1190 -0.2904
vn -0.0000 0.0001 -1.0000
vn -0.0003 0.3817 0.9243
vn -0.0001 0.9255 -0.3787
vn -0.7593 0.3195 0.5669
vn -0.9496 -0.1207 -0.2893
vn 0.0001 -0.9251 0.3797
vn -0.9599 0.0000 -0.2805
vn 0.0000 0.0000 1.0000
vn -0.5644 0.5005 -0.6565
vn 0.3996 -0.8846 -0.2405
vn 0.3828 -0.8676 -0.3173
vn -0.5370 -0.7365 -0.4113
vn -0.5182 -0.7167 -0.4666
vn -0.1384 0.4671 -0.8733
vn -0.0001 0.0093 -1.0000
vn 0.0332 0.0039 -0.9994
vn 0.0580 0.5171 -0.8539
vn 0.0544 0.1622 -0.9853
vn 0.1645 -0.9799 0.1125
vn -0.3177 0.9374 -0.1425
vn 0.0000 0.9837 -0.1795
vn 0.2841 0.9450 -0.1621
vn -0.1758 -0.9782 0.1110
vn 0.1896 -0.9730 0.1319
vn -0.2872 0.9441 -0.1622
vn -0.0374 -0.1816 -0.9827
vn -0.0014 -0.0051 -1.0000
vn 0.0370 -0.0285 -0.9989
vn -0.1943 0.5886 -0.7848
vn -0.0129 -0.0720 -0.9973
vn 0.0305 0.1016 -0.9944
vn -0.0310 0.1195 -0.9923
vn -0.0355 -0.0031 -0.9994
vn 0.0000 -0.9951 0.0986
vn 0.3149 0.9384 -0.1424
vn 0.9927 0.0000 -0.1202
vn -0.2150 -0.9650 0.1503
vn -0.9928 0.0000 -0.1197
vn -0.2575 0.9490 -0.1821
vn 0.2054 -0.9668 0.1517
vn -0.2001 -0.9711 0.1304
vn 0.2541 0.9499 -0.1819
vn -0.4401 0.6987 -0.5640
vn 0.5370 -0.7365 -0.4113
vn 0.5182 -0.7168 -0.4665
vn -0.9767 0.0343 0.2119
vn -0.4009 -0.8836 -0.2420
vn -0.3858 -0.8650 -0.3208
vn -0.0590 0.5343 -0.8433
vn 0.0000 0.0077 -1.0000
vn 0.0021 -0.0079 -1.0000
vn 0.1287 0.4445 -0.8865
vn 0.0330 0.1248 -0.9916
vn 0.0941 0.2206 -0.9708
vn -0.0336 0.0045 -0.9994
vn -0.0328 0.1079 -0.9936
vn 0.0340 -0.1744 -0.9841
vn 0.0363 -0.0062 -0.9993
vn -0.0363 -0.0343 -0.9988
vn -0.0525 0.1550 -0.9865
vn 0.0124 -0.0737 -0.9972
vn -0.4293 0.8362 -0.3414
vn -0.4628 0.5364 -0.7058
vn 0.5118 0.5959 -0.6189
vn -0.0004 0.1792 0.9838
vn -0.7598 0.1131 0.6403
vn 0.6448 0.6550 0.3940
vn -0.0000 0.7171 0.6970
vn 0.7603 0.1137 0.6395
vn -0.0014 0.0025 -1.0000
vn 0.4820 -0.8741 -0.0600
vn -0.0000 -0.4769 0.8789
vn 0.6927 -0.7211 -0.0092
vn 0.7330 0.5939 -0.3316
vn -0.5682 0.6823 0.4600
vn -0.3735 -0.9240 0.0817
vn 0.7293 0.6690 0.1433
vn -0.6931 -0.7208 -0.0093
vn 0.5471 0.8168 -0.1832
vn -0.5427 -0.5311 0.6507
vn 0.7262 0.5599 -0.3990
vn -0.6830 -0.7097 -0.1728
vn 0.3781 -0.9237 0.0619
vn 0.7604 0.6446 0.0797
vn -0.6393 -0.1052 -0.7618
vn 0.4461 -0.7640 -0.4662
vn 0.4828 0.5753 -0.6602
vn 0.6293 -0.5251 0.5730
vn -0.4219 0.8711 -0.2513
vn -0.7431 0.6164 -0.2602
vn 0.6947 -0.7128 -0.0967
vn 0.4225 -0.8939 0.1495
vn -0.7854 0.6187 0.0180
vn 0.6839 -0.6340 0.3610
vn 0.7854 0.6187 0.0180
vn 0.4267 0.8628 -0.2711
vn -0.7604 0.6446 0.0797
vn 0.9428 -0.0307 -0.3321
vn -0.9773 0.0473 0.2066
vn 0.5432 -0.5306 0.6507
vn 0.6078 0.6698 0.4266
vn 0.0000 -0.4770 0.8789
vn -0.0000 0.7173 0.6968
vn 0.9470 -0.0536 -0.3168
vn -0.0000 -0.4765 0.8792
vn 0.9764 0.0336 0.2133
vn 0.6393 -0.1050 -0.7618
vn -0.7204 -0.6316 0.2865
vn -0.9470 -0.0513 -0.3172
vn -0.6078 0.6698 0.4266
vn -0.6293 -0.5251 0.5730
vn -0.6947 -0.7128 -0.0967
vn -0.5880 -0.5289 0.6120
vn -0.7332 0.5937 -0.3316
vn -0.7264 0.5596 -0.3990
vn 0.5880 -0.5289 0.6120
vn -0.6448 0.6550 0.3940
vn 0.4616 0.5381 -0.7053
vn 0.5682 0.6823 0.4600
vn 0.7354 0.6266 -0.2580
vn -0.7293 0.6690 0.1433
vn -0.4158 -0.8931 0.1719
vn 0.0000 0.7159 0.6982
vn -0.4839 0.5736 -0.6609
vn -0.4490 -0.7604 -0.4693
vn -0.7496 -0.6263 0.2142
vn -0.9564 -0.0263 -0.2908
vn 0.6822 -0.7105 -0.1727
vn 0.7204 -0.6316 0.2865
vn -0.6838 -0.6343 0.3607
vn 0.0019 0.0011 -1.0000
vn -0.4823 -0.8752 -0.0380
vn 0.7496 -0.6263 0.2142
vn -0.5232 0.8384 -0.1529
vn 0.4333 0.8262 -0.3601
g Bellows_Bellows_CollorMaterial
usemtl CollorMaterial
s off
f 6/1/1 1/2/1 2/3/1
f 18/4/2 142/5/2 141/6/2
f 31/7/3 137/8/3 136/9/3
f 43/10/4 47/11/4 44/12/4
f 35/13/5 133/14/5 132/15/5
f 37/16/6 49/17/6 134/18/6
f 51/19/7 129/20/7 139/21/7
f 45/22/4 136/9/4 135/23/4
f 131/24/8 132/15/8 133/14/8
f 52/25/9 130/26/9 129/20/9
f 46/27/4 132/15/4 131/24/4
f 125/28/10 126/29/10 127/30/10
f 125/28/11 127/30/11 51/19/11
f 127/30/12 50/31/12 51/19/12
f 128/32/13 129/20/13 130/26/13
f 42/33/14 128/32/14 130/26/14
f 131/24/15 133/14/15 134/18/15
f 135/23/16 136/9/16 137/8/16
f 10/34/1 9/35/1 7/36/1
f 18/4/17 17/37/17 142/5/17
f 43/10/4 46/27/4 47/11/4
f 133/14/18 35/13/18 134/18/18
f 128/32/7 42/33/7 129/20/7
f 42/33/7 139/21/7 129/20/7
f 139/21/7 40/38/7 51/19/7
f 125/28/19 38/39/19 126/29/19
f 129/20/20 51/19/20 140/40/20
f 51/19/21 50/31/21 140/40/21
f 140/40/22 52/25/22 129/20/22
f 48/41/4 47/11/4 131/24/4
f 47/11/4 46/27/4 131/24/4
f 126/29/4 48/41/4 127/30/4
f 48/41/4 131/24/4 127/30/4
f 131/24/23 134/18/23 49/17/23
f 137/8/24 31/7/24 135/23/24
f 138/42/25 41/43/25 52/25/25 140/40/25
f 13/44/1 11/45/1 12/46/1 14/47/1
f 27/48/26 28/49/26 26/50/26 25/51/26
f 26/50/27 28/49/27 14/47/27 12/46/27
f 25/51/28 23/52/28 9/35/28 11/45/28
f 10/34/29 24/53/29 26/50/29 12/46/29
f 40/38/30 38/39/30 125/28/30 51/19/30
f 23/52/31 21/54/31 7/36/31 9/35/31
f 13/44/32 27/48/32 25/51/32 11/45/32
f 21/54/33 19/55/33 5/56/33 7/36/33
f 6/1/34 20/57/34 22/58/34 8/59/34
f 19/55/35 15/60/35 1/2/35 5/56/35
f 18/4/36 16/61/36 2/3/36 4/62/36
f 8/59/37 22/58/37 24/53/37 10/34/37
f 32/63/38 45/22/38 44/12/38 30/64/38
f 2/3/39 16/61/39 20/57/39 6/1/39
f 138/42/40 39/65/40 40/38/40 139/21/40
f 136/9/41 45/22/41 32/63/41 31/7/41
f 138/42/42 140/40/42 50/31/42 39/65/42
f 46/27/43 43/10/43 29/66/43 33/67/43
f 30/64/44 44/12/44 47/11/44 34/68/44
f 34/68/45 47/11/45 48/41/45 36/69/45
f 8/59/1 10/34/1 7/36/1 5/56/1
f 17/37/46 18/4/46 4/62/46 3/70/46
f 135/23/4 43/10/4 44/12/4 45/22/4
f 11/45/1 9/35/1 10/34/1 12/46/1
f 6/1/1 8/59/1 5/56/1 1/2/1
f 130/26/47 52/25/47 41/43/47 42/33/47
f 1/2/1 3/70/1 4/62/1 2/3/1
f 50/31/48 127/30/48 131/24/48 49/17/48
f 39/65/49 50/31/49 49/17/49 37/16/49
f 126/29/19 38/39/19 36/69/19 48/41/19
f 135/23/24 31/7/24 29/66/24 43/10/24
f 132/15/50 46/27/50 33/67/50 35/13/50
f 42/33/51 41/43/51 138/42/51 139/21/51
f 1/2/52 15/60/52 17/37/52 3/70/52
f 28/49/53 27/48/53 13/44/53 14/47/53
f 71/71/54 15/72/54 19/73/54
f 124/74/55 117/75/55 123/76/55
f 122/77/56 115/78/56 121/79/56
f 58/80/57 75/81/57 76/82/57
f 56/83/58 73/84/58 74/85/58
f 59/86/59 142/87/59 17/88/59
f 32/89/60 144/90/60 31/91/60
f 65/92/61 153/93/61 66/94/61
f 65/92/62 141/95/62 152/96/62
f 63/97/63 145/98/63 151/99/63
f 150/100/64 151/99/64 157/101/64
f 146/102/65 156/103/65 157/101/65
f 141/95/66 142/87/66 157/101/66
f 149/104/67 150/100/67 157/101/67
f 156/103/68 155/105/68 157/101/68
f 148/106/69 149/104/69 157/101/69
f 155/105/70 154/107/70 157/101/70
f 67/108/71 153/93/71 154/107/71
f 59/86/72 148/106/72 147/109/72
f 67/108/73 155/105/73 68/110/73
f 61/111/74 148/106/74 60/112/74
f 69/113/75 155/105/75 156/103/75
f 61/111/76 150/100/76 149/104/76
f 69/113/77 146/102/77 70/114/77
f 63/97/78 150/100/78 62/115/78
f 144/90/79 143/116/79 157/101/79
f 151/99/80 145/98/80 157/101/80
f 145/98/81 144/90/81 157/101/81
f 152/96/82 141/95/82 157/101/82
f 143/116/83 146/102/83 157/101/83
f 153/93/84 152/96/84 157/101/84
f 142/87/85 147/109/85 157/101/85
f 154/107/86 153/93/86 157/101/86
f 147/109/87 148/106/87 157/101/87
f 71/71/88 53/117/88 15/72/88
f 124/74/89 118/118/89 117/75/89
f 122/77/90 116/119/90 115/78/90
f 35/120/91 82/121/91 88/122/91
f 58/80/92 57/123/92 75/81/92
f 56/83/93 55/124/93 73/84/93
f 59/86/94 147/109/94 142/87/94
f 32/89/95 143/116/95 144/90/95
f 65/92/96 152/96/96 153/93/96
f 65/92/97 18/125/97 141/95/97
f 63/97/98 64/126/98 145/98/98
f 67/108/99 66/94/99 153/93/99
f 59/86/100 60/112/100 148/106/100
f 67/108/101 154/107/101 155/105/101
f 61/111/102 149/104/102 148/106/102
f 69/113/103 68/110/103 155/105/103
f 61/111/104 62/115/104 150/100/104
f 69/113/105 156/103/105 146/102/105
f 63/97/106 151/99/106 150/100/106
f 57/123/107 63/97/107 62/115/107 56/83/107
f 75/81/108 57/123/108 56/83/108 74/85/108
f 113/127/109 20/128/109 16/129/109 119/130/109
f 40/131/110 39/132/110 94/133/110 100/134/110
f 37/135/111 88/122/111 94/133/111 39/132/111
f 99/136/112 98/137/112 104/138/112 105/139/112
f 91/140/113 90/141/113 96/142/113 97/143/113
f 38/144/114 40/131/114 100/134/114 106/145/114
f 64/126/115 31/91/115 144/90/115 145/98/115
f 66/94/116 120/146/116 119/130/116 65/92/116
f 92/147/117 91/140/117 97/143/117 98/137/117
f 118/118/118 112/148/118 111/149/118 117/75/118
f 109/150/119 108/151/119 114/152/119 115/78/119
f 89/153/120 83/154/120 23/155/120 25/156/120
f 62/115/121 61/111/121 55/124/121 56/83/121
f 101/157/122 24/158/122 22/159/122 107/160/122
f 76/82/123 75/81/123 81/161/123 82/121/123
f 119/130/124 16/129/124 18/125/124 65/92/124
f 88/122/125 87/162/125 93/163/125 94/133/125
f 111/149/126 110/164/126 116/119/126 117/75/126
f 72/165/127 71/71/127 77/166/127 78/167/127
f 68/110/128 122/77/128 121/79/128 67/108/128
f 103/168/129 102/169/129 108/151/129 109/150/129
f 29/170/130 58/80/130 76/82/130 33/171/130
f 120/146/131 114/152/131 113/127/131 119/130/131
f 115/78/132 114/152/132 120/146/132 121/79/132
f 102/169/133 96/142/133 95/172/133 101/157/133
f 55/124/134 61/111/134 60/112/134 54/173/134
f 77/166/135 71/71/135 19/73/135 21/174/135
f 116/119/136 110/164/136 109/150/136 115/78/136
f 70/114/137 124/74/137 123/76/137 69/113/137
f 87/162/138 81/161/138 80/175/138 86/176/138
f 112/148/139 106/145/139 105/139/139 111/149/139
f 105/139/140 104/138/140 110/164/140 111/149/140
f 121/79/141 120/146/141 66/94/141 67/108/141
f 85/177/142 79/178/142 78/167/142 84/179/142
f 32/89/143 30/180/143 124/74/143 70/114/143
f 134/181/144 35/120/144 88/122/144 37/135/144
f 106/145/145 100/134/145 99/136/145 105/139/145
f 97/143/146 96/142/146 102/169/146 103/168/146
f 90/141/147 89/153/147 95/172/147 96/142/147
f 93/163/148 92/147/148 98/137/148 99/136/148
f 34/182/149 36/183/149 112/148/149 118/118/149
f 100/134/150 94/133/150 93/163/150 99/136/150
f 36/183/151 38/144/151 106/145/151 112/148/151
f 30/180/152 34/182/152 118/118/152 124/74/152
f 80/175/153 79/178/153 85/177/153 86/176/153
f 33/171/154 76/82/154 82/121/154 35/120/154
f 91/140/155 85/177/155 84/179/155 90/141/155
f 84/179/156 83/154/156 89/153/156 90/141/156
f 74/85/157 73/84/157 79/178/157 80/175/157
f 86/176/158 85/177/158 91/140/158 92/147/158
f 79/178/159 73/84/159 72/165/159 78/167/159
f 81/161/160 75/81/160 74/85/160 80/175/160
f 104/138/161 98/137/161 97/143/161 103/168/161
f 93/163/162 87/162/162 86/176/162 92/147/162
f 117/75/163 116/119/163 122/77/163 123/76/163
f 95/172/164 26/184/164 24/158/164 101/157/164
f 107/160/165 22/159/165 20/128/165 113/127/165
f 83/154/166 77/166/166 21/174/166 23/155/166
f 64/126/167 63/97/167 57/123/167 58/80/167
f 89/153/168 25/156/168 26/184/168 95/172/168
f 73/84/169 55/124/169 54/173/169 72/165/169
f 54/173/170 53/117/170 71/71/170 72/165/170
f 78/167/171 77/166/171 83/154/171 84/179/171
f 31/91/172 64/126/172 58/80/172 29/170/172
f 114/152/173 108/151/173 107/160/173 113/127/173
f 110/164/174 104/138/174 103/168/174 109/150/174
f 82/121/175 81/161/175 87/162/175 88/122/175
f 70/114/176 146/102/176 143/116/176 32/89/176
f 60/112/177 59/86/177 53/117/177 54/173/177
f 108/151/178 102/169/178 101/157/178 107/160/178
f 53/117/179 59/86/179 17/88/179 15/72/179
f 123/76/180 122/77/180 68/110/180 69/113/180
