# Blender v3.0.0 OBJ File: 'Blender Medieval Village Megapack Low Poly .blend'
# www.blender.org
mtllib Bench_1.mtl
o Bench_1
v 0.726710 -0.000000 -0.154766
v 0.726710 0.407800 -0.154766
v 0.847711 -0.000000 -0.096495
v 0.847711 0.407800 -0.096495
v 0.877596 0.000000 0.034439
v 0.877596 0.407800 0.034438
v 0.793860 0.000000 0.139439
v 0.793860 0.407800 0.139439
v 0.659559 0.000000 0.139439
v 0.659559 0.407800 0.139439
v 0.575824 0.000000 0.034439
v 0.575824 0.407800 0.034438
v 0.605709 -0.000000 -0.096495
v 0.605709 0.407800 -0.096495
v -0.834637 -0.000000 -0.172228
v -0.834637 0.407800 -0.154766
v -0.699984 -0.000000 -0.107382
v -0.713636 0.407800 -0.096495
v -0.666728 0.000000 0.038324
v -0.683752 0.407800 0.034438
v -0.759911 0.000000 0.155171
v -0.767487 0.407800 0.139439
v -0.909364 0.000000 0.155171
v -0.901788 0.407800 0.139439
v -1.002546 0.000000 0.038324
v -0.985523 0.407800 0.034438
v -0.969290 -0.000000 -0.107382
v -0.955638 0.407800 -0.096495
v -1.117296 0.407800 -0.208617
v 0.924383 0.407800 0.301548
v 0.924383 0.407800 -0.266634
v -0.080445 0.371813 -0.266634
v -0.761005 0.407800 -0.231493
v -0.761005 0.407800 0.301548
v 0.924383 0.471118 0.301548
v -0.080445 0.419717 0.301548
v -0.128283 0.374343 0.301548
v -0.080445 0.371813 0.253644
v -0.761005 0.462654 0.301548
v -0.761005 0.523937 0.240266
v -0.080445 0.418558 -0.266634
v -1.094985 0.407800 0.301548
v -1.117296 0.407800 0.276868
v -1.099656 0.467205 0.276325
v -1.098550 0.488873 0.244662
v -1.118451 0.463983 0.250243
v -1.047998 0.518206 -0.176496
v -1.076261 0.500408 -0.210172
v -0.761005 0.504441 -0.212426
v -0.761005 0.523937 -0.179231
v -0.738778 0.522761 -0.201352
v -0.739107 0.520546 -0.203586
v -0.080445 0.487950 0.226720
v -0.080445 0.465669 0.301548
v 0.893842 0.522843 0.279290
v 0.893865 0.500563 0.301548
v 0.924383 0.504015 0.268651
v 0.903844 0.523201 0.269281
v -0.722058 0.499596 0.301548
v -0.722035 0.521876 0.279290
v -0.799095 0.519365 0.274535
v -0.799065 0.496664 0.297213
v -0.080445 0.487949 -0.174927
v -0.080445 0.472171 -0.213021
v -0.152397 0.498890 -0.187255
v 0.924383 0.463479 -0.266634
vt 0.626424 0.940918
vt 0.626424 0.940918
vt 0.626424 0.940918
vt 0.626424 0.940918
vt 0.626424 0.940918
vt 0.626424 0.940918
vt 0.626424 0.940918
vt 0.626424 0.940918
vt 0.626424 0.940918
vt 0.626424 0.940918
vt 0.626424 0.940918
vt 0.626424 0.940918
vt 0.626424 0.940918
vt 0.626424 0.940918
vt 0.626424 0.940918
vt 0.626424 0.940918
vt 0.626424 0.940918
vt 0.626424 0.940918
vt 0.626424 0.940918
vt 0.626424 0.940918
vt 0.626424 0.940918
vt 0.626424 0.940918
vt 0.626424 0.940918
vt 0.626424 0.940918
vt 0.626424 0.940918
vt 0.626424 0.940918
vt 0.626424 0.940918
vt 0.626424 0.940918
vt 0.626424 0.940918
vt 0.626424 0.940918
vt 0.626424 0.940918
vt 0.626424 0.940918
vt 0.626424 0.940918
vt 0.626424 0.940918
vt 0.626424 0.940918
vt 0.626424 0.940918
vt 0.626424 0.940918
vt 0.626424 0.940918
vt 0.626424 0.940918
vt 0.626424 0.940918
vt 0.626424 0.940918
vt 0.626424 0.940918
vt 0.626424 0.940918
vt 0.626424 0.940918
vt 0.626424 0.940918
vt 0.626424 0.940918
vt 0.626424 0.940918
vt 0.626424 0.940918
vt 0.626424 0.940918
vt 0.626424 0.940918
vt 0.626424 0.940918
vt 0.626424 0.940918
vt 0.626424 0.940918
vt 0.626424 0.940918
vt 0.626424 0.940918
vt 0.626424 0.940918
vt 0.626424 0.940918
vt 0.626424 0.940918
vt 0.626424 0.940918
vt 0.626424 0.940918
vt 0.626424 0.940918
vt 0.626424 0.940918
vt 0.626424 0.940918
vt 0.626424 0.940918
vt 0.626424 0.940918
vt 0.626424 0.940918
vn -0.0528 -0.9986 0.0000
vn -0.1031 0.9945 0.0181
vn 0.5570 -0.5873 0.5873
vn -0.0000 0.0000 1.0000
vn 1.0000 0.0000 0.0000
vn 0.0457 0.7061 -0.7067
vn -0.0084 -0.7071 0.7071
vn -0.0316 0.7068 -0.7068
vn -0.6680 0.6248 0.4042
vn -0.2515 0.7056 -0.6625
vn 0.2018 0.9049 -0.3748
vn -0.0124 0.9238 -0.3826
vn 0.6807 0.7305 -0.0553
vn 0.0000 -1.0000 -0.0000
vn -0.1132 0.0000 0.9936
vn -0.1504 0.9819 -0.1152
vn 0.1503 0.9886 -0.0000
vn 0.0528 0.9986 -0.0000
vn 0.5636 0.5841 0.5841
vn 0.2459 0.1876 -0.9510
vn 0.0094 0.7071 -0.7071
vn 0.0459 0.7226 -0.6897
vn -0.4167 0.7839 -0.4604
vn -0.7818 0.0000 0.6235
vn -0.9742 0.0385 -0.2224
vn 0.4339 -0.0000 -0.9010
vn -0.4339 -0.0000 -0.9010
vn 0.7818 0.0000 0.6235
vn 0.9749 -0.0000 -0.2225
vn 0.9742 0.0385 -0.2224
vn 0.0000 0.0385 0.9993
vn 0.4336 0.0385 -0.9003
vn 0.7813 0.0385 0.6230
vn -0.4336 0.0385 -0.9003
vn 0.0358 -0.9994 0.0000
vn -0.7813 0.0385 0.6230
vn -0.0000 -0.0000 -1.0000
vn -0.5570 0.5873 0.5873
vn -0.0065 0.9980 -0.0627
vn -0.7631 0.2321 0.6032
vn -0.6589 0.7521 -0.0132
vn 0.4828 0.6192 0.6192
vn 0.0650 0.9069 0.4163
vn -0.0182 0.8765 -0.4811
vn -0.0438 0.9080 0.4167
vn -0.0409 0.1840 0.9821
vn -0.0378 0.1002 -0.9942
vn -0.0648 0.9974 0.0309
vn 0.0473 0.9988 0.0085
vn -0.9669 0.2528 -0.0334
vn -0.0536 0.1792 -0.9823
vn -0.1298 0.7693 0.6256
vn -0.9749 -0.0000 -0.2225
g Bench_1_Bench_1_CollorMaterial
usemtl CollorMaterial
s off
f 32/1/1 38/2/1 37/3/1
f 45/4/2 61/5/2 40/6/2
f 36/7/3 37/3/3 38/2/3
f 59/8/4 39/9/4 34/10/4
f 57/11/5 35/12/5 30/13/5
f 52/14/6 51/15/6 65/16/6
f 36/7/7 38/2/7 30/13/7
f 41/17/8 64/18/8 66/19/8
f 44/20/9 45/4/9 46/21/9
f 49/22/10 51/15/10 52/14/10
f 63/23/11 64/18/11 65/16/11
f 63/23/12 66/19/12 64/18/12
f 57/11/13 66/19/13 58/24/13
f 34/10/14 42/25/14 43/26/14
f 34/10/15 39/9/15 62/27/15
f 58/24/16 66/19/16 55/28/16
f 53/29/17 63/23/17 65/16/17
f 51/15/18 50/30/18 40/6/18
f 60/31/18 51/15/18 40/6/18
f 58/24/19 55/28/19 57/11/19
f 37/3/4 36/7/4 54/32/4
f 33/33/20 49/22/20 52/14/20
f 64/18/21 41/17/21 65/16/21
f 41/17/22 52/14/22 65/16/22
f 30/13/4 35/12/4 56/34/4
f 49/22/23 50/30/23 51/15/23
f 9/35/24 10/36/24 12/37/24 11/38/24
f 25/39/25 26/40/25 28/41/25 27/42/25
f 1/43/26 2/44/26 4/45/26 3/46/26
f 13/47/27 14/48/27 2/44/27 1/43/27
f 7/49/28 5/50/28 6/51/28 8/52/28
f 3/46/29 4/45/29 6/51/29 5/50/29
f 19/53/30 17/54/30 18/55/30 20/56/30
f 21/57/31 22/58/31 24/59/31 23/60/31
f 17/54/32 15/61/32 16/62/32 18/55/32
f 21/57/33 19/53/33 20/56/33 22/58/33
f 27/42/34 28/41/34 16/62/34 15/61/34
f 38/2/35 32/1/35 31/63/35 30/13/35
f 26/40/36 25/39/36 23/60/36 24/59/36
f 31/63/37 32/1/37 41/17/37 66/19/37
f 60/31/38 40/6/38 39/9/38 59/8/38
f 56/34/4 54/32/4 36/7/4 30/13/4
f 55/28/39 66/19/39 63/23/39 53/29/39
f 43/26/40 42/25/40 44/20/40 46/21/40
f 46/21/41 45/4/41 47/64/41 48/65/41
f 61/5/42 62/27/42 39/9/42 40/6/42
f 54/32/43 53/29/43 60/31/43 59/8/43
f 43/26/14 29/66/14 33/33/14 34/10/14
f 49/22/44 48/65/44 47/64/44 50/30/44
f 37/3/1 34/10/1 33/33/1 32/1/1
f 55/28/45 53/29/45 54/32/45 56/34/45
f 62/27/46 44/20/46 42/25/46 34/10/46
f 59/8/4 34/10/4 37/3/4 54/32/4
f 33/33/47 29/66/47 48/65/47 49/22/47
f 40/6/48 50/30/48 47/64/48 45/4/48
f 57/11/19 55/28/19 56/34/19 35/12/19
f 60/31/49 53/29/49 65/16/49 51/15/49
f 57/11/5 30/13/5 31/63/5 66/19/5
f 29/66/50 43/26/50 46/21/50 48/65/50
f 41/17/51 32/1/51 33/33/51 52/14/51
f 45/4/52 44/20/52 62/27/52 61/5/52
f 7/49/4 8/52/4 10/36/4 9/35/4
f 11/38/53 12/37/53 14/48/53 13/47/53
