# Blender v3.0.0 OBJ File: 'Blender Medieval Village Megapack Low Poly .blend'
# www.blender.org
mtllib Bench_2.mtl
o Bench_2
v -0.913736 0.916331 -0.276798
v -0.913736 0.916331 -0.312430
v 0.913736 0.916331 -0.312430
v 0.913736 0.916331 -0.276798
v -0.913736 1.082281 -0.276798
v -0.913736 1.082281 -0.312430
v 0.913736 1.082281 -0.312430
v 0.913736 1.082281 -0.276798
v -0.913736 1.122167 -0.276798
v -0.913736 1.122167 -0.312430
v 0.913736 1.122167 -0.312430
v 0.913736 1.122167 -0.276798
v -0.913736 1.288117 -0.312430
v 0.913736 1.288117 -0.312430
v 0.913736 1.288117 -0.276798
v -0.863461 -0.001454 -0.305926
v -0.863461 -0.001454 -0.403309
v -0.766078 -0.001454 -0.403309
v -0.766078 -0.001454 -0.305926
v -0.856171 1.328243 -0.313216
v -0.856171 1.328243 -0.396020
v -0.773367 1.328243 -0.396020
v -0.773367 1.328243 -0.313216
v -0.850249 0.832215 0.312819
v -0.850249 0.832215 -0.312820
v -0.781724 0.832215 -0.312820
v -0.781724 0.832215 0.312819
v -0.850249 0.900740 0.312819
v -0.850249 0.900740 -0.312820
v -0.781724 0.900740 -0.312820
v -0.781724 0.900740 0.312819
v -0.856171 -0.001454 0.395293
v -0.856171 -0.001454 0.312489
v -0.773367 -0.001454 0.312489
v -0.773367 -0.001454 0.395293
v 0.785052 0.342885 0.312562
v -0.856171 0.910405 0.312488
v -0.773367 0.910405 0.312488
v -0.773367 0.910405 0.395292
v -0.850249 0.577879 0.312819
v -0.850249 0.577878 -0.312820
v -0.781724 0.577878 -0.312820
v -0.781724 0.577879 0.312819
v -0.850249 0.646404 0.312819
v -0.850249 0.646403 -0.312820
v -0.781724 0.646403 -0.312820
v -0.781724 0.646404 0.312819
v 0.792625 -0.001454 -0.313215
v 0.792625 -0.001454 -0.396019
v 0.875429 -0.001454 -0.396019
v 0.875429 -0.001454 -0.313215
v 0.792625 1.328243 -0.313216
v 0.792625 1.328243 -0.396020
v 0.875429 1.328243 -0.396020
v 0.798547 0.832215 0.312819
v 0.798547 0.832215 -0.312820
v 0.867072 0.832215 -0.312820
v 0.867072 0.832215 0.312819
v 0.798547 0.900740 0.312819
v 0.798547 0.900740 -0.312820
v 0.867072 0.900740 -0.312820
v 0.867072 0.900740 0.312819
v 0.792625 -0.001454 0.395293
v 0.792625 -0.001454 0.312489
v 0.875429 -0.001454 0.312489
v 0.792625 0.910405 0.395292
v 0.792625 0.910405 0.312488
v 0.875429 0.910405 0.312488
v 0.798547 0.577879 0.312819
v 0.798547 0.577878 -0.312820
v 0.867072 0.577878 -0.312820
v 0.867072 0.577879 0.312819
v 0.798547 0.646404 0.312819
v 0.798547 0.646403 -0.312820
v 0.867072 0.646403 -0.312820
v 0.867072 0.646404 0.312819
v 0.897598 0.646816 -0.299200
v 0.897598 0.646817 0.299199
v -0.897598 0.646817 0.299199
v -0.897598 0.646816 -0.299200
v 0.897597 0.682720 0.299199
v -0.897598 0.682720 0.299199
v -0.897598 0.682720 -0.299200
v 0.897598 0.646816 -0.055351
v -0.897598 0.646816 -0.055351
v 0.897598 0.682720 -0.055351
v -0.237732 0.642795 0.287105
v -0.897598 0.682720 -0.020523
v -0.897598 0.646816 -0.020523
v 0.897598 0.682720 -0.020523
v 0.897598 0.646816 -0.020523
v -0.897598 0.682720 -0.077175
v -0.897598 0.660896 -0.055351
v -0.875774 0.682720 -0.055351
v -0.237732 0.642795 -0.002539
v -0.344273 0.676516 0.289058
v -0.237732 0.664284 0.287105
v -0.237732 0.675321 0.276068
v -0.237732 0.675321 0.104795
v -0.227535 0.675387 -0.002700
v -0.237732 0.665123 -0.002539
v -0.247925 0.675435 -0.002817
v -0.856171 0.910405 0.364623
v -0.856171 0.879736 0.395292
v -0.825502 0.910405 0.395292
v 0.785052 0.342885 0.382084
v 0.854573 0.342885 0.312562
v -0.594790 1.056699 -0.300783
v -0.594790 0.902799 -0.300783
v -0.594790 1.056699 -0.267739
v -0.594790 0.902799 -0.267738
v 0.152154 1.298345 -0.319484
v 0.152154 1.139069 -0.319483
v 0.152154 1.139069 -0.285285
v 0.160630 1.248974 -0.285190
v 0.189492 1.297843 -0.284869
v 0.152154 1.298345 -0.304356
v -0.913736 1.288117 -0.276798
v 0.855574 1.328243 -0.313216
v 0.875429 1.308389 -0.313216
v 0.875429 1.328243 -0.333071
v 0.875429 0.910405 0.374963
v 0.855099 0.910405 0.395292
v 0.874682 0.890095 0.394820
v 0.897598 0.661971 -0.299200
v 0.876849 0.682720 -0.299200
v 0.897598 0.682720 -0.278450
v -0.861181 0.510643 -0.308206
v -0.768358 0.510643 -0.401029
v -0.768358 0.510643 -0.308206
v -0.861181 0.510643 -0.365861
v -0.826012 0.510643 -0.401029
v 0.854573 0.342885 0.360550
v 0.855364 0.364397 0.382584
v 0.833040 0.342885 0.382084
v 0.875429 -0.001454 0.395293
v -0.858379 0.662622 0.049989
v -0.858379 0.692745 0.049989
v -0.841915 0.662622 0.024763
v -0.841915 0.692745 0.024763
v -0.833154 0.662622 0.066453
v -0.833154 0.692745 0.066453
v -0.816689 0.662622 0.041228
v -0.816689 0.692745 0.041228
v -0.847596 0.664266 0.258986
v -0.847596 0.691102 0.258986
v -0.853623 0.664266 0.232836
v -0.853623 0.691102 0.232836
v -0.821446 0.664266 0.252959
v -0.821446 0.691102 0.252959
v -0.827473 0.664266 0.226809
v -0.827473 0.691102 0.226809
v -0.847596 0.664266 -0.083932
v -0.847596 0.691101 -0.083932
v -0.853623 0.664266 -0.110082
v -0.853623 0.691101 -0.110082
v -0.821446 0.664266 -0.089959
v -0.821446 0.691101 -0.089959
v -0.827473 0.664266 -0.116109
v -0.827473 0.691101 -0.116109
v -0.853578 0.664266 -0.226644
v -0.853578 0.691101 -0.226644
v -0.847666 0.664266 -0.252820
v -0.847666 0.691101 -0.252820
v -0.827402 0.664266 -0.220732
v -0.827402 0.691101 -0.220732
v -0.821490 0.664266 -0.246908
v -0.821490 0.691101 -0.246908
v 0.799384 0.662622 0.049989
v 0.799384 0.692745 0.049989
v 0.815848 0.662622 0.024763
v 0.815848 0.692745 0.024763
v 0.824609 0.662622 0.066453
v 0.824609 0.692745 0.066453
v 0.841074 0.662622 0.041228
v 0.841074 0.692745 0.041228
v 0.810167 0.664266 0.258986
v 0.810167 0.691102 0.258986
v 0.804140 0.664266 0.232836
v 0.804140 0.691102 0.232836
v 0.836317 0.664266 0.252959
v 0.836317 0.691102 0.252959
v 0.830290 0.664266 0.226809
v 0.830290 0.691102 0.226809
v 0.810167 0.664266 -0.083932
v 0.810167 0.691101 -0.083932
v 0.804140 0.664266 -0.110082
v 0.804140 0.691101 -0.110082
v 0.836317 0.664266 -0.089959
v 0.836317 0.691101 -0.089959
v 0.830290 0.664266 -0.116109
v 0.830290 0.691101 -0.116109
v 0.804185 0.664266 -0.226644
v 0.804185 0.691101 -0.226644
v 0.810097 0.664266 -0.252820
v 0.810097 0.691101 -0.252820
v 0.830361 0.664266 -0.220732
v 0.830361 0.691101 -0.220732
v 0.836273 0.664266 -0.246908
v 0.836273 0.691101 -0.246908
v 0.824801 0.953685 -0.288076
v 0.824801 0.953685 -0.270452
v 0.828684 0.970876 -0.288076
v 0.828684 0.970876 -0.270452
v 0.841992 0.949802 -0.288076
v 0.841992 0.949802 -0.270452
v 0.845875 0.966993 -0.288076
v 0.845875 0.966993 -0.270452
v 0.827243 1.041259 -0.288076
v 0.827243 1.041259 -0.270452
v 0.825863 1.058829 -0.288076
v 0.825863 1.058829 -0.270452
v 0.844813 1.042639 -0.288076
v 0.844813 1.042639 -0.270452
v 0.843433 1.060209 -0.288076
v 0.843433 1.060209 -0.270452
v 0.826452 1.167514 -0.288076
v 0.826452 1.167514 -0.270452
v 0.844076 1.167662 -0.288076
v 0.844076 1.167662 -0.270452
v 0.826600 1.149891 -0.288076
v 0.826600 1.149891 -0.270452
v 0.844223 1.150038 -0.288076
v 0.844223 1.150038 -0.270452
v 0.826719 1.268768 -0.288076
v 0.826719 1.268768 -0.270452
v 0.844339 1.268386 -0.288076
v 0.844339 1.268386 -0.270452
v 0.826337 1.251148 -0.288076
v 0.826337 1.251148 -0.270452
v 0.843957 1.250766 -0.288076
v 0.843957 1.250766 -0.270452
v -0.819294 1.172612 -0.288076
v -0.819294 1.172612 -0.270452
v -0.801682 1.171955 -0.288076
v -0.801682 1.171955 -0.270452
v -0.820166 1.150302 -0.288076
v -0.820166 1.150302 -0.270452
v -0.802555 1.149644 -0.288076
v -0.802555 1.149644 -0.270452
v -0.818868 1.264689 -0.288076
v -0.818868 1.264689 -0.270452
v -0.801322 1.263032 -0.288076
v -0.801322 1.263032 -0.270452
v -0.820526 1.247144 -0.288076
v -0.820526 1.247144 -0.270452
v -0.802980 1.245486 -0.288076
v -0.802980 1.245486 -0.270452
v -0.819964 0.953946 -0.288076
v -0.819964 0.953946 -0.270452
v -0.802349 0.954496 -0.288076
v -0.802349 0.954496 -0.270452
v -0.819499 0.934430 -0.288076
v -0.819499 0.934430 -0.270452
v -0.801884 0.934980 -0.288076
v -0.801884 0.934980 -0.270452
v -0.821957 1.045622 -0.288076
v -0.821957 1.045622 -0.270452
v -0.805130 1.050861 -0.288076
v -0.805130 1.050861 -0.270452
v -0.816718 1.028794 -0.288076
v -0.816718 1.028794 -0.270452
v -0.799891 1.034033 -0.288076
v -0.799891 1.034033 -0.270452
vt 0.059744 0.938458
vt 0.059744 0.938458
vt 0.059744 0.938458
vt 0.059744 0.938458
vt 0.059744 0.938458
vt 0.059744 0.938458
vt 0.059744 0.938458
vt 0.059744 0.938458
vt 0.059744 0.938458
vt 0.059744 0.938458
vt 0.059744 0.938458
vt 0.059744 0.938458
vt 0.059744 0.938458
vt 0.059744 0.938458
vt 0.059744 0.938458
vt 0.059744 0.938458
vt 0.059744 0.938458
vt 0.059744 0.938458
vt 0.059744 0.938458
vt 0.059744 0.938458
vt 0.059744 0.938458
vt 0.059744 0.938458
vt 0.059744 0.938458
vt 0.059744 0.938458
vt 0.059744 0.938458
vt 0.059744 0.938458
vt 0.059744 0.938458
vt 0.059744 0.938458
vt 0.059744 0.938458
vt 0.059744 0.938458
vt 0.059744 0.938458
vt 0.059744 0.938458
vt 0.059744 0.938458
vt 0.059744 0.938458
vt 0.059744 0.938458
vt 0.059744 0.938458
vt 0.059744 0.938458
vt 0.059744 0.938458
vt 0.059744 0.938458
vt 0.059744 0.938458
vt 0.059744 0.938458
vt 0.059744 0.938458
vt 0.059744 0.938458
vt 0.059744 0.938458
vt 0.059744 0.938458
vt 0.059744 0.938458
vt 0.059744 0.938458
vt 0.059744 0.938458
vt 0.059744 0.938458
vt 0.059744 0.938458
vt 0.059744 0.938458
vt 0.059744 0.938458
vt 0.059744 0.938458
vt 0.059744 0.938458
vt 0.059744 0.938458
vt 0.059744 0.938458
vt 0.059744 0.938458
vt 0.059744 0.938458
vt 0.059744 0.938458
vt 0.059744 0.938458
vt 0.059744 0.938458
vt 0.059744 0.938458
vt 0.059744 0.938458
vt 0.059744 0.938458
vt 0.059744 0.938458
vt 0.059744 0.938458
vt 0.059744 0.938458
vt 0.059744 0.938458
vt 0.059744 0.938458
vt 0.059744 0.938458
vt 0.059744 0.938458
vt 0.059744 0.938458
vt 0.059744 0.938458
vt 0.059744 0.938458
vt 0.059744 0.938458
vt 0.059744 0.938458
vt 0.059744 0.938458
vt 0.059744 0.938458
vt 0.059744 0.938458
vt 0.059744 0.938458
vt 0.059744 0.938458
vt 0.636417 0.938073
vt 0.636417 0.938073
vt 0.636417 0.938073
vt 0.636417 0.938073
vt 0.636417 0.938073
vt 0.636417 0.938073
vt 0.636417 0.938073
vt 0.636417 0.938073
vt 0.636417 0.938073
vt 0.636417 0.938073
vt 0.636417 0.938073
vt 0.636417 0.938073
vt 0.636417 0.938073
vt 0.636417 0.938073
vt 0.636417 0.938073
vt 0.636417 0.938073
vt 0.636417 0.938073
vt 0.636417 0.938073
vt 0.636417 0.938073
vt 0.636417 0.938073
vt 0.636417 0.938073
vt 0.636417 0.938073
vt 0.636417 0.938073
vt 0.636417 0.938073
vt 0.636417 0.938073
vt 0.636417 0.938073
vt 0.636417 0.938073
vt 0.636417 0.938073
vt 0.636417 0.938073
vt 0.636417 0.938073
vt 0.636417 0.938073
vt 0.636417 0.938073
vt 0.636417 0.938073
vt 0.636417 0.938073
vt 0.636417 0.938073
vt 0.636417 0.938073
vt 0.636417 0.938073
vt 0.636417 0.938073
vt 0.636417 0.938073
vt 0.636417 0.938073
vt 0.636417 0.938073
vt 0.636417 0.938073
vt 0.636417 0.938073
vt 0.636417 0.938073
vt 0.636417 0.938073
vt 0.636417 0.938073
vt 0.636417 0.938073
vt 0.636417 0.938073
vt 0.636417 0.938073
vt 0.636417 0.938073
vt 0.636417 0.938073
vt 0.636417 0.938073
vt 0.636417 0.938073
vt 0.636417 0.938073
vt 0.636417 0.938073
vt 0.952657 0.047343
vt 0.952657 0.047343
vt 0.952657 0.047343
vt 0.952657 0.047343
vt 0.952657 0.047343
vt 0.952657 0.047343
vt 0.952657 0.047343
vt 0.952657 0.047343
vt 0.952657 0.047343
vt 0.952657 0.047343
vt 0.952657 0.047343
vt 0.952657 0.047343
vt 0.952657 0.047343
vt 0.952657 0.047343
vt 0.952657 0.047343
vt 0.952657 0.047343
vt 0.952657 0.047343
vt 0.952657 0.047343
vt 0.952657 0.047343
vt 0.952657 0.047343
vt 0.952657 0.047343
vt 0.952657 0.047343
vt 0.952657 0.047343
vt 0.952657 0.047343
vt 0.952657 0.047343
vt 0.952657 0.047343
vt 0.952657 0.047343
vt 0.952657 0.047343
vt 0.952657 0.047343
vt 0.952657 0.047343
vt 0.952657 0.047343
vt 0.952657 0.047343
vt 0.952657 0.047343
vt 0.952657 0.047343
vt 0.952657 0.047343
vt 0.952657 0.047343
vt 0.952657 0.047343
vt 0.952657 0.047343
vt 0.952657 0.047343
vt 0.952657 0.047343
vt 0.952657 0.047343
vt 0.952657 0.047343
vt 0.952657 0.047343
vt 0.952657 0.047343
vt 0.952657 0.047343
vt 0.952657 0.047343
vt 0.952657 0.047343
vt 0.952657 0.047343
vt 0.952657 0.047343
vt 0.952657 0.047343
vt 0.952657 0.047343
vt 0.952657 0.047343
vt 0.952657 0.047343
vt 0.952657 0.047343
vt 0.952657 0.047343
vt 0.952657 0.047343
vt 0.952657 0.047343
vt 0.952657 0.047343
vt 0.952657 0.047343
vt 0.952657 0.047343
vt 0.952657 0.047343
vt 0.952657 0.047343
vt 0.952657 0.047343
vt 0.952657 0.047343
vt 0.952657 0.047343
vt 0.952657 0.047343
vt 0.952657 0.047343
vt 0.952657 0.047343
vt 0.952657 0.047343
vt 0.952657 0.047343
vt 0.952657 0.047343
vt 0.952657 0.047343
vt 0.952657 0.047343
vt 0.952657 0.047343
vt 0.952657 0.047343
vt 0.952657 0.047343
vt 0.952657 0.047343
vt 0.952657 0.047343
vt 0.952657 0.047343
vt 0.952657 0.047343
vt 0.952657 0.047343
vt 0.952657 0.047343
vt 0.952657 0.047343
vt 0.952657 0.047343
vt 0.952657 0.047343
vt 0.952657 0.047343
vt 0.952657 0.047343
vt 0.952657 0.047343
vt 0.952657 0.047343
vt 0.952657 0.047343
vt 0.952657 0.047343
vt 0.952657 0.047343
vt 0.952657 0.047343
vt 0.952657 0.047343
vt 0.952657 0.047343
vt 0.952657 0.047343
vt 0.952657 0.047343
vt 0.952657 0.047343
vt 0.952657 0.047343
vt 0.952657 0.047343
vt 0.952657 0.047343
vt 0.952657 0.047343
vt 0.952657 0.047343
vt 0.952657 0.047343
vt 0.952657 0.047343
vt 0.952657 0.047343
vt 0.952657 0.047343
vt 0.952657 0.047343
vt 0.952657 0.047343
vt 0.952657 0.047343
vt 0.952657 0.047343
vt 0.952657 0.047343
vt 0.952657 0.047343
vt 0.952657 0.047343
vt 0.952657 0.047343
vt 0.952657 0.047343
vt 0.952657 0.047343
vt 0.952657 0.047343
vt 0.952657 0.047343
vt 0.952657 0.047343
vt 0.952657 0.047343
vt 0.952657 0.047343
vt 0.952657 0.047343
vt 0.952657 0.047343
vt 0.952657 0.047343
vt 0.952657 0.047343
vt 0.952657 0.047343
vt 0.952657 0.047343
vn 0.5656 -0.6001 0.5656
vn 0.9993 -0.0367 0.0000
vn -0.5774 0.5773 0.5774
vn -0.0000 1.0000 -0.0000
vn 0.5773 0.5774 0.5774
vn 0.5887 0.5539 0.5887
vn 0.0000 -0.0233 0.9997
vn -0.7069 -0.0217 -0.7069
vn -0.7060 0.0548 -0.7060
vn 0.7025 0.1134 0.7025
vn -1.0000 0.0000 0.0000
vn -0.9998 -0.0220 0.0000
vn -0.9999 0.0133 -0.0000
vn 1.0000 -0.0000 0.0000
vn -1.0000 0.0061 0.0000
vn 0.0000 0.0045 1.0000
vn 0.0000 0.0061 1.0000
vn 0.0000 0.0000 1.0000
vn 0.0000 0.0061 -1.0000
vn 0.0000 -0.0001 -1.0000
vn 0.0000 0.0383 0.9993
vn 0.0000 0.0045 -1.0000
vn 0.9982 0.0605 -0.0000
vn 1.0000 0.0061 -0.0000
vn 0.0000 0.0002 -1.0000
vn -1.0000 0.0045 0.0000
vn 0.0000 -1.0000 0.0000
vn 0.0000 -0.0000 -1.0000
vn 1.0000 0.0045 -0.0000
vn 0.0134 0.9999 0.0000
vn -0.0190 0.7070 0.7070
vn -0.7084 0.7026 -0.0668
vn -0.5773 0.5774 0.5774
vn -0.0158 0.0000 -0.9999
vn 0.0937 0.7040 0.7040
vn 0.0183 0.0000 0.9998
vn 0.7105 0.7005 -0.0666
vn -0.4445 0.2569 0.8582
vn 0.0206 0.3649 0.9308
vn 0.5774 0.5773 -0.5773
vn 0.0060 0.0000 1.0000
vn -0.0065 1.0000 -0.0000
vn 0.0159 -0.9999 0.0000
vn -0.0424 -0.9991 0.0000
vn -0.0111 0.0000 0.9999
vn -0.0061 -1.0000 0.0000
vn 0.0079 -0.0006 1.0000
vn 0.0365 -0.0000 -0.9993
vn 0.0272 0.0000 -0.9996
vn 0.0112 0.9999 -0.0000
vn -0.0222 -0.9998 0.0000
vn -0.0096 1.0000 0.0000
vn 0.0800 0.9968 0.0000
vn -0.0066 -0.0000 -1.0000
vn 0.0090 -1.0000 0.0000
vn 0.0035 -1.0000 0.0000
vn -0.0284 0.0000 0.9996
vn -0.0077 -0.0000 -1.0000
vn 0.0093 -0.0000 -1.0000
vn -0.0170 0.9999 0.0000
vn -0.0107 -0.0000 0.9999
vn -0.8374 0.0000 -0.5466
vn 0.2246 0.0000 0.9745
vn -0.2246 -0.0000 -0.9745
vn 0.0940 0.9956 0.0000
vn -0.9745 0.0000 0.2246
vn -0.9992 0.0391 0.0000
vn 0.2203 -0.0000 -0.9754
vn 0.0373 0.9993 0.0000
vn -0.9998 0.0217 0.0000
vn -0.0217 -0.9998 0.0000
vn -0.9997 -0.0238 0.0000
vn 0.0084 -1.0000 0.0000
vn -0.2203 0.0000 0.9754
vn 0.0217 0.9998 0.0000
vn -0.5466 0.0000 0.8374
vn -0.9754 0.0000 -0.2203
vn 0.2973 -0.9548 0.0000
vn 0.9745 0.0000 -0.2246
vn 0.0312 -0.9995 0.0000
vn 0.9754 0.0000 0.2203
vn 0.5466 -0.0000 -0.8374
vn 0.8374 0.0000 0.5466
vn -0.9754 0.2203 0.0000
vn 0.9754 -0.2203 0.0000
vn 0.0783 -0.9969 0.0000
vn -0.2203 -0.9754 0.0000
vn -0.9969 -0.0783 0.0000
vn -0.0783 0.9969 0.0000
vn 0.9969 0.0783 0.0000
vn 0.2203 0.9754 -0.0000
vn -0.0084 1.0000 0.0000
vn 1.0000 0.0084 0.0000
vn -1.0000 -0.0084 0.0000
vn -0.9548 -0.2973 0.0000
vn 0.9992 -0.0391 0.0000
vn -0.0373 -0.9993 0.0000
vn 0.9956 -0.0941 0.0000
vn -0.0941 -0.9956 0.0000
vn -0.9956 0.0941 0.0000
vn -0.0312 0.9995 0.0000
vn 0.9997 0.0238 0.0000
vn -0.2973 0.9548 0.0000
vn 0.9548 0.2973 0.0000
vn 0.9998 -0.0217 0.0000
g Bench_2_Bench_2_CollorMaterial
usemtl CollorMaterial
s off
f 133/1/1 134/2/1 135/3/1
f 134/2/2 133/1/2 107/4/2
f 103/5/3 104/6/3 105/7/3
f 38/8/4 103/5/4 105/7/4
f 122/9/4 68/10/4 67/11/4
f 119/12/5 120/13/5 121/14/5
f 121/14/4 54/15/4 53/16/4
f 122/9/6 123/17/6 124/18/6
f 106/19/7 135/3/7 134/2/7
f 131/20/8 21/21/8 132/22/8
f 131/20/9 132/22/9 17/23/9
f 133/1/10 135/3/10 136/24/10
f 48/25/11 52/26/11 53/16/11 49/27/11
f 64/28/12 63/29/12 106/19/12 36/30/12
f 106/19/13 66/31/13 67/11/13 36/30/13
f 120/13/14 51/32/14 50/33/14 54/15/14
f 131/20/15 128/34/15 20/35/15 21/21/15
f 19/36/16 130/37/16 128/34/16 16/38/16
f 130/37/17 23/39/17 20/35/17 128/34/17
f 20/35/4 23/39/4 22/40/4 21/21/4
f 57/41/14 61/42/14 62/43/14 58/44/14
f 28/45/4 31/46/4 30/47/4 29/48/4
f 39/49/18 105/7/18 104/6/18
f 26/50/14 30/47/14 31/46/14 27/51/14
f 104/6/18 32/52/18 35/53/18 39/49/18
f 104/6/11 103/5/11 37/54/11
f 42/55/14 46/56/14 47/57/14 43/58/14
f 44/59/4 47/57/4 46/56/4 45/60/4
f 120/13/18 119/12/18 52/26/18
f 120/13/18 52/26/18 48/25/18 51/32/18
f 54/15/14 121/14/14 120/13/14
f 24/61/11 28/45/11 29/48/11 25/62/11
f 59/63/4 62/43/4 61/42/4 60/64/4
f 132/22/19 21/21/19 22/40/19 129/65/19
f 68/10/2 122/9/2 124/18/2
f 71/66/14 75/67/14 76/68/14 72/69/14
f 40/70/11 44/59/11 45/60/11 41/71/11
f 73/72/4 76/68/4 75/67/4 74/73/4
f 107/4/20 36/30/20 67/11/20 68/10/20
f 63/29/21 136/24/21 135/3/21 106/19/21
f 104/6/11 37/54/11 33/74/11 32/52/11
f 105/7/4 39/49/4 38/8/4
f 38/8/4 37/54/4 103/5/4
f 66/31/4 123/17/4 67/11/4
f 123/17/4 122/9/4 67/11/4
f 18/75/22 17/23/22 132/22/22 129/65/22
f 65/76/23 107/4/23 133/1/23 136/24/23
f 52/26/4 119/12/4 53/16/4
f 119/12/4 121/14/4 53/16/4
f 68/10/2 124/18/2 134/2/2 107/4/2
f 124/18/7 123/17/7 66/31/7
f 66/31/7 106/19/7 134/2/7 124/18/7
f 129/65/24 22/40/24 23/39/24 130/37/24
f 64/28/25 36/30/25 107/4/25 65/76/25
f 16/38/26 128/34/26 131/20/26 17/23/26
f 58/44/27 55/77/27 56/78/27 57/41/27
f 55/77/11 59/63/11 60/64/11 56/78/11
f 34/79/14 38/8/14 39/49/14 35/53/14
f 72/69/27 69/80/27 70/81/27 71/66/27
f 27/51/27 24/61/27 25/62/27 26/50/27
f 35/53/27 32/52/27 33/74/27 34/79/27
f 69/80/11 73/72/11 74/73/11 70/81/11
f 136/24/27 63/29/27 64/28/27 65/76/27
f 51/32/27 48/25/27 49/27/27 50/33/27
f 49/27/28 53/16/28 54/15/28 50/33/28
f 43/58/27 40/70/27 41/71/27 42/55/27
f 19/36/29 18/75/29 129/65/29 130/37/29
f 33/74/28 37/54/28 38/8/28 34/79/28
f 19/36/27 16/38/27 17/23/27 18/75/27
f 112/82/30 117/83/30 116/84/30
f 97/85/31 81/86/31 98/87/31
f 99/88/32 100/89/32 101/90/32
f 92/91/33 93/92/33 94/93/33
f 95/94/34 101/90/34 100/89/34
f 97/85/35 98/87/35 96/95/35
f 96/95/36 82/96/36 79/97/36
f 99/88/37 101/90/37 102/98/37
f 115/99/38 116/84/38 117/83/38
f 115/99/39 117/83/39 118/100/39
f 125/101/40 126/102/40 127/103/40
f 4/104/41 8/105/41 110/106/41 111/107/41
f 1/108/11 5/109/11 6/110/11 2/111/11
f 99/88/42 98/87/42 81/86/42 90/112/42
f 114/113/43 9/114/43 10/115/43 113/116/43
f 109/117/44 111/107/44 1/108/44 2/111/44
f 11/118/14 14/119/14 15/120/14 12/121/14
f 116/84/30 15/120/30 14/119/30
f 14/119/30 112/82/30 116/84/30
f 116/84/45 115/99/45 114/113/45
f 79/97/46 89/122/46 95/94/46 87/123/46
f 126/102/28 77/124/28 80/125/28 83/126/28
f 91/127/34 95/94/34 100/89/34 90/112/34
f 114/113/47 115/99/47 118/100/47 9/114/47
f 84/128/18 86/129/18 94/93/18 85/130/18
f 2/111/48 6/110/48 108/131/48 109/117/48
f 93/92/18 85/130/18 94/93/18
f 92/91/11 83/126/11 80/125/11 85/130/11
f 86/129/4 127/103/4 126/102/4
f 116/84/45 114/113/45 12/121/45 15/120/45
f 83/126/4 92/91/4 94/93/4
f 127/103/14 86/129/14 84/128/14 77/124/14
f 126/102/28 125/101/28 77/124/28
f 85/130/11 93/92/11 92/91/11
f 101/90/49 95/94/49 102/98/49
f 88/132/50 82/96/50 96/95/50 102/98/50
f 90/112/42 100/89/42 99/88/42
f 89/122/49 88/132/49 102/98/49 95/94/49
f 11/118/51 12/121/51 114/113/51 113/116/51
f 13/133/52 118/100/52 117/83/52 112/82/52
f 79/97/36 87/123/36 96/95/36
f 87/123/36 97/85/36 96/95/36
f 98/87/50 99/88/50 96/95/50
f 99/88/50 102/98/50 96/95/50
f 5/109/53 110/106/53 108/131/53 6/110/53
f 113/116/54 10/115/54 13/133/54 112/82/54
f 4/104/55 111/107/55 109/117/55 3/134/55
f 95/94/56 91/127/56 78/135/56 87/123/56
f 1/108/57 111/107/57 110/106/57 5/109/57
f 3/134/58 109/117/58 108/131/58 7/136/58
f 113/116/59 112/82/59 14/119/59 11/118/59
f 77/124/14 125/101/14 127/103/14
f 108/131/60 110/106/60 8/105/60 7/136/60
f 94/93/4 86/129/4 126/102/4 83/126/4
f 80/125/27 77/124/27 84/128/27 85/130/27
f 9/114/11 118/100/11 13/133/11 10/115/11
f 3/134/14 7/136/14 8/105/14 4/104/14
f 78/135/14 91/127/14 90/112/14 81/86/14
f 97/85/61 87/123/61 78/135/61 81/86/61
f 89/122/11 79/97/11 82/96/11 88/132/11
g Bench_2_Bench_2_Metal2
usemtl Metal2
f 171/137/62 169/138/62 170/139/62 172/140/62
f 153/141/63 157/142/63 158/143/63 154/144/63
f 151/145/64 147/146/64 148/147/64 152/148/64
f 243/149/65 241/150/65 242/151/65 244/152/65
f 187/153/66 185/154/66 186/155/66 188/156/66
f 233/157/67 237/158/67 238/159/67 234/160/67
f 167/161/68 163/162/68 164/163/68 168/164/68
f 235/165/69 233/157/69 234/160/69 236/166/69
f 147/146/66 145/167/66 146/168/66 148/147/66
f 225/169/70 229/170/70 230/171/70 226/172/70
f 229/170/71 231/173/71 232/174/71 230/171/71
f 183/175/64 179/176/64 180/177/64 184/178/64
f 249/179/72 253/180/72 254/181/72 250/182/72
f 221/183/73 223/184/73 224/185/73 222/186/73
f 193/187/74 197/188/74 198/189/74 194/190/74
f 234/160/18 238/159/18 240/191/18 236/166/18
f 214/192/18 216/193/18 212/194/18 210/195/18
f 142/196/4 144/197/4 140/198/4 138/199/4
f 250/182/18 254/181/18 256/200/18 252/201/18
f 227/202/75 225/169/75 226/172/75 228/203/75
f 169/138/76 173/204/76 174/205/76 170/139/76
f 179/176/66 177/206/66 178/207/66 180/177/66
f 195/208/77 193/187/77 194/190/77 196/209/77
f 261/210/78 263/211/78 264/212/78 262/213/78
f 174/205/4 176/214/4 172/140/4 170/139/4
f 159/215/64 155/216/64 156/217/64 160/218/64
f 157/142/79 159/215/79 160/218/79 158/143/79
f 253/180/80 255/219/80 256/200/80 254/181/80
f 177/206/63 181/220/63 182/221/63 178/207/63
f 146/168/4 150/222/4 152/148/4 148/147/4
f 182/221/79 181/220/79 183/175/79 184/178/79
f 166/223/81 165/224/81 167/161/81 168/164/81
f 197/188/81 199/225/81 200/226/81 198/189/81
f 175/227/82 171/137/82 172/140/82 176/214/82
f 258/228/18 262/213/18 264/212/18 260/229/18
f 137/230/76 141/231/76 142/196/76 138/199/76
f 174/205/83 173/204/83 175/227/83 176/214/83
f 163/162/77 161/232/77 162/233/77 164/163/77
f 162/233/4 166/223/4 168/164/4 164/163/4
f 149/234/79 151/145/79 152/148/79 150/222/79
f 154/144/4 158/143/4 160/218/4 156/217/4
f 189/235/79 191/236/79 192/237/79 190/238/79
f 185/154/63 189/235/63 190/238/63 186/155/63
f 203/239/84 201/240/84 202/241/84 204/242/84
f 178/207/4 182/221/4 184/178/4 180/177/4
f 199/225/68 195/208/68 196/209/68 200/226/68
f 186/155/4 190/238/4 192/237/4 188/156/4
f 139/243/62 137/230/62 138/199/62 140/198/62
f 202/241/18 206/244/18 208/245/18 204/242/18
f 143/246/82 139/243/82 140/198/82 144/197/82
f 205/247/85 207/248/85 208/245/85 206/244/85
f 209/249/86 213/250/86 214/192/86 210/195/86
f 142/196/83 141/231/83 143/246/83 144/197/83
f 222/186/18 224/185/18 220/251/18 218/252/18
f 201/240/87 205/247/87 206/244/87 202/241/87
f 211/253/88 209/249/88 210/195/88 212/194/88
f 215/254/89 211/253/89 212/194/89 216/193/89
f 213/250/90 215/254/90 216/193/90 214/192/90
f 230/171/18 232/174/18 228/203/18 226/172/18
f 207/248/91 203/239/91 204/242/91 208/245/91
f 219/255/92 217/256/92 218/252/92 220/251/92
f 223/184/93 219/255/93 220/251/93 224/185/93
f 217/256/94 221/183/94 222/186/94 218/252/94
f 257/257/95 261/210/95 262/213/95 258/228/95
f 191/236/64 187/153/64 188/156/64 192/237/64
f 242/151/18 246/258/18 248/259/18 244/152/18
f 239/260/96 235/165/96 236/166/96 240/191/96
f 237/158/97 239/260/97 240/191/97 238/159/97
f 247/261/98 243/149/98 244/152/98 248/259/98
f 245/262/99 247/261/99 248/259/99 246/258/99
f 194/190/4 198/189/4 200/226/4 196/209/4
f 241/150/100 245/262/100 246/258/100 242/151/100
f 251/263/101 249/179/101 250/182/101 252/201/101
f 255/219/102 251/263/102 252/201/102 256/200/102
f 161/232/74 165/224/74 166/223/74 162/233/74
f 155/216/66 153/141/66 154/144/66 156/217/66
f 259/264/103 257/257/103 258/228/103 260/229/103
f 263/211/104 259/264/104 260/229/104 264/212/104
f 145/167/63 149/234/63 150/222/63 146/168/63
f 231/173/105 227/202/105 228/203/105 232/174/105
