# Blender v3.0.0 OBJ File: 'Blender Medieval Village Megapack Low Poly .blend'
# www.blender.org
mtllib Bucket.mtl
o Bucket
v 0.000391 0.485415 -0.206861
v 0.190073 0.485415 -0.017179
v -0.133734 0.485415 0.116946
v -0.133734 0.498762 -0.151304
v -0.142332 0.024270 0.125732
v -0.189290 0.485415 -0.017179
v 0.222830 0.024270 -0.012477
v 0.161004 0.024270 0.136784
v 0.152170 0.485845 0.127949
v 0.210336 0.485845 -0.012477
v -0.161098 0.024270 0.136784
v -0.222923 0.024270 -0.012477
v -0.210430 0.485845 -0.012477
v -0.004930 0.485845 -0.227744
v -0.145357 0.499193 -0.169577
v -0.154191 0.024270 -0.178411
v -0.004930 0.024270 -0.240237
v 0.202006 0.024270 -0.017179
v 0.077522 0.202686 -0.376830
v 0.077522 0.230184 -0.349240
v 0.077522 0.264922 -0.366866
v 0.077522 0.258893 -0.405351
v 0.077522 0.220428 -0.411509
v -0.066342 0.202686 -0.376830
v -0.066342 0.230184 -0.349240
v -0.066342 0.264922 -0.366866
v -0.066342 0.258893 -0.405351
v -0.066342 0.220428 -0.411509
v -0.158299 0.485845 0.113377
v -0.152565 0.470078 0.128252
v -0.138704 0.485530 0.119898
v -0.075143 0.499193 -0.198660
v -0.079561 0.024270 -0.209324
v -0.070880 0.024270 -0.189286
v -0.068394 0.296762 -0.183258
v -0.058531 0.485415 -0.182455
v -0.070170 0.485592 -0.187167
v -0.074812 0.498762 -0.175711
v 0.134516 0.495424 -0.151304
v 0.000281 0.495481 0.173183
v -0.189271 0.491017 -0.017271
v -0.000015 0.024270 0.192988
v -0.142151 0.024270 -0.159779
v 0.134516 0.477528 -0.151304
v 0.190073 0.487835 -0.017179
v 0.137110 0.489075 0.115856
v 0.000437 0.485439 0.173167
v -0.133445 0.495434 0.116324
v -0.133785 0.491017 -0.151226
v 0.004837 0.024270 -0.240237
v 0.154098 0.024270 -0.178411
v 0.145263 0.477959 -0.169577
v 0.161004 0.024270 -0.171505
v 0.222830 0.024270 -0.022244
v 0.210336 0.488266 -0.022244
v 0.152170 0.495855 -0.162671
v 0.154052 0.024270 0.143631
v 0.004651 0.024270 0.205646
v 0.005060 0.485843 0.192958
v 0.145263 0.485845 0.134856
v -0.004796 0.024270 0.205635
v -0.154147 0.024270 0.143631
v -0.145357 0.495887 0.134856
v -0.005101 0.495886 0.192969
v 0.079351 0.024270 0.174638
v -0.217708 0.024270 -0.020184
v -0.155953 0.024270 -0.169274
v -0.152212 0.491448 -0.162749
v -0.210449 0.491448 -0.022152
v 0.000391 0.024270 -0.218794
v 0.142954 0.024270 -0.159742
v 0.143108 0.024270 0.125719
v -0.201234 0.024270 -0.017138
v 0.071547 0.024270 0.159354
v 0.067408 0.485421 0.144906
v 0.070918 0.485613 0.153507
v 0.052578 0.485844 0.173266
v 0.075430 0.456351 0.164594
v 0.022160 0.477528 -0.197844
v 0.004827 0.477958 -0.227695
v 0.000391 0.453974 -0.207481
v 0.162295 0.495425 -0.084242
v 0.191917 0.024270 -0.096874
v 0.172480 0.024270 -0.088461
v 0.175416 0.495855 -0.106549
v 0.167261 0.487948 -0.086394
v 0.187090 0.488266 -0.078366
v 0.190124 0.102755 -0.096132
v -0.066582 0.495458 0.144754
v -0.079471 0.024270 0.174633
v -0.071173 0.024270 0.159360
v -0.068607 0.495886 0.166656
v -0.072281 0.495740 0.157381
v -0.081851 0.495887 0.161169
v -0.000105 0.000042 0.225689
v -0.163886 0.002986 0.146928
v -0.163886 0.003480 -0.181642
v 0.000399 0.003582 -0.249691
v 0.164685 0.003480 -0.181642
v 0.232735 0.003233 -0.017357
v 0.164685 0.002986 0.146928
v -0.231935 0.003233 -0.017357
v 0.000400 0.063405 -0.252334
v 0.166692 0.063302 -0.183455
v 0.235573 0.063052 -0.017164
v 0.166692 0.062802 0.149128
v -0.168223 0.064248 -0.185906
v -0.008558 0.051083 0.229282
v -0.165892 0.062802 0.149127
v -0.228498 0.063052 -0.012514
v 0.007049 0.402995 0.226440
v -0.163886 0.400021 0.146930
v -0.163886 0.399990 -0.181642
v 0.000399 0.399990 -0.249691
v 0.164685 0.399990 -0.181642
v 0.232735 0.399990 -0.017356
v 0.164684 0.400021 0.146930
v -0.231935 0.399990 -0.017356
v 0.000400 0.440535 -0.252335
v 0.166692 0.440535 -0.183455
v 0.235573 0.440535 -0.017163
v 0.156074 0.430842 0.148707
v -0.174953 0.434187 -0.185310
v -0.000110 0.437566 0.228846
v -0.165891 0.440565 0.149129
v -0.234771 0.440535 -0.017163
v 0.000390 0.399990 -0.213360
v 0.139144 0.399990 -0.155887
v 0.196618 0.399990 -0.017132
v 0.139144 0.399960 0.121623
v -0.138365 0.399990 -0.155886
v -0.000036 0.397179 0.188139
v -0.138365 0.399960 0.121622
v -0.195838 0.399990 -0.017132
v 0.000390 0.440535 -0.215593
v 0.140839 0.440535 -0.157417
v 0.199015 0.440535 -0.016968
v 0.140839 0.440504 0.123480
v -0.140059 0.440535 -0.157417
v -0.000041 0.437688 0.190809
v -0.140059 0.440504 0.123480
v -0.198234 0.440535 -0.016969
v -0.064288 0.193172 -0.375340
v -0.064288 0.228661 -0.339731
v -0.064288 0.273494 -0.362480
v -0.064288 0.265712 -0.412148
v -0.064288 0.216071 -0.420096
v -0.095556 0.193172 -0.375340
v -0.095556 0.228661 -0.339731
v -0.095556 0.273494 -0.362480
v -0.095556 0.265712 -0.412148
v -0.095556 0.216071 -0.420096
v -0.064288 0.235422 -0.381959
v -0.095556 0.235422 -0.381959
v 0.207238 0.428503 -0.027891
v 0.229689 0.428503 -0.027891
v 0.207238 0.410149 -0.064063
v 0.229689 0.410149 -0.064063
v 0.207238 0.393284 -0.055505
v 0.229689 0.393284 -0.055505
v 0.207238 0.411638 -0.019334
v 0.229689 0.411638 -0.019334
v 0.207238 0.426519 -0.097197
v 0.229689 0.426519 -0.097197
v 0.229689 0.409654 -0.088640
v 0.207238 0.409654 -0.088640
v 0.105596 0.251352 -0.369818
v 0.106730 0.234553 -0.402926
v 0.106730 0.217688 -0.394369
v 0.105596 0.234488 -0.361260
v -0.194826 0.428503 -0.027891
v -0.217275 0.428503 -0.027891
v -0.194826 0.410149 -0.064063
v -0.217275 0.410149 -0.064063
v -0.194826 0.393284 -0.055505
v -0.217275 0.393284 -0.055505
v -0.194826 0.411638 -0.019334
v -0.217275 0.411638 -0.019334
v -0.194826 0.426519 -0.097197
v -0.217275 0.426519 -0.097197
v -0.217275 0.409654 -0.088640
v -0.194826 0.409654 -0.088640
v -0.093200 0.251352 -0.369818
v -0.094335 0.234553 -0.402926
v -0.094335 0.217688 -0.394369
v -0.093200 0.234488 -0.361260
v 0.109439 0.193172 -0.375340
v 0.109439 0.228661 -0.339731
v 0.109439 0.273494 -0.362480
v 0.109439 0.265712 -0.412148
v 0.109439 0.216071 -0.420096
v 0.078174 0.193172 -0.375340
v 0.078174 0.228661 -0.339731
v 0.078174 0.273494 -0.362480
v 0.078174 0.265712 -0.412148
v 0.078174 0.216071 -0.420096
v 0.109439 0.235422 -0.381959
v 0.078174 0.235422 -0.381959
v 0.227649 0.374388 -0.021600
v 0.227649 0.410047 0.014179
v 0.227649 0.455094 -0.008679
v 0.227649 0.447276 -0.058584
v 0.227649 0.397397 -0.066570
v 0.268853 0.374225 -0.020583
v 0.264834 0.410210 0.013162
v 0.269858 0.455520 -0.008461
v 0.264834 0.446546 -0.057857
v 0.268853 0.398126 -0.067297
v 0.227649 0.416840 -0.028251
v 0.282851 0.415990 -0.028686
v -0.216469 0.374388 -0.021600
v -0.216469 0.410047 0.014179
v -0.216469 0.455094 -0.008679
v -0.216469 0.447276 -0.058584
v -0.216469 0.397397 -0.066570
v -0.257671 0.374225 -0.020582
v -0.253652 0.410210 0.013162
v -0.257126 0.461447 -0.011851
v -0.253652 0.446546 -0.057857
v -0.257671 0.398126 -0.067297
v -0.216469 0.416840 -0.028251
v -0.271670 0.415990 -0.028686
v -0.081995 0.395813 0.186307
v -0.087559 0.428770 0.191406
v -0.069201 0.395843 0.154881
v -0.070050 0.436370 0.157145
vt 0.614677 0.953782
vt 0.614677 0.953782
vt 0.614677 0.953782
vt 0.614677 0.953782
vt 0.614677 0.953782
vt 0.614677 0.953782
vt 0.614677 0.953782
vt 0.614677 0.953782
vt 0.614677 0.953782
vt 0.614677 0.953782
vt 0.614677 0.953782
vt 0.614677 0.953782
vt 0.614677 0.953782
vt 0.614677 0.953782
vt 0.614677 0.953782
vt 0.614677 0.953782
vt 0.614677 0.953782
vt 0.614677 0.953782
vt 0.614677 0.953782
vt 0.614677 0.953782
vt 0.614677 0.953782
vt 0.614677 0.953782
vt 0.614677 0.953782
vt 0.614677 0.953782
vt 0.614677 0.953782
vt 0.614677 0.953782
vt 0.614677 0.953782
vt 0.614677 0.953782
vt 0.614677 0.953782
vt 0.614677 0.953782
vt 0.614677 0.953782
vt 0.614677 0.953782
vt 0.614677 0.953782
vt 0.614677 0.953782
vt 0.614677 0.953782
vt 0.614677 0.953782
vt 0.614677 0.953782
vt 0.614677 0.953782
vt 0.614677 0.953782
vt 0.614677 0.953782
vt 0.614677 0.953782
vt 0.614677 0.953782
vt 0.614677 0.953782
vt 0.198468 0.949557
vt 0.198468 0.949557
vt 0.198468 0.949557
vt 0.198468 0.949557
vt 0.198468 0.949557
vt 0.198468 0.949557
vt 0.198468 0.949557
vt 0.198468 0.949557
vt 0.198468 0.949557
vt 0.198468 0.949557
vt 0.198468 0.949557
vt 0.198468 0.949557
vt 0.198468 0.949557
vt 0.198468 0.949557
vt 0.198468 0.949557
vt 0.198468 0.949557
vt 0.198468 0.949557
vt 0.198468 0.949557
vt 0.198468 0.949557
vt 0.198468 0.949557
vt 0.198468 0.949557
vt 0.198468 0.949557
vt 0.198468 0.949557
vt 0.198468 0.949557
vt 0.198468 0.949557
vt 0.198468 0.949557
vt 0.198468 0.949557
vt 0.198468 0.949557
vt 0.198468 0.949557
vt 0.198468 0.949557
vt 0.198468 0.949557
vt 0.198468 0.949557
vt 0.198468 0.949557
vt 0.198468 0.949557
vt 0.198468 0.949557
vt 0.198468 0.949557
vt 0.198468 0.949557
vt 0.198468 0.949557
vt 0.198468 0.949557
vt 0.198468 0.949557
vt 0.198468 0.949557
vt 0.198468 0.949557
vt 0.198468 0.949557
vt 0.198468 0.949557
vt 0.198468 0.949557
vt 0.198468 0.949557
vt 0.198468 0.949557
vt 0.198468 0.949557
vt 0.198468 0.949557
vt 0.198468 0.949557
vt 0.198468 0.949557
vt 0.198468 0.949557
vt 0.198468 0.949557
vt 0.198468 0.949557
vt 0.198468 0.949557
vt 0.198468 0.949557
vt 0.198468 0.949557
vt 0.198468 0.949557
vt 0.962729 0.044242
vt 0.962729 0.044242
vt 0.962729 0.044242
vt 0.962729 0.044242
vt 0.962729 0.044242
vt 0.962729 0.044242
vt 0.962729 0.044242
vt 0.962729 0.044242
vt 0.962729 0.044242
vt 0.962729 0.044242
vt 0.962729 0.044242
vt 0.962729 0.044242
vt 0.962729 0.044242
vt 0.962729 0.044242
vt 0.962729 0.044242
vt 0.962729 0.044242
vt 0.962729 0.044242
vt 0.962729 0.044242
vt 0.962729 0.044242
vt 0.962729 0.044242
vt 0.962729 0.044242
vt 0.962729 0.044242
vt 0.962729 0.044242
vt 0.962729 0.044242
vt 0.962729 0.044242
vt 0.962729 0.044242
vt 0.962729 0.044242
vt 0.962729 0.044242
vt 0.962729 0.044242
vt 0.962729 0.044242
vt 0.962729 0.044242
vt 0.962729 0.044242
vt 0.962729 0.044242
vt 0.962729 0.044242
vt 0.962729 0.044242
vt 0.962729 0.044242
vt 0.962729 0.044242
vt 0.962729 0.044242
vt 0.962729 0.044242
vt 0.962729 0.044242
vt 0.962729 0.044242
vt 0.962729 0.044242
vt 0.962729 0.044242
vt 0.962729 0.044242
vt 0.962729 0.044242
vt 0.962729 0.044242
vt 0.962729 0.044242
vt 0.962729 0.044242
vt 0.962729 0.044242
vt 0.962729 0.044242
vt 0.962729 0.044242
vt 0.962729 0.044242
vt 0.962729 0.044242
vt 0.962729 0.044242
vt 0.962729 0.044242
vt 0.962729 0.044242
vt 0.962729 0.044242
vt 0.962729 0.044242
vt 0.962729 0.044242
vt 0.962729 0.044242
vt 0.962729 0.044242
vt 0.962729 0.044242
vt 0.962729 0.044242
vt 0.962729 0.044242
vt 0.962729 0.044242
vt 0.962729 0.044242
vt 0.962729 0.044242
vt 0.962729 0.044242
vt 0.962729 0.044242
vt 0.962729 0.044242
vt 0.962729 0.044242
vt 0.962729 0.044242
vt 0.962729 0.044242
vt 0.962729 0.044242
vt 0.962729 0.044242
vt 0.962729 0.044242
vt 0.962729 0.044242
vt 0.962729 0.044242
vt 0.962729 0.044242
vt 0.962729 0.044242
vt 0.962729 0.044242
vt 0.962729 0.044242
vt 0.962729 0.044242
vt 0.962729 0.044242
vt 0.962729 0.044242
vt 0.962729 0.044242
vt 0.962729 0.044242
vt 0.962729 0.044242
vt 0.962729 0.044242
vt 0.962729 0.044242
vt 0.962729 0.044242
vt 0.962729 0.044242
vt 0.962729 0.044242
vt 0.962729 0.044242
vt 0.962729 0.044242
vt 0.962729 0.044242
vt 0.962729 0.044242
vt 0.962729 0.044242
vt 0.962729 0.044242
vt 0.962729 0.044242
vt 0.962729 0.044242
vt 0.962729 0.044242
vt 0.962729 0.044242
vt 0.962729 0.044242
vt 0.962729 0.044242
vt 0.962729 0.044242
vt 0.962729 0.044242
vt 0.962729 0.044242
vt 0.962729 0.044242
vt 0.962729 0.044242
vt 0.962729 0.044242
vt 0.962729 0.044242
vt 0.962729 0.044242
vt 0.962729 0.044242
vt 0.962729 0.044242
vt 0.962729 0.044242
vt 0.962729 0.044242
vt 0.962729 0.044242
vt 0.962729 0.044242
vt 0.962729 0.044242
vt 0.962729 0.044242
vt 0.962729 0.044242
vt 0.962729 0.044242
vt 0.962729 0.044242
vt 0.962729 0.044242
vt 0.962729 0.044242
vt 0.962729 0.044242
vt 0.962729 0.044242
vt 0.962729 0.044242
vt 0.962729 0.044242
vt 0.962729 0.044242
vt 0.962729 0.044242
vn 0.3826 -0.0239 0.9236
vn -0.3751 0.0157 0.9269
vn 0.5107 0.0067 0.8597
vn 0.9698 0.0065 -0.2438
vn 0.0000 0.9880 -0.1548
vn 0.0000 0.1581 -0.9874
vn 0.0000 -0.8902 -0.4555
vn 0.0000 -0.7083 0.7059
vn -0.2390 0.6189 0.7482
vn 0.9330 0.0162 0.3594
vn 0.3826 -0.0224 0.9236
vn 0.3824 -0.0239 0.9237
vn 0.3825 -0.0239 0.9236
vn 0.0186 0.9998 -0.0077
vn -0.9236 0.0250 0.3826
vn 0.9411 0.3380 -0.0073
vn -0.3072 0.5462 0.7793
vn 0.3803 -0.0233 0.9246
vn 0.9236 0.0250 0.3826
vn 0.9239 -0.0242 -0.3818
vn -0.2135 0.0056 -0.9769
vn -0.8418 0.0055 0.5398
vn -0.5745 0.0073 0.8185
vn -0.3826 0.0243 -0.9236
vn 0.2231 0.0059 -0.9748
vn -0.3806 0.0247 -0.9244
vn 0.0716 0.9973 0.0157
vn 0.1997 0.9487 0.2453
vn 0.0077 0.9998 0.0186
vn 0.0000 0.4525 0.8918
vn -0.9266 -0.0219 -0.3754
vn 0.5090 0.0068 0.8607
vn 0.4099 -0.0291 -0.9117
vn -0.3830 0.0245 0.9234
vn 0.3824 0.0255 -0.9236
vn -0.8379 0.0052 -0.5458
vn -0.9241 -0.0236 0.3815
vn 0.8602 0.0067 0.5098
vn 0.2393 0.0063 0.9709
vn -0.9238 0.0127 -0.3827
vn 0.1477 0.9890 -0.0002
vn 0.9542 0.0103 0.2989
vn 0.5463 0.0064 -0.8376
vn -0.0077 0.9998 -0.0186
vn 0.9236 -0.0236 0.3826
vn 0.3683 0.0284 0.9293
vn 0.3830 0.0249 0.9234
vn -0.2059 0.0064 0.9785
vn -0.4048 -0.0284 -0.9140
vn 0.0083 0.9943 0.1060
vn -0.9781 0.0057 -0.2078
vn -0.3826 -0.0243 0.9236
vn 0.3743 0.0456 -0.9262
vn 0.6894 0.3472 0.6358
vn 0.2244 0.3753 0.8993
vn -0.7423 0.5067 0.4383
vn -0.0078 0.9998 0.0189
vn 0.9237 0.0249 -0.3824
vn 0.7907 0.3892 0.4726
vn 0.9198 0.0447 0.3897
vn 0.9236 0.0244 -0.3826
vn -0.5437 0.0054 -0.8392
vn 0.0078 0.9998 -0.0188
vn -0.4077 -0.0355 -0.9124
vn -0.9295 0.0276 0.3677
vn 0.3277 0.4559 -0.8275
vn -0.0079 0.9998 -0.0190
vn -0.0077 0.9998 -0.0189
vn 0.3827 0.0250 0.9235
vn -0.9792 0.0053 -0.2030
vn -0.9614 0.0106 0.2751
vn 0.9236 0.0247 -0.3826
vn 0.9236 0.0249 -0.3826
vn 0.9237 0.0245 -0.3823
vn -0.3830 0.0244 0.9234
vn 0.0186 0.9998 0.0077
vn 0.0079 0.9998 -0.0191
vn 0.4098 -0.0354 -0.9115
vn 0.3830 0.0250 0.9234
vn 0.0076 0.9998 -0.0186
vn -0.0192 0.9998 0.0080
vn -0.9236 -0.0234 0.3826
vn 0.8883 0.0049 -0.4592
vn -0.9537 0.1361 0.2682
vn 0.4541 0.0526 0.8894
vn -0.1005 0.9916 0.0815
vn 0.0773 0.9708 -0.2272
vn 0.0000 0.8918 -0.4525
vn 0.0357 -0.9966 0.0738
vn -0.9218 -0.0663 0.3818
vn 0.1387 0.9859 0.0936
vn 0.0310 0.9887 0.1468
vn 0.0077 -0.8902 -0.4555
vn 0.9230 -0.0450 0.3822
vn -0.9181 -0.1870 -0.3496
vn 0.9462 -0.1464 -0.2886
vn -0.3831 -0.1730 0.9073
vn -0.3738 -0.0664 -0.9251
vn -0.0000 1.0000 0.0015
vn 0.0147 -0.9964 0.0839
vn 0.9105 0.0624 0.4087
vn -0.0417 -0.9987 -0.0277
vn 0.0000 -1.0000 -0.0015
vn -0.0110 0.4448 0.8955
vn 0.9230 -0.0426 -0.3824
vn -0.4450 -0.0885 0.8911
vn 0.3823 -0.0408 -0.9231
vn 0.0000 0.1745 -0.9846
vn 0.3820 -0.0601 -0.9222
vn 0.9221 -0.0627 -0.3819
vn 0.0000 1.0000 0.0000
vn -0.0000 -1.0000 0.0000
vn -0.0484 0.9962 -0.0717
vn 0.0794 0.9878 0.1337
vn -0.0700 0.9964 -0.0472
vn -0.0008 -1.0000 0.0003
vn 0.0008 -1.0000 0.0003
vn 0.0008 1.0000 -0.0003
vn -0.9194 0.2635 -0.2919
vn 0.0000 -0.8918 0.4525
vn 0.0000 0.9879 -0.1548
vn 1.0000 -0.0000 0.0000
vn -1.0000 0.0000 0.0000
vn 0.0000 0.8965 0.4429
vn 0.0000 0.8413 -0.5406
vn -0.2382 0.8628 -0.4459
vn -0.9281 -0.0108 0.3721
vn 0.0000 -0.8413 0.5406
vn 0.2382 -0.8628 0.4459
vn 0.4241 -0.0226 0.9053
vn 0.2382 0.8628 -0.4460
vn 0.9537 0.1360 0.2681
vn -0.2382 -0.8628 0.4459
vn 0.9197 -0.0690 0.3864
vn 0.0000 -0.8965 -0.4429
vn -0.0000 0.1746 -0.9846
vn 0.0058 0.9859 -0.1670
vn 0.0000 -0.6964 0.7176
vn -0.0077 -0.8902 -0.4555
vn 0.0058 0.4414 0.8973
vn 0.9197 0.2730 -0.2820
vn -0.9494 -0.3003 0.0925
vn 0.9227 -0.3433 -0.1757
vn -0.9462 -0.1464 -0.2886
vn -0.9348 -0.0053 -0.3552
vn -0.4606 -0.1345 0.8774
vn -0.3642 -0.1318 -0.9220
vn 0.0000 -0.9993 -0.0373
vn 0.0067 1.0000 0.0043
vn -0.0073 1.0000 0.0044
vn -0.0000 0.9895 0.1447
vn -0.9027 0.1378 0.4077
g Bucket_Bucket_CollorMaterial
usemtl CollorMaterial
s off
f 1/1/1 36/2/1 35/3/1
f 35/3/2 36/2/2 37/4/2
f 3/5/3 31/6/3 30/7/3
f 70/8/4 17/9/4 14/10/4 1/1/4
f 27/11/5 26/12/5 21/13/5 22/14/5
f 28/15/6 27/11/6 22/14/6 23/16/6
f 24/17/7 28/15/7 23/16/7 19/18/7
f 25/19/8 24/17/8 19/18/8 20/20/8
f 29/21/9 30/7/9 31/6/9
f 35/3/10 37/4/10 38/22/10
f 35/3/11 38/22/11 4/23/11
f 35/3/12 34/24/12 70/8/12
f 70/8/13 1/1/13 35/3/13
f 3/5/14 6/25/14 13/26/14 29/21/14
f 30/7/15 29/21/15 13/26/15
f 38/22/16 37/4/16 32/27/16
f 31/6/14 3/5/14 29/21/14
f 32/27/17 37/4/17 36/2/17
f 4/23/18 43/28/18 35/3/18
f 43/28/12 34/24/12 35/3/12
f 10/29/19 9/30/19 8/31/19 7/32/19
f 73/33/20 6/25/20 3/5/20 5/34/20
f 73/33/21 12/35/21 13/26/21 6/25/21
f 43/28/22 4/23/22 15/36/22 16/37/22
f 72/38/23 8/31/23 9/30/23 46/39/23
f 15/36/24 32/27/24 33/40/24 16/37/24
f 18/41/25 2/42/25 10/29/25 7/32/25
f 12/35/15 11/43/15 30/7/15 13/26/15
f 33/40/26 32/27/26 14/10/26 17/9/26
f 46/39/27 9/30/27 10/29/27 2/42/27
f 36/2/28 1/1/28 14/10/28 32/27/28
f 15/36/29 4/23/29 38/22/29 32/27/29
f 26/12/30 25/19/30 20/20/30 21/13/30
f 18/41/31 72/38/31 46/39/31 2/42/31
f 5/34/32 3/5/32 30/7/32 11/43/32
f 5/44/33 48/45/33 89/46/33 91/47/33
f 64/48/34 92/49/34 90/50/34 61/51/34
f 80/52/35 52/53/35 51/54/35 50/55/35
f 48/45/36 5/44/36 62/56/36 63/57/36
f 84/58/37 18/59/37 45/60/37 82/61/37
f 71/62/38 51/54/38 52/53/38 44/63/38
f 18/59/39 54/64/39 55/65/39 45/60/39
f 69/66/40 68/67/40 67/68/40 66/69/40
f 82/61/41 45/60/41 55/65/41 87/70/41
f 40/71/42 64/48/42 61/51/42 42/72/42
f 43/73/43 67/68/43 68/67/43 49/74/43
f 47/75/44 59/76/44 77/77/44
f 43/73/45 49/74/45 41/78/45 73/79/45
f 93/80/46 94/81/46 90/50/46
f 60/82/47 78/83/47 65/84/47 57/85/47
f 73/79/48 41/78/48 69/66/48 66/69/48
f 72/86/49 74/87/49 75/88/49 46/89/49
f 46/89/50 75/88/50 76/90/50 60/82/50
f 81/91/51 80/52/51 50/55/51
f 44/63/52 79/92/52 81/91/52
f 86/93/53 87/70/53 88/94/53
f 76/90/54 77/77/54 78/83/54
f 76/90/55 78/83/55 60/82/55
f 79/92/56 80/52/56 81/91/56
f 79/92/57 52/53/57 80/52/57
f 88/94/58 55/65/58 54/64/58
f 82/61/59 86/93/59 85/95/59
f 86/93/60 88/94/60 85/95/60
f 56/96/61 85/95/61 88/94/61
f 71/62/62 39/97/62 56/96/62 53/98/62
f 89/46/63 93/80/63 92/49/63
f 74/87/64 42/72/64 47/75/64 75/88/64
f 93/80/65 90/50/65 92/49/65
f 86/93/66 82/61/66 87/70/66
f 76/90/67 75/88/67 77/77/67
f 75/88/68 47/75/68 77/77/68
f 93/80/63 89/46/63 94/81/63
f 78/83/69 77/77/69 59/76/69
f 50/55/70 70/99/70 81/91/70
f 47/75/71 42/72/71 58/100/71 59/76/71
f 79/92/57 44/63/57 52/53/57
f 54/64/72 83/101/72 88/94/72
f 88/94/73 87/70/73 55/65/73
f 83/101/72 53/98/72 88/94/72
f 53/98/74 56/96/74 88/94/74
f 90/50/75 94/81/75 63/57/75 62/56/75
f 41/78/76 49/74/76 68/67/76 69/66/76
f 89/46/77 48/45/77 63/57/77 94/81/77
f 91/47/78 89/46/78 40/71/78 42/72/78
f 58/100/79 65/84/79 78/83/79 59/76/79
f 40/71/80 89/46/80 92/49/80 64/48/80
f 39/97/81 82/61/81 85/95/81 56/96/81
f 84/58/82 82/61/82 39/97/82 71/62/82
f 46/89/83 60/82/83 57/85/83 72/86/83
f 71/62/52 44/63/52 81/91/52 70/99/52
g Bucket_Bucket_Metal2
usemtl Metal2
f 167/102/84 170/103/84 166/104/84 163/105/84
f 117/106/85 122/107/85 124/108/85 111/109/85
f 140/110/86 226/111/86 224/112/86 124/108/86
f 219/113/87 218/114/87 213/115/87 214/116/87
f 158/117/88 157/118/88 155/119/88 156/120/88
f 132/121/89 130/122/89 117/106/89 111/109/89
f 112/123/90 125/124/90 126/125/90 118/126/90
f 137/127/91 138/128/91 122/107/91 121/129/91
f 224/112/92 226/111/92 141/130/92 125/124/92
f 204/131/93 199/132/93 203/133/93 208/134/93
f 101/135/94 100/136/94 105/137/94 106/138/94
f 118/126/95 126/125/95 123/139/95 113/140/95
f 165/141/96 169/142/96 168/143/96 164/144/96
f 111/109/97 124/108/97 224/112/97 223/145/97
f 97/146/98 107/147/98 103/148/98 98/149/98
f 104/150/99 103/148/99 109/151/99 106/138/99
f 223/145/100 225/152/100 132/121/100 111/109/100
f 117/106/101 116/153/101 121/129/101 122/107/101
f 133/154/102 225/152/102 223/145/102 112/123/102
f 97/146/103 98/149/103 101/135/103 96/155/103
f 213/115/104 218/114/104 217/156/104 212/157/104
f 100/136/105 99/158/105 104/150/105 105/137/105
f 96/155/106 95/159/106 108/160/106 109/151/106
f 99/158/107 98/149/107 103/148/107 104/150/107
f 207/161/108 208/134/108 203/133/108 202/162/108
f 115/163/109 114/164/109 119/165/109 120/166/109
f 116/153/110 115/163/110 120/166/110 121/129/110
f 135/167/111 136/168/111 120/166/111 119/165/111
f 115/163/112 128/169/112 127/170/112 114/164/112
f 123/139/113 139/171/113 135/167/113 119/165/113
f 122/107/114 138/128/114 140/110/114 124/108/114
f 126/125/115 142/172/115 139/171/115 123/139/115
f 134/173/116 133/154/116 112/123/116 118/126/116
f 117/106/117 130/122/117 129/174/117 116/153/117
f 127/170/112 131/175/112 113/140/112 114/164/112
f 116/153/112 129/174/112 128/169/112 115/163/112
f 136/168/111 137/127/111 121/129/111 120/166/111
f 131/175/112 134/173/112 118/126/112 113/140/112
f 125/124/118 141/130/118 142/172/118 126/125/118
f 219/113/119 220/176/119 222/177/119 218/114/119
f 178/178/120 176/179/120 175/180/120 177/181/120
f 150/182/30 149/183/30 144/184/30 145/185/30
f 151/186/121 150/182/121 145/185/121 146/187/121
f 152/188/6 151/186/6 146/187/6 147/189/6
f 172/190/30 178/178/30 177/181/30 171/191/30
f 144/184/122 143/192/122 153/193/122
f 145/185/122 144/184/122 153/193/122
f 146/187/122 145/185/122 153/193/122
f 147/189/122 146/187/122 153/193/122
f 143/192/122 147/189/122 153/193/122
f 148/194/123 149/183/123 154/195/123
f 149/183/123 150/182/123 154/195/123
f 150/182/123 151/186/123 154/195/123
f 151/186/123 152/188/123 154/195/123
f 152/188/123 148/194/123 154/195/123
f 180/196/124 174/197/124 173/198/124 179/199/124
f 195/200/121 194/201/121 189/202/121 190/203/121
f 192/204/7 196/205/7 191/206/7 187/207/7
f 160/208/122 165/141/122 158/117/122
f 158/117/122 165/141/122 164/144/122
f 159/209/123 157/118/123 166/104/123
f 166/104/123 157/118/123 163/105/123
f 163/105/125 164/144/125 167/102/125
f 167/102/126 164/144/126 168/143/126
f 96/155/127 109/151/127 110/210/127 102/211/127
f 166/104/128 170/103/128 165/141/128
f 165/141/129 170/103/129 169/142/129
f 101/135/130 106/138/130 108/160/130 95/159/130
f 173/198/122 171/191/122 177/181/122 175/180/122
f 174/197/88 172/190/88 171/191/88 173/198/88
f 157/118/123 159/209/123 161/212/123 155/119/123
f 149/183/8 148/194/8 143/192/8 144/184/8
f 156/120/30 155/119/30 161/212/30 162/213/30
f 180/196/123 181/214/123 174/197/123
f 174/197/123 181/214/123 176/179/123
f 175/180/122 182/215/122 173/198/122
f 173/198/122 182/215/122 179/199/122
f 179/199/125 183/216/125 180/196/125
f 180/196/131 183/216/131 184/217/131
f 183/216/132 179/199/132 182/215/132 186/218/132
f 185/219/133 186/218/133 181/214/133
f 181/214/128 186/218/128 182/215/128
f 210/220/134 206/221/134 205/222/134 204/131/134
f 182/215/135 175/180/135 176/179/135 181/214/135
f 193/223/8 192/204/8 187/207/8 188/224/8
f 194/201/30 193/223/30 188/224/30 189/202/30
f 164/144/124 163/105/124 157/118/124 158/117/124
f 196/205/6 195/200/6 190/203/6 191/206/6
f 215/225/136 220/176/136 219/113/136 214/116/136
f 188/224/122 187/207/122 197/226/122
f 189/202/122 188/224/122 197/226/122
f 190/203/122 189/202/122 197/226/122
f 191/206/122 190/203/122 197/226/122
f 187/207/122 191/206/122 197/226/122
f 192/204/123 193/223/123 198/227/123
f 193/223/123 194/201/123 198/227/123
f 194/201/123 195/200/123 198/227/123
f 195/200/123 196/205/123 198/227/123
f 196/205/123 192/204/123 198/227/123
f 207/161/137 202/162/137 201/228/137 206/221/137
f 205/222/138 200/229/138 199/132/138 204/131/138
f 216/230/139 220/176/139 215/225/139 211/231/139
f 205/222/140 206/221/140 201/228/140 200/229/140
f 200/229/123 209/232/123 199/132/123
f 201/228/123 209/232/123 200/229/123
f 202/162/123 209/232/123 201/228/123
f 203/133/123 209/232/123 202/162/123
f 199/132/123 209/232/123 203/133/123
f 210/220/141 208/134/141 207/161/141 206/221/141
f 220/176/142 216/230/142 217/156/142 222/177/142
f 208/134/143 210/220/143 204/131/143
f 184/217/144 185/219/144 181/214/144 180/196/144
f 102/211/145 110/210/145 107/147/145 97/146/145
f 148/194/7 152/188/7 147/189/7 143/192/7
f 217/156/138 216/230/138 211/231/138 212/157/138
f 212/157/122 211/231/122 221/233/122
f 213/115/122 212/157/122 221/233/122
f 214/116/122 213/115/122 221/233/122
f 215/225/122 214/116/122 221/233/122
f 211/231/122 215/225/122 221/233/122
f 162/213/120 161/212/120 159/209/120 160/208/120
f 112/123/146 223/145/146 224/112/146 125/124/146
f 113/140/147 123/139/147 119/165/147 114/164/147
f 98/149/103 99/158/103 101/135/103
f 99/158/103 100/136/103 101/135/103
f 101/135/148 95/159/148 96/155/148
f 96/155/103 102/211/103 97/146/103
f 103/148/149 107/147/149 109/151/149
f 107/147/150 110/210/150 109/151/150
f 109/151/151 108/160/151 106/138/151
f 106/138/99 105/137/99 104/150/99
f 217/156/152 218/114/152 222/177/152
f 166/104/135 165/141/135 160/208/135 159/209/135
