# Blender v3.0.0 OBJ File: 'Blender Medieval Village Megapack Low Poly .blend'
# www.blender.org
mtllib Carrot.mtl
o Carrot
v -0.020060 0.180167 0.022864
v 0.017878 0.179155 0.018837
v 0.003942 0.180140 -0.017471
v -0.020870 0.182987 0.000876
v 0.000461 0.182987 0.022873
v -0.018682 0.181740 -0.018097
v 0.021793 0.182987 0.000876
v 0.000461 0.191637 0.000876
v -0.007269 0.006209 0.007351
v 0.003528 0.006259 -0.007773
v 0.006020 0.006205 0.007352
v -0.003366 0.009150 -0.008909
v -0.000662 0.006237 0.010475
v 0.007275 0.010322 0.000558
v -0.011681 0.003071 0.000362
v -0.001171 -0.025940 -0.003657
v -0.020454 0.074807 0.020703
v 0.010741 0.076908 -0.020888
v 0.018934 0.074807 0.020703
v -0.010411 0.081900 -0.015630
v -0.001117 0.076904 0.031842
v 0.025985 0.078877 -0.000482
v -0.024065 0.085472 -0.003586
v -0.023909 0.149143 0.026596
v 0.018354 0.143715 -0.021919
v 0.021636 0.148131 0.022569
v -0.010334 0.143317 -0.023295
v 0.000261 0.150289 0.031453
v -0.029635 0.138399 -0.005883
v 0.027615 0.138207 -0.001034
v 0.008152 0.204251 -0.001871
v 0.008313 0.184133 -0.002497
v 0.007693 0.204654 0.001205
v 0.008313 0.184133 0.001338
v 0.005097 0.204870 -0.002364
v 0.004478 0.184133 -0.002497
v 0.004639 0.205272 0.000712
v 0.004478 0.184133 0.001338
v 0.022750 0.253838 0.002803
v 0.023056 0.253099 -0.000264
v 0.019764 0.255015 0.002372
v 0.020070 0.254276 -0.000695
v 0.030586 0.286790 0.003407
v 0.030713 0.286513 0.002200
v 0.029408 0.287230 0.003235
v 0.029535 0.286953 0.002029
v 0.001039 0.185343 -0.006240
v 0.000810 0.184586 -0.000027
v -0.005087 0.183680 -0.006561
v -0.005315 0.182923 -0.000348
v -0.003876 0.213978 0.001144
v -0.009273 0.211927 0.005506
v -0.008801 0.212970 0.000573
v -0.001912 0.256200 0.004967
v 0.001606 0.280349 0.000903
v 0.000640 0.280528 0.000787
v 0.006609 0.302021 0.004331
v 0.005330 0.300749 0.000623
v 0.002998 0.301942 0.003915
v 0.004391 0.300727 0.000507
v -0.014708 0.337209 0.003983
v -0.014652 0.337605 0.002512
v -0.016035 0.336229 0.003809
v -0.015978 0.336624 0.002338
v -0.000748 0.181045 -0.004452
v -0.001381 0.160653 -0.004620
v 0.002366 0.181452 -0.003961
v 0.002506 0.160653 -0.004588
v -0.001274 0.181671 -0.001360
v -0.001413 0.160653 -0.000733
v 0.001841 0.182079 -0.000870
v 0.002474 0.160653 -0.000701
v 0.004111 0.231305 -0.019209
v 0.001006 0.230556 -0.019545
v 0.003650 0.232498 -0.016186
v 0.000544 0.231749 -0.016522
v 0.004789 0.264705 -0.027146
v 0.003567 0.264424 -0.027285
v 0.004606 0.265151 -0.025953
v 0.003384 0.264870 -0.026092
v -0.011279 0.172303 0.007305
v -0.005078 0.170525 0.007076
v -0.011181 0.171304 0.013590
v -0.004980 0.169526 0.013361
v 0.003611 0.198505 0.010260
v -0.001305 0.200332 0.010126
v 0.003399 0.198084 0.015322
v -0.001517 0.199911 0.015188
v 0.005492 0.232598 0.005576
v 0.001874 0.233546 0.005326
v 0.005472 0.234394 0.009050
v 0.001854 0.235342 0.008799
v 0.007499 0.277883 -0.005412
v 0.003914 0.279103 -0.005568
v 0.007396 0.278237 -0.001737
v 0.003810 0.279457 -0.001893
v 0.011652 0.315444 0.014203
v 0.010199 0.316082 0.014243
v 0.011521 0.314622 0.015606
v 0.010069 0.315260 0.015646
v -0.001397 0.256597 0.001379
v -0.004884 0.257963 0.000950
v 0.007015 0.302678 0.000747
v 0.003404 0.302599 0.000331
v -0.000387 0.274736 0.001370
v 0.006852 0.305397 -0.014325
v 0.007455 0.308645 -0.014370
v -0.001307 0.274877 0.001705
v 0.002789 0.295055 0.004182
v 0.003617 0.294734 0.003855
v 0.006845 0.299436 0.018194
v 0.007115 0.300785 0.018362
v 0.004246 0.304979 0.003838
v 0.003424 0.304466 0.004034
v -0.007588 0.322596 0.002998
v -0.006715 0.322915 0.002821
v -0.009796 0.328197 0.018302
v -0.010522 0.329377 0.018336
v 0.024803 0.264242 0.002857
v 0.023677 0.264686 0.002694
v 0.027755 0.276660 0.003084
v 0.027311 0.276826 0.003020
v 0.024556 0.282427 0.010769
v 0.024556 0.263972 0.000389
v 0.023488 0.264393 0.000235
v 0.027295 0.275923 0.001271
v 0.026874 0.276080 0.001209
v 0.026383 0.280347 -0.010479
v -0.004348 0.212935 0.006077
v -0.005398 0.257566 0.004538
v -0.006697 0.227895 0.005367
v -0.005219 0.228198 0.005538
v -0.005534 0.241597 0.005076
v -0.004487 0.241187 0.005205
v -0.005956 0.251320 0.025858
v -0.005331 0.251448 0.025931
v -0.005464 0.257115 0.025735
v -0.005021 0.256941 0.025790
v 0.007671 0.289467 0.000501
v 0.006260 0.289947 0.000440
v 0.009305 0.304247 0.008220
v 0.008734 0.304498 0.008235
v 0.010915 0.304534 -0.010769
v 0.007597 0.292007 0.004670
v 0.006678 0.292320 0.004630
v 0.008653 0.301326 0.009112
v 0.008281 0.301489 0.009123
v 0.006413 0.305508 0.013433
v 0.003335 0.241749 -0.021792
v 0.002216 0.241479 -0.021913
v 0.003579 0.253782 -0.024651
v 0.003139 0.253681 -0.024702
v 0.000091 0.254393 -0.038593
v 0.003161 0.239756 -0.018440
v 0.001468 0.239349 -0.018623
v 0.003682 0.257551 -0.023762
v 0.003016 0.257398 -0.023838
v -0.006931 0.269078 -0.016624
v -0.003358 0.268004 0.003563
v 0.001146 0.291808 0.003229
v -0.003082 0.268217 0.001638
v 0.001364 0.292161 0.001306
v -0.004590 0.311721 -0.003722
v -0.002975 0.313063 0.002766
v -0.009802 0.325361 0.002728
v -0.009781 0.325503 0.002200
v -0.002829 0.313299 0.001480
v -0.024438 0.330397 -0.010087
vt 0.917969 0.791005
vt 0.917969 0.791005
vt 0.917969 0.791005
vt 0.917969 0.791005
vt 0.917969 0.791005
vt 0.917969 0.791005
vt 0.917969 0.791005
vt 0.917969 0.791005
vt 0.917969 0.791005
vt 0.917969 0.791005
vt 0.917969 0.791005
vt 0.917969 0.791005
vt 0.917969 0.791005
vt 0.917969 0.791005
vt 0.917969 0.791005
vt 0.917969 0.791005
vt 0.917969 0.791005
vt 0.917969 0.791005
vt 0.917969 0.791005
vt 0.917969 0.791005
vt 0.917969 0.791005
vt 0.917969 0.791005
vt 0.917969 0.791005
vt 0.917969 0.791005
vt 0.917969 0.791005
vt 0.917969 0.791005
vt 0.917969 0.791005
vt 0.917969 0.791005
vt 0.917969 0.791005
vt 0.917969 0.791005
vt 0.917969 0.372938
vt 0.917969 0.372938
vt 0.917969 0.372938
vt 0.917969 0.372938
vt 0.917969 0.372938
vt 0.917969 0.372938
vt 0.917969 0.372938
vt 0.917969 0.372938
vt 0.917969 0.372938
vt 0.917969 0.372938
vt 0.917969 0.372938
vt 0.917969 0.372938
vt 0.917969 0.372938
vt 0.917969 0.372938
vt 0.917969 0.372938
vt 0.917969 0.372938
vt 0.917969 0.372938
vt 0.917969 0.372938
vt 0.917969 0.372938
vt 0.917969 0.372938
vt 0.917969 0.372938
vt 0.917969 0.372938
vt 0.917969 0.372938
vt 0.917969 0.372938
vt 0.917969 0.372938
vt 0.917969 0.372938
vt 0.917969 0.372938
vt 0.917969 0.372938
vt 0.917969 0.372938
vt 0.917969 0.372938
vt 0.917969 0.372938
vt 0.917969 0.372938
vt 0.917969 0.372938
vt 0.917969 0.372938
vt 0.917969 0.372938
vt 0.917969 0.372938
vt 0.917969 0.372938
vt 0.917969 0.372938
vt 0.917969 0.372938
vt 0.917969 0.372938
vt 0.917969 0.372938
vt 0.917969 0.372938
vt 0.917969 0.372938
vt 0.917969 0.372938
vt 0.917969 0.372938
vt 0.917969 0.372938
vt 0.917969 0.372938
vt 0.917969 0.372938
vt 0.917969 0.372938
vt 0.917969 0.372938
vt 0.917969 0.372938
vt 0.917969 0.372938
vt 0.917969 0.372938
vt 0.917969 0.372938
vt 0.917969 0.372938
vt 0.917969 0.372938
vt 0.917969 0.372938
vt 0.917969 0.372938
vt 0.917969 0.372938
vt 0.917969 0.372938
vt 0.917969 0.372938
vt 0.917969 0.372938
vt 0.917969 0.372938
vt 0.917969 0.372938
vt 0.917969 0.372938
vt 0.917969 0.372938
vt 0.917969 0.372938
vt 0.917969 0.372938
vt 0.917969 0.372938
vt 0.917969 0.372938
vt 0.917969 0.372938
vt 0.917969 0.372938
vt 0.917969 0.372938
vt 0.917969 0.372938
vt 0.917969 0.372938
vt 0.917969 0.372938
vt 0.917969 0.372938
vt 0.917969 0.372938
vt 0.917969 0.372938
vt 0.917969 0.372938
vt 0.917969 0.372938
vt 0.917969 0.372938
vt 0.917969 0.372938
vt 0.917969 0.372938
vt 0.917969 0.372938
vt 0.917969 0.372938
vt 0.917969 0.372938
vt 0.917969 0.372938
vt 0.917969 0.372938
vt 0.917969 0.372938
vt 0.917969 0.372938
vt 0.917969 0.372938
vt 0.917969 0.372938
vt 0.917969 0.372938
vt 0.917969 0.372938
vt 0.917969 0.372938
vt 0.917969 0.372938
vt 0.917969 0.372938
vt 0.917969 0.372938
vt 0.917969 0.372938
vt 0.917969 0.372938
vt 0.917969 0.372938
vt 0.917969 0.372938
vt 0.917969 0.372938
vt 0.917969 0.372938
vt 0.917969 0.372938
vt 0.917969 0.372938
vt 0.917969 0.372938
vt 0.917969 0.372938
vt 0.917969 0.372938
vt 0.917969 0.372938
vt 0.917969 0.372938
vt 0.917969 0.372938
vt 0.917969 0.372938
vt 0.917969 0.372938
vt 0.917969 0.372938
vt 0.917969 0.372938
vt 0.917969 0.372938
vt 0.917969 0.372938
vt 0.917969 0.372938
vt 0.917969 0.372938
vt 0.917969 0.372938
vt 0.917969 0.372938
vt 0.917969 0.372938
vt 0.917969 0.372938
vt 0.917969 0.372938
vt 0.917969 0.372938
vt 0.917969 0.372938
vt 0.917969 0.372938
vt 0.917969 0.372938
vt 0.917969 0.372938
vt 0.917969 0.372938
vt 0.917969 0.372938
vt 0.917969 0.372938
vt 0.917969 0.372938
vt 0.917969 0.372938
vt 0.917969 0.372938
vt 0.917969 0.372938
vn -0.3969 -0.3638 0.8427
vn 0.9480 -0.2376 0.2119
vn 0.9689 0.1275 0.2120
vn 0.9721 -0.2310 0.0396
vn 0.3370 0.1967 0.9207
vn -0.1810 -0.1346 -0.9742
vn 0.3910 -0.3753 0.8404
vn -0.9840 -0.0744 0.1620
vn -0.1443 0.9295 -0.3393
vn -0.6853 -0.1495 -0.7127
vn -0.6632 -0.0430 -0.7472
vn -0.7167 -0.3437 0.6068
vn 0.9270 -0.1775 -0.3304
vn 0.1031 -0.1409 -0.9846
vn -0.0833 -0.0625 -0.9946
vn 0.8056 0.2431 -0.5403
vn -0.9629 -0.1758 0.2047
vn 0.3206 0.8947 0.3109
vn 0.4333 -0.0211 0.9010
vn -0.6611 -0.0966 -0.7441
vn -0.6820 -0.1348 -0.7188
vn 0.0419 0.1402 -0.9892
vn -0.4493 -0.2573 0.8555
vn -0.1233 0.1958 0.9729
vn -0.9826 0.1601 0.0946
vn 0.8553 -0.0691 -0.5135
vn 0.8356 -0.2073 -0.5087
vn -0.2561 0.9342 0.2483
vn 0.9584 -0.0341 0.2833
vn -0.3422 -0.0398 0.9388
vn 0.4394 -0.2541 0.8616
vn 0.3348 0.8257 -0.4539
vn -0.9697 0.2096 -0.1256
vn 0.1180 -0.0017 -0.9930
vn 0.9912 -0.1279 0.0339
vn 0.0478 -0.6585 0.7511
vn -0.8598 -0.4785 -0.1784
vn -0.0007 -0.1395 -0.9902
vn 0.1604 -0.2313 -0.9596
vn 0.0188 0.2457 -0.9692
vn -0.9825 0.1839 -0.0283
vn 0.1824 0.4396 -0.8795
vn -0.9438 0.2870 -0.1640
vn -0.0154 -0.2335 -0.9722
vn 0.3608 0.7451 -0.5609
vn -0.1068 -0.0556 0.9927
vn 0.0734 0.0184 -0.9971
vn 0.9968 0.0174 0.0781
vn -0.0755 0.0178 0.9970
vn -0.9965 0.0177 -0.0812
vn -0.9411 0.2914 -0.1713
vn 0.9892 0.0146 0.1458
vn -0.1791 0.2914 0.9397
vn -0.9877 -0.0119 -0.1559
vn 0.9877 0.0125 0.1557
vn -0.0105 -0.0588 0.9982
vn -0.1717 0.2870 0.9424
vn -0.9856 0.0368 -0.1652
vn -0.9952 0.0882 -0.0412
vn 0.8397 0.5111 0.1833
vn 0.1477 -0.0119 -0.9890
vn 0.1097 -0.0339 -0.9934
vn 0.9929 -0.0557 0.1055
vn -0.9913 0.0846 -0.1004
vn -0.9783 0.1820 -0.0988
vn 0.9824 -0.1818 0.0435
vn 0.9788 -0.1790 0.0993
vn -0.9451 0.3253 0.0313
vn 0.9977 0.0184 0.0651
vn -0.9976 0.0178 -0.0672
vn 0.1793 -0.2931 -0.9391
vn -0.1119 0.0349 0.9931
vn -0.9989 0.0376 -0.0286
vn 0.9406 -0.2931 0.1715
vn 0.1571 0.0368 -0.9869
vn 0.0730 0.0177 -0.9972
vn -0.1476 0.0125 0.9890
vn -0.1376 0.0146 0.9904
vn 0.3666 0.9144 -0.1714
vn 0.9609 -0.2313 0.1525
vn 0.3606 0.7898 0.4963
vn -0.1167 0.0315 0.9927
vn -0.9904 -0.1124 -0.0804
vn -0.5997 0.7783 0.1860
vn 0.0236 0.0988 -0.9948
vn 0.9577 -0.2867 -0.0263
vn 0.9981 -0.0506 0.0352
vn 0.0118 0.1729 0.9849
vn 0.0164 0.2365 0.9715
vn 0.9989 -0.0371 0.0284
vn -0.0698 0.0174 0.9974
vn 0.9843 0.1535 0.0867
vn 0.0947 0.1105 -0.9894
vn -0.1713 -0.4086 0.8965
vn -0.0285 -0.2084 0.9776
vn 0.1152 -0.0371 -0.9926
vn 0.1117 -0.0345 -0.9931
vn 0.1121 -0.0341 -0.9931
vn -0.9601 0.1641 0.2266
vn -0.0767 0.8866 0.4561
vn -0.9780 0.1801 -0.1055
vn 0.0056 -0.5203 -0.8539
vn 0.1817 0.8912 -0.4155
vn 0.9713 -0.1744 -0.1615
vn 0.1945 -0.5905 0.7833
vn -0.8488 -0.5242 0.0694
vn -0.3853 0.8145 -0.4338
vn 0.8534 0.5211 -0.0079
vn 0.3952 -0.3015 0.8677
vn -0.8335 0.2625 -0.4861
vn -0.2791 -0.3863 0.8791
vn 0.8375 -0.2084 0.5051
vn 0.3690 0.8106 -0.4547
vn -0.9545 0.2651 0.1368
vn -0.0937 -0.5433 -0.8343
vn 0.9655 -0.2099 -0.1540
vn 0.2911 0.9026 0.3173
vn 0.9962 -0.0544 0.0674
vn -0.9948 0.0832 -0.0591
vn -0.1586 -0.5693 -0.8067
vn 0.9851 -0.1513 0.0812
vn 0.4028 0.9140 0.0480
vn -0.9683 0.2239 -0.1107
vn 0.5966 -0.3994 0.6961
vn 0.3174 0.7583 -0.5695
vn -0.6070 0.4327 -0.6666
vn -0.2204 -0.5445 0.8093
vn 0.9663 -0.0779 -0.2452
vn 0.2472 -0.7506 -0.6127
vn -0.9680 0.1232 0.2187
vn -0.2339 0.9670 0.1010
vn -0.6877 -0.1465 -0.7110
vn -0.0203 0.5128 -0.8582
vn 0.6823 0.1911 0.7057
vn -0.0855 -0.0909 0.9922
vn 0.4425 -0.0945 -0.8918
vn 0.9309 0.3258 0.1653
vn -0.5704 0.1193 0.8127
vn -0.9877 -0.0524 -0.1474
vn 0.6620 0.4140 -0.6248
vn -0.5347 -0.8183 -0.2106
vn -0.6803 -0.3757 0.6294
vn 0.1011 0.9598 0.2618
vn 0.9829 -0.1788 0.0444
vn 0.1239 -0.0280 -0.9919
vn 0.1120 -0.0346 -0.9931
vn 0.1116 -0.0340 -0.9932
vn -0.9598 0.1671 0.2256
vn -0.8545 -0.5153 0.0653
vn 0.8516 0.5241 -0.0093
vn -0.1684 0.9144 -0.3680
g Carrot_Carrot_CollorMaterial
usemtl CollorMaterial
s off
f 16/1/1 13/2/1 9/3/1
f 19/4/2 11/5/2 14/6/2 22/7/2
f 7/8/3 2/9/3 26/10/3 30/11/3
f 11/5/4 16/1/4 14/6/4
f 28/12/5 26/10/5 2/9/5 5/13/5
f 12/14/6 20/15/6 18/16/6 10/17/6
f 13/2/7 16/1/7 11/5/7
f 23/18/8 17/19/8 24/20/8 29/21/8
f 4/22/9 8/23/9 3/24/9 6/25/9
f 16/1/10 15/26/10 12/14/10
f 29/21/11 6/25/11 27/27/11
f 16/1/12 9/3/12 15/26/12
f 14/6/13 16/1/13 10/17/13
f 16/1/14 12/14/14 10/17/14
f 20/15/15 27/27/15 25/28/15 18/16/15
f 25/28/16 3/24/16 7/8/16 30/11/16
f 17/19/17 23/18/17 15/26/17 9/3/17
f 2/9/18 7/8/18 8/23/18 5/13/18
f 21/29/19 19/4/19 26/10/19 28/12/19
f 20/15/20 23/18/20 29/21/20 27/27/20
f 23/18/21 20/15/21 12/14/21 15/26/21
f 27/27/22 6/25/22 3/24/22 25/28/22
f 13/2/23 21/29/23 17/19/23 9/3/23
f 28/12/24 5/13/24 1/30/24 24/20/24
f 24/20/25 1/30/25 4/22/25 29/21/25
f 18/16/26 25/28/26 30/11/26 22/7/26
f 18/16/27 22/7/27 14/6/27 10/17/27
f 5/13/28 8/23/28 4/22/28 1/30/28
f 30/11/29 26/10/29 19/4/29 22/7/29
f 21/29/30 28/12/30 24/20/30 17/19/30
f 19/4/31 21/29/31 13/2/31 11/5/31
f 8/23/32 7/8/32 3/24/32
f 29/21/33 4/22/33 6/25/33
f 53/31/34 102/32/34 101/33/34 51/34/34
f 95/35/35 93/36/35 97/37/35 99/38/35
f 132/39/36 136/40/36 135/41/36 131/42/36
f 104/43/37 59/44/37 63/45/37 64/46/37
f 86/47/38 90/48/38 89/49/38 85/50/38
f 78/51/39 77/52/39 73/53/39 74/54/39
f 47/55/40 49/56/40 53/31/40 51/34/40
f 96/57/41 100/58/41 98/59/41 94/60/41
f 94/60/42 98/59/42 97/37/42 93/36/42
f 46/61/43 42/62/43 41/63/43 45/64/43
f 90/48/44 94/60/44 93/36/44 89/49/44
f 133/65/45 137/66/45 138/67/45 134/68/45
f 59/44/46 57/69/46 61/70/46 63/45/46
f 68/71/47 66/72/47 65/73/47 67/74/47
f 72/75/48 68/71/48 67/74/48 71/76/48
f 69/77/49 70/78/49 72/75/49 71/76/49
f 65/73/50 66/72/50 70/78/50 69/77/50
f 42/62/51 35/79/51 37/80/51 41/63/51
f 77/52/52 79/81/52 75/82/52 73/53/52
f 76/83/53 69/77/53 71/76/53 75/82/53
f 76/83/54 74/54/54 65/73/54 69/77/54
f 75/82/55 71/76/55 67/74/55 73/53/55
f 83/84/56 84/85/56 87/86/56 88/87/56
f 80/88/57 76/83/57 75/82/57 79/81/57
f 78/51/58 74/54/58 76/83/58 80/88/58
f 88/87/59 92/89/59 90/48/59 86/47/59
f 103/90/60 62/91/60 61/70/60 57/69/60
f 42/62/61 40/92/61 31/93/61 35/79/61
f 55/94/62 101/33/62 102/32/62 56/95/62
f 51/34/63 101/33/63 54/96/63 129/97/63
f 53/31/64 52/98/64 130/99/64 102/32/64
f 102/32/65 130/99/65 59/44/65 104/43/65
f 58/100/66 106/101/66 107/102/66
f 101/33/67 103/90/67 57/69/67 54/96/67
f 81/103/68 83/84/68 88/87/68 86/47/68
f 34/104/69 32/105/69 31/93/69 33/106/69
f 35/79/70 36/107/70 38/108/70 37/80/70
f 74/54/71 73/53/71 67/74/71 65/73/71
f 54/96/72 57/69/72 59/44/72 130/99/72
f 92/89/73 96/57/73 94/60/73 90/48/73
f 40/92/74 39/109/74 33/106/74 31/93/74
f 44/110/75 40/92/75 42/62/75 46/61/75
f 31/93/76 32/105/76 36/107/76 35/79/76
f 41/63/77 37/80/77 33/106/77 39/109/77
f 43/111/78 45/64/78 41/63/78 39/109/78
f 46/61/79 45/64/79 43/111/79 44/110/79
f 44/110/80 43/111/80 39/109/80 40/92/80
f 97/37/81 98/59/81 100/58/81 99/38/81
f 52/98/82 129/97/82 54/96/82 130/99/82
f 50/112/83 52/98/83 53/31/83 49/56/83
f 61/70/84 62/91/84 64/46/84 63/45/84
f 82/113/85 81/103/85 86/47/85 85/50/85
f 82/113/86 85/50/86 87/86/86 84/85/86
f 87/86/87 85/50/87 89/49/87 91/114/87
f 88/87/88 87/86/88 91/114/88 92/89/88
f 92/89/89 91/114/89 95/35/89 96/57/89
f 91/114/90 89/49/90 93/36/90 95/35/90
f 38/108/91 34/104/91 33/106/91 37/80/91
f 48/115/92 47/55/92 51/34/92 129/97/92
f 104/43/93 64/46/93 62/91/93 103/90/93
f 96/57/94 95/35/94 99/38/94 100/58/94
f 48/115/95 129/97/95 52/98/95 50/112/95
f 58/100/96 104/43/96 103/90/96
f 56/95/97 104/43/97 60/116/97
f 55/94/98 103/90/98 101/33/98
f 109/117/99 111/118/99 112/119/99
f 60/116/100 58/100/100 107/102/100
f 60/116/101 106/101/101 56/95/101
f 55/94/102 56/95/102 106/101/102
f 110/120/103 109/117/103 112/119/103
f 110/120/104 111/118/104 105/121/104
f 108/122/105 105/121/105 111/118/105
f 115/123/106 117/124/106 118/125/106
f 116/126/107 115/123/107 118/125/107
f 116/126/108 117/124/108 113/127/108
f 114/128/109 113/127/109 117/124/109
f 120/129/110 123/130/110 122/131/110
f 119/132/111 123/130/111 120/129/111
f 121/133/112 123/130/112 119/132/112
f 122/131/113 123/130/113 121/133/113
f 127/134/114 128/135/114 125/136/114
f 125/136/115 128/135/115 124/137/115
f 124/137/116 128/135/116 126/138/116
f 126/138/117 128/135/117 127/134/117
f 135/41/82 136/40/82 138/67/82 137/66/82
f 134/68/118 136/40/118 132/39/118
f 133/65/119 135/41/119 137/66/119
f 139/139/120 140/140/120 143/141/120
f 141/142/121 139/139/121 143/141/121
f 142/143/122 141/142/122 143/141/122
f 140/140/123 142/143/123 143/141/123
f 144/144/124 146/145/124 148/146/124
f 146/145/125 147/147/125 148/146/125
f 147/147/126 145/148/126 148/146/126
f 145/148/127 144/144/127 148/146/127
f 149/149/128 153/150/128 151/151/128
f 150/152/129 153/150/129 149/149/129
f 152/153/130 153/150/130 150/152/130
f 151/151/131 153/150/131 152/153/131
f 155/154/132 158/155/132 157/156/132
f 157/156/133 158/155/133 156/157/133
f 156/157/134 158/155/134 154/158/134
f 154/158/135 158/155/135 155/154/135
f 162/159/136 161/160/136 163/161/136
f 160/162/137 162/159/137 163/161/137
f 159/163/138 160/162/138 163/161/138
f 161/160/139 159/163/139 163/161/139
f 166/164/140 167/165/140 168/166/140
f 167/165/141 164/167/141 168/166/141
f 164/167/142 165/168/142 168/166/142
f 165/168/143 166/164/143 168/166/143
f 58/100/144 55/94/144 106/101/144
f 58/100/145 60/116/145 104/43/145
f 56/95/146 102/32/146 104/43/146
f 55/94/147 58/100/147 103/90/147
f 109/117/148 108/122/148 111/118/148
f 60/116/101 107/102/101 106/101/101
f 110/120/104 112/119/104 111/118/104
f 115/123/149 114/128/149 117/124/149
f 116/126/150 118/125/150 117/124/150
f 134/68/118 138/67/118 136/40/118
f 133/65/119 131/42/119 135/41/119
f 80/88/151 79/81/151 77/52/151 78/51/151
