# Blender v3.0.0 OBJ File: 'Blender Medieval Village Megapack Low Poly .blend'
# www.blender.org
mtllib Chest.mtl
o Chest
v -0.805182 0.049923 0.299032
v -0.805182 0.049923 -0.299032
v 0.805182 0.049923 0.299032
v 0.805182 0.049923 -0.299032
v -0.710750 0.001144 0.347375
v -0.710757 0.001075 -0.347971
v 0.696085 0.001075 0.347972
v 0.696085 0.001075 -0.347972
v -0.792729 0.004920 -0.343854
v -0.792744 0.004783 0.345046
v -0.796516 0.389988 0.347914
v -0.805214 0.389988 -0.299038
v 0.796527 0.389989 -0.347866
v 0.792730 0.004920 -0.343852
v 0.792730 0.004921 0.343852
v 0.805214 0.389989 0.299038
v -0.805214 0.389989 0.299038
v 0.696079 0.389988 -0.356494
v 0.805214 0.389988 -0.299038
v -0.710748 0.389989 0.356459
v -0.796527 0.389989 -0.347866
v -0.710751 0.389988 -0.356494
v 0.696076 0.389989 0.356458
v 0.796515 0.389988 0.347915
v -0.775746 0.049923 0.299032
v -0.775746 0.049923 -0.299032
v 0.775746 0.049923 0.299032
v 0.775746 0.049923 -0.299032
v -0.710751 0.021897 0.327058
v -0.710751 0.021897 -0.327058
v 0.696079 0.021897 0.327058
v 0.696079 0.021897 -0.327058
v -0.775746 0.021897 -0.327058
v -0.775746 0.021897 0.327058
v -0.775746 0.389989 0.327058
v -0.775746 0.389988 -0.299032
v 0.775746 0.389988 -0.327058
v 0.775746 0.021897 -0.327058
v 0.775746 0.021897 0.327058
v 0.775746 0.389989 0.299032
v -0.775746 0.389989 0.299032
v 0.696079 0.389988 -0.327058
v 0.775746 0.389988 -0.299032
v -0.710751 0.389989 0.327058
v -0.775746 0.389988 -0.327058
v -0.710751 0.389988 -0.327058
v 0.696079 0.389989 0.327058
v 0.775746 0.389989 0.327058
v -0.796069 0.353296 0.347521
v -0.796096 0.353299 -0.347540
v 0.796095 0.353299 -0.347540
v 0.796068 0.353296 0.347522
v -0.710748 0.352946 0.355628
v -0.710745 0.352947 -0.355602
v 0.696076 0.352947 0.355627
v 0.696074 0.352947 -0.355601
v -0.805312 0.357623 0.299062
v -0.805312 0.357623 -0.299063
v 0.805312 0.357623 -0.299063
v 0.805312 0.357623 0.299062
v 0.696007 0.389715 -0.371347
v 0.796492 0.389714 -0.362786
v -0.796633 0.389714 -0.362785
v -0.710819 0.389715 -0.371347
v -0.796263 0.353040 -0.362353
v 0.796122 0.353040 -0.362353
v -0.710824 0.352676 -0.370578
v 0.696011 0.352676 -0.370578
v -0.806789 0.260814 -0.351600
v -0.805649 0.142972 -0.354974
v 0.806789 0.260814 -0.351600
v 0.805649 0.142972 -0.354974
v 0.806789 0.260815 0.351599
v 0.805649 0.142972 0.354974
v -0.720978 0.259489 0.358668
v -0.720984 0.140453 0.361204
v -0.720977 0.259489 -0.358659
v -0.720977 0.140522 -0.360617
v 0.706094 0.259489 0.358658
v 0.706094 0.140522 0.360617
v 0.706094 0.259489 -0.358658
v 0.706094 0.140522 -0.360617
v -0.816689 0.276183 -0.303317
v -0.816661 0.172169 -0.307230
v 0.816690 0.276183 -0.303317
v 0.816661 0.172169 -0.307230
v 0.816690 0.276183 0.303317
v 0.816661 0.172169 0.307230
v -0.806803 0.260814 0.351593
v -0.816680 0.172169 0.307234
v -0.816676 0.276183 0.303313
v -0.803905 0.125603 0.360600
v -0.787852 0.142463 0.355828
v -0.809322 0.152138 0.340037
v 0.227136 0.001084 -0.347871
v -0.241808 0.001084 -0.347871
v 0.227136 0.389989 0.356493
v -0.241808 0.389989 0.356493
v -0.241808 0.389988 -0.356494
v 0.227136 0.389988 -0.356494
v -0.241808 0.001084 0.347871
v 0.227136 0.001084 0.347871
v 0.227136 0.021897 -0.327058
v -0.241808 0.021897 -0.327058
v 0.227136 0.389989 0.327058
v -0.241808 0.389989 0.327058
v -0.241808 0.389988 -0.327058
v 0.227136 0.389988 -0.327058
v -0.241808 0.021897 0.327058
v 0.227136 0.021897 0.327058
v -0.241808 0.352950 -0.355672
v 0.227136 0.352950 -0.355672
v 0.227136 0.352950 0.355672
v -0.241808 0.352950 0.355672
v -0.241878 0.389715 -0.371373
v 0.227065 0.389715 -0.371373
v -0.241878 0.352676 -0.370552
v 0.227065 0.352676 -0.370552
v 0.230404 0.259488 0.358671
v -0.245287 0.259488 0.358671
v -0.245287 0.140511 -0.360634
v 0.230404 0.140511 -0.360634
v -0.245287 0.259487 -0.358671
v 0.230404 0.259487 -0.358671
v -0.244165 0.095552 0.356518
v 0.230404 0.140511 0.360634
v -0.245287 0.185666 0.359889
v -0.290448 0.140511 0.360634
vt 0.066902 0.942550
vt 0.066902 0.942550
vt 0.066902 0.942550
vt 0.066902 0.942550
vt 0.066902 0.942550
vt 0.066902 0.942550
vt 0.066902 0.942550
vt 0.066902 0.942550
vt 0.066902 0.942550
vt 0.066902 0.942550
vt 0.066902 0.942550
vt 0.066902 0.942550
vt 0.066902 0.942550
vt 0.066902 0.942550
vt 0.066902 0.942550
vt 0.066902 0.942550
vt 0.066902 0.942550
vt 0.066902 0.942550
vt 0.066902 0.942550
vt 0.066902 0.942550
vt 0.066902 0.942550
vt 0.066902 0.942550
vt 0.066902 0.942550
vt 0.066902 0.942550
vt 0.066902 0.942550
vt 0.066902 0.942550
vt 0.066902 0.942550
vt 0.066902 0.942550
vt 0.066902 0.942550
vt 0.066902 0.942550
vt 0.066902 0.942550
vt 0.066902 0.942550
vt 0.066902 0.942550
vt 0.066902 0.942550
vt 0.066902 0.942550
vt 0.066902 0.942550
vt 0.066902 0.942550
vt 0.066902 0.942550
vt 0.066902 0.942550
vt 0.066902 0.942550
vt 0.066902 0.942550
vt 0.066902 0.942550
vt 0.066902 0.942550
vt 0.066902 0.942550
vt 0.066902 0.942550
vt 0.066902 0.942550
vt 0.066902 0.942550
vt 0.066902 0.942550
vt 0.066902 0.942550
vt 0.066902 0.942550
vt 0.066902 0.942550
vt 0.066902 0.942550
vt 0.066902 0.942550
vt 0.066902 0.942550
vt 0.066902 0.942550
vt 0.066902 0.942550
vt 0.066902 0.942550
vt 0.066902 0.942550
vt 0.066902 0.942550
vt 0.066902 0.942550
vt 0.066902 0.942550
vt 0.066902 0.942550
vt 0.066902 0.942550
vt 0.066902 0.942550
vt 0.066902 0.942550
vt 0.066902 0.942550
vt 0.066902 0.942550
vt 0.066902 0.942550
vt 0.066902 0.942550
vt 0.066902 0.942550
vt 0.066902 0.942550
vt 0.066902 0.942550
vt 0.066902 0.942550
vt 0.066902 0.942550
vt 0.958984 0.047350
vt 0.958984 0.047350
vt 0.958984 0.047350
vt 0.958984 0.047350
vt 0.958984 0.047350
vt 0.958984 0.047350
vt 0.958984 0.047350
vt 0.958984 0.047350
vt 0.958984 0.047350
vt 0.958984 0.047350
vt 0.958984 0.047350
vt 0.958984 0.047350
vt 0.958984 0.047350
vt 0.958984 0.047350
vt 0.958984 0.047350
vt 0.958984 0.047350
vt 0.958984 0.047350
vt 0.958984 0.047350
vt 0.958984 0.047350
vt 0.958984 0.047350
vt 0.958984 0.047350
vt 0.958984 0.047350
vt 0.958984 0.047350
vt 0.958984 0.047350
vt 0.958984 0.047350
vt 0.958984 0.047350
vt 0.958984 0.047350
vt 0.958984 0.047350
vt 0.958984 0.047350
vt 0.958984 0.047350
vt 0.958984 0.047350
vt 0.958984 0.047350
vt 0.958984 0.047350
vt 0.958984 0.047350
vt 0.958984 0.047350
vt 0.958984 0.047350
vt 0.958984 0.047350
vt 0.958984 0.047350
vt 0.958984 0.047350
vt 0.958984 0.047350
vt 0.958984 0.047350
vt 0.958984 0.047350
vt 0.958984 0.047350
vt 0.958984 0.047350
vt 0.958984 0.047350
vt 0.958984 0.047350
vt 0.958984 0.047350
vt 0.958984 0.047350
vt 0.958984 0.047350
vt 0.958984 0.047350
vt 0.958984 0.047350
vt 0.958984 0.047350
vt 0.958984 0.047350
vt 0.958984 0.047350
vt 0.958984 0.047350
vt 0.958984 0.047350
vt 0.958984 0.047350
vt 0.958984 0.047350
vt 0.958984 0.047350
vt 0.958984 0.047350
vt 0.958984 0.047350
vt 0.958984 0.047350
vt 0.958984 0.047350
vt 0.958984 0.047350
vt 0.958984 0.047350
vt 0.958984 0.047350
vt 0.958984 0.047350
vt 0.958984 0.047350
vt 0.958984 0.047350
vt 0.958984 0.047350
vt 0.958984 0.047350
vt 0.958984 0.047350
vt 0.958984 0.047350
vt 0.958984 0.047350
vt 0.958984 0.047350
vt 0.958984 0.047350
vt 0.958984 0.047350
vt 0.958984 0.047350
vt 0.958984 0.047350
vt 0.958984 0.047350
vt 0.958984 0.047350
vt 0.958984 0.047350
vt 0.958984 0.047350
vt 0.958984 0.047350
vt 0.958984 0.047350
vt 0.958984 0.047350
vt 0.958984 0.047350
vt 0.958984 0.047350
vt 0.958984 0.047350
vt 0.958984 0.047350
vt 0.958984 0.047350
vt 0.958984 0.047350
vt 0.958984 0.047350
vt 0.958984 0.047350
vt 0.958984 0.047350
vt 0.958984 0.047350
vt 0.958984 0.047350
vt 0.958984 0.047350
vt 0.958984 0.047350
vt 0.958984 0.047350
vt 0.958984 0.047350
vt 0.958984 0.047350
vt 0.958984 0.047350
vt 0.958984 0.047350
vt 0.958984 0.047350
vt 0.958984 0.047350
vt 0.958984 0.047350
vt 0.958984 0.047350
vt 0.958984 0.047350
vt 0.958984 0.047350
vn -0.0051 -0.0374 0.9993
vn 0.0531 -0.0367 0.9979
vn 0.0000 -0.0912 0.9958
vn -0.0000 0.0165 0.9999
vn -0.0001 -0.0907 0.9959
vn 1.0000 0.0000 0.0000
vn 0.0000 -0.0000 -1.0000
vn -1.0000 0.0000 0.0000
vn 0.0000 0.0165 -0.9999
vn 0.0000 0.0000 1.0000
vn 0.0000 1.0000 -0.0000
vn 0.0000 -1.0000 0.0000
vn -0.0001 -1.0000 0.0001
vn -0.0001 0.0324 -0.9995
vn 0.9956 -0.0935 -0.0000
vn -0.9904 0.1383 0.0000
vn 0.0000 -0.0912 -0.9958
vn 0.0001 0.0324 -0.9995
vn -1.0000 -0.0001 -0.0000
vn 0.0000 0.0321 -0.9995
vn 0.0001 0.0322 0.9995
vn -0.0001 -0.0907 -0.9959
vn -0.9956 -0.0936 -0.0000
vn 0.0006 0.0188 0.9998
vn 0.0000 0.0321 0.9995
vn 0.9904 0.1384 -0.0000
vn 0.0001 -0.0950 0.9955
vn 0.0001 -0.0907 -0.9959
vn -0.0001 0.0323 0.9995
vn 1.0000 -0.0003 -0.0000
vn -0.9641 -0.2656 0.0000
vn -0.6112 -0.0697 0.7884
vn 0.9812 -0.1031 -0.1633
vn 0.9638 -0.2667 0.0000
vn -0.9860 -0.0950 0.1372
vn -0.9804 -0.1052 -0.1668
vn 0.9804 -0.1052 0.1667
vn -0.3307 0.5350 0.7774
vn -0.9638 -0.2666 -0.0001
vn 0.9804 -0.1052 -0.1667
vn -0.9821 -0.1029 0.1574
vn -0.9814 -0.1108 0.1566
vn -0.9812 -0.1031 -0.1633
vn 0.9812 -0.1031 0.1633
vn -0.0658 0.3293 0.9419
vn -0.0000 0.9998 -0.0184
vn -0.0018 0.9998 -0.0184
vn 0.0000 -0.0222 -0.9998
vn 0.0629 0.0222 -0.9978
vn 0.0398 -0.9992 0.0000
vn -0.0976 -0.0167 -0.9951
vn 0.0828 -0.0170 0.9964
vn -0.9999 -0.0108 0.0094
vn 0.9835 -0.0059 0.1810
vn 0.0001 -0.0223 0.9998
vn -0.9668 0.1331 -0.2181
vn -0.9835 -0.0059 0.1810
vn 0.9769 0.0019 -0.2136
vn -0.9835 -0.0055 -0.1807
vn -0.0878 0.0480 0.9950
vn 0.0749 0.0464 0.9961
vn 0.0021 -0.9998 0.0178
vn 0.0524 -0.0895 0.9946
vn -0.0874 0.0479 -0.9950
vn -0.0969 -0.0171 0.9951
vn -0.0000 -0.0215 -0.9998
vn 0.0747 0.0464 -0.9961
vn -0.0808 0.0220 0.9965
vn 0.9999 -0.0109 -0.0001
vn 0.0016 0.9998 -0.0184
vn 0.0834 -0.0167 -0.9964
vn -0.0100 -0.1130 0.9935
vn -0.0456 -0.9990 -0.0000
vn 0.9769 0.0019 0.2136
vn -0.0616 -0.0903 -0.9940
vn 0.0000 -0.0222 0.9998
vn -0.9769 0.0019 -0.2136
vn 0.9667 0.1333 0.2184
vn -0.9778 0.0041 0.2096
vn 0.0524 -0.0895 -0.9946
vn 0.9835 -0.0055 -0.1807
vn 0.0629 0.0222 0.9978
vn 0.9668 0.1331 -0.2181
vn -0.0738 0.0221 -0.9970
vn -0.0025 -0.9998 0.0178
vn 1.0000 0.0030 0.0000
vn -0.0000 -0.9998 0.0183
vn 0.0000 -0.9998 0.0184
vn -1.0000 0.0030 -0.0000
vn -0.0001 -0.0223 0.9998
vn -0.9668 0.1333 0.2182
g Chest_Chest_CollorMaterial
usemtl CollorMaterial
s off
f 125/1/1 126/2/1 127/3/1
f 125/1/2 127/3/2 128/4/2
f 101/5/3 125/1/3 128/4/3
f 128/4/4 127/3/4 120/6/4
f 7/7/5 80/8/5 126/2/5 102/9/5
f 36/10/6 41/11/6 25/12/6 26/13/6
f 102/9/3 126/2/3 125/1/3 101/5/3
f 109/14/7 106/15/7 105/16/7 110/17/7
f 40/18/8 43/19/8 28/20/8 27/21/8
f 124/22/9 81/23/9 82/24/9 122/25/9
f 103/26/10 108/27/10 107/28/10 104/29/10
f 42/30/10 108/27/10 103/26/10 32/31/10
f 109/14/11 110/17/11 103/26/11 104/29/11
f 95/32/12 102/9/12 101/5/12 96/33/12
f 96/33/13 101/5/13 5/34/13 6/35/13
f 8/36/12 7/7/12 102/9/12 95/32/12
f 54/37/14 111/38/14 123/39/14 77/40/14
f 88/41/15 3/42/15 4/43/15 86/44/15
f 58/45/16 83/46/16 91/47/16 57/48/16
f 96/33/17 121/49/17 122/25/17 95/32/17
f 124/22/18 112/50/18 56/51/18 81/23/18
f 91/47/19 83/46/19 84/52/19 90/53/19
f 111/38/20 112/50/20 124/22/20 123/39/20
f 55/54/21 113/55/21 119/56/21 79/57/21
f 122/25/22 82/24/22 8/36/22 95/32/22
f 84/52/23 2/58/23 1/59/23 90/53/23
f 75/60/24 76/61/24 128/4/24 120/6/24
f 119/56/4 120/6/4 127/3/4 126/2/4
f 119/56/25 113/55/25 114/62/25 120/6/25
f 60/63/26 87/64/26 85/65/26 59/66/26
f 5/34/27 101/5/27 128/4/27 76/61/27
f 109/14/11 104/29/11 30/67/11 29/68/11
f 6/35/28 78/69/28 121/49/28 96/33/28
f 119/56/4 126/2/4 80/8/4 79/57/4
f 120/6/29 114/62/29 53/70/29 75/60/29
f 87/64/30 88/41/30 86/44/30 85/65/30
f 123/39/9 121/49/9 78/69/9 77/40/9
f 31/71/11 32/31/11 103/26/11 110/17/11
f 107/28/10 46/72/10 30/67/10 104/29/10
f 29/68/7 44/73/7 106/15/7 109/14/7
f 124/22/9 122/25/9 121/49/9 123/39/9
f 105/16/7 47/74/7 31/71/7 110/17/7
g Chest_Chest_Metal2
usemtl Metal2
f 2/75/31 10/76/31 1/77/31
f 93/78/32 89/79/32 94/80/32
f 4/81/33 72/82/33 86/83/33
f 3/84/34 14/85/34 4/81/34
f 34/86/6 26/87/6 25/88/6
f 35/89/6 25/88/6 41/90/6
f 26/87/6 45/91/6 36/92/6
f 37/93/8 28/94/8 43/95/8
f 38/96/8 27/97/8 28/94/8
f 27/97/8 48/98/8 40/99/8
f 18/100/11 37/93/11 13/101/11
f 20/102/11 35/89/11 11/103/11
f 22/104/11 45/91/11 46/105/11
f 17/106/11 35/89/11 41/90/11
f 12/107/11 45/91/11 21/108/11
f 19/109/11 37/93/11 43/95/11
f 16/110/11 48/98/11 24/111/11
f 23/112/11 48/98/11 47/113/11
f 1/77/35 92/114/35 94/80/35
f 2/75/36 70/115/36 9/116/36
f 3/84/37 74/117/37 15/118/37
f 93/78/38 94/80/38 92/114/38
f 2/75/39 9/116/39 10/76/39
f 4/81/40 14/85/40 72/82/40
f 3/84/34 15/118/34 14/85/34
f 34/86/6 33/119/6 26/87/6
f 35/89/6 34/86/6 25/88/6
f 26/87/6 33/119/6 45/91/6
f 37/93/8 38/96/8 28/94/8
f 38/96/8 39/120/8 27/97/8
f 27/97/8 39/120/8 48/98/8
f 18/100/11 42/121/11 37/93/11
f 20/102/11 44/122/11 35/89/11
f 22/104/11 21/108/11 45/91/11
f 17/106/11 11/103/11 35/89/11
f 12/107/11 36/92/11 45/91/11
f 19/109/11 13/101/11 37/93/11
f 16/110/11 40/99/11 48/98/11
f 23/112/11 24/111/11 48/98/11
f 94/80/41 90/123/41 1/77/41
f 1/77/42 10/76/42 92/114/42
f 2/75/43 84/124/43 70/115/43
f 3/84/44 88/125/44 74/117/44
f 76/126/45 93/78/45 92/114/45
f 22/104/46 99/127/46 115/128/46 64/129/46
f 22/104/47 64/129/47 63/130/47 21/108/47
f 116/131/48 118/132/48 117/133/48 115/128/48
f 81/134/49 71/135/49 72/82/49 82/136/49
f 15/118/50 7/137/50 8/138/50 14/85/50
f 106/139/11 44/122/11 20/102/11 98/140/11
f 65/141/51 63/130/51 64/129/51 67/142/51
f 52/143/52 24/111/52 23/112/52 55/144/52
f 50/145/53 21/108/53 63/130/53 65/141/53
f 60/146/54 16/110/54 24/111/54 52/143/54
f 23/112/55 97/147/55 113/148/55 55/144/55
f 23/112/11 47/113/11 105/149/11 97/147/11
f 37/93/10 42/121/10 32/150/10 38/96/10
f 47/113/7 48/98/7 39/120/7 31/151/7
f 41/90/11 36/92/11 12/107/11 17/106/11
f 107/152/11 108/153/11 100/154/11 99/127/11
f 83/155/56 58/156/56 50/145/56 69/157/56
f 57/158/57 49/159/57 11/103/57 17/106/57
f 86/83/58 72/82/58 71/135/58 85/160/58
f 58/156/59 12/107/59 21/108/59 50/145/59
f 75/161/60 53/162/60 49/159/60 89/79/60
f 52/143/61 55/144/61 79/163/61 73/164/61
f 56/165/62 68/166/62 66/167/62 51/168/62
f 15/118/63 74/117/63 80/169/63 7/137/63
f 50/145/64 54/170/64 77/171/64 69/157/64
f 20/102/65 11/103/65 49/159/65 53/162/65
f 64/129/66 115/128/66 117/133/66 67/142/66
f 81/134/67 56/165/67 51/168/67 71/135/67
f 75/161/68 89/79/68 93/78/68 76/126/68
f 51/168/69 66/167/69 62/172/69 13/101/69
f 18/100/70 13/101/70 62/172/70 61/173/70
f 61/173/71 62/172/71 66/167/71 68/166/71
f 10/76/72 5/174/72 76/126/72 92/114/72
f 5/174/73 10/76/73 9/116/73 6/175/73
f 88/125/74 87/176/74 73/164/74 74/117/74
f 9/116/75 70/115/75 78/177/75 6/175/75
f 98/140/76 114/178/76 113/148/76 97/147/76
f 84/124/77 83/155/77 69/157/77 70/115/77
f 87/176/78 60/146/78 52/143/78 73/164/78
f 90/123/79 94/80/79 89/79/79 91/179/79
f 82/136/80 72/82/80 14/85/80 8/138/80
f 61/173/66 68/166/66 118/132/66 116/131/66
f 39/120/11 38/96/11 32/150/11 31/151/11
f 59/180/81 51/168/81 13/101/81 19/109/81
f 74/117/82 73/164/82 79/163/82 80/169/82
f 85/160/83 71/135/83 51/168/83 59/180/83
f 99/127/46 100/154/46 116/131/46 115/128/46
f 100/154/46 18/100/46 61/173/46 116/131/46
f 35/89/7 44/122/7 29/181/7 34/86/7
f 70/115/84 69/157/84 77/171/84 78/177/84
f 54/170/85 50/145/85 65/141/85 67/142/85
f 108/153/11 42/121/11 18/100/11 100/154/11
f 43/95/11 40/99/11 16/110/11 19/109/11
f 16/110/86 60/146/86 59/180/86 19/109/86
f 112/182/87 118/132/87 68/166/87 56/165/87
f 105/149/11 106/139/11 98/140/11 97/147/11
f 111/183/88 117/133/88 118/132/88 112/182/88
f 54/170/87 67/142/87 117/133/87 111/183/87
f 29/181/11 30/184/11 33/119/11 34/86/11
f 12/107/89 58/156/89 57/158/89 17/106/89
f 46/105/10 45/91/10 33/119/10 30/184/10
f 20/102/90 53/162/90 114/178/90 98/140/90
f 91/179/91 89/79/91 49/159/91 57/158/91
f 46/105/11 107/152/11 99/127/11 22/104/11
