# Blender v3.0.0 OBJ File: 'Blender Medieval Village Megapack Low Poly .blend'
# www.blender.org
mtllib Fence_Bar_2.mtl
o Fence_Bar_2
v -0.000955 0.000000 -0.110765
v 0.095829 0.000009 -0.055752
v 0.095961 -0.000012 0.054981
v 0.000909 -0.000030 0.110196
v -0.095781 0.000021 0.056885
v -0.096861 0.000005 -0.054592
v 0.083246 0.418997 0.042359
v -0.002859 0.458703 -0.091277
v -0.080268 0.424248 0.048152
v 0.002282 0.409286 0.091521
v -0.083227 0.448975 -0.041979
v 0.077480 0.832204 0.045948
v 0.080383 0.809229 -0.041956
v 0.003154 0.794337 -0.087023
v -0.081348 0.825363 0.042109
v -0.003483 0.840155 0.088745
v 0.001035 1.060946 -0.098775
v 0.085419 1.060444 -0.049412
v 0.085266 1.060261 0.047639
v 0.001318 1.061222 0.097711
v -0.083841 1.060719 0.048210
v -0.083829 1.060716 -0.049626
v -0.096180 1.051161 -0.055338
v -0.096153 1.051139 0.055525
v -0.000408 1.050839 0.110635
v 0.100582 1.041891 -0.058654
v 0.000128 1.050909 -0.111259
v -0.000171 1.001273 0.106389
v 0.091953 1.001269 0.053326
v -0.092211 1.001266 -0.053016
v -0.000524 1.001402 -0.105557
v 0.092324 1.001108 -0.053806
v -0.092226 1.001269 0.053275
v -0.000153 0.980418 0.105147
v 0.090806 0.980418 0.052632
v -0.091111 0.980418 -0.052398
v -0.091111 0.980418 0.052632
v -0.000153 0.980418 -0.104913
v 0.090806 0.980418 -0.052398
v -0.000153 0.958215 0.103042
v 0.088983 0.958215 0.051579
v -0.089288 0.958215 -0.051346
v -0.089288 0.958215 0.051579
v -0.000153 0.958215 -0.102808
v 0.088983 0.958215 -0.051346
v -0.000153 0.934102 0.101583
v 0.087720 0.934102 0.050850
v -0.088025 0.934102 -0.050617
v -0.088025 0.934102 0.050850
v -0.000153 0.934102 -0.101350
v 0.087720 0.934102 -0.050617
v -0.000153 0.918199 0.099805
v 0.086180 0.918199 0.049961
v -0.086486 0.918199 -0.049728
v -0.086486 0.918199 0.049961
v -0.000153 0.918199 -0.099572
v 0.086180 0.918199 -0.049728
v -0.000534 0.899677 0.098116
v 0.084783 0.899583 0.049997
v -0.085267 0.899620 -0.049411
v -0.085793 0.899608 0.049309
v 0.000248 0.899591 -0.098598
v 0.085720 0.899597 -0.048763
v -0.000153 0.900659 -0.104913
v -0.000153 0.915873 -0.106051
v 0.090806 0.900659 -0.052398
v 0.091791 0.915873 -0.052967
v -0.000153 0.915873 0.106284
v 0.091791 0.915873 0.053200
v -0.092096 0.915873 -0.052967
v -0.092096 0.915873 0.053200
v -0.000153 0.900675 0.105144
v 0.090806 0.900659 0.052632
v -0.091111 0.900659 -0.052398
v -0.091111 0.900659 0.052632
v -0.000153 0.935991 -0.106741
v -0.000153 0.955248 -0.108199
v 0.092388 0.935991 -0.053312
v 0.093651 0.955248 -0.054041
v -0.000153 0.955248 0.108432
v 0.093651 0.955248 0.054274
v -0.093957 0.955248 -0.054041
v -0.093957 0.955248 0.054274
v -0.000153 0.935991 0.106974
v 0.092388 0.935991 0.053545
v -0.092694 0.935991 -0.053312
v -0.092694 0.935991 0.053545
v -0.000153 0.984391 -0.113591
v -0.000159 0.996027 -0.114862
v 0.098321 0.984391 -0.056737
v 0.099445 0.996078 -0.057393
v -0.000153 0.996053 0.115111
v 0.099435 0.996053 0.057614
v -0.099741 0.996053 -0.057381
v -0.099741 0.996053 0.057614
v -0.000153 0.984392 0.113824
v 0.098321 0.984391 0.056970
v -0.098626 0.984391 -0.056737
v -0.098626 0.984391 0.056970
v 0.082410 0.431208 -0.003643
v 0.080745 0.488891 -0.047072
v 0.036746 0.451261 -0.069526
v 0.095811 0.000015 -0.056003
v 0.091642 1.043165 0.058025
v 0.094114 1.049961 0.050210
v 0.100857 1.041555 -0.059253
v 0.098555 1.031177 0.052044
v -0.064650 0.801259 -0.051820
v -0.078680 0.814658 -0.047000
v -0.078852 0.805657 -0.034542
v -0.080592 0.621725 -0.043956
vt 0.072146 0.938388
vt 0.072146 0.938388
vt 0.072146 0.938388
vt 0.072146 0.938388
vt 0.072146 0.938388
vt 0.072146 0.938388
vt 0.072146 0.938388
vt 0.072146 0.938388
vt 0.072146 0.938388
vt 0.072146 0.938388
vt 0.072146 0.938388
vt 0.072146 0.938388
vt 0.072146 0.938388
vt 0.072146 0.938388
vt 0.072146 0.938388
vt 0.072146 0.938388
vt 0.072146 0.938388
vt 0.072146 0.938388
vt 0.072146 0.938388
vt 0.072146 0.938388
vt 0.072146 0.938388
vt 0.072146 0.938388
vt 0.072146 0.938388
vt 0.072146 0.938388
vt 0.072146 0.938388
vt 0.072146 0.938388
vt 0.072146 0.938388
vt 0.072146 0.938388
vt 0.072146 0.938388
vt 0.072146 0.938388
vt 0.072146 0.938388
vt 0.072146 0.938388
vt 0.072146 0.938388
vt 0.072146 0.938388
vt 0.072146 0.938388
vt 0.072146 0.938388
vt 0.072146 0.938388
vt 0.072146 0.938388
vt 0.072146 0.938388
vt 0.072146 0.938388
vt 0.072146 0.938388
vt 0.072146 0.938388
vt 0.072146 0.938388
vt 0.072146 0.938388
vt 0.072146 0.938388
vt 0.072146 0.938388
vt 0.072146 0.938388
vt 0.072146 0.938388
vt 0.072146 0.938388
vt 0.072146 0.938388
vt 0.072146 0.938388
vt 0.072146 0.938388
vt 0.072146 0.938388
vt 0.072146 0.938388
vt 0.072146 0.938388
vt 0.072146 0.938388
vt 0.072146 0.938388
vt 0.072146 0.938388
vt 0.072146 0.938388
vt 0.072146 0.938388
vt 0.072146 0.938388
vt 0.072146 0.938388
vt 0.072146 0.938388
vt 0.072146 0.938388
vt 0.072146 0.938388
vt 0.072146 0.938388
vt 0.072146 0.938388
vt 0.072146 0.938388
vt 0.072146 0.938388
vt 0.072146 0.938388
vt 0.072146 0.938388
vt 0.072146 0.938388
vt 0.072146 0.938388
vt 0.072146 0.938388
vt 0.072146 0.938388
vt 0.772835 0.820209
vt 0.772835 0.820209
vt 0.772835 0.820209
vt 0.772835 0.820209
vt 0.772835 0.820209
vt 0.772835 0.820209
vt 0.751000 0.769252
vt 0.751000 0.769252
vt 0.751000 0.769252
vt 0.751000 0.769252
vt 0.751000 0.769252
vt 0.751000 0.769252
vt 0.751000 0.769252
vt 0.751000 0.769252
vt 0.751000 0.769252
vt 0.751000 0.769252
vt 0.751000 0.769252
vt 0.751000 0.769252
vt 0.751000 0.769252
vt 0.751000 0.769252
vt 0.751000 0.769252
vt 0.751000 0.769252
vt 0.751000 0.769252
vt 0.751000 0.769252
vt 0.751000 0.769252
vt 0.751000 0.769252
vt 0.751000 0.769252
vt 0.751000 0.769252
vt 0.751000 0.769252
vt 0.751000 0.769252
vt 0.751000 0.769252
vt 0.751000 0.769252
vt 0.751000 0.769252
vt 0.751000 0.769252
vt 0.751000 0.769252
vt 0.751000 0.769252
vt 0.751000 0.769252
vt 0.751000 0.769252
vt 0.751000 0.769252
vt 0.751000 0.769252
vt 0.751000 0.769252
vt 0.751000 0.769252
vt 0.751000 0.769252
vt 0.751000 0.769252
vt 0.751000 0.769252
vt 0.751000 0.769252
vt 0.751000 0.769252
vt 0.751000 0.769252
vt 0.751000 0.769252
vt 0.751000 0.769252
vt 0.751000 0.769252
vt 0.751000 0.769252
vt 0.751000 0.769252
vt 0.751000 0.769252
vt 0.751000 0.769252
vt 0.751000 0.769252
vt 0.751000 0.769252
vt 0.751000 0.769252
vt 0.751000 0.769252
vt 0.751000 0.769252
vt 0.751000 0.769252
vt 0.751000 0.769252
vt 0.751000 0.769252
vt 0.751000 0.769252
vt 0.751000 0.769252
vt 0.751000 0.769252
vt 0.751000 0.769252
vt 0.751000 0.769252
vt 0.751000 0.769252
vt 0.751000 0.769252
vt 0.751000 0.769252
vt 0.751000 0.769252
vt 0.751000 0.769252
vt 0.751000 0.769252
vt 0.751000 0.769252
vt 0.751000 0.769252
vt 0.751000 0.769252
vt 0.751000 0.769252
vn 0.6746 -0.4314 -0.5989
vn -0.6971 -0.5766 -0.4262
vn 0.9626 -0.2592 0.0792
vn -0.9045 -0.3738 -0.2053
vn -0.4668 -0.1094 -0.8776
vn -0.4606 0.0020 -0.8876
vn 0.8313 0.0924 -0.5481
vn 0.8778 0.4750 0.0624
vn -0.7669 0.0400 -0.6406
vn -0.9993 0.0113 -0.0354
vn 0.7734 0.6340 -0.0011
vn 0.0145 -0.9996 -0.0253
vn 0.4764 -0.0327 -0.8786
vn 0.3233 0.9463 -0.0002
vn 0.9802 -0.1980 0.0037
vn 0.9765 -0.2155 0.0001
vn 0.4833 0.5791 0.6565
vn -0.9994 -0.0192 -0.0276
vn -0.4976 -0.0631 -0.8651
vn -0.4355 -0.1359 -0.8899
vn -0.5227 -0.0018 -0.8525
vn -0.4892 0.0198 -0.8719
vn 0.9997 0.0190 -0.0131
vn 0.5598 -0.0883 0.8239
vn -1.0000 -0.0027 -0.0023
vn -0.9992 0.0157 0.0371
vn -0.9966 -0.0818 0.0000
vn 0.4905 0.0386 -0.8706
vn 0.7687 0.6396 0.0002
vn 0.4983 -0.0818 0.8631
vn 0.5080 0.0395 0.8604
vn 0.9995 0.0309 -0.0039
vn 0.5079 -0.0868 -0.8571
vn 0.4938 0.0059 0.8696
vn 0.4835 0.0083 -0.8753
vn 0.4708 -0.1303 0.8726
vn -0.3165 0.7759 0.5458
vn 0.4148 0.6284 0.6581
vn -0.4893 0.0052 0.8721
vn 0.3838 0.6724 -0.6329
vn -0.6130 0.7901 0.0001
vn -0.4942 -0.1123 0.8621
vn 0.4643 -0.1479 -0.8732
vn -0.3303 0.7526 -0.5697
vn 0.4983 -0.0818 -0.8631
vn 0.9966 -0.0818 0.0000
vn -0.4983 -0.0818 -0.8631
vn -0.4983 -0.0818 0.8631
vn -0.4977 -0.0964 0.8620
vn 0.9953 -0.0964 0.0000
vn 0.4977 -0.0964 0.8620
vn -0.4977 -0.0964 -0.8620
vn -0.5146 0.0369 -0.8566
vn -0.9992 0.0332 0.0241
vn -0.9976 -0.0687 -0.0130
vn 0.9964 -0.0793 0.0303
vn -0.4719 0.0385 0.8808
vn -0.9969 -0.0789 0.0000
vn -0.4979 -0.0773 0.8638
vn 0.4977 -0.0964 -0.8620
vn -0.9953 -0.0964 0.0000
vn -0.4979 -0.0863 -0.8629
vn 1.0000 0.0083 0.0045
vn 0.4934 -0.0817 0.8659
vn 0.0016 1.0000 0.0074
vn 0.0027 0.9999 -0.0147
vn 0.0022 1.0000 0.0009
vn -0.2682 0.8440 0.4645
vn 0.5744 0.8186 0.0005
vn -0.4990 -0.0646 -0.8642
vn -0.2337 -0.8840 -0.4048
vn -0.5697 0.8218 -0.0000
vn 0.1915 0.9238 0.3316
vn 0.2851 0.8212 0.4944
vn 0.2833 0.8200 -0.4973
vn 0.2337 -0.8840 -0.4048
vn -0.4977 -0.0948 -0.8621
vn -0.4977 -0.0951 0.8621
vn -0.4674 -0.8840 0.0000
vn 0.3751 -0.9270 0.0000
vn -0.2826 0.8244 -0.4905
vn 0.1876 -0.9270 -0.3249
vn 0.0958 -0.9816 -0.1650
vn 0.5364 0.8440 -0.0000
vn 0.9954 -0.0955 0.0000
vn -0.1915 0.9238 -0.3316
vn -0.0875 -0.9843 0.1531
vn -0.1840 -0.9829 -0.0005
vn 0.3829 0.9238 0.0000
vn -0.9979 -0.0646 -0.0000
vn -0.9979 -0.0654 0.0000
vn 0.4989 -0.0647 0.8642
vn -0.4989 -0.0647 0.8642
vn 0.4989 -0.0654 -0.8642
vn 0.9979 -0.0646 0.0000
vn 0.1915 0.9238 -0.3316
vn -0.0926 -0.9827 -0.1603
vn 0.1876 -0.9270 0.3248
vn -0.1876 -0.9270 0.3248
vn 0.0871 -0.9843 0.1536
vn -0.3829 0.9238 0.0000
vn -0.4989 -0.0654 -0.8642
vn -0.4989 -0.0654 0.8642
vn 0.4989 -0.0654 0.8642
vn 0.9979 -0.0654 0.0000
vn -0.1915 0.9238 0.3316
vn 0.2682 0.8440 -0.4645
vn 0.2682 0.8440 0.4645
vn -0.3751 -0.9270 0.0000
vn -0.5364 0.8440 0.0000
vn -0.1876 -0.9270 -0.3249
vn 0.4977 -0.0951 0.8621
vn -0.9955 -0.0951 0.0000
vn 0.4976 -0.0951 -0.8622
vn 0.4674 -0.8840 0.0000
vn -0.2847 0.8219 0.4933
vn 0.2337 -0.8840 0.4048
vn -0.2682 0.8440 -0.4645
vn -0.2337 -0.8840 0.4048
vn 0.1891 -0.9820 0.0008
vn 0.4990 -0.0646 -0.8642
g Fence_Bar_2_Fence_Bar_2_CollorMaterial
usemtl CollorMaterial
s off
f 100/1/1 102/2/1 101/3/1
f 108/4/2 110/5/2 109/6/2
f 104/7/3 106/8/3 105/9/3
f 29/10/4 26/11/4 106/8/4
f 108/4/5 62/12/5 14/13/5
f 14/13/6 111/14/6 108/4/6
f 100/1/7 103/15/7 102/2/7
f 104/7/8 107/16/8 106/8/8
f 108/4/9 111/14/9 110/5/9
f 111/14/10 15/17/10 110/5/10
f 26/11/11 105/9/11 106/8/11
f 1/18/12 103/15/12 2/19/12
f 8/20/13 101/3/13 102/2/13
f 103/15/14 3/21/14 2/19/14
f 26/11/15 29/10/15 32/22/15
f 29/10/16 106/8/16 107/16/16
f 19/23/17 104/7/17 105/9/17
f 15/17/18 109/6/18 110/5/18
f 60/24/19 62/12/19 109/6/19
f 109/6/20 62/12/20 108/4/20
f 111/14/21 8/20/21 11/25/21
f 8/20/22 111/14/22 14/13/22
f 101/3/23 7/26/23 100/1/23
f 107/16/24 104/7/24 29/10/24
f 15/17/25 111/14/25 9/27/25
f 9/27/26 111/14/26 11/25/26
f 43/28/27 37/29/27 36/30/27 42/31/27
f 1/18/28 8/20/28 102/2/28 103/15/28
f 105/9/29 26/11/29 18/32/29 19/23/29
f 41/33/30 35/34/30 34/35/30 40/36/30
f 3/21/31 7/26/31 10/37/31 4/38/31
f 103/15/32 100/1/32 7/26/32 3/21/32
f 13/39/33 14/13/33 62/12/33 63/40/33
f 10/37/34 7/26/34 12/41/34 16/42/34
f 14/13/35 13/39/35 101/3/35 8/20/35
f 16/42/36 12/41/36 59/43/36 58/44/36
f 25/45/37 20/46/37 21/47/37 24/48/37
f 104/7/38 19/23/38 20/46/38 25/45/38
f 9/27/39 10/37/39 16/42/39 15/17/39
f 26/11/40 27/49/40 17/50/40 18/32/40
f 23/51/41 24/48/41 21/47/41 22/52/41
f 16/42/42 58/44/42 61/53/42 15/17/42
f 31/54/43 27/49/43 26/11/43 32/22/43
f 27/49/44 23/51/44 22/52/44 17/50/44
f 44/55/45 38/56/45 39/57/45 45/58/45
f 45/58/46 39/57/46 35/34/46 41/33/46
f 36/30/47 38/56/47 44/55/47 42/31/47
f 40/36/48 34/35/48 37/29/48 43/28/48
f 55/59/49 52/60/49 46/61/49 49/62/49
f 57/63/50 51/64/50 47/65/50 53/66/50
f 52/60/51 53/66/51 47/65/51 46/61/51
f 54/67/52 48/68/52 50/69/52 56/70/52
f 1/18/53 6/71/53 11/25/53 8/20/53
f 6/71/54 5/72/54 9/27/54 11/25/54
f 60/24/55 109/6/55 15/17/55 61/53/55
f 12/41/56 13/39/56 63/40/56 59/43/56
f 5/72/57 4/38/57 10/37/57 9/27/57
f 30/73/58 33/74/58 24/48/58 23/51/58
f 33/74/59 28/75/59 25/45/59 24/48/59
f 56/70/60 50/69/60 51/64/60 57/63/60
f 54/67/61 55/59/61 49/62/61 48/68/61
f 31/54/62 30/73/62 23/51/62 27/49/62
f 12/41/63 7/26/63 101/3/63 13/39/63
f 104/7/64 25/45/64 28/75/64 29/10/64
f 22/76/65 18/77/65 17/78/65
f 19/79/66 21/80/66 20/81/66
f 22/76/67 21/80/67 19/79/67 18/77/67
f 43/82/68 83/83/68 80/84/68 40/85/68
f 29/86/69 93/87/69 91/88/69 32/89/69
f 74/90/70 70/91/70 65/92/70 64/93/70
f 98/94/71 88/95/71 38/96/71 36/97/71
f 30/98/72 94/99/72 95/100/72 33/101/72
f 52/102/73 68/103/73 69/104/73 53/105/73
f 29/86/74 28/106/74 92/107/74 93/87/74
f 32/89/75 91/88/75 89/108/75 31/109/75
f 38/96/76 88/95/76 90/110/76 39/111/76
f 98/94/77 94/99/77 89/108/77 88/95/77
f 92/107/78 95/100/78 99/112/78 96/113/78
f 37/114/79 99/112/79 98/94/79 36/97/79
f 51/115/80 78/116/80 85/117/80 47/118/80
f 31/109/81 89/108/81 94/99/81 30/98/81
f 51/115/82 50/119/82 76/120/82 78/116/82
f 62/121/83 64/93/83 66/122/83 63/123/83
f 41/124/84 81/125/84 79/126/84 45/127/84
f 90/110/85 91/88/85 93/87/85 97/128/85
f 56/129/86 65/92/86 70/91/86 54/130/86
f 58/131/87 72/132/87 75/133/87 61/134/87
f 61/134/88 75/133/88 74/90/88 60/135/88
f 53/105/89 69/104/89 67/136/89 57/137/89
f 71/138/90 70/91/90 74/90/90 75/133/90
f 87/139/91 83/83/91 82/140/91 86/141/91
f 69/104/92 68/103/92 72/132/92 73/142/92
f 72/132/93 68/103/93 71/138/93 75/133/93
f 76/120/94 77/143/94 79/126/94 78/116/94
f 66/122/95 67/136/95 69/104/95 73/142/95
f 56/129/96 57/137/96 67/136/96 65/92/96
f 60/135/97 74/90/97 64/93/97 62/121/97
f 46/144/98 47/118/98 85/117/98 84/145/98
f 46/144/99 84/145/99 87/139/99 49/146/99
f 59/147/100 73/142/100 72/132/100 58/131/100
f 54/130/101 70/91/101 71/138/101 55/148/101
f 86/141/102 82/140/102 77/143/102 76/120/102
f 87/139/103 84/145/103 80/84/103 83/83/103
f 85/117/104 81/125/104 80/84/104 84/145/104
f 78/116/105 79/126/105 81/125/105 85/117/105
f 71/138/106 68/103/106 52/102/106 55/148/106
f 45/127/107 79/126/107 77/143/107 44/149/107
f 40/85/108 80/84/108 81/125/108 41/124/108
f 49/146/109 87/139/109 86/141/109 48/150/109
f 42/151/110 82/140/110 83/83/110 43/82/110
f 86/141/111 76/120/111 50/119/111 48/150/111
f 97/128/112 93/87/112 92/107/112 96/113/112
f 98/94/113 99/112/113 95/100/113 94/99/113
f 89/108/114 91/88/114 90/110/114 88/95/114
f 39/111/115 90/110/115 97/128/115 35/152/115
f 28/106/116 33/101/116 95/100/116 92/107/116
f 97/128/117 96/113/117 34/153/117 35/152/117
f 44/149/118 77/143/118 82/140/118 42/151/118
f 34/153/119 96/113/119 99/112/119 37/114/119
f 63/123/120 66/122/120 73/142/120 59/147/120
f 64/93/121 65/92/121 67/136/121 66/122/121
