# Blender v3.0.0 OBJ File: 'Blender Medieval Village Megapack Low Poly .blend'
# www.blender.org
mtllib Field_S_E.mtl
o Field_S_E
v 0.801164 -0.002632 -2.905058
v -0.062598 -0.006595 -2.902026
v -0.926289 -0.004563 -2.899263
v -0.765967 -0.012882 -2.897152
v 0.099714 -0.000701 -2.910371
v 0.953041 -0.001687 -2.906611
v -1.200135 0.009920 -2.968675
v -1.515682 -0.003984 -3.005391
v -0.289883 0.007060 -2.942015
v -0.532787 0.009393 -2.909770
v 0.583848 0.002200 -2.991182
v 0.325568 -0.000022 -2.954446
v 1.437783 0.001593 -2.969924
v 1.172116 0.001327 -2.997669
v -1.810457 0.004557 -2.703872
v -1.785426 0.000054 -1.778870
v -1.765974 -0.005551 -0.866526
v -1.787020 0.001767 0.045249
v -1.758497 -0.003812 0.958764
v -1.796344 0.008376 1.869249
v -1.771520 -0.006224 2.777702
v -0.924155 0.117040 2.790950
v -0.944658 0.175418 1.845283
v -0.881811 0.163573 0.962101
v -0.914585 0.136755 0.046670
v -1.007666 0.105814 -0.881153
v -0.982220 0.112426 -1.927334
v -0.930733 0.082734 -2.692136
v -0.069335 0.089171 2.783567
v -0.155654 0.126888 1.840269
v -0.061626 0.113187 0.957748
v -0.066099 0.103598 0.045579
v -0.050265 0.077060 -0.851989
v -0.014316 0.047322 -1.777786
v -0.070523 0.077520 -2.688518
v 0.821504 0.181024 2.797025
v 0.725382 0.142785 1.869926
v 0.770602 0.112018 0.923969
v 0.793153 0.143795 0.033510
v 0.740025 0.172615 -0.870200
v 0.855567 0.118094 -1.786899
v 0.816230 0.161950 -2.701152
v 1.725590 0.013576 2.800911
v 1.621005 -0.011237 1.872178
v 1.617460 0.000536 0.956990
v 1.666626 0.008727 0.046692
v 1.697167 -0.005493 -0.866673
v 1.649282 -0.002071 -1.779108
v 1.654091 0.005502 -2.678641
v -0.774216 0.130189 2.787501
v -0.806917 0.147223 1.871339
v -0.743401 0.197066 0.958400
v -0.773952 0.129514 0.044536
v -0.751866 0.076003 -0.866166
v -0.764468 0.103341 -1.778846
v -0.751782 0.059953 -2.687602
v 0.099728 0.103175 2.784847
v -0.001798 0.085508 1.876700
v 0.115989 0.075068 0.960556
v 0.103996 0.092752 0.048044
v 0.119478 0.130284 -0.889426
v 0.126830 0.051663 -1.780995
v 0.109605 0.071921 -2.683256
v 0.927072 0.189561 2.797468
v 0.959610 0.096554 1.871652
v 0.893462 0.084865 0.947829
v 0.955480 0.104706 0.046541
v 0.930178 0.172730 -0.867907
v 0.937602 0.145889 -1.778767
v 0.938372 0.168700 -2.701331
v -1.505787 0.263154 2.790279
v -1.544062 0.275923 1.862243
v -1.465936 0.253486 0.962618
v -1.491059 0.224668 0.045644
v -1.479905 0.186840 -0.866581
v -1.488011 0.218043 -1.778259
v -1.437414 0.293545 -2.661170
v -1.205631 0.263164 2.784439
v -1.133081 0.301528 1.871296
v -1.195261 0.285820 0.957702
v -1.237354 0.267772 0.035568
v -1.187721 0.222191 -0.861831
v -1.132780 0.236542 -1.883364
v -1.205441 0.259994 -2.690882
v -0.531139 0.242857 2.778862
v -0.545261 0.271883 1.869781
v -0.566806 0.333192 0.957432
v -0.571319 0.302861 0.000668
v -0.532761 0.258336 -0.867816
v -0.519787 0.234783 -1.917788
v -0.507932 0.185294 -2.644159
v -0.304048 0.218708 2.765309
v -0.301424 0.233585 1.870209
v -0.354547 0.312994 0.931602
v -0.287584 0.268517 0.045103
v -0.293991 0.248654 -0.865623
v -0.219909 0.179574 -1.779804
v -0.314910 0.191333 -2.654904
v 0.335450 0.245462 2.782478
v 0.360703 0.176700 1.868765
v 0.364691 0.162014 0.959256
v 0.259289 0.225165 0.031344
v 0.343592 0.218090 -0.867819
v 0.357018 0.186726 -1.777371
v 0.330718 0.255072 -2.703065
v 0.575986 0.270002 2.789885
v 0.581260 0.193238 1.865755
v 0.544303 0.183075 0.958076
v 0.571757 0.256562 0.045113
v 0.567608 0.241943 -0.866637
v 0.562275 0.225221 -1.778874
v 0.579502 0.277460 -2.712829
v 1.165335 0.324483 2.822104
v 1.222959 0.163511 1.867622
v 1.190628 0.231858 0.955287
v 1.157614 0.255089 0.073261
v 1.167429 0.295516 -0.866276
v 1.167149 0.295883 -1.778814
v 1.171020 0.297152 -2.723734
v 1.446972 0.325964 2.822450
v 1.407037 0.174095 1.869341
v 1.417093 0.226222 0.959589
v 1.448323 0.299040 0.044211
v 1.444986 0.284458 -0.866511
v 1.432037 0.256597 -1.778641
v 1.440495 0.281990 -2.721335
v 1.441813 -0.001903 3.143933
v 1.173328 0.007950 3.156027
v 0.570653 0.005210 3.101456
v 0.333757 0.009993 3.083793
v -0.298898 0.011284 3.074476
v -0.544306 0.004503 3.133972
v -1.211244 0.010895 3.081565
v -1.490628 0.000780 3.050508
v 0.940372 -0.006925 3.095971
v 0.118451 -0.008180 3.051010
v -0.774190 -0.003528 3.092326
v 0.812582 -0.005565 3.094072
v -0.078474 -0.011440 3.050179
v -0.922992 -0.013615 3.072897
vt 0.220474 0.939224
vt 0.220474 0.939224
vt 0.220474 0.939224
vt 0.220474 0.939224
vt 0.220474 0.939224
vt 0.220474 0.939224
vt 0.220474 0.939224
vt 0.220474 0.939224
vt 0.220474 0.939224
vt 0.220474 0.939224
vt 0.220474 0.939224
vt 0.220474 0.939224
vt 0.220474 0.939224
vt 0.220474 0.939224
vt 0.220474 0.939224
vt 0.220474 0.939224
vt 0.220474 0.939224
vt 0.220474 0.939224
vt 0.220474 0.939224
vt 0.220474 0.939224
vt 0.220474 0.939224
vt 0.220474 0.939224
vt 0.220474 0.939224
vt 0.220474 0.939224
vt 0.220474 0.939224
vt 0.220474 0.939224
vt 0.220474 0.939224
vt 0.220474 0.939224
vt 0.220474 0.939224
vt 0.220474 0.939224
vt 0.220474 0.939224
vt 0.220474 0.939224
vt 0.220474 0.939224
vt 0.220474 0.939224
vt 0.220474 0.939224
vt 0.220474 0.939224
vt 0.220474 0.939224
vt 0.220474 0.939224
vt 0.220474 0.939224
vt 0.220474 0.939224
vt 0.220474 0.939224
vt 0.220474 0.939224
vt 0.220474 0.939224
vt 0.220474 0.939224
vt 0.220474 0.939224
vt 0.220474 0.939224
vt 0.220474 0.939224
vt 0.220474 0.939224
vt 0.220474 0.939224
vt 0.220474 0.939224
vt 0.220474 0.939224
vt 0.220474 0.939224
vt 0.220474 0.939224
vt 0.220474 0.939224
vt 0.220474 0.939224
vt 0.220474 0.939224
vt 0.220474 0.939224
vt 0.220474 0.939224
vt 0.220474 0.939224
vt 0.220474 0.939224
vt 0.220474 0.939224
vt 0.220474 0.939224
vt 0.220474 0.939224
vt 0.220474 0.939224
vt 0.220474 0.939224
vt 0.220474 0.939224
vt 0.220474 0.939224
vt 0.220474 0.939224
vt 0.220474 0.939224
vt 0.220474 0.939224
vt 0.220474 0.939224
vt 0.220474 0.939224
vt 0.220474 0.939224
vt 0.220474 0.939224
vt 0.220474 0.939224
vt 0.220474 0.939224
vt 0.220474 0.939224
vt 0.220474 0.939224
vt 0.220474 0.939224
vt 0.220474 0.939224
vt 0.220474 0.939224
vt 0.220474 0.939224
vt 0.220474 0.939224
vt 0.220474 0.939224
vt 0.220474 0.939224
vt 0.220474 0.939224
vt 0.220474 0.939224
vt 0.220474 0.939224
vt 0.220474 0.939224
vt 0.220474 0.939224
vt 0.220474 0.939224
vt 0.220474 0.939224
vt 0.220474 0.939224
vt 0.220474 0.939224
vt 0.220474 0.939224
vt 0.220474 0.939224
vt 0.220474 0.939224
vt 0.220474 0.939224
vt 0.220474 0.939224
vt 0.220474 0.939224
vt 0.220474 0.939224
vt 0.220474 0.939224
vt 0.220474 0.939224
vt 0.220474 0.939224
vt 0.220474 0.939224
vt 0.220474 0.939224
vt 0.220474 0.939224
vt 0.220474 0.939224
vt 0.220474 0.939224
vt 0.220474 0.939224
vt 0.220474 0.939224
vt 0.220474 0.939224
vt 0.220474 0.939224
vt 0.220474 0.939224
vt 0.220474 0.939224
vt 0.220474 0.939224
vt 0.220474 0.939224
vt 0.220474 0.939224
vt 0.220474 0.939224
vt 0.220474 0.939224
vt 0.220474 0.939224
vt 0.220474 0.939224
vt 0.220474 0.939224
vt 0.220474 0.939224
vt 0.220474 0.939224
vt 0.220474 0.939224
vt 0.220474 0.939224
vt 0.220474 0.939224
vt 0.220474 0.939224
vt 0.220474 0.939224
vt 0.220474 0.939224
vt 0.220474 0.939224
vt 0.220474 0.939224
vt 0.220474 0.939224
vt 0.220474 0.939224
vt 0.220474 0.939224
vt 0.220474 0.939224
vt 0.220474 0.939224
vt 0.220474 0.939224
vt 0.220474 0.939224
vt 0.066377 0.927717
vt 0.066377 0.927717
vt 0.066377 0.927717
vt 0.066377 0.927717
vt 0.066377 0.927717
vt 0.066377 0.927717
vt 0.066377 0.927717
vt 0.066377 0.927717
vt 0.066377 0.927717
vt 0.066377 0.927717
vt 0.066377 0.927717
vt 0.066377 0.927717
vt 0.066377 0.927717
vt 0.066377 0.927717
vt 0.066377 0.927717
vt 0.066377 0.927717
vt 0.066377 0.927717
vt 0.066377 0.927717
vt 0.066377 0.927717
vt 0.066377 0.927717
vt 0.066377 0.927717
vt 0.066377 0.927717
vt 0.066377 0.927717
vt 0.066377 0.927717
vt 0.066377 0.927717
vt 0.066377 0.927717
vt 0.066377 0.927717
vt 0.066377 0.927717
vt 0.066377 0.927717
vt 0.066377 0.927717
vt 0.066377 0.927717
vt 0.066377 0.927717
vt 0.066377 0.927717
vt 0.066377 0.927717
vt 0.066377 0.927717
vt 0.066377 0.927717
vt 0.066377 0.927717
vt 0.066377 0.927717
vt 0.066377 0.927717
vt 0.066377 0.927717
vt 0.066377 0.927717
vt 0.066377 0.927717
vt 0.066377 0.927717
vt 0.066377 0.927717
vt 0.066377 0.927717
vt 0.066377 0.927717
vt 0.066377 0.927717
vt 0.066377 0.927717
vt 0.066377 0.927717
vt 0.066377 0.927717
vt 0.066377 0.927717
vt 0.066377 0.927717
vt 0.066377 0.927717
vt 0.066377 0.927717
vn 0.7079 0.4647 -0.5319
vn -0.5879 0.5523 0.5911
vn -0.4930 0.7106 -0.5021
vn 0.6401 0.5327 0.5536
vn 0.3374 0.7759 -0.5330
vn -0.3383 0.7252 0.5997
vn 0.1066 0.9939 -0.0290
vn -0.3883 0.7660 -0.5124
vn 0.0389 0.9976 0.0579
vn -0.3581 0.6633 -0.6571
vn 0.1621 0.7908 0.5903
vn 0.5275 0.8496 0.0003
vn -0.5044 0.8633 -0.0145
vn 0.7751 0.6288 0.0620
vn -0.6474 0.7595 -0.0639
vn 0.5604 0.8281 -0.0110
vn -0.6322 0.7747 0.0087
vn 0.3539 0.9351 -0.0151
vn 0.5774 0.8164 -0.0110
vn 0.2391 0.8622 -0.4465
vn -0.0609 0.8363 -0.5450
vn -0.5751 0.8177 0.0252
vn 0.4195 0.9077 -0.0061
vn 0.3704 0.9281 -0.0378
vn -0.5018 0.8649 -0.0129
vn 0.1106 0.9932 -0.0366
vn -0.5742 0.8170 0.0533
vn -0.3639 0.9310 -0.0289
vn -0.2801 0.9594 -0.0319
vn -0.2488 0.8458 0.4719
vn -0.1310 0.9893 0.0648
vn 0.4786 0.8778 -0.0199
vn 0.7782 0.6278 0.0168
vn -0.0571 0.9983 0.0137
vn 0.0924 0.9956 -0.0157
vn 0.0870 0.9956 -0.0345
vn 0.3867 0.9212 0.0433
vn 0.3379 0.9382 -0.0749
vn -0.4732 0.8791 -0.0570
vn -0.1020 0.9947 -0.0164
vn 0.5919 0.8054 0.0312
vn -0.0845 0.9962 -0.0217
vn 0.0258 0.7129 0.7008
vn 0.1307 0.9889 0.0699
vn -0.5123 0.8587 0.0124
vn 0.3226 0.6958 -0.6417
vn -0.0796 0.9966 0.0216
vn 0.4430 0.8964 -0.0136
vn 0.5023 0.8627 0.0590
vn -0.1429 0.9895 -0.0200
vn 0.4403 0.8966 -0.0481
vn -0.5600 0.8285 0.0015
vn 0.7034 0.7006 -0.1198
vn 0.3102 0.9505 -0.0196
vn -0.0712 0.9960 0.0533
vn 0.5864 0.8099 -0.0177
vn -0.0987 0.7033 -0.7040
vn -0.6040 0.7965 0.0267
vn -0.0877 0.9929 -0.0801
vn -0.1077 0.9911 0.0781
vn 0.7594 0.6498 -0.0340
vn -0.5297 0.8465 0.0539
vn 0.3847 0.9208 0.0644
vn -0.1426 0.9885 -0.0504
vn -0.6340 0.7728 -0.0286
vn 0.2882 0.8435 0.4533
vn 0.2440 0.8080 0.5362
vn -0.0361 0.9990 0.0271
vn -0.0248 0.9865 -0.1620
vn 0.1013 0.9947 0.0147
vn 0.1160 0.8241 0.5544
vn -0.7194 0.6937 0.0351
vn -0.2405 0.8679 -0.4346
vn 0.1300 0.9907 -0.0410
vn -0.1437 0.9893 -0.0267
vn 0.0353 0.7480 -0.6627
vn -0.4737 0.8780 0.0688
vn -0.3646 0.9203 -0.1418
vn 0.0603 0.6704 -0.7395
vn -0.3565 0.9331 0.0479
vn -0.0423 0.7337 0.6782
vn 0.5785 0.8156 -0.0044
vn -0.5157 0.8567 0.0098
vn -0.5805 0.8137 -0.0304
vn -0.3199 0.8041 0.5011
vn -0.0130 0.9977 0.0661
vn 0.1321 0.9910 0.0233
vn -0.6928 0.7188 -0.0581
vn -0.4370 0.8975 -0.0598
vn -0.0937 0.9955 -0.0119
vn 0.7768 0.6298 0.0016
vn -0.0651 0.7734 0.6305
vn 0.7040 0.7097 0.0274
vn 0.5725 0.8188 0.0424
vn -0.5108 0.8588 0.0405
vn -0.4247 0.9047 0.0337
vn 0.0952 0.9947 -0.0398
vn 0.0491 0.9980 0.0390
vn 0.0758 0.9970 0.0178
vn -0.1234 0.9924 0.0038
vn 0.1104 0.9911 -0.0740
vn -0.0313 0.8405 0.5409
vn 0.0922 0.9287 -0.3591
vn -0.0925 0.9078 0.4092
vn -0.0257 0.7735 -0.6332
vn 0.2316 0.9727 0.0142
vn -0.1682 0.9850 0.0393
vn -0.1897 0.9798 -0.0629
vn -0.0999 0.9937 -0.0510
vn -0.0946 0.9944 -0.0480
vn 0.0842 0.9964 0.0022
vn -0.0208 0.9996 0.0197
vn 0.0945 0.9943 -0.0493
vn -0.0459 0.9279 0.3700
vn 0.0037 0.9996 0.0277
vn 0.1077 0.9930 0.0482
vn 0.2029 0.9789 -0.0245
vn -0.0038 0.9422 -0.3351
vn 0.1394 0.9902 0.0031
vn 0.2214 0.9744 0.0385
g Field_S_E_Field_S_E_CollorMaterial
usemtl CollorMaterial
s off
f 49/1/1 13/2/1 126/3/1
f 21/4/2 134/5/2 71/6/2
f 15/7/3 77/8/3 8/9/3
f 43/10/4 120/11/4 127/12/4
f 28/13/5 3/14/5 7/15/5 84/16/5
f 128/17/6 113/18/6 64/19/6 135/20/6
f 90/21/7 97/22/7 98/23/7 91/24/7
f 63/25/8 105/26/8 12/27/8 5/28/8
f 83/29/9 84/16/9 77/8/9 76/30/9
f 119/31/10 14/32/10 6/33/10 70/34/10
f 129/35/11 138/36/11 36/37/11 106/38/11
f 92/39/12 29/40/12 30/41/12 93/42/12
f 118/43/13 69/44/13 68/45/13 117/46/13
f 122/47/14 45/48/14 46/49/14 123/50/14
f 54/51/15 53/52/15 88/53/15 89/54/15
f 33/55/16 34/56/16 97/22/16 96/57/16
f 19/58/17 73/59/17 74/60/17 18/61/17
f 111/62/18 110/63/18 40/64/18 41/65/18
f 84/16/19 83/29/19 27/66/19 28/13/19
f 35/67/20 2/68/20 9/69/20 98/23/20
f 10/70/21 91/24/21 98/23/21 9/69/21
f 17/71/22 75/72/22 76/30/22 16/73/22
f 39/74/23 40/64/23 110/63/23 109/75/23
f 80/76/24 24/77/24 25/78/24 81/79/24
f 60/80/25 102/81/25 103/82/25 61/83/25
f 88/53/26 87/84/26 94/85/26 95/86/26
f 63/25/27 62/87/27 104/88/27 105/26/27
f 57/89/28 99/90/28 100/91/28 58/92/28
f 59/93/29 58/92/29 100/91/29 101/94/29
f 132/95/30 85/96/30 50/97/30 137/98/30
f 105/26/31 104/88/31 111/62/31 112/99/31
f 97/22/32 34/56/32 35/67/32 98/23/32
f 125/100/33 48/101/33 49/1/33 126/3/33
f 117/46/34 116/102/34 123/50/34 124/103/34
f 125/100/35 118/43/35 117/46/35 124/103/35
f 88/53/36 95/86/36 96/57/36 89/54/36
f 111/62/37 41/65/37 42/104/37 112/99/37
f 106/38/38 36/37/38 37/105/38 107/106/38
f 90/21/39 91/24/39 56/107/39 55/108/39
f 103/82/40 102/81/40 109/75/40 110/63/40
f 83/29/41 82/109/41 26/110/41 27/66/41
f 73/59/42 72/111/42 79/112/42 80/76/42
f 127/12/43 120/11/43 113/18/43 128/17/43
f 93/42/44 94/85/44 87/84/44 86/113/44
f 66/114/45 115/115/45 116/102/45 67/116/45
f 1/117/46 11/118/46 112/99/46 42/104/46
f 82/109/47 83/29/47 76/30/47 75/72/47
f 23/119/48 24/77/48 80/76/48 79/112/48
f 79/112/49 78/120/49 22/121/49 23/119/49
f 73/59/50 80/76/50 81/79/50 74/60/50
f 82/109/51 81/79/51 25/78/51 26/110/51
f 55/108/52 54/51/52 89/54/52 90/21/52
f 121/122/53 120/11/53 43/10/53 44/123/53
f 108/124/54 107/106/54 37/105/54 38/125/54
f 116/102/55 115/115/55 122/47/55 123/50/55
f 95/86/56 32/126/56 33/55/56 96/57/56
f 112/99/57 11/118/57 12/27/57 105/26/57
f 16/73/58 76/30/58 77/8/58 15/7/58
f 106/38/59 107/106/59 100/91/59 99/90/59
f 101/94/60 108/124/60 109/75/60 102/81/60
f 124/103/61 47/127/61 48/101/61 125/100/61
f 67/116/62 116/102/62 117/46/62 68/45/62
f 38/125/63 39/74/63 109/75/63 108/124/63
f 75/72/64 74/60/64 81/79/64 82/109/64
f 87/84/65 88/53/65 53/52/65 52/128/65
f 131/129/66 139/130/66 29/40/66 92/39/66
f 133/131/67 140/132/67 22/121/67 78/120/67
f 72/111/68 71/6/68 78/120/68 79/112/68
f 113/18/69 120/11/69 121/122/69 114/133/69
f 119/31/70 118/43/70 125/100/70 126/3/70
f 131/129/71 92/39/71 85/96/71 132/95/71
f 21/4/72 71/6/72 72/111/72 20/134/72
f 56/107/73 91/24/73 10/70/73 4/135/73
f 89/54/74 96/57/74 97/22/74 90/21/74
f 110/63/75 111/62/75 104/88/75 103/82/75
f 77/8/76 84/16/76 7/15/76 8/9/76
f 101/94/77 102/81/77 60/80/77 59/93/77
f 64/19/78 113/18/78 114/133/78 65/136/78
f 119/31/79 126/3/79 13/2/79 14/32/79
f 65/136/80 114/133/80 115/115/80 66/114/80
f 134/5/81 133/131/81 78/120/81 71/6/81
f 95/86/82 94/85/82 31/137/82 32/126/82
f 70/34/83 69/44/83 118/43/83 119/31/83
f 18/61/84 74/60/84 75/72/84 17/71/84
f 130/138/85 99/90/85 57/89/85 136/139/85
f 122/47/86 115/115/86 114/133/86 121/122/86
f 92/39/87 93/42/87 86/113/87 85/96/87
f 19/58/88 20/134/88 72/111/88 73/59/88
f 61/83/89 103/82/89 104/88/89 62/87/89
f 100/91/90 107/106/90 108/124/90 101/94/90
f 124/103/91 123/50/91 46/49/91 47/127/91
f 130/138/92 129/35/92 106/38/92 99/90/92
f 45/48/93 122/47/93 121/122/93 44/123/93
f 30/41/94 31/137/94 94/85/94 93/42/94
f 52/128/95 51/140/95 86/113/95 87/84/95
f 51/140/96 50/97/96 85/96/96 86/113/96
f 27/141/97 55/142/97 56/143/97 28/144/97
f 22/145/98 50/146/98 51/147/98 23/148/98
f 26/149/99 54/150/99 55/142/99 27/141/99
f 60/151/100 61/152/100 33/153/100 32/154/100
f 36/155/101 64/156/101 65/157/101 37/158/101
f 135/159/102 64/156/102 36/155/102 138/160/102
f 28/144/103 56/143/103 4/161/103 3/162/103
f 50/146/104 22/145/104 140/163/104 137/164/104
f 42/165/105 70/166/105 6/167/105 1/168/105
f 30/169/106 58/170/106 59/171/106 31/172/106
f 41/173/107 69/174/107 70/166/107 42/165/107
f 34/175/108 33/153/108 61/152/108 62/176/108
f 68/177/109 69/174/109 41/173/109 40/178/109
f 24/179/110 52/180/110 53/181/110 25/182/110
f 29/183/111 57/184/111 58/170/111 30/169/111
f 23/148/112 51/147/112 52/180/112 24/179/112
f 25/182/113 53/181/113 54/150/113 26/149/113
f 57/184/114 29/183/114 139/185/114 136/186/114
f 34/175/115 62/176/115 63/187/115 35/188/115
f 39/189/116 67/190/116 68/177/116 40/178/116
f 37/158/117 65/157/117 66/191/117 38/192/117
f 2/193/118 35/188/118 63/187/118 5/194/118
f 31/172/119 59/171/119 60/151/119 32/154/119
f 38/192/120 66/191/120 67/190/120 39/189/120
