# Blender v3.0.0 OBJ File: 'Blender Medieval Village Megapack Low Poly .blend'
# www.blender.org
mtllib Flat Rock_2.mtl
o Flat_Rock_2
v 1.197853 -0.000000 -0.687279
v -0.588633 -0.000001 -1.369312
v 0.982855 0.000001 1.705434
v -1.701362 0.000000 0.823970
v 1.829004 0.000000 0.416475
v 0.455908 -0.000001 -1.174396
v -1.226702 -0.000000 -0.442144
v -0.362195 0.000001 1.153221
v -0.047486 -0.000000 -0.060617
v 1.322493 -0.000000 -0.268697
v -0.145817 -0.000001 -1.408090
v -1.858539 -0.000000 -0.177291
v 0.082690 0.000001 1.791293
v 1.594964 0.000000 0.979077
v 0.923649 -0.000000 -1.049069
v -1.035938 -0.000000 -1.031752
v -1.042861 0.000001 1.284090
v -0.238250 0.000000 0.528991
v 0.143277 -0.000000 -0.650225
v 0.542122 0.000000 0.130147
v -0.637094 -0.000000 -0.251380
v -0.446330 -0.000000 -0.840988
v 0.732885 -0.000000 -0.459461
v 0.351358 0.000000 0.719755
v -0.827858 0.000000 0.338228
v 1.197853 1.036256 -0.687280
v -0.588633 1.036255 -1.369313
v 0.982855 1.036257 1.705434
v -1.701362 1.036256 0.823970
v 1.829004 1.036256 0.416474
v 0.455908 1.036255 -1.174397
v -1.226702 1.036256 -0.442144
v -0.362195 1.036257 1.153221
v -0.047486 1.036256 -0.060617
v 1.322493 1.036256 -0.268698
v -0.145817 1.036255 -1.408091
v -1.858539 1.036256 -0.177291
v 0.082690 1.036257 1.791292
v 1.594964 1.036256 0.979077
v 0.923649 1.036255 -1.049069
v -1.035938 1.036255 -1.031752
v -1.042861 1.036257 1.284090
v -0.238250 1.036256 0.528991
v 0.143277 1.036256 -0.650225
v 0.542122 1.036256 0.130147
v -0.637094 1.036256 -0.251381
v -0.446330 1.036256 -0.840989
v 0.732885 1.036256 -0.459461
v 0.351358 1.036256 0.719754
v -0.827858 1.036256 0.338227
vt 0.071062 0.254014
vt 0.071062 0.254014
vt 0.071062 0.254014
vt 0.071062 0.254014
vt 0.071062 0.254014
vt 0.071062 0.254014
vt 0.071062 0.254014
vt 0.071062 0.254014
vt 0.071062 0.254014
vt 0.071062 0.254014
vt 0.071062 0.254014
vt 0.071062 0.254014
vt 0.071062 0.254014
vt 0.071062 0.254014
vt 0.071062 0.254014
vt 0.071062 0.254014
vt 0.071062 0.254014
vt 0.071062 0.254014
vt 0.071062 0.254014
vt 0.071062 0.254014
vt 0.071062 0.254014
vt 0.071062 0.254014
vt 0.071062 0.254014
vt 0.071062 0.254014
vt 0.071062 0.254014
vt 0.071062 0.254014
vt 0.071062 0.254014
vt 0.071062 0.254014
vt 0.071062 0.254014
vt 0.071062 0.254014
vt 0.071062 0.254014
vt 0.071062 0.254014
vt 0.071062 0.254014
vt 0.071062 0.254014
vt 0.071062 0.254014
vt 0.071062 0.254014
vt 0.071062 0.254014
vt 0.071062 0.254014
vt 0.071062 0.254014
vt 0.071062 0.254014
vt 0.071062 0.254014
vt 0.071062 0.254014
vt 0.071062 0.254014
vt 0.071062 0.254014
vt 0.071062 0.254014
vt 0.071062 0.254014
vt 0.071062 0.254014
vt 0.071062 0.254014
vt 0.071062 0.254014
vt 0.071062 0.254014
vn 0.0000 1.0000 -0.0000
vn 0.0000 -1.0000 0.0000
vn 0.9233 0.0000 0.3841
vn 0.3620 -0.0000 -0.9322
vn 0.1888 0.0000 0.9820
vn -0.0872 -0.0000 -0.9962
vn 0.7647 0.0000 0.6444
vn 0.8041 -0.0000 -0.5945
vn -0.9879 0.0000 0.1551
vn -0.8203 0.0000 0.5719
vn 0.7970 -0.0000 -0.6040
vn 0.0949 0.0000 0.9955
vn 0.9584 -0.0000 -0.2854
vn -0.5728 0.0000 0.8197
vn -0.6024 -0.0000 -0.7982
vn -0.3866 -0.0000 -0.9223
vn -0.9514 -0.0000 -0.3078
vn 0.2588 -0.0000 -0.9659
g Flat_Rock_2_Flat_Rock_2_CollorMaterial
usemtl CollorMaterial
s off
f 32/1/1 37/2/1 29/3/1 50/4/1
f 24/5/2 8/6/2 18/7/2
f 22/8/2 2/9/2 11/10/2
f 10/11/2 20/12/2 23/13/2
f 1/14/2 23/13/2 15/15/2
f 3/16/2 24/5/2 14/17/2
f 25/18/2 7/19/2 21/20/2
f 50/4/1 29/3/1 42/21/1
f 27/22/1 47/23/1 36/24/1
f 35/25/1 45/26/1 30/27/1
f 26/28/1 48/29/1 35/25/1
f 49/30/1 28/31/1 39/32/1
f 32/1/1 50/4/1 46/33/1
f 25/18/2 17/34/2 4/35/2
f 38/36/1 28/31/1 49/30/1 33/37/1
f 22/8/2 19/38/2 9/39/2 21/20/2
f 39/32/3 14/17/3 5/40/3 30/27/3
f 34/41/1 44/42/1 47/23/1 46/33/1
f 44/42/1 31/43/1 36/24/1 47/23/1
f 22/8/2 16/44/2 2/9/2
f 10/11/2 5/40/2 20/12/2
f 1/14/2 10/11/2 23/13/2
f 48/29/1 40/45/1 31/43/1 44/42/1
f 39/32/1 30/27/1 45/26/1 49/30/1
f 43/46/1 34/41/1 46/33/1 50/4/1
f 3/16/2 13/47/2 8/6/2 24/5/2
f 18/7/2 9/39/2 20/12/2 24/5/2
f 33/37/1 43/46/1 50/4/1 42/21/1
f 49/30/1 43/46/1 33/37/1
f 31/43/4 6/48/4 11/10/4 36/24/4
f 43/46/1 49/30/1 45/26/1 34/41/1
f 33/37/5 42/21/5 17/34/5 8/6/5
f 12/49/2 7/19/2 25/18/2 4/35/2
f 27/22/1 41/50/1 47/23/1
f 35/25/1 48/29/1 45/26/1
f 26/28/1 40/45/1 48/29/1
f 20/12/2 5/40/2 14/17/2 24/5/2
f 11/10/2 6/48/2 19/38/2 22/8/2
f 21/20/2 9/39/2 18/7/2 25/18/2
f 25/18/2 18/7/2 8/6/2 17/34/2
f 6/48/2 15/15/2 23/13/2 19/38/2
f 36/24/6 11/10/6 2/9/6 27/22/6
f 28/31/7 3/16/7 14/17/7 39/32/7
f 30/27/8 5/40/8 10/11/8 35/25/8
f 37/2/9 12/49/9 4/35/9 29/3/9
f 33/37/10 8/6/10 13/47/10 38/36/10
f 26/28/11 1/14/11 15/15/11 40/45/11
f 38/36/12 13/47/12 3/16/12 28/31/12
f 35/25/13 10/11/13 1/14/13 26/28/13
f 16/44/2 22/8/2 21/20/2 7/19/2
f 29/3/14 4/35/14 17/34/14 42/21/14
f 46/33/1 47/23/1 41/50/1 32/1/1
f 27/22/15 2/9/15 16/44/15 41/50/15
f 32/1/16 7/19/16 12/49/16 37/2/16
f 32/1/17 41/50/17 16/44/17 7/19/17
f 40/45/18 15/15/18 6/48/18 31/43/18
f 19/38/2 23/13/2 20/12/2 9/39/2
f 34/41/1 45/26/1 48/29/1 44/42/1
