# Blender v3.0.0 OBJ File: 'Blender Medieval Village Megapack Low Poly .blend'
# www.blender.org
mtllib Flat Rock_1.mtl
o Flat_Rock_1
v -2.211730 0.000001 2.184145
v 3.563414 0.000002 3.287560
v -4.418561 -0.000001 -2.322072
v 3.259974 -0.000002 -3.784096
v -2.763438 0.000000 0.000000
v 0.193098 0.000002 4.335804
v 2.763438 0.000000 0.000000
v -1.627537 -0.000002 -4.363390
v 0.000000 0.000000 0.000000
v -2.763438 0.000001 1.381719
v 2.154109 0.000002 4.473731
v 3.922024 -0.000000 -0.995524
v -3.202354 -0.000002 -3.949609
v -4.197877 -0.000001 -1.078280
v -1.381719 0.000001 2.763438
v 2.763438 0.000001 1.381719
v -0.052721 -0.000002 -4.694414
v 0.000000 -0.000001 -1.381719
v 0.000000 0.000001 1.381719
v -1.381719 0.000000 0.000000
v 1.381719 0.000000 0.000000
v 1.381719 0.000001 1.381719
v -1.381719 0.000001 1.381719
v -1.381719 -0.000001 -1.381719
v 1.381719 -0.000001 -1.381719
v -2.211730 1.127405 2.184144
v 3.563414 1.127405 3.287559
v -4.418561 1.127402 -2.322072
v 3.259974 1.127402 -3.784097
v -2.763438 1.127403 -0.000001
v 0.193098 1.127406 4.335804
v 2.763438 1.127403 -0.000001
v -1.627537 1.127401 -4.363390
v 0.000000 1.127403 -0.000001
v -2.763438 1.127404 1.381718
v 2.154109 1.127406 4.473731
v 3.922024 1.127403 -0.995524
v -3.202354 1.127402 -3.949610
v -4.197877 1.127403 -1.078280
v -1.381719 1.127405 2.763437
v 2.763438 1.127404 1.381718
v -0.052721 1.127401 -4.694415
v 0.000000 1.127403 -1.381719
v 0.000000 1.127404 1.381718
v -1.381719 1.127403 -0.000001
v 1.381719 1.127403 -0.000001
v 1.381719 1.127404 1.381718
v -1.381719 1.127404 1.381718
v -1.381719 1.127403 -1.381719
v 1.381719 1.127403 -1.381719
vt 0.053002 0.242045
vt 0.053002 0.242045
vt 0.053002 0.242045
vt 0.053002 0.242045
vt 0.053002 0.242045
vt 0.053002 0.242045
vt 0.053002 0.242045
vt 0.053002 0.242045
vt 0.053002 0.242045
vt 0.053002 0.242045
vt 0.053002 0.242045
vt 0.053002 0.242045
vt 0.053002 0.242045
vt 0.053002 0.242045
vt 0.053002 0.242045
vt 0.053002 0.242045
vt 0.053002 0.242045
vt 0.053002 0.242045
vt 0.053002 0.242045
vt 0.053002 0.242045
vt 0.053002 0.242045
vt 0.053002 0.242045
vt 0.053002 0.242045
vt 0.053002 0.242045
vt 0.053002 0.242045
vt 0.053002 0.242045
vt 0.053002 0.242045
vt 0.053002 0.242045
vt 0.053002 0.242045
vt 0.053002 0.242045
vt 0.053002 0.242045
vt 0.053002 0.242045
vt 0.053002 0.242045
vt 0.053002 0.242045
vt 0.053002 0.242045
vt 0.053002 0.242045
vt 0.053002 0.242045
vt 0.053002 0.242045
vt 0.053002 0.242045
vt 0.053002 0.242045
vt 0.053002 0.242045
vt 0.053002 0.242045
vt 0.053002 0.242045
vt 0.053002 0.242045
vt 0.053002 0.242045
vt 0.053002 0.242045
vt 0.053002 0.242045
vt 0.053002 0.242045
vt 0.053002 0.242045
vt 0.053002 0.242045
vn 0.0000 -1.0000 0.0000
vn 0.0000 1.0000 -0.0000
vn -0.5723 0.0000 0.8200
vn -0.9846 -0.0000 0.1747
vn -0.6009 0.0000 0.7993
vn 0.9221 -0.0000 -0.3870
vn 0.6517 0.0000 0.7585
vn -0.8240 0.0000 0.5666
vn -0.7066 0.0000 0.7077
vn 1.0000 -0.0000 0.0000
vn -1.0000 -0.0000 0.0000
vn 0.9730 -0.0000 -0.2310
vn -0.8010 -0.0000 -0.5986
vn -0.2541 -0.0000 -0.9672
vn 0.6439 0.0000 0.7651
vn 0.2650 -0.0000 -0.9643
vn -0.2057 -0.0000 -0.9786
vn -0.0702 0.0000 0.9975
g Flat_Rock_1_Flat_Rock_1_CollorMaterial
usemtl CollorMaterial
s off
f 18/1/1 17/2/1 4/3/1 25/4/1
f 22/5/1 11/6/1 6/7/1 19/8/1
f 1/9/1 23/10/1 15/11/1
f 15/11/1 19/8/1 6/7/1
f 3/12/1 24/13/1 14/14/1
f 5/15/1 24/13/1 20/16/1
f 25/4/1 7/17/1 21/18/1
f 2/19/1 11/6/1 22/5/1 16/20/1
f 49/21/2 33/22/2 38/23/2
f 26/24/2 48/25/2 35/26/2
f 40/27/2 44/28/2 48/25/2
f 49/21/2 28/29/2 39/30/2
f 30/31/2 49/21/2 39/30/2
f 32/32/2 50/33/2 46/34/2
f 43/35/2 50/33/2 29/36/2 42/37/2
f 24/13/1 13/38/1 8/39/1
f 16/20/1 22/5/1 21/18/1 7/17/1
f 22/5/1 19/8/1 9/40/1 21/18/1
f 46/34/2 47/41/2 41/42/2 32/32/2
f 47/41/2 44/28/2 31/43/2 36/44/2
f 47/41/2 36/44/2 27/45/2 41/42/2
f 9/40/1 20/16/1 24/13/1 18/1/1
f 1/9/1 10/46/1 23/10/1
f 15/11/1 23/10/1 19/8/1
f 3/12/1 13/38/1 24/13/1
f 5/15/1 14/14/1 24/13/1
f 26/24/3 1/9/3 15/11/3 40/27/3
f 28/29/4 3/12/4 14/14/4 39/30/4
f 12/47/1 7/17/1 25/4/1 4/3/1
f 8/39/1 17/2/1 18/1/1 24/13/1
f 23/10/1 10/46/1 5/15/1 20/16/1
f 45/48/2 48/25/2 44/28/2 34/49/2
f 19/8/1 23/10/1 20/16/1 9/40/1
f 32/32/2 37/50/2 29/36/2 50/33/2
f 39/30/5 14/14/5 5/15/5 30/31/5
f 26/24/2 40/27/2 48/25/2
f 40/27/2 31/43/2 44/28/2
f 49/21/2 38/23/2 28/29/2
f 30/31/2 45/48/2 49/21/2
f 30/31/2 35/26/2 48/25/2 45/48/2
f 49/21/2 45/48/2 34/49/2 43/35/2
f 27/45/6 2/19/6 16/20/6 41/42/6
f 43/35/2 34/49/2 46/34/2 50/33/2
f 32/32/7 7/17/7 12/47/7 37/50/7
f 43/35/2 42/37/2 33/22/2 49/21/2
f 26/24/8 35/26/8 10/46/8 1/9/8
f 31/43/9 40/27/9 15/11/9 6/7/9
f 41/42/10 16/20/10 7/17/10 32/32/10
f 30/31/11 5/15/11 10/46/11 35/26/11
f 21/18/1 9/40/1 18/1/1 25/4/1
f 37/50/12 12/47/12 4/3/12 29/36/12
f 38/23/13 13/38/13 3/12/13 28/29/13
f 34/49/2 44/28/2 47/41/2 46/34/2
f 33/22/14 8/39/14 13/38/14 38/23/14
f 36/44/15 11/6/15 2/19/15 27/45/15
f 29/36/16 4/3/16 17/2/16 42/37/16
f 42/37/17 17/2/17 8/39/17 33/22/17
f 31/43/18 6/7/18 11/6/18 36/44/18
