# Blender v3.0.0 OBJ File: 'Blender Medieval Village Megapack Low Poly .blend'
# www.blender.org
mtllib Grass_1.mtl
o Grass_1
v -0.118250 0.000067 0.031765
v -0.104482 0.137583 0.018716
v -0.118250 0.000067 -0.031765
v -0.104482 0.137583 -0.018716
v -0.054626 0.000061 0.031778
v -0.068381 0.151264 0.018791
v -0.054626 0.000061 -0.031778
v -0.068381 0.151264 -0.018792
v -0.162481 0.280840 0.012083
v -0.162481 0.280840 -0.012083
v -0.143613 0.300815 -0.011932
v -0.143613 0.300815 0.011931
v -0.250998 0.422554 -0.000000
v -0.026086 0.000036 -0.052985
v -0.008915 0.137583 -0.045485
v 0.032722 0.000036 -0.077041
v 0.025730 0.137583 -0.059656
v -0.008526 0.000033 -0.009992
v -0.001573 0.151264 -0.027335
v 0.050326 0.000033 -0.034065
v 0.033212 0.151264 -0.041564
v -0.014687 0.280840 -0.077114
v 0.007680 0.280840 -0.086264
v 0.011416 0.300815 -0.076731
v -0.010671 0.300815 -0.067696
v -0.021679 0.422554 -0.126123
v -0.002463 0.000187 0.160422
v -0.009134 0.134696 0.141894
v -0.061698 0.000184 0.137636
v -0.044052 0.132213 0.128322
v 0.020203 0.000158 0.100890
v 0.002548 0.156635 0.110214
v -0.039060 0.000161 0.078123
v -0.032362 0.154150 0.096628
v -0.057861 0.269398 0.168871
v 0.090695 0.000067 0.081254
v 0.071727 0.137583 0.080995
v 0.046367 0.000067 0.126763
v 0.045610 0.137583 0.107809
v 0.045128 0.000061 0.036851
v 0.045920 0.151264 0.055751
v 0.000781 0.000061 0.082379
v 0.019696 0.151264 0.082674
v 0.108646 0.280840 0.126214
v 0.091785 0.280840 0.143526
v 0.078375 0.300815 0.130252
v 0.095025 0.300815 0.113158
v 0.163625 0.422554 0.196633
v -0.034460 0.000036 0.077657
v -0.041527 0.137583 0.060303
v -0.093372 0.000036 0.053855
v -0.076233 0.137583 0.046281
v -0.017041 0.000033 0.034606
v -0.034122 0.151264 0.042179
v -0.075996 0.000033 0.010787
v -0.068969 0.151264 0.028100
v -0.059462 0.280840 0.086987
v -0.081868 0.280840 0.077935
v -0.077893 0.300815 0.068499
v -0.055767 0.300815 0.077439
v -0.088649 0.422554 0.126973
v 0.097522 0.000187 -0.091699
v 0.089373 0.134696 -0.073772
v 0.124056 0.000184 -0.034045
v 0.104917 0.132213 -0.039686
v 0.039747 0.000158 -0.064869
v 0.058900 0.156635 -0.059230
v 0.066314 0.000161 -0.007209
v 0.074428 0.154150 -0.025139
v 0.143102 0.269398 -0.059098
vt 0.336496 0.797999
vt 0.336496 0.797999
vt 0.336496 0.797999
vt 0.336496 0.797999
vt 0.336496 0.797999
vt 0.336496 0.797999
vt 0.336496 0.797999
vt 0.336496 0.797999
vt 0.336496 0.797999
vt 0.336496 0.797999
vt 0.336496 0.797999
vt 0.336496 0.797999
vt 0.336496 0.797999
vt 0.336496 0.797999
vt 0.336496 0.797999
vt 0.336496 0.797999
vt 0.336496 0.797999
vt 0.336496 0.797999
vt 0.336496 0.797999
vt 0.336496 0.797999
vt 0.336496 0.797999
vt 0.336496 0.797999
vt 0.336496 0.797999
vt 0.336496 0.797999
vt 0.336496 0.797999
vt 0.336496 0.797999
vt 0.336496 0.797999
vt 0.336496 0.797999
vt 0.336496 0.797999
vt 0.336496 0.797999
vt 0.336496 0.797999
vt 0.336496 0.797999
vt 0.336496 0.797999
vt 0.336496 0.797999
vt 0.336496 0.797999
vt 0.336496 0.797999
vt 0.336496 0.797999
vt 0.336496 0.797999
vt 0.336496 0.797999
vt 0.336496 0.797999
vt 0.336496 0.797999
vt 0.336496 0.797999
vt 0.336496 0.797999
vt 0.336496 0.797999
vt 0.336496 0.797999
vt 0.336496 0.797999
vt 0.336496 0.797999
vt 0.336496 0.797999
vt 0.336496 0.797999
vt 0.336496 0.797999
vt 0.336496 0.797999
vt 0.336496 0.797999
vt 0.336496 0.797999
vt 0.336496 0.797999
vt 0.336496 0.797999
vt 0.336496 0.797999
vt 0.336496 0.797999
vt 0.336496 0.797999
vt 0.336496 0.797999
vt 0.336496 0.797999
vt 0.336496 0.797999
vt 0.336496 0.797999
vt 0.336496 0.797999
vt 0.336496 0.797999
vt 0.336496 0.797999
vt 0.336496 0.797999
vt 0.336496 0.797999
vt 0.336496 0.797999
vt 0.336496 0.797999
vt 0.336496 0.797999
vn -0.0494 0.0542 0.9973
vn -0.0494 0.0542 -0.9973
vn 0.7499 0.6615 0.0000
vn -0.8481 -0.5298 0.0000
vn 0.9212 0.0945 -0.3774
vn -0.9216 0.0945 0.3764
vn -0.9547 0.0540 0.2925
vn -0.9363 0.0394 0.3491
vn 0.9055 0.0325 -0.4230
vn 0.8860 0.0540 -0.4605
vn 0.3415 0.4316 0.8349
vn -0.3586 -0.3209 -0.8766
vn 0.2675 0.5536 -0.7887
vn -0.3273 -0.2980 0.8967
vn 0.8576 0.2168 0.4664
vn -0.9397 0.0065 -0.3421
vn 0.7312 0.0542 -0.6800
vn -0.6605 0.0542 0.7489
vn -0.5372 0.6615 -0.5233
vn 0.6076 -0.5298 0.5918
vn -0.9232 0.0945 -0.3725
vn 0.9228 0.0945 0.3734
vn 0.8880 0.0540 0.4566
vn 0.9143 0.0394 0.4032
vn -0.9438 0.0325 -0.3288
vn -0.9560 0.0540 -0.2884
vn 0.3379 0.4316 -0.8364
vn -0.3548 -0.3209 0.8782
vn -0.7419 0.5536 0.3783
vn 0.8601 -0.2980 -0.4139
vn -0.2889 0.2168 -0.9325
vn 0.4344 0.0065 0.9007
vn 0.7128 0.0996 0.6943
vn -0.0132 0.0898 0.9959
vn 0.3771 0.0884 0.9219
vn 0.7043 0.0898 -0.7042
vn 0.6640 -0.3753 0.6468
vn -0.6854 0.0898 0.7226
vn -0.0210 0.0365 0.9991
vn -0.6399 0.4494 -0.6233
vn 0.9044 0.1116 -0.4118
vn 0.8982 0.0802 -0.4321
vn 0.3731 0.0884 -0.9236
vn -0.9436 0.0802 0.3213
vn 0.3563 0.0959 -0.9295
vn -0.9424 0.0325 0.3329
vn 0.9125 0.0394 -0.4071
vn 0.3614 0.2632 -0.8945
vn 0.7122 0.0365 -0.7011
vn -0.9037 0.0959 0.4172
vn -0.4046 0.0890 -0.9102
vn -0.3728 0.0973 0.9228
vn -0.0132 0.0898 -0.9959
vn 0.9959 0.0906 -0.0000
vn 0.9249 0.0890 0.3697
vn 0.3652 0.2632 0.8929
vn -0.6821 0.0365 0.7303
vn -0.0210 0.0365 -0.9991
vn -0.9269 -0.3753 0.0000
vn -0.3768 0.0973 -0.9212
vn -0.9450 0.0802 -0.3172
vn -0.9950 0.0996 -0.0000
vn 0.9001 0.0802 0.4283
vn -0.3698 -0.2145 -0.9040
vn 0.9074 0.0325 0.4191
vn -0.9378 0.0394 -0.3451
vn -0.3659 -0.2145 0.9056
vn -0.3605 0.1116 0.9260
vn -0.9390 0.0906 -0.3317
vn -0.7134 0.0906 -0.6949
vn 0.4413 0.0906 0.8928
vn 0.8933 0.4494 0.0000
g Grass_1_Grass_1_CollorMaterial
usemtl CollorMaterial
s off
f 9/1/1 12/2/1 13/3/1
f 11/4/2 10/5/2 13/3/2
f 12/2/3 11/4/3 13/3/3
f 10/5/4 9/1/4 13/3/4
f 17/6/5 20/7/5 16/8/5
f 18/9/6 15/10/6 14/11/6
f 22/12/7 25/13/7 26/14/7
f 19/15/8 22/12/8 15/10/8
f 21/16/9 23/17/9 24/18/9
f 24/18/10 23/17/10 26/14/10
f 25/13/11 24/18/11 26/14/11
f 23/17/12 22/12/12 26/14/12
f 32/19/13 34/20/13 35/21/13
f 30/22/14 28/23/14 35/21/14
f 28/23/15 32/19/15 35/21/15
f 34/20/16 30/22/16 35/21/16
f 44/24/17 47/25/17 48/26/17
f 46/27/18 45/28/18 48/26/18
f 47/25/19 46/27/19 48/26/19
f 45/28/20 44/24/20 48/26/20
f 52/29/21 55/30/21 51/31/21
f 53/32/22 50/33/22 49/34/22
f 57/35/23 60/36/23 61/37/23
f 54/38/24 57/35/24 50/33/24
f 56/39/25 58/40/25 59/41/25
f 59/41/26 58/40/26 61/37/26
f 60/36/27 59/41/27 61/37/27
f 58/40/28 57/35/28 61/37/28
f 67/42/29 69/43/29 70/44/29
f 65/45/30 63/46/30 70/44/30
f 63/46/31 67/42/31 70/44/31
f 69/43/32 65/45/32 70/44/32
f 38/47/33 36/48/33 37/49/33 39/50/33
f 2/51/34 1/52/34 5/53/34 6/54/34
f 18/9/35 20/7/35 21/16/35 19/15/35
f 37/49/36 36/48/36 40/55/36 41/56/36
f 45/28/37 39/50/37 37/49/37 44/24/37
f 42/57/38 38/47/38 39/50/38 43/58/38
f 9/1/39 2/51/39 6/54/39 12/2/39
f 47/25/40 41/56/40 43/58/40 46/27/40
f 65/45/41 64/59/41 62/60/41 63/46/41
f 17/6/42 21/16/42 20/7/42
f 53/32/43 55/30/43 56/39/43 54/38/43
f 18/9/44 19/15/44 15/10/44
f 31/61/45 33/62/45 34/20/45 32/19/45
f 19/15/46 25/13/46 22/12/46
f 21/16/47 17/6/47 23/17/47
f 60/36/48 54/38/48 56/39/48 59/41/48
f 44/24/49 37/49/49 41/56/49 47/25/49
f 66/63/50 68/64/50 69/43/50 67/42/50
f 63/46/51 62/60/51 66/63/51 67/42/51
f 51/31/52 49/34/52 50/33/52 52/29/52
f 7/65/53 3/66/53 4/67/53 8/68/53
f 6/54/54 5/53/54 7/65/54 8/68/54
f 28/23/55 27/69/55 31/61/55 32/19/55
f 24/18/56 25/13/56 19/15/56 21/16/56
f 45/28/57 46/27/57 43/58/57 39/50/57
f 10/5/58 11/4/58 8/68/58 4/67/58
f 9/1/59 10/5/59 4/67/59 2/51/59
f 17/6/60 16/8/60 14/11/60 15/10/60
f 52/29/61 56/39/61 55/30/61
f 3/66/62 1/52/62 2/51/62 4/67/62
f 53/32/63 54/38/63 50/33/63
f 22/12/64 23/17/64 17/6/64 15/10/64
f 54/38/65 60/36/65 57/35/65
f 56/39/66 52/29/66 58/40/66
f 58/40/67 52/29/67 50/33/67 57/35/67
f 30/22/68 29/70/68 27/69/68 28/23/68
f 33/62/69 29/70/69 30/22/69 34/20/69
f 40/55/70 42/57/70 43/58/70 41/56/70
f 68/64/71 64/59/71 65/45/71 69/43/71
f 12/2/72 6/54/72 8/68/72 11/4/72
