# Blender v3.0.0 OBJ File: 'Blender Medieval Village Megapack Low Poly .blend'
# www.blender.org
mtllib Grass_2.mtl
o Grass_2
v -0.054821 0.000000 0.128776
v -0.077173 0.137583 0.118190
v -0.111244 0.000000 0.110974
v -0.112870 0.137583 0.106927
v -0.037019 0.000000 0.072299
v -0.066238 0.151264 0.083785
v -0.093411 0.000000 0.054507
v -0.102079 0.151264 0.072476
v -0.106801 0.280840 0.169658
v -0.129847 0.280840 0.162387
v -0.124025 0.300815 0.144440
v -0.101268 0.300815 0.151620
v -0.123643 0.422554 0.248586
v -0.131704 0.000000 0.016338
v -0.126831 0.126351 0.016362
v -0.080177 -0.000000 -0.032950
v -0.089208 0.126351 -0.019627
v -0.096678 0.000000 0.052918
v -0.108084 0.145380 0.036113
v -0.045188 0.000000 0.003665
v -0.070308 0.145380 -0.000021
v -0.138404 0.325611 -0.025712
v -0.114114 0.325611 -0.048946
v -0.104424 0.353395 -0.038511
v -0.128409 0.353395 -0.015568
v -0.154491 0.522725 -0.097084
v 0.101035 0.000000 0.060149
v 0.099264 0.132733 0.062840
v 0.064178 0.000000 0.106389
v 0.071081 0.129748 0.097954
v 0.054517 0.000000 0.023402
v 0.067179 0.159100 0.037994
v 0.017718 0.000000 0.069595
v 0.038982 0.156113 0.073094
v 0.117582 0.269398 0.106446
v 0.055738 -0.000000 -0.049852
v 0.050704 0.137583 -0.034813
v 0.083735 0.000000 0.002269
v 0.068417 0.137583 -0.001838
v 0.003579 -0.000000 -0.021817
v 0.018865 0.151264 -0.017797
v 0.031560 0.000000 0.030276
v 0.036650 0.151264 0.015312
v 0.104937 0.280840 -0.056415
v 0.116372 0.280840 -0.035126
v 0.099680 0.300815 -0.026332
v 0.088388 0.300815 -0.047354
v 0.188635 0.422554 -0.087657
v 0.039889 0.000000 0.106782
v 0.022675 0.127243 0.107660
v -0.013092 0.000000 0.132022
v -0.023279 0.127243 0.129553
v 0.021944 0.000000 0.069161
v 0.011317 0.145848 0.083580
v -0.031000 0.000000 0.094383
v -0.034823 0.145848 0.105561
v 0.023420 0.322056 0.148591
v -0.006248 0.322056 0.162725
v -0.012049 0.349220 0.150068
v 0.017247 0.349220 0.136112
v 0.056644 0.514771 0.210178
v -0.064530 -0.000000 -0.104449
v -0.058774 0.140857 -0.106025
v 0.005540 -0.000000 -0.116401
v -0.006527 0.137346 -0.114756
v -0.052241 -0.000000 -0.034257
v -0.050086 0.171878 -0.059080
v 0.017739 -0.000000 -0.046212
v 0.002162 0.168364 -0.067787
v -0.060282 0.304840 -0.145662
v -0.059106 0.000000 0.064498
v -0.060047 0.132733 0.062538
v -0.073036 0.000000 0.027117
v -0.070558 0.129748 0.034040
v -0.021693 0.000000 0.050368
v -0.034530 0.159100 0.052619
v -0.035616 0.000000 0.013038
v -0.045028 0.156113 0.024118
v -0.091627 0.269398 0.057977
vt 0.346449 0.797999
vt 0.346449 0.797999
vt 0.346449 0.797999
vt 0.346449 0.797999
vt 0.346449 0.797999
vt 0.346449 0.797999
vt 0.346449 0.797999
vt 0.346449 0.797999
vt 0.346449 0.797999
vt 0.346449 0.797999
vt 0.346449 0.797999
vt 0.346449 0.797999
vt 0.346449 0.797999
vt 0.346449 0.797999
vt 0.346449 0.797999
vt 0.346449 0.797999
vt 0.346449 0.797999
vt 0.346449 0.797999
vt 0.346449 0.797999
vt 0.346449 0.797999
vt 0.346449 0.797999
vt 0.346449 0.797999
vt 0.346449 0.797999
vt 0.346449 0.797999
vt 0.346449 0.797999
vt 0.346449 0.797999
vt 0.346449 0.797999
vt 0.346449 0.797999
vt 0.346449 0.797999
vt 0.346449 0.797999
vt 0.346449 0.797999
vt 0.346449 0.797999
vt 0.346449 0.797999
vt 0.346449 0.797999
vt 0.346449 0.797999
vt 0.346449 0.797999
vt 0.346449 0.797999
vt 0.346449 0.797999
vt 0.346449 0.797999
vt 0.346449 0.797999
vt 0.346449 0.797999
vt 0.346449 0.797999
vt 0.346449 0.797999
vt 0.346449 0.797999
vt 0.346449 0.797999
vt 0.346449 0.797999
vt 0.346449 0.797999
vt 0.346449 0.797999
vt 0.346449 0.797999
vt 0.346449 0.797999
vt 0.346449 0.797999
vt 0.346449 0.797999
vt 0.346449 0.797999
vt 0.346449 0.797999
vt 0.346449 0.797999
vt 0.346449 0.797999
vt 0.346449 0.797999
vt 0.346449 0.797999
vt 0.346449 0.797999
vt 0.346449 0.797999
vt 0.346449 0.797999
vt 0.346449 0.797999
vt 0.346449 0.797999
vt 0.346449 0.797999
vt 0.346449 0.797999
vt 0.346449 0.797999
vt 0.346449 0.797999
vt 0.346449 0.797999
vt 0.346449 0.797999
vt 0.346449 0.797999
vt 0.346449 0.797999
vt 0.346449 0.797999
vt 0.346449 0.797999
vt 0.346449 0.797999
vt 0.346449 0.797999
vt 0.346449 0.797999
vt 0.346449 0.797999
vt 0.346449 0.797999
vt 0.346449 0.797999
vn 0.9647 -0.0310 0.2615
vn -0.9770 0.1404 -0.1606
vn 0.2333 0.6317 -0.7393
vn -0.2618 -0.4932 0.8296
vn -0.8490 0.1173 0.5153
vn -0.7644 0.0904 0.6384
vn 0.7379 -0.0039 -0.6749
vn 0.7458 -0.0099 -0.6661
vn 0.6293 0.4137 0.6579
vn -0.6587 -0.3031 -0.6886
vn -0.6522 0.5919 -0.4736
vn 0.7586 -0.2881 0.5844
vn 0.6757 0.1403 -0.7237
vn -0.5389 0.1288 0.8325
vn -0.4284 0.0542 -0.9019
vn 0.5154 0.0542 0.8552
vn -0.6607 0.6615 0.3549
vn 0.7472 -0.5298 -0.4013
vn 0.8897 -0.0075 -0.4565
vn 0.9231 0.0757 -0.3769
vn -0.9031 0.0072 0.4294
vn -0.7920 0.1106 0.6004
vn -0.3837 0.4517 -0.8055
vn 0.4043 -0.3409 0.8487
vn 0.1733 0.5467 0.8192
vn -0.1755 -0.2328 -0.9566
vn -0.9862 0.0302 0.1625
vn 0.9165 0.2343 -0.3243
vn -0.3516 0.0566 -0.9344
vn 0.3533 0.0163 0.9354
vn 0.8247 0.4440 -0.3503
vn -0.9125 -0.1989 0.3574
vn 0.2737 0.0952 0.9571
vn -0.4379 0.0873 -0.8948
vn -0.9528 -0.0194 -0.3029
vn 0.9329 0.1656 0.3199
vn 0.4295 0.0519 0.9016
vn -0.9539 0.0038 -0.3000
vn 0.8166 -0.3753 -0.4386
vn 0.6214 0.0232 -0.7831
vn -0.4543 0.0365 -0.8901
vn -0.7870 0.4494 0.4227
vn 0.7811 -0.0016 0.6244
vn 0.9103 0.1151 -0.3976
vn -0.7776 0.1191 -0.6174
vn -0.9076 -0.0598 0.4156
vn 0.6848 0.1365 0.7159
vn -0.7997 0.0700 0.5963
vn 0.7251 -0.0107 -0.6886
vn -0.6787 -0.1892 -0.7096
vn 0.8779 0.0837 -0.4715
vn 0.9780 0.0758 -0.1944
vn 0.1690 0.1397 0.9757
vn -0.9853 0.0390 0.1661
vn -0.9375 -0.0011 0.3479
vn -0.4619 0.0747 -0.8838
vn 0.9333 0.0807 -0.3499
vn 0.9383 0.0691 0.3390
vn -0.4177 0.2386 -0.8767
vn 0.4913 0.0365 0.8703
vn 0.4818 0.0747 0.8731
vn -0.2789 -0.3753 0.8840
vn -0.3008 0.0245 0.9534
vn 0.6980 0.1128 -0.7072
vn 0.2984 0.1294 -0.9456
vn 0.6711 0.2399 0.7015
vn 0.9400 0.0593 -0.3358
vn -0.8998 0.0044 0.4363
vn 0.4224 -0.1879 0.8867
vn -0.4294 0.0578 -0.9013
vn -0.7273 0.0249 0.6859
vn -0.8784 0.0762 0.4718
vn -0.6005 0.0729 0.7963
vn -0.1668 -0.0035 -0.9860
vn -0.3985 0.0410 -0.9163
vn -0.6910 0.0268 -0.7224
vn 0.3489 0.0149 0.9370
vn 0.2688 0.4494 -0.8519
g Grass_2_Grass_2_CollorMaterial
usemtl CollorMaterial
s off
f 9/1/1 12/2/1 13/3/1
f 11/4/2 10/5/2 13/3/2
f 12/2/3 11/4/3 13/3/3
f 10/5/4 9/1/4 13/3/4
f 22/6/5 25/7/5 26/8/5
f 19/9/6 22/6/6 15/10/6
f 21/11/7 23/12/7 24/13/7
f 24/13/8 23/12/8 26/8/8
f 25/7/9 24/13/9 26/8/9
f 23/12/10 22/6/10 26/8/10
f 32/14/11 34/15/11 35/16/11
f 30/17/12 28/18/12 35/16/12
f 28/18/13 32/14/13 35/16/13
f 34/15/14 30/17/14 35/16/14
f 44/19/15 47/20/15 48/21/15
f 46/22/16 45/23/16 48/21/16
f 47/20/17 46/22/17 48/21/17
f 45/23/18 44/19/18 48/21/18
f 57/24/19 60/25/19 61/26/19
f 54/27/20 57/24/20 50/28/20
f 56/29/21 58/30/21 59/31/21
f 59/31/22 58/30/22 61/26/22
f 60/25/23 59/31/23 61/26/23
f 58/30/24 57/24/24 61/26/24
f 67/32/25 69/33/25 70/34/25
f 65/35/26 63/36/26 70/34/26
f 63/36/27 67/32/27 70/34/27
f 69/33/28 65/35/28 70/34/28
f 74/37/29 77/38/29 73/39/29
f 75/40/30 72/41/30 71/42/30
f 76/43/31 78/44/31 79/45/31
f 74/37/32 72/41/32 79/45/32
f 72/41/33 76/43/33 79/45/33
f 78/44/34 74/37/34 79/45/34
f 7/46/35 3/47/35 4/48/35 8/49/35
f 2/50/36 1/51/36 5/52/36 6/53/36
f 51/54/37 49/55/37 50/28/37 52/56/37
f 10/5/38 11/4/38 8/49/38 4/48/38
f 45/23/39 39/57/39 37/58/39 44/19/39
f 28/18/40 27/59/40 31/60/40 32/14/40
f 44/19/41 37/58/41 41/61/41 47/20/41
f 47/20/42 41/61/42 43/62/42 46/22/42
f 30/17/43 29/63/43 27/59/43 28/18/43
f 50/28/44 49/55/44 53/64/44 54/27/44
f 31/60/45 33/65/45 34/15/45 32/14/45
f 55/66/46 51/54/46 52/56/46 56/29/46
f 18/67/47 20/68/47 21/11/47 19/9/47
f 19/9/48 25/7/48 22/6/48
f 21/11/49 17/69/49 23/12/49
f 22/6/50 23/12/50 17/69/50 15/10/50
f 38/70/51 36/71/51 37/58/51 39/57/51
f 68/72/52 64/73/52 65/35/52 69/33/52
f 66/74/53 68/72/53 69/33/53 67/32/53
f 63/36/54 62/75/54 66/74/54 67/32/54
f 74/37/55 73/39/55 71/42/55 72/41/55
f 37/58/56 36/71/56 40/76/56 41/61/56
f 75/40/57 77/38/57 78/44/57 76/43/57
f 9/1/58 2/50/58 6/53/58 12/2/58
f 60/25/59 54/27/59 56/29/59 59/31/59
f 45/23/60 46/22/60 43/62/60 39/57/60
f 42/77/61 38/70/61 39/57/61 43/62/61
f 9/1/62 10/5/62 4/48/62 2/50/62
f 3/47/63 1/51/63 2/50/63 4/48/63
f 20/68/64 16/78/64 17/69/64 21/11/64
f 6/53/65 5/52/65 7/46/65 8/49/65
f 25/7/66 19/9/66 21/11/66 24/13/66
f 54/27/67 60/25/67 57/24/67
f 56/29/68 52/56/68 58/30/68
f 57/24/69 58/30/69 52/56/69 50/28/69
f 54/27/70 53/64/70 55/66/70 56/29/70
f 15/10/71 14/79/71 18/67/71 19/9/71
f 40/76/72 42/77/72 43/62/72 41/61/72
f 33/65/73 29/63/73 30/17/73 34/15/73
f 65/35/74 64/73/74 62/75/74 63/36/74
f 74/37/75 78/44/75 77/38/75
f 17/69/76 16/78/76 14/79/76 15/10/76
f 75/40/77 76/43/77 72/41/77
f 12/2/78 6/53/78 8/49/78 11/4/78
