# Blender v3.0.0 OBJ File: 'Blender Medieval Village Megapack Low Poly .blend'
# www.blender.org
mtllib Grass_3.mtl
o Grass_3
v -0.064096 0.000000 0.151078
v -0.076537 0.137583 0.129702
v -0.100548 0.000000 0.104475
v -0.099599 0.137583 0.100219
v -0.017464 0.000000 0.114581
v -0.048055 0.151264 0.107520
v -0.053896 0.000000 0.068005
v -0.071210 0.151264 0.077917
v -0.130087 0.280840 0.155379
v -0.144976 0.280840 0.136344
v -0.130021 0.300815 0.124839
v -0.115319 0.300815 0.143635
v -0.213368 0.422554 0.195615
v -0.131704 0.000000 0.016338
v -0.126831 0.126351 0.005760
v -0.080177 -0.000000 -0.032950
v -0.089208 0.126351 -0.030229
v -0.096678 0.000000 0.052918
v -0.108084 0.145380 0.025511
v -0.045188 0.000000 0.003665
v -0.070308 0.145380 -0.010623
v -0.138404 0.325611 -0.025712
v -0.114114 0.325611 -0.048946
v -0.104424 0.353395 -0.038511
v -0.128409 0.353395 -0.015568
v -0.163915 0.522725 -0.092372
v 0.101035 0.000000 0.060149
v 0.099264 0.132733 0.062840
v 0.064178 0.000000 0.106389
v 0.071081 0.129748 0.097954
v 0.054517 0.000000 0.023402
v 0.067179 0.159100 0.037994
v 0.017718 0.000000 0.069595
v 0.038982 0.156113 0.073094
v 0.117582 0.269398 0.106446
v 0.048449 -0.000000 -0.040678
v 0.038959 0.137583 -0.027972
v 0.058715 0.000000 0.017589
v 0.045454 0.137583 0.008891
v -0.009866 -0.000000 -0.030387
v 0.003393 0.151264 -0.021783
v 0.000395 0.000000 0.027848
v 0.009914 0.151264 0.015230
v 0.097229 0.280840 -0.031504
v 0.101422 0.280840 -0.007705
v 0.082815 0.300815 -0.004580
v 0.078674 0.300815 -0.028081
v 0.186501 0.422554 -0.034964
v 0.039889 0.000000 0.106782
v 0.022675 0.127243 0.107660
v -0.013092 0.000000 0.132022
v -0.023279 0.127243 0.129553
v 0.021944 0.000000 0.069161
v 0.011317 0.145848 0.083580
v -0.031000 0.000000 0.094383
v -0.034823 0.145848 0.105561
v 0.023420 0.322056 0.148591
v -0.006248 0.322056 0.162725
v -0.012049 0.349220 0.150068
v 0.017247 0.349220 0.136112
v 0.056644 0.514771 0.210178
v -0.064530 -0.000000 -0.104449
v -0.058774 0.140857 -0.106025
v 0.005540 -0.000000 -0.116401
v -0.006527 0.137346 -0.114756
v -0.052241 -0.000000 -0.034257
v -0.050086 0.171878 -0.059080
v 0.017739 -0.000000 -0.046212
v 0.002162 0.168364 -0.067787
v -0.060282 0.304840 -0.145662
v -0.059106 0.000000 0.064498
v -0.060047 0.132733 0.062538
v -0.073036 0.000000 0.027117
v -0.070558 0.129748 0.034040
v -0.021693 0.000000 0.050368
v -0.034530 0.159100 0.052619
v -0.035616 0.000000 0.013038
v -0.045028 0.156113 0.024118
v -0.091627 0.269398 0.057977
v -0.179317 0.000067 0.101314
v -0.165549 0.137583 0.088265
v -0.179317 0.000067 0.037784
v -0.165549 0.137583 0.050833
v -0.115693 0.000061 0.101327
v -0.129448 0.151264 0.088340
v -0.115693 0.000061 0.037771
v -0.129448 0.151264 0.050757
v -0.223548 0.280840 0.081631
v -0.223548 0.280840 0.057466
v -0.204681 0.300815 0.057617
v -0.204681 0.300815 0.081480
v -0.312066 0.422554 0.069548
v -0.168577 0.000036 -0.129319
v -0.151406 0.137583 -0.121819
v -0.109768 0.000036 -0.153375
v -0.116760 0.137583 -0.135990
v -0.151016 0.000033 -0.086326
v -0.144064 0.151264 -0.103669
v -0.092164 0.000033 -0.110399
v -0.109278 0.151264 -0.117898
v -0.157177 0.280840 -0.153449
v -0.134810 0.280840 -0.162598
v -0.131075 0.300815 -0.153065
v -0.153161 0.300815 -0.144031
v -0.164170 0.422554 -0.202458
v 0.055193 0.000187 0.184975
v 0.035501 0.134697 0.185138
v 0.014086 0.000184 0.233330
v 0.011137 0.132213 0.213596
v 0.006518 0.000158 0.143883
v 0.009473 0.156635 0.163629
v -0.034581 0.000161 0.192270
v -0.014901 0.154150 0.192075
v 0.044831 0.269398 0.240047
v 0.090695 0.000067 0.081254
v 0.071727 0.137583 0.080995
v 0.046367 0.000067 0.126763
v 0.045610 0.137583 0.107809
v 0.045128 0.000061 0.036851
v 0.045920 0.151264 0.055751
v 0.000781 0.000061 0.082379
v 0.019696 0.151264 0.082674
v 0.108646 0.280840 0.126214
v 0.091785 0.280840 0.143525
v 0.078375 0.300815 0.130252
v 0.095025 0.300815 0.113158
v 0.163625 0.422554 0.196633
v -0.045200 0.000037 0.222022
v -0.061364 0.137583 0.212545
v -0.106439 0.000037 0.238960
v -0.097441 0.137583 0.222523
v -0.057557 0.000033 0.177255
v -0.066510 0.151264 0.193655
v -0.118841 0.000033 0.194205
v -0.102733 0.151264 0.203674
v -0.059371 0.280840 0.244635
v -0.082662 0.280840 0.251077
v -0.085245 0.300816 0.241169
v -0.062245 0.300815 0.234808
v -0.058218 0.422554 0.294126
v 0.051661 0.000187 -0.148152
v 0.053737 0.134696 -0.128569
v 0.103781 0.000184 -0.111939
v 0.084428 0.132213 -0.107087
v 0.015493 0.000158 -0.095714
v 0.034859 0.156635 -0.100575
v 0.067646 0.000161 -0.059512
v 0.065539 0.154149 -0.079080
v 0.107479 0.269398 -0.143191
vt 0.346485 0.773514
vt 0.346485 0.773514
vt 0.346485 0.773514
vt 0.346485 0.773514
vt 0.346485 0.773514
vt 0.346485 0.773514
vt 0.346485 0.773514
vt 0.346485 0.773514
vt 0.346485 0.773514
vt 0.346485 0.773514
vt 0.346485 0.773514
vt 0.346485 0.773514
vt 0.346485 0.773514
vt 0.346485 0.773514
vt 0.346485 0.773514
vt 0.346485 0.773514
vt 0.346485 0.773514
vt 0.346485 0.773514
vt 0.346485 0.773514
vt 0.346485 0.773514
vt 0.346485 0.773514
vt 0.346485 0.773514
vt 0.346485 0.773514
vt 0.346485 0.773514
vt 0.346485 0.773514
vt 0.346485 0.773514
vt 0.346485 0.773514
vt 0.346485 0.773514
vt 0.346485 0.773514
vt 0.346485 0.773514
vt 0.346485 0.773514
vt 0.346485 0.773514
vt 0.346485 0.773514
vt 0.346485 0.773514
vt 0.346485 0.773514
vt 0.346485 0.773514
vt 0.346485 0.773514
vt 0.346485 0.773514
vt 0.346485 0.773514
vt 0.346485 0.773514
vt 0.346485 0.773514
vt 0.346485 0.773514
vt 0.346485 0.773514
vt 0.346485 0.773514
vt 0.346485 0.773514
vt 0.346485 0.773514
vt 0.346485 0.773514
vt 0.346485 0.773514
vt 0.346485 0.773514
vt 0.346485 0.773514
vt 0.346485 0.773514
vt 0.346485 0.773514
vt 0.346485 0.773514
vt 0.346485 0.773514
vt 0.346485 0.773514
vt 0.346485 0.773514
vt 0.346485 0.773514
vt 0.346485 0.773514
vt 0.346485 0.773514
vt 0.346485 0.773514
vt 0.346485 0.773514
vt 0.346485 0.773514
vt 0.346485 0.773514
vt 0.346485 0.773514
vt 0.346485 0.773514
vt 0.346485 0.773514
vt 0.346485 0.773514
vt 0.346485 0.773514
vt 0.346485 0.773514
vt 0.346485 0.773514
vt 0.346485 0.773514
vt 0.346485 0.773514
vt 0.346485 0.773514
vt 0.346485 0.773514
vt 0.346485 0.773514
vt 0.346485 0.773514
vt 0.346485 0.773514
vt 0.346485 0.773514
vt 0.346485 0.773514
vt 0.346485 0.773514
vt 0.346485 0.773514
vt 0.346485 0.773514
vt 0.346485 0.773514
vt 0.346485 0.773514
vt 0.346485 0.773514
vt 0.346485 0.773514
vt 0.346485 0.773514
vt 0.346485 0.773514
vt 0.346485 0.773514
vt 0.346485 0.773514
vt 0.346485 0.773514
vt 0.346485 0.773514
vt 0.346485 0.773514
vt 0.346485 0.773514
vt 0.346485 0.773514
vt 0.346485 0.773514
vt 0.346485 0.773514
vt 0.346485 0.773514
vt 0.346485 0.773514
vt 0.346485 0.773514
vt 0.346485 0.773514
vt 0.346485 0.773514
vt 0.346485 0.773514
vt 0.346485 0.773514
vt 0.346485 0.773514
vt 0.346485 0.773514
vt 0.346485 0.773514
vt 0.346485 0.773514
vt 0.346485 0.773514
vt 0.346485 0.773514
vt 0.346485 0.773514
vt 0.346485 0.773514
vt 0.346485 0.773514
vt 0.346485 0.773514
vt 0.346485 0.773514
vt 0.346485 0.773514
vt 0.346485 0.773514
vt 0.346485 0.773514
vt 0.346485 0.773514
vt 0.346485 0.773514
vt 0.346485 0.773514
vt 0.346485 0.773514
vt 0.346485 0.773514
vt 0.346485 0.773514
vt 0.346485 0.773514
vt 0.346485 0.773514
vt 0.346485 0.773514
vt 0.346485 0.773514
vt 0.346485 0.773514
vt 0.346485 0.773514
vt 0.346485 0.773514
vt 0.346485 0.773514
vt 0.346485 0.773514
vt 0.346485 0.773514
vt 0.346485 0.773514
vt 0.346485 0.773514
vt 0.346485 0.773514
vt 0.346485 0.773514
vt 0.346485 0.773514
vt 0.346485 0.773514
vt 0.346485 0.773514
vt 0.346485 0.773514
vt 0.346485 0.773514
vt 0.346485 0.773514
vt 0.346485 0.773514
vt 0.346485 0.773514
vt 0.346485 0.773514
vt 0.346485 0.773514
vt 0.346485 0.773514
vn 0.5471 0.0851 0.8327
vn -0.6281 0.0222 -0.7778
vn 0.5862 0.6679 -0.4585
vn -0.6641 -0.5377 0.5194
vn -0.8179 0.0865 0.5689
vn -0.7522 0.0600 0.6562
vn 0.7048 0.0205 -0.7091
vn 0.7037 0.0213 -0.7102
vn 0.6249 0.4274 0.6533
vn -0.6557 -0.3167 -0.6854
vn -0.6522 0.5919 -0.4736
vn 0.7586 -0.2881 0.5844
vn 0.6757 0.1403 -0.7237
vn -0.5389 0.1288 0.8325
vn -0.1244 0.0542 -0.9907
vn 0.2217 0.0542 0.9736
vn -0.7386 0.6615 0.1301
vn 0.8353 -0.5298 -0.1472
vn 0.8897 -0.0075 -0.4565
vn 0.9231 0.0757 -0.3769
vn -0.9031 0.0072 0.4294
vn -0.7920 0.1106 0.6004
vn -0.3837 0.4517 -0.8055
vn 0.4043 -0.3409 0.8487
vn 0.1733 0.5467 0.8192
vn -0.1755 -0.2328 -0.9566
vn -0.9862 0.0302 0.1625
vn 0.9165 0.2343 -0.3243
vn -0.3516 0.0566 -0.9344
vn 0.3533 0.0163 0.9354
vn 0.8247 0.4440 -0.3503
vn -0.9125 -0.1989 0.3574
vn 0.2737 0.0952 0.9571
vn -0.4379 0.0873 -0.8948
vn -0.0494 0.0542 0.9973
vn -0.0494 0.0542 -0.9973
vn 0.7499 0.6615 0.0000
vn -0.8481 -0.5298 0.0000
vn 0.9212 0.0945 -0.3774
vn -0.9216 0.0945 0.3764
vn -0.9547 0.0540 0.2925
vn -0.9363 0.0394 0.3491
vn 0.9055 0.0325 -0.4230
vn 0.8860 0.0540 -0.4605
vn 0.3415 0.4316 0.8349
vn -0.3586 -0.3209 -0.8766
vn -0.6557 0.5536 -0.5135
vn 0.7378 -0.2980 0.6057
vn 0.7239 0.2168 -0.6549
vn -0.6338 0.0065 0.7735
vn 0.7312 0.0542 -0.6800
vn -0.6605 0.0542 0.7489
vn -0.5372 0.6615 -0.5233
vn 0.6076 -0.5298 0.5918
vn -0.9594 0.0945 0.2659
vn 0.9596 0.0945 -0.2649
vn 0.9826 0.0540 -0.1776
vn 0.9710 0.0394 -0.2360
vn -0.9492 0.0325 0.3130
vn -0.9342 0.0540 0.3525
vn -0.2405 0.4316 -0.8694
vn 0.2525 -0.3209 0.9129
vn -0.4473 0.5536 0.7025
vn 0.5311 -0.2980 -0.7932
vn -0.7221 0.2168 -0.6569
vn 0.8314 0.0065 0.5556
vn 0.5703 0.1116 -0.8138
vn 0.5882 0.1656 0.7916
vn 0.4295 0.0519 0.9016
vn -0.6168 0.0038 -0.7871
vn -0.9269 -0.3753 0.0000
vn 0.7043 0.0898 -0.7042
vn -0.6821 0.0365 0.7303
vn -0.8798 0.4494 0.1550
vn 0.7811 -0.0016 0.6244
vn -0.7340 0.0767 0.6748
vn -0.7776 0.1191 -0.6174
vn -0.9076 -0.0598 0.4156
vn 0.6790 0.1871 0.7099
vn -0.7750 0.0487 0.6301
vn 0.7088 0.0224 -0.7050
vn -0.3698 -0.2145 -0.9040
vn 0.9814 0.0837 -0.1729
vn 0.9780 0.0758 -0.1944
vn 0.1690 0.1397 0.9757
vn -0.9853 0.0390 0.1661
vn -0.9375 -0.0011 0.3479
vn -0.1618 0.0747 -0.9840
vn 0.9333 0.0807 -0.3499
vn 0.5819 0.0691 0.8103
vn 0.6640 -0.3753 0.6468
vn -0.0210 0.0365 0.9991
vn 0.1842 0.0747 0.9800
vn 0.8933 0.4494 -0.0000
vn -0.9950 0.0996 -0.0000
vn 0.6550 0.0890 -0.7504
vn -0.5670 0.0959 0.8181
vn 0.8333 0.0906 0.5454
vn -0.6832 -0.1525 -0.7142
vn 0.9400 0.0593 -0.3358
vn -0.8998 0.0044 0.4363
vn 0.6764 0.2057 0.7072
vn -0.4294 0.0578 -0.9013
vn 0.7105 0.0594 -0.7012
vn -0.9820 0.0762 0.1730
vn -0.6005 0.0729 0.7963
vn -0.1668 -0.0035 -0.9860
vn -0.3985 0.0410 -0.9163
vn -0.6908 -0.0338 -0.7222
vn 0.3489 0.0149 0.9370
vn 0.7128 0.0996 0.6943
vn -0.0132 0.0898 0.9959
vn -0.7134 0.0906 -0.6949
vn -0.6854 0.0898 0.7226
vn 0.9129 -0.3753 -0.1608
vn 0.7122 0.0365 -0.7011
vn 0.1940 0.0365 0.9803
vn -0.6399 0.4494 -0.6233
vn -0.7874 0.0245 0.6159
vn 0.8982 0.0802 -0.4321
vn -0.2655 0.0884 -0.9600
vn -0.9436 0.0802 0.3213
vn 0.2604 -0.2145 0.9414
vn -0.9424 0.0325 0.3329
vn 0.9125 0.0394 -0.4071
vn -0.2572 0.2632 -0.9298
vn -0.6143 -0.0194 -0.7888
vn 0.9959 0.0906 -0.0000
vn -0.8105 0.0890 -0.5789
vn 0.2653 0.0973 0.9592
vn 0.6214 0.0232 -0.7831
vn 0.3771 0.0884 0.9219
vn -0.0132 0.0898 -0.9959
vn 0.3652 0.2632 0.8929
vn -0.0210 0.0365 -0.9991
vn -0.1527 0.0365 -0.9876
vn -0.7301 -0.3753 0.5711
vn -0.3768 0.0973 -0.9212
vn -0.9430 0.0802 0.3230
vn 0.7810 0.1294 -0.6109
vn 0.9749 0.0802 -0.2075
vn 0.4224 -0.1879 0.8867
vn 0.9751 0.0325 -0.2192
vn -0.9542 0.0394 0.2965
vn -0.4177 0.2386 -0.8767
vn 0.7545 0.1116 0.6467
vn -0.6238 0.0906 0.7763
vn -0.7592 0.0959 -0.6438
vn 0.9103 0.1151 -0.3976
vn 0.7036 0.4494 -0.5504
g Grass_3_Grass_3_CollorMaterial
usemtl CollorMaterial
s off
f 9/1/1 12/2/1 13/3/1
f 11/4/2 10/5/2 13/3/2
f 12/2/3 11/4/3 13/3/3
f 10/5/4 9/1/4 13/3/4
f 22/6/5 25/7/5 26/8/5
f 19/9/6 22/6/6 15/10/6
f 21/11/7 23/12/7 24/13/7
f 24/13/8 23/12/8 26/8/8
f 25/7/9 24/13/9 26/8/9
f 23/12/10 22/6/10 26/8/10
f 32/14/11 34/15/11 35/16/11
f 30/17/12 28/18/12 35/16/12
f 28/18/13 32/14/13 35/16/13
f 34/15/14 30/17/14 35/16/14
f 44/19/15 47/20/15 48/21/15
f 46/22/16 45/23/16 48/21/16
f 47/20/17 46/22/17 48/21/17
f 45/23/18 44/19/18 48/21/18
f 57/24/19 60/25/19 61/26/19
f 54/27/20 57/24/20 50/28/20
f 56/29/21 58/30/21 59/31/21
f 59/31/22 58/30/22 61/26/22
f 60/25/23 59/31/23 61/26/23
f 58/30/24 57/24/24 61/26/24
f 67/32/25 69/33/25 70/34/25
f 65/35/26 63/36/26 70/34/26
f 63/36/27 67/32/27 70/34/27
f 69/33/28 65/35/28 70/34/28
f 74/37/29 77/38/29 73/39/29
f 75/40/30 72/41/30 71/42/30
f 76/43/31 78/44/31 79/45/31
f 74/37/32 72/41/32 79/45/32
f 72/41/33 76/43/33 79/45/33
f 78/44/34 74/37/34 79/45/34
f 88/46/35 91/47/35 92/48/35
f 90/49/36 89/50/36 92/48/36
f 91/47/37 90/49/37 92/48/37
f 89/50/38 88/46/38 92/48/38
f 96/51/39 99/52/39 95/53/39
f 97/54/40 94/55/40 93/56/40
f 101/57/41 104/58/41 105/59/41
f 98/60/42 101/57/42 94/55/42
f 100/61/43 102/62/43 103/63/43
f 103/63/44 102/62/44 105/59/44
f 104/58/45 103/63/45 105/59/45
f 102/62/46 101/57/46 105/59/46
f 111/64/47 113/65/47 114/66/47
f 109/67/48 107/68/48 114/66/48
f 107/68/49 111/64/49 114/66/49
f 113/65/50 109/67/50 114/66/50
f 123/69/51 126/70/51 127/71/51
f 125/72/52 124/73/52 127/71/52
f 126/70/53 125/72/53 127/71/53
f 124/73/54 123/69/54 127/71/54
f 131/74/55 134/75/55 130/76/55
f 132/77/56 129/78/56 128/79/56
f 136/80/57 139/81/57 140/82/57
f 133/83/58 136/80/58 129/78/58
f 135/84/59 137/85/59 138/86/59
f 138/86/60 137/85/60 140/82/60
f 139/81/61 138/86/61 140/82/61
f 137/85/62 136/80/62 140/82/62
f 146/87/63 148/88/63 149/89/63
f 144/90/64 142/91/64 149/89/64
f 142/91/65 146/87/65 149/89/65
f 148/88/66 144/90/66 149/89/66
f 144/90/67 143/92/67 141/93/67 142/91/67
f 2/94/68 1/95/68 5/96/68 6/97/68
f 51/98/69 49/99/69 50/28/69 52/100/69
f 10/5/70 11/4/70 8/101/70 4/102/70
f 88/46/71 89/50/71 83/103/71 81/104/71
f 116/105/72 115/106/72 119/107/72 120/108/72
f 124/73/73 125/72/73 122/109/73 118/110/73
f 46/22/74 47/20/74 41/111/74 43/112/74
f 30/17/75 29/113/75 27/114/75 28/18/75
f 15/10/76 14/115/76 18/116/76 19/9/76
f 31/117/77 33/118/77 34/15/77 32/14/77
f 55/119/78 51/98/78 52/100/78 56/29/78
f 19/9/79 18/116/79 20/120/79 21/11/79
f 19/9/80 25/7/80 22/6/80
f 21/11/81 17/121/81 23/12/81
f 102/62/82 96/51/82 94/55/82 101/57/82
f 38/122/83 36/123/83 37/124/83 39/125/83
f 68/126/84 64/127/84 65/35/84 69/33/84
f 66/128/85 68/126/85 69/33/85 67/32/85
f 63/36/86 62/129/86 66/128/86 67/32/86
f 74/37/87 73/39/87 71/42/87 72/41/87
f 37/124/88 36/123/88 40/130/88 41/111/88
f 75/40/89 77/38/89 78/44/89 76/43/89
f 9/1/90 2/94/90 6/97/90 12/2/90
f 123/69/91 124/73/91 118/110/91 116/105/91
f 88/46/92 81/104/92 85/131/92 91/47/92
f 42/132/93 38/122/93 39/125/93 43/112/93
f 91/47/94 85/131/94 87/133/94 90/49/94
f 82/134/95 80/135/95 81/104/95 83/103/95
f 107/68/96 106/136/96 110/137/96 111/64/96
f 145/138/97 147/139/97 148/88/97 146/87/97
f 147/139/98 143/92/98 144/90/98 148/88/98
f 22/6/99 23/12/99 17/121/99 15/10/99
f 54/27/100 60/25/100 57/24/100
f 56/29/101 52/100/101 58/30/101
f 25/7/102 19/9/102 21/11/102 24/13/102
f 54/27/103 53/140/103 55/119/103 56/29/103
f 20/120/104 16/141/104 17/121/104 21/11/104
f 40/130/105 42/132/105 43/112/105 41/111/105
f 33/118/106 29/113/106 30/17/106 34/15/106
f 65/35/107 64/127/107 62/129/107 63/36/107
f 74/37/108 78/44/108 77/38/108
f 16/141/109 14/115/109 15/10/109 17/121/109
f 75/40/110 76/43/110 72/41/110
f 118/110/111 117/142/111 115/106/111 116/105/111
f 81/104/112 80/135/112 84/143/112 85/131/112
f 120/108/113 119/107/113 121/144/113 122/109/113
f 121/144/114 117/142/114 118/110/114 122/109/114
f 45/23/115 39/125/115 37/124/115 44/19/115
f 123/69/116 116/105/116 120/108/116 126/70/116
f 45/23/117 46/22/117 43/112/117 39/125/117
f 126/70/118 120/108/118 122/109/118 125/72/118
f 3/145/119 1/95/119 2/94/119 4/102/119
f 96/51/120 100/61/120 99/52/120
f 132/77/121 134/75/121 135/84/121 133/83/121
f 97/54/122 98/60/122 94/55/122
f 136/80/123 137/85/123 131/74/123 129/78/123
f 98/60/124 104/58/124 101/57/124
f 100/61/125 96/51/125 102/62/125
f 139/81/126 133/83/126 135/84/126 138/86/126
f 7/146/127 3/145/127 4/102/127 8/101/127
f 84/143/128 86/147/128 87/133/128 85/131/128
f 142/91/129 141/93/129 145/138/129 146/87/129
f 130/76/130 128/79/130 129/78/130 131/74/130
f 28/18/131 27/114/131 31/117/131 32/14/131
f 98/60/132 97/54/132 99/52/132 100/61/132
f 86/147/133 82/134/133 83/103/133 87/133/133
f 104/58/134 98/60/134 100/61/134 103/63/134
f 89/50/135 90/49/135 87/133/135 83/103/135
f 44/19/136 37/124/136 41/111/136 47/20/136
f 9/1/137 10/5/137 4/102/137 2/94/137
f 95/53/138 93/56/138 94/55/138 96/51/138
f 131/74/139 135/84/139 134/75/139
f 6/97/140 5/96/140 7/146/140 8/101/140
f 132/77/141 133/83/141 129/78/141
f 57/24/142 58/30/142 52/100/142 50/28/142
f 133/83/143 139/81/143 136/80/143
f 135/84/144 131/74/144 137/85/144
f 60/25/145 54/27/145 56/29/145 59/31/145
f 109/67/146 108/148/146 106/136/146 107/68/146
f 112/149/147 108/148/147 109/67/147 113/65/147
f 110/137/148 112/149/148 113/65/148 111/64/148
f 50/28/149 49/99/149 53/140/149 54/27/149
f 12/2/150 6/97/150 8/101/150 11/4/150
