# Blender v3.0.0 OBJ File: 'Blender Medieval Village Megapack Low Poly .blend'
# www.blender.org
mtllib Mushroom_1.mtl
o Mushroom_1
v 0.005029 -0.000000 -0.033824
v 0.041581 -0.000000 -0.007267
v 0.027620 0.000000 0.035703
v -0.017562 0.000000 0.035703
v -0.031524 -0.000000 -0.007267
v -0.020929 0.171022 -0.004888
v 0.030987 0.171022 -0.004888
v 0.005029 0.171022 -0.023748
v 0.021072 0.171022 0.025627
v -0.011014 0.171022 0.025627
v 0.064455 0.132115 -0.084399
v 0.104799 0.132115 -0.032674
v 0.107034 0.132115 0.032887
v 0.070306 0.132115 0.087240
v 0.008645 0.132115 0.109625
v -0.054397 0.132115 0.091491
v -0.094741 0.132115 0.039766
v -0.016610 0.202288 0.000226
v -0.096976 0.132115 -0.025795
v -0.060248 0.132115 -0.080148
v 0.001413 0.132115 -0.102533
v 0.050363 0.168238 -0.064593
v 0.078922 0.168238 -0.027976
v 0.080392 0.168276 0.018434
v 0.054179 0.168349 0.056910
v 0.010639 0.168312 0.072757
v -0.033762 0.168037 0.060531
v -0.061693 0.167036 0.026346
v -0.063309 0.167203 -0.020543
v -0.037883 0.168183 -0.061447
v 0.005735 0.168238 -0.077430
v 0.032887 0.188048 -0.046841
v 0.049555 0.188867 -0.022419
v 0.047457 0.189870 0.008775
v 0.027793 0.190196 0.035883
v -0.001288 0.189388 0.048905
v -0.030211 0.188275 0.042876
v -0.047695 0.187024 0.020650
v -0.046285 0.186538 -0.011417
v -0.026983 0.187175 -0.041123
v 0.003404 0.187734 -0.054753
v 0.059550 0.120476 -0.077140
v 0.096563 0.120476 -0.029684
v 0.098614 0.120476 0.030465
v 0.064918 0.120476 0.080332
v 0.008347 0.120476 0.100869
v -0.049492 0.120476 0.084232
v -0.086506 0.120476 0.036776
v -0.088556 0.120476 -0.023373
v -0.054860 0.120476 -0.073240
v 0.001711 0.120476 -0.093777
vt 0.642725 0.780096
vt 0.642725 0.780096
vt 0.642725 0.780096
vt 0.642725 0.780096
vt 0.642725 0.780096
vt 0.642725 0.780096
vt 0.642725 0.780096
vt 0.642725 0.780096
vt 0.642725 0.780096
vt 0.642725 0.780096
vt 0.774924 0.517226
vt 0.774924 0.517226
vt 0.774924 0.517226
vt 0.774924 0.517226
vt 0.774924 0.517226
vt 0.774924 0.517226
vt 0.774924 0.517226
vt 0.774924 0.517226
vt 0.774924 0.517226
vt 0.774924 0.517226
vt 0.774924 0.517226
vt 0.774924 0.517226
vt 0.774924 0.517226
vt 0.774924 0.517226
vt 0.774924 0.517226
vt 0.774924 0.517226
vt 0.774924 0.517226
vt 0.774924 0.517226
vt 0.774924 0.517226
vt 0.774924 0.517226
vt 0.774924 0.517226
vt 0.774924 0.517226
vt 0.774924 0.517226
vt 0.774924 0.517226
vt 0.774924 0.517226
vt 0.774924 0.517226
vt 0.774924 0.517226
vt 0.774924 0.517226
vt 0.774924 0.517226
vt 0.774924 0.517226
vt 0.774924 0.517226
vt 0.774924 0.517226
vt 0.774924 0.517226
vt 0.774924 0.517226
vt 0.774924 0.517226
vt 0.774924 0.517226
vt 0.774924 0.517226
vt 0.774924 0.517226
vt 0.774924 0.517226
vt 0.774924 0.517226
vt 0.774924 0.517226
vn 0.9496 0.0545 0.3086
vn 0.5871 0.0476 -0.8081
vn -0.5871 0.0476 -0.8081
vn -0.9496 0.0545 0.3086
vn 0.0000 0.0588 0.9983
vn 0.1926 0.9811 -0.0186
vn -0.0957 0.9543 0.2830
vn -0.3220 0.9251 0.2012
vn -0.3841 0.8941 -0.2304
vn -0.1540 0.9399 -0.3049
vn 0.0772 0.9695 0.2326
vn -0.0000 -1.0000 0.0000
vn 0.1519 0.9789 -0.1365
vn -0.4582 0.8882 -0.0336
vn 0.1743 0.9780 0.1147
vn 0.0534 0.9700 -0.2373
vn 0.2178 0.7915 0.5711
vn 0.6352 0.6414 0.4302
vn -0.2248 -0.5821 0.7814
vn 0.8105 0.5852 -0.0270
vn 0.1761 0.7475 -0.6405
vn -0.5983 0.7145 -0.3626
vn -0.6492 0.5734 0.4998
vn 0.4516 0.8363 0.3108
vn -0.6412 -0.5821 0.5001
vn -0.7222 0.6912 0.0258
vn 0.4918 0.7858 -0.3750
vn -0.7851 0.6194 -0.0005
vn 0.2334 0.5359 -0.8114
vn -0.2775 -0.5821 -0.7643
vn -0.8126 -0.5821 0.0277
vn 0.6737 -0.5821 0.4552
vn 0.8126 -0.5821 -0.0277
vn -0.6737 -0.5821 -0.4552
vn 0.2775 -0.5821 0.7643
vn 0.6412 -0.5821 -0.5001
vn 0.2488 0.6844 0.6854
vn -0.1949 0.7037 0.6832
vn -0.1900 0.6764 0.7116
vn 0.5613 0.8276 -0.0066
vn 0.6627 0.5419 -0.5169
vn -0.6429 0.6452 -0.4128
vn -0.2812 0.5717 -0.7708
vn 0.2248 -0.5821 -0.7814
vn -0.2530 0.7454 -0.6168
vn -0.5623 0.7009 0.4387
g Mushroom_1_Mushroom_1_CollorMaterial
usemtl CollorMaterial
s off
f 2/1/1 7/2/1 9/3/1 3/4/1
f 1/5/2 8/6/2 7/2/2 2/1/2
f 6/7/3 8/6/3 1/5/3 5/8/3
f 10/9/4 6/7/4 5/8/4 4/10/4
f 10/9/5 4/10/5 3/4/5 9/3/5
f 18/11/6 34/12/6 33/13/6
f 18/11/7 37/14/7 36/15/7
f 18/11/8 38/16/8 37/14/8
f 39/17/9 18/11/9 40/18/9
f 40/18/10 18/11/10 41/19/10
f 36/15/11 35/20/11 18/11/11
f 51/21/12 42/22/12 43/23/12
f 43/23/12 44/24/12 51/21/12
f 45/25/12 46/26/12 47/27/12
f 47/27/12 48/28/12 49/29/12
f 33/13/13 32/30/13 18/11/13
f 39/17/14 38/16/14 18/11/14
f 18/11/15 35/20/15 34/12/15
f 18/11/16 32/30/16 41/19/16
f 35/20/17 36/15/17 26/31/17 25/32/17
f 13/33/18 24/34/18 25/32/18 14/35/18
f 47/27/19 46/26/19 15/36/19 16/37/19
f 44/24/12 45/25/12 50/38/12 51/21/12
f 12/39/20 23/40/20 24/34/20 13/33/20
f 31/41/21 41/19/21 32/30/21 22/42/21
f 29/43/22 39/17/22 40/18/22 30/44/22
f 37/14/23 38/16/23 28/45/23 27/46/23
f 34/12/24 35/20/24 25/32/24 24/34/24
f 48/28/25 47/27/25 16/37/25 17/47/25
f 28/45/26 29/43/26 19/48/26 17/47/26
f 22/42/27 32/30/27 33/13/27 23/40/27
f 28/45/28 38/16/28 39/17/28 29/43/28
f 31/41/29 22/42/29 11/49/29 21/50/29
f 51/21/30 50/38/30 20/51/30 21/50/30
f 49/29/31 48/28/31 17/47/31 19/48/31
f 13/33/32 14/35/32 45/25/32 44/24/32
f 13/33/33 44/24/33 43/23/33 12/39/33
f 50/38/34 49/29/34 19/48/34 20/51/34
f 14/35/35 15/36/35 46/26/35 45/25/35
f 12/39/36 43/23/36 42/22/36 11/49/36
f 14/35/37 25/32/37 26/31/37 15/36/37
f 15/36/38 26/31/38 27/46/38 16/37/38
f 50/38/12 45/25/12 47/27/12 49/29/12
f 36/15/39 37/14/39 27/46/39 26/31/39
f 23/40/40 33/13/40 34/12/40 24/34/40
f 11/49/41 22/42/41 23/40/41 12/39/41
f 29/43/42 30/44/42 20/51/42 19/48/42
f 30/44/43 31/41/43 21/50/43 20/51/43
f 11/49/44 42/22/44 51/21/44 21/50/44
f 30/44/45 40/18/45 41/19/45 31/41/45
f 27/46/46 28/45/46 17/47/46 16/37/46
