# Blender v3.0.0 OBJ File: 'Blender Medieval Village Megapack Low Poly .blend'
# www.blender.org
mtllib Mushrooms.mtl
o Mushrooms
v 0.173080 -0.000000 -0.133601
v 0.173080 0.171022 -0.115176
v 0.231852 -0.000000 -0.090900
v 0.209403 -0.000000 -0.021809
v 0.197430 0.171022 -0.040234
v 0.136756 -0.000000 -0.021809
v 0.114307 -0.000000 -0.090900
v 0.133680 0.171022 -0.086551
v 0.212479 0.171022 -0.086551
v 0.148729 0.171022 -0.040234
v 0.171461 0.081641 -0.124744
v 0.210861 0.081641 -0.096118
v 0.195811 0.081641 -0.049801
v 0.147111 0.081641 -0.049801
v 0.132062 0.081641 -0.096118
v 0.173080 0.156080 -0.237782
v 0.269496 0.156080 -0.206454
v 0.329084 0.156080 -0.124438
v 0.171266 0.239549 -0.094465
v 0.329084 0.156080 -0.023060
v 0.269496 0.156080 0.058956
v 0.173080 0.156080 0.090284
v 0.076663 0.156080 0.058956
v 0.017075 0.156080 -0.023060
v 0.017075 0.156080 -0.124438
v 0.076663 0.156080 -0.206454
v 0.172173 0.197814 -0.200226
v 0.240426 0.197814 -0.178050
v 0.282609 0.197814 -0.119990
v 0.282609 0.197814 -0.048224
v 0.240426 0.197814 0.009836
v 0.172173 0.197814 0.032013
v 0.103919 0.197814 0.009836
v 0.061736 0.197814 -0.048224
v 0.061736 0.197814 -0.119990
v 0.103919 0.197814 -0.178050
v 0.171719 0.218681 -0.166778
v 0.217268 0.218681 -0.151979
v 0.245419 0.218681 -0.113232
v 0.245419 0.218681 -0.065339
v 0.217268 0.218681 -0.026593
v 0.171719 0.218681 -0.011794
v 0.126170 0.218681 -0.026593
v 0.098020 0.218681 -0.065339
v 0.098020 0.218681 -0.113232
v 0.126170 0.218681 -0.151979
v 0.173080 0.142633 -0.224242
v 0.261537 0.142633 -0.195501
v 0.316207 0.142633 -0.120254
v 0.316207 0.142633 -0.027244
v 0.261537 0.142633 0.048003
v 0.173080 0.142633 0.076744
v 0.084622 0.142633 0.048003
v 0.029952 0.142633 -0.027244
v 0.029952 0.142633 -0.120254
v 0.084622 0.142633 -0.195501
v -0.118623 -0.000000 -0.018603
v -0.082070 0.000000 0.007954
v -0.096032 0.000000 0.050923
v -0.141213 0.000000 0.050923
v -0.155175 0.000000 0.007954
v -0.144581 0.171022 0.010332
v -0.092665 0.171022 0.010332
v -0.118623 0.171022 -0.008528
v -0.102580 0.171022 0.040847
v -0.134666 0.171022 0.040847
v -0.059197 0.132115 -0.069179
v -0.018853 0.132115 -0.017453
v -0.016618 0.132115 0.048107
v -0.053345 0.132115 0.102460
v -0.115006 0.132115 0.124845
v -0.178049 0.132115 0.106712
v -0.218392 0.132115 0.054986
v -0.140261 0.202288 0.015446
v -0.220627 0.132115 -0.010575
v -0.183900 0.132115 -0.064928
v -0.122239 0.132115 -0.087313
v -0.073289 0.168238 -0.049372
v -0.044729 0.168238 -0.012756
v -0.043259 0.168276 0.033654
v -0.069473 0.168349 0.072130
v -0.113012 0.168312 0.087977
v -0.157414 0.168037 0.075751
v -0.185344 0.167036 0.041566
v -0.186961 0.167203 -0.005323
v -0.161534 0.168183 -0.046226
v -0.117916 0.168238 -0.062209
v -0.090765 0.188048 -0.031621
v -0.074097 0.188867 -0.007199
v -0.076195 0.189870 0.023996
v -0.095858 0.190196 0.051103
v -0.124940 0.189388 0.064125
v -0.153863 0.188275 0.058096
v -0.171346 0.187024 0.035870
v -0.169937 0.186538 0.003803
v -0.150635 0.187175 -0.025903
v -0.120248 0.187734 -0.039533
v -0.064102 0.120476 -0.061920
v -0.027088 0.120476 -0.014464
v -0.025038 0.120476 0.045685
v -0.058733 0.120476 0.095552
v -0.115305 0.120476 0.116089
v -0.173144 0.120476 0.099453
v -0.210157 0.120476 0.051996
v -0.212208 0.120476 -0.008153
v -0.178512 0.120476 -0.058020
v -0.121941 0.120476 -0.078557
v 0.143926 0.000000 0.180852
v 0.165348 0.000000 0.249698
v 0.160441 0.215696 0.304786
v 0.104155 0.000000 0.291877
v 0.120195 0.211216 0.332311
v 0.044913 0.000000 0.249098
v 0.069493 0.000000 0.180481
v 0.097879 0.231646 0.259611
v 0.146459 0.228233 0.259853
v 0.081837 0.221218 0.304395
v 0.142590 0.108774 0.220211
v 0.156572 0.096236 0.265145
v 0.116633 0.091900 0.292674
v 0.077967 0.101758 0.264753
v 0.094010 0.112186 0.219969
v 0.219154 0.227495 0.158919
v 0.276772 0.202986 0.238650
v 0.274517 0.177852 0.336838
v 0.213252 0.161695 0.415976
v 0.116377 0.160684 0.445839
v 0.020896 0.175207 0.415018
v -0.036721 0.199716 0.335287
v 0.127773 0.312858 0.298761
v -0.034467 0.224850 0.237100
v 0.026799 0.241007 0.157961
v 0.123673 0.242018 0.128099
v 0.199645 0.278336 0.202305
v 0.240433 0.260986 0.258747
v 0.238836 0.243194 0.328254
v 0.195404 0.231727 0.384276
v 0.123061 0.229241 0.405359
v 0.059297 0.241322 0.383599
v 0.018510 0.258672 0.327157
v 0.020106 0.276464 0.257650
v 0.063476 0.287902 0.201627
v 0.132054 0.288617 0.180487
v 0.181025 0.301419 0.235451
v 0.208244 0.289841 0.273117
v 0.207178 0.277967 0.319503
v 0.173263 0.267995 0.356815
v 0.117356 0.262747 0.370770
v 0.082391 0.274379 0.356362
v 0.060144 0.288296 0.318770
v 0.061209 0.300170 0.272385
v 0.090152 0.307803 0.234998
v 0.135918 0.308280 0.220890
v 0.209714 0.207087 0.164788
v 0.262575 0.184601 0.237938
v 0.260506 0.161542 0.328021
v 0.204298 0.146718 0.400627
v 0.115419 0.145791 0.428025
v 0.027819 0.159115 0.399748
v -0.025042 0.181601 0.326598
v -0.022973 0.204660 0.236516
v 0.033235 0.219484 0.163909
v 0.122113 0.220411 0.136511
vt 0.642725 0.780096
vt 0.642725 0.780096
vt 0.642725 0.780096
vt 0.642725 0.780096
vt 0.642725 0.780096
vt 0.642725 0.780096
vt 0.642725 0.780096
vt 0.642725 0.780096
vt 0.642725 0.780096
vt 0.642725 0.780096
vt 0.642725 0.780096
vt 0.642725 0.780096
vt 0.642725 0.780096
vt 0.642725 0.780096
vt 0.642725 0.780096
vt 0.642725 0.780096
vt 0.642725 0.780096
vt 0.642725 0.780096
vt 0.642725 0.780096
vt 0.642725 0.780096
vt 0.642725 0.780096
vt 0.642725 0.780096
vt 0.642725 0.780096
vt 0.642725 0.780096
vt 0.642725 0.780096
vt 0.642725 0.780096
vt 0.642725 0.780096
vt 0.642725 0.780096
vt 0.642725 0.780096
vt 0.642725 0.780096
vt 0.642725 0.780096
vt 0.642725 0.780096
vt 0.642725 0.780096
vt 0.642725 0.780096
vt 0.642725 0.780096
vt 0.642725 0.780096
vt 0.642725 0.780096
vt 0.642725 0.780096
vt 0.642725 0.780096
vt 0.642725 0.780096
vt 0.774924 0.517226
vt 0.774924 0.517226
vt 0.774924 0.517226
vt 0.214549 0.359975
vt 0.214549 0.359975
vt 0.214549 0.359975
vt 0.214549 0.359975
vt 0.214549 0.359975
vt 0.774924 0.517226
vt 0.774924 0.517226
vt 0.774924 0.517226
vt 0.774924 0.517226
vt 0.774924 0.517226
vt 0.774924 0.517226
vt 0.774924 0.517226
vt 0.774924 0.517226
vt 0.774924 0.517226
vt 0.774924 0.517226
vt 0.774924 0.517226
vt 0.214549 0.359975
vt 0.214549 0.359975
vt 0.214549 0.359975
vt 0.214549 0.359975
vt 0.214549 0.359975
vt 0.214549 0.359975
vt 0.214549 0.359975
vt 0.214549 0.359975
vt 0.214549 0.359975
vt 0.214549 0.359975
vt 0.214549 0.359975
vt 0.214549 0.359975
vt 0.214549 0.359975
vt 0.774924 0.517226
vt 0.774924 0.517226
vt 0.774924 0.517226
vt 0.774924 0.517226
vt 0.214549 0.359975
vt 0.774924 0.517226
vt 0.774924 0.517226
vt 0.774924 0.517226
vt 0.774924 0.517226
vt 0.774924 0.517226
vt 0.774924 0.517226
vt 0.774924 0.517226
vt 0.774924 0.517226
vt 0.774924 0.517226
vt 0.774924 0.517226
vt 0.774924 0.517226
vt 0.774924 0.517226
vt 0.214549 0.359975
vt 0.214549 0.359975
vt 0.774924 0.517226
vt 0.774924 0.517226
vt 0.774924 0.517226
vt 0.774924 0.517226
vt 0.774924 0.517226
vt 0.774924 0.517226
vt 0.774924 0.517226
vt 0.774924 0.517226
vt 0.774924 0.517226
vt 0.774924 0.517226
vt 0.774924 0.517226
vt 0.774924 0.517226
vt 0.774924 0.517226
vt 0.774924 0.517226
vt 0.774924 0.517226
vt 0.774924 0.517226
vt 0.774924 0.517226
vt 0.774924 0.517226
vt 0.774924 0.517226
vt 0.774924 0.517226
vt 0.774924 0.517226
vt 0.774924 0.517226
vt 0.774924 0.517226
vt 0.774924 0.517226
vt 0.774924 0.517226
vt 0.774924 0.517226
vt 0.774924 0.517226
vt 0.774924 0.517226
vt 0.774924 0.517226
vt 0.214549 0.359975
vt 0.214549 0.359975
vt 0.214549 0.359975
vt 0.214549 0.359975
vt 0.214549 0.359975
vt 0.214549 0.359975
vt 0.774924 0.517226
vt 0.774924 0.517226
vt 0.774924 0.517226
vt 0.214549 0.359975
vt 0.774924 0.517226
vt 0.774924 0.517226
vt 0.774924 0.517226
vt 0.214549 0.359975
vt 0.214549 0.359975
vt 0.214549 0.359975
vt 0.214549 0.359975
vt 0.214549 0.359975
vt 0.214549 0.359975
vt 0.774924 0.517226
vt 0.774924 0.517226
vt 0.214549 0.359975
vt 0.214549 0.359975
vt 0.214549 0.359975
vt 0.214549 0.359975
vt 0.774924 0.517226
vt 0.774924 0.517226
vt 0.774924 0.517226
vt 0.774924 0.517226
vt 0.774924 0.517226
vt 0.774924 0.517226
vt 0.214549 0.359975
vt 0.214549 0.359975
vt 0.774924 0.517226
vt 0.774924 0.517226
vt 0.774924 0.517226
vt 0.774924 0.517226
vt 0.774924 0.517226
vt 0.774924 0.517226
vt 0.774924 0.517226
vt 0.774924 0.517226
vt 0.774924 0.517226
vt 0.214549 0.359975
vn -0.9014 0.3182 -0.2936
vn 0.9499 -0.0502 0.3086
vn -0.0000 0.3243 0.9459
vn -0.5796 0.0673 0.8121
vn 0.5680 -0.0819 0.8190
vn -0.9275 0.2210 0.3014
vn -0.5861 0.0759 -0.8067
vn -0.0000 -0.1064 0.9943
vn 0.9578 0.0621 -0.2807
vn -0.5850 0.0968 -0.8052
vn 0.9496 0.0545 0.3086
vn 0.5871 0.0476 -0.8081
vn -0.5871 0.0476 -0.8081
vn 0.0140 0.3347 -0.9422
vn 0.0000 0.0588 0.9983
vn -0.9425 0.1323 -0.3068
vn 0.5645 -0.2759 0.7780
vn -0.9509 -0.0159 0.3090
vn 0.9514 0.1225 -0.2826
vn 0.0268 0.3141 -0.9490
vn -0.9496 0.0545 0.3086
vn 0.9195 0.2555 0.2988
vn 0.5861 0.0757 -0.8067
vn 0.5849 0.0989 -0.8050
vn -0.6094 -0.2327 0.7579
vn -0.2033 0.9782 0.0424
vn -0.0899 0.9568 -0.2767
vn -0.0794 0.9664 0.2444
vn 0.1926 0.9811 -0.0186
vn -0.0957 0.9543 0.2830
vn -0.3220 0.9251 0.2012
vn -0.3841 0.8941 -0.2304
vn -0.1540 0.9399 -0.3049
vn -0.0294 0.9977 -0.0617
vn -0.2704 0.9342 0.2329
vn 0.0896 0.9571 -0.2756
vn 0.0791 0.9667 0.2436
vn 0.0000 -1.0000 0.0000
vn 0.2281 0.9594 -0.1657
vn 0.0354 0.8179 0.5743
vn 0.1631 0.9858 -0.0409
vn 0.0772 0.9695 0.2326
vn 0.2113 0.9653 0.1535
vn 0.1519 0.9789 -0.1365
vn 0.0675 0.8143 0.5765
vn 0.2970 0.9517 0.0779
vn -0.1897 0.8789 0.4377
vn -0.4582 0.8882 -0.0336
vn 0.1743 0.9780 0.1147
vn -0.2740 0.9617 0.0000
vn 0.0534 0.9700 -0.2373
vn -0.2132 0.9646 0.1549
vn -0.2302 0.9586 -0.1673
vn 0.3371 0.9102 0.2407
vn 0.2709 0.9626 -0.0000
vn -0.0666 -0.9662 -0.2489
vn 0.2543 0.8514 0.4587
vn 0.7867 -0.6022 -0.1361
vn -0.4471 0.8788 -0.1667
vn -0.5418 0.8172 0.1967
vn 0.4516 0.8363 0.3108
vn -0.5912 0.7466 -0.3052
vn -0.6429 0.6452 -0.4128
vn 0.6185 -0.7115 0.3335
vn 0.2346 -0.3674 -0.9000
vn 0.2727 0.8546 -0.4420
vn -0.1900 0.6764 0.7116
vn -0.2232 -0.6916 -0.6869
vn 0.1690 0.8373 -0.5200
vn -0.4293 0.8476 -0.3119
vn -0.1396 0.8956 -0.4225
vn 0.8603 0.4888 0.1449
vn 0.7337 0.5815 -0.3515
vn -0.2748 -0.3316 -0.9025
vn -0.4985 0.8669 -0.0000
vn 0.6035 0.7722 -0.1987
vn -0.1949 0.7037 0.6832
vn -0.5983 0.7145 -0.3626
vn 0.2178 0.7915 0.5711
vn -0.5843 -0.6916 0.4245
vn -0.2356 0.6473 -0.7250
vn 0.2232 -0.6916 0.6869
vn 0.5843 -0.6916 -0.4245
vn 0.2232 -0.6916 -0.6869
vn 0.1518 0.6900 0.7078
vn -0.5843 -0.6916 -0.4245
vn 0.7222 -0.6916 0.0000
vn -0.7222 -0.6916 0.0000
vn 0.6681 0.7440 -0.0000
vn -0.2232 -0.6916 0.6869
vn 0.1997 -0.7570 0.6222
vn 0.2467 0.4632 0.8512
vn 0.4893 0.8721 -0.0000
vn 0.6737 -0.5821 0.4552
vn 0.1761 0.7475 -0.6405
vn 0.1380 0.8947 0.4248
vn 0.8105 0.5852 -0.0270
vn -0.5929 0.6804 -0.4308
vn -0.7222 0.6912 0.0258
vn 0.3731 0.8873 0.2711
vn 0.4918 0.7858 -0.3750
vn -0.2530 0.7454 -0.6168
vn 0.3164 0.6831 -0.6582
vn -0.0966 0.6908 0.7166
vn -0.4226 0.7365 0.5282
vn 0.2334 0.5359 -0.8114
vn -0.2775 -0.5821 -0.7643
vn 0.2775 -0.5821 0.7643
vn 0.6412 -0.5821 -0.5001
vn 0.8126 -0.5821 -0.0277
vn -0.6737 -0.5821 -0.4552
vn -0.6412 -0.5821 0.5001
vn -0.5623 0.7009 0.4387
vn -0.8126 -0.5821 0.0277
vn 0.2488 0.6844 0.6854
vn 0.6632 0.4420 0.6040
vn 0.1853 0.8003 0.5703
vn -0.1912 0.5113 0.8378
vn 0.7012 0.6867 0.1919
vn -0.7151 -0.6178 0.3269
vn 0.4954 0.6619 0.5626
vn -0.6492 0.5734 0.4998
vn -0.7851 0.6194 -0.0005
vn 0.5826 0.6939 -0.4233
vn 0.4226 0.8527 -0.3071
vn -0.1700 0.8350 -0.5233
vn 0.5613 0.8276 -0.0066
vn -0.5128 0.7734 0.3726
vn -0.3097 -0.7212 0.6196
vn 0.6627 0.5419 -0.5169
vn 0.6352 0.6414 0.4302
vn -0.2028 0.7475 -0.6325
vn -0.6828 0.7306 -0.0000
vn 0.5041 0.7822 0.3662
vn 0.2340 0.6531 -0.7202
vn 0.5843 -0.6916 0.4245
vn -0.2812 0.5717 -0.7708
vn 0.2248 -0.5821 -0.7814
vn -0.1388 0.8935 0.4271
vn -0.7094 0.6866 0.1595
vn 0.6401 -0.4707 -0.6072
vn -0.2248 -0.5821 0.7814
vn -0.3785 0.8838 0.2750
vn -0.1865 0.7974 0.5740
vn -0.8617 -0.4864 -0.1443
vn -0.6935 -0.3770 -0.6139
vn -0.5517 0.5972 0.5823
g Mushrooms_Mushrooms_CollorMaterial
usemtl CollorMaterial
s off
f 113/1/1 121/2/1 122/3/1 114/4/1
f 9/5/2 5/6/2 13/7/2 12/8/2
f 13/7/3 14/9/3 6/10/3 4/11/3
f 111/12/4 120/13/4 121/2/4 113/1/4
f 120/13/5 111/12/5 109/14/5 119/15/5
f 14/9/6 15/16/6 7/17/6 6/10/6
f 15/16/7 11/18/7 1/19/7 7/17/7
f 13/7/8 5/6/8 10/20/8 14/9/8
f 116/21/9 110/22/9 119/15/9 118/23/9
f 15/16/10 8/24/10 2/25/10 11/18/10
f 58/26/11 63/27/11 65/28/11 59/29/11
f 57/30/12 64/31/12 63/27/12 58/26/12
f 62/32/13 64/31/13 57/30/13 61/33/13
f 122/3/14 118/23/14 108/34/14 114/4/14
f 66/35/15 60/36/15 59/29/15 65/28/15
f 121/2/16 117/37/16 115/38/16 122/3/16
f 110/22/17 112/39/17 120/13/17 119/15/17
f 14/9/18 10/20/18 8/24/18 15/16/18
f 118/23/19 119/15/19 109/14/19 108/34/19
f 116/21/20 118/23/20 122/3/20 115/38/20
f 66/35/21 62/32/21 61/33/21 60/36/21
f 3/40/22 12/8/22 13/7/22 4/11/22
f 2/25/23 9/5/23 12/8/23 11/18/23
f 1/19/24 11/18/24 12/8/24 3/40/24
f 120/13/25 112/39/25 117/37/25 121/2/25
f 152/41/26 151/42/26 130/43/26
f 37/44/27 46/45/27 19/46/27
f 43/47/28 42/48/28 19/46/28
f 74/49/29 90/50/29 89/51/29
f 74/49/30 93/52/30 92/53/30
f 74/49/31 94/54/31 93/52/31
f 95/55/32 74/49/32 96/56/32
f 96/56/33 74/49/33 97/57/33
f 130/43/34 153/58/34 152/41/34
f 151/42/35 150/59/35 130/43/35
f 19/46/36 38/60/36 37/44/36
f 19/46/37 42/48/37 41/61/37
f 56/62/38 47/63/38 48/64/38
f 48/64/38 49/65/38 50/66/38
f 50/66/38 51/67/38 52/68/38
f 52/68/38 53/69/38 50/66/38
f 53/69/38 54/70/38 50/66/38
f 54/70/38 55/71/38 56/62/38
f 19/46/39 39/72/39 38/60/39
f 149/73/40 148/74/40 130/43/40
f 130/43/41 144/75/41 153/58/41
f 92/53/42 91/76/42 74/49/42
f 19/46/43 41/61/43 40/77/43
f 107/78/38 98/79/38 99/80/38
f 99/80/38 100/81/38 107/78/38
f 101/82/38 102/83/38 103/84/38
f 103/84/38 104/85/38 105/86/38
f 89/51/44 88/87/44 74/49/44
f 148/74/45 147/88/45 130/43/45
f 145/89/46 144/75/46 130/43/46
f 150/59/47 149/73/47 130/43/47
f 95/55/48 94/54/48 74/49/48
f 74/49/49 91/76/49 90/50/49
f 45/90/50 44/91/50 19/46/50
f 74/49/51 88/87/51 97/57/51
f 44/91/52 43/47/52 19/46/52
f 46/45/53 45/90/53 19/46/53
f 146/92/54 145/89/54 130/43/54
f 19/46/55 40/77/55 39/72/55
f 154/93/56 155/94/56 156/95/56
f 159/96/56 160/97/56 161/98/56
f 147/88/57 146/92/57 130/43/57
f 124/99/58 125/100/58 156/95/58 155/94/58
f 151/42/59 152/41/59 142/101/59 141/102/59
f 150/59/60 151/42/60 141/102/60 140/103/60
f 90/50/61 91/76/61 81/104/61 80/105/61
f 141/102/62 142/101/62 132/106/62 131/107/62
f 85/108/63 86/109/63 76/110/63 75/111/63
f 125/100/64 126/112/64 157/113/64 156/95/64
f 133/114/65 123/115/65 154/93/65 163/116/65
f 153/58/66 144/75/66 134/117/66 143/118/66
f 92/53/67 93/52/67 83/119/67 82/120/67
f 16/121/68 47/63/68 56/62/68 26/122/68
f 27/123/69 37/44/69 38/60/69 28/124/69
f 45/90/70 46/45/70 36/125/70 35/126/70
f 152/41/71 153/58/71 143/118/71 142/101/71
f 136/127/72 125/100/72 124/99/72 135/128/72
f 135/128/73 124/99/73 123/115/73 134/117/73
f 163/116/74 162/129/74 132/106/74 133/114/74
f 44/91/75 45/90/75 35/126/75 34/130/75
f 100/81/38 101/82/38 106/131/38 107/78/38
f 145/89/76 135/128/76 134/117/76 144/75/76
f 71/132/77 82/120/77 83/119/77 72/133/77
f 85/108/78 95/55/78 96/56/78 86/109/78
f 91/76/79 92/53/79 82/120/79 81/104/79
f 54/70/80 53/69/80 23/134/80 24/135/80
f 36/125/81 27/123/81 16/121/81 26/122/81
f 56/62/38 48/64/38 50/66/38 54/70/38
f 52/68/82 51/67/82 21/136/82 22/137/82
f 18/138/83 49/65/83 48/64/83 17/139/83
f 48/64/84 47/63/84 16/121/84 17/139/84
f 147/88/85 148/74/85 138/140/85 137/141/85
f 56/62/86 55/71/86 25/142/86 26/122/86
f 50/66/87 49/65/87 18/138/87 20/143/87
f 55/71/88 54/70/88 24/135/88 25/142/88
f 18/138/89 29/144/89 30/145/89 20/143/89
f 53/69/90 52/68/90 22/137/90 23/134/90
f 126/112/91 127/146/91 158/147/91 157/113/91
f 126/112/92 137/141/92 138/140/92 127/146/92
f 29/144/93 39/72/93 40/77/93 30/145/93
f 70/148/94 101/82/94 100/81/94 69/149/94
f 87/150/95 97/57/95 88/87/95 78/151/95
f 31/152/96 41/61/96 42/48/96 32/153/96
f 68/154/97 79/155/97 80/105/97 69/149/97
f 35/126/98 36/125/98 26/122/98 25/142/98
f 84/156/99 85/108/99 75/111/99 73/157/99
f 30/145/100 40/77/100 41/61/100 31/152/100
f 78/151/101 88/87/101 89/51/101 79/155/101
f 86/109/102 96/56/102 97/57/102 87/150/102
f 143/118/103 134/117/103 123/115/103 133/114/103
f 148/74/104 149/73/104 139/158/104 138/140/104
f 149/73/105 150/59/105 140/103/105 139/158/105
f 87/150/106 78/151/106 67/159/106 77/160/106
f 107/78/107 106/131/107 76/110/107 77/160/107
f 70/148/108 71/132/108 102/83/108 101/82/108
f 68/154/109 99/80/109 98/79/109 67/159/109
f 69/149/110 100/81/110 99/80/110 68/154/110
f 106/131/111 105/86/111 75/111/111 76/110/111
f 104/85/112 103/84/112 72/133/112 73/157/112
f 83/119/113 84/156/113 73/157/113 72/133/113
f 105/86/114 104/85/114 73/157/114 75/111/114
f 70/148/115 81/104/115 82/120/115 71/132/115
f 158/147/56 159/96/56 161/98/56 162/129/56
f 125/100/116 136/127/116 137/141/116 126/112/116
f 21/136/117 31/152/117 32/153/117 22/137/117
f 106/131/38 101/82/38 103/84/38 105/86/38
f 138/140/118 139/158/118 128/161/118 127/146/118
f 146/92/119 136/127/119 135/128/119 145/89/119
f 129/162/120 160/97/120 159/96/120 128/161/120
f 147/88/121 137/141/121 136/127/121 146/92/121
f 93/52/122 94/54/122 84/156/122 83/119/122
f 84/156/123 94/54/123 95/55/123 85/108/123
f 17/139/124 28/124/124 29/144/124 18/138/124
f 28/124/125 38/60/125 39/72/125 29/144/125
f 46/45/126 37/44/126 27/123/126 36/125/126
f 79/155/127 89/51/127 90/50/127 80/105/127
f 33/163/128 34/130/128 24/135/128 23/134/128
f 159/96/129 158/147/129 127/146/129 128/161/129
f 67/159/130 78/151/130 79/155/130 68/154/130
f 69/149/131 80/105/131 81/104/131 70/148/131
f 142/101/132 143/118/132 133/114/132 132/106/132
f 34/130/133 35/126/133 25/142/133 24/135/133
f 20/143/134 30/145/134 31/152/134 21/136/134
f 16/121/135 27/123/135 28/124/135 17/139/135
f 21/136/136 51/67/136 50/66/136 20/143/136
f 86/109/137 87/150/137 77/160/137 76/110/137
f 77/160/138 67/159/138 98/79/138 107/78/138
f 42/48/139 43/47/139 33/163/139 32/153/139
f 140/103/140 141/102/140 131/107/140 129/162/140
f 163/116/56 154/93/56 156/95/56 157/113/56
f 123/115/141 124/99/141 155/94/141 154/93/141
f 103/84/142 102/83/142 71/132/142 72/133/142
f 43/47/143 44/91/143 34/130/143 33/163/143
f 32/153/144 33/163/144 23/134/144 22/137/144
f 161/98/145 160/97/145 129/162/145 131/107/145
f 132/106/146 162/129/146 161/98/146 131/107/146
f 139/158/147 140/103/147 129/162/147 128/161/147
f 158/147/56 162/129/56 163/116/56 157/113/56
