# Blender v3.0.0 OBJ File: 'Blender Medieval Village Megapack Low Poly .blend'
# www.blender.org
mtllib Pickaxe.mtl
o Pickaxe
v 0.236337 -0.008844 0.016710
v 0.236337 -0.008844 -0.016710
v 0.172019 -0.030604 0.017584
v 0.113867 -0.039645 0.019412
v 0.113867 -0.039645 -0.019412
v 0.055760 -0.042482 -0.021690
v 0.227622 0.026321 0.017005
v 0.227622 0.026321 -0.017006
v 0.161771 0.013768 0.018215
v 0.161771 0.013768 -0.018215
v 0.111969 0.010873 0.020331
v 0.111969 0.010873 -0.020331
v 0.063354 0.012330 -0.024207
v 0.063354 0.012330 0.024207
v 0.041936 0.049655 0.020731
v 0.041936 0.049655 -0.020731
v 0.032950 0.047735 0.031629
v 0.032950 0.047735 -0.031629
v -0.002274 0.046978 0.038931
v -0.002274 0.046978 -0.038932
v -0.034207 0.046083 0.024155
v -0.034206 0.046083 -0.024154
v -0.044667 0.015002 0.023111
v -0.044667 0.015002 -0.023110
v 0.055760 -0.042482 0.021690
v 0.045947 -0.044137 0.019969
v 0.045947 -0.044137 -0.019969
v 0.035549 -0.041405 0.031669
v 0.035493 -0.042188 -0.031668
v 0.000479 -0.036497 0.038750
v 0.000679 -0.042081 -0.038735
v -0.028354 -0.042687 0.024154
v -0.028268 -0.043357 -0.024155
v -0.035665 -0.045380 0.021063
v -0.035665 -0.045380 -0.021061
v -0.081872 -0.041058 0.023344
v -0.231404 -0.001767 0.042558
v -0.231404 -0.001767 -0.042557
v -0.291337 0.023572 0.041414
v -0.291337 0.023572 -0.041414
v -0.283329 0.053797 0.041155
v -0.283329 0.053797 -0.041155
v -0.219342 0.039610 0.042390
v -0.219342 0.039610 -0.042390
v -0.170005 0.024548 0.037495
v -0.170005 0.024548 -0.037495
v -0.080129 0.013246 0.024359
v -0.080129 0.013246 -0.024352
v 0.304279 0.046102 0.012900
v 0.304279 0.046102 -0.012900
v 0.310181 0.022357 0.013070
v 0.310181 0.022357 -0.013070
v -0.011885 -0.045263 0.017227
v -0.019443 -0.045267 -0.000770
v -0.011401 -0.045266 -0.017583
v 0.006204 -0.045269 -0.024650
v 0.023445 -0.045265 -0.017215
v 0.030421 -0.045261 0.000433
v 0.022986 -0.045259 0.017674
v 0.005338 -0.045259 0.024650
v -0.011793 1.037979 0.017207
v -0.011527 1.037981 -0.017747
v 0.006204 1.037981 -0.024651
v 0.023445 1.037979 -0.017215
v 0.030421 1.037977 0.000433
v 0.022986 1.037976 0.017674
v 0.005338 1.037976 0.024650
v 0.005771 -0.045264 0.000000
v 0.005771 1.037978 -0.000000
v 0.172020 -0.030604 -0.010427
v 0.164947 -0.031704 -0.017805
v 0.170408 -0.023627 -0.017679
v 0.178803 -0.028309 -0.017510
v -0.169337 -0.022485 0.035636
v -0.178830 -0.006560 0.037508
v -0.195314 -0.015002 0.038713
v -0.182579 -0.019673 0.023661
v -0.081856 -0.041063 -0.016862
v -0.182565 -0.019676 -0.037414
v -0.081676 -0.034392 -0.023282
v -0.075238 -0.041676 -0.022971
v -0.012752 0.226437 0.008953
v -0.001025 0.226438 -0.023389
v 0.017477 0.226441 -0.024312
v 0.031257 0.226439 -0.011843
v 0.032185 0.226438 0.006718
v 0.019716 0.226437 0.020498
v 0.001155 0.226437 0.021426
v -0.014269 0.226441 -0.002530
v -0.018915 1.037978 -0.000327
v -0.008126 0.226445 -0.015655
v -0.015235 0.203010 -0.011746
vt 0.086253 0.929687
vt 0.086253 0.929687
vt 0.086253 0.929687
vt 0.086253 0.929687
vt 0.086253 0.929687
vt 0.086253 0.929687
vt 0.086253 0.929687
vt 0.086253 0.929687
vt 0.086253 0.929687
vt 0.086253 0.929687
vt 0.086253 0.929687
vt 0.086253 0.929687
vt 0.086253 0.929687
vt 0.086253 0.929687
vt 0.086253 0.929687
vt 0.086253 0.929687
vt 0.086253 0.929687
vt 0.086253 0.929687
vt 0.086253 0.929687
vt 0.086253 0.929687
vt 0.086253 0.929687
vt 0.086253 0.929687
vt 0.086253 0.929687
vt 0.086253 0.929687
vt 0.086253 0.929687
vt 0.086253 0.929687
vt 0.086253 0.929687
vt 0.086253 0.929687
vt 0.960937 0.032119
vt 0.960937 0.032119
vt 0.960937 0.032119
vt 0.960937 0.032119
vt 0.960937 0.032119
vt 0.960937 0.032119
vt 0.960937 0.032119
vt 0.960937 0.032119
vt 0.960937 0.032119
vt 0.960937 0.032119
vt 0.960937 0.032119
vt 0.960937 0.032119
vt 0.960937 0.032119
vt 0.960937 0.032119
vt 0.960937 0.032119
vt 0.960937 0.032119
vt 0.960937 0.032119
vt 0.960937 0.032119
vt 0.960937 0.032119
vt 0.960937 0.032119
vt 0.960937 0.032119
vt 0.960937 0.032119
vt 0.960937 0.032119
vt 0.960937 0.032119
vt 0.960937 0.032119
vt 0.960937 0.032119
vt 0.960937 0.032119
vt 0.960937 0.032119
vt 0.960937 0.032119
vt 0.960937 0.032119
vt 0.960937 0.032119
vt 0.960937 0.032119
vt 0.960937 0.032119
vt 0.960937 0.032119
vt 0.960937 0.032119
vt 0.960937 0.032119
vt 0.960937 0.032119
vt 0.960937 0.032119
vt 0.960937 0.032119
vt 0.960937 0.032119
vt 0.960937 0.032119
vt 0.960937 0.032119
vt 0.960937 0.032119
vt 0.960937 0.032119
vt 0.960937 0.032119
vt 0.960937 0.032119
vt 0.960937 0.032119
vt 0.960937 0.032119
vt 0.960937 0.032119
vt 0.960937 0.032119
vt 0.960937 0.032119
vt 0.960937 0.032119
vt 0.960937 0.032119
vt 0.960937 0.032119
vt 0.960937 0.032119
vt 0.960937 0.032119
vt 0.960937 0.032119
vt 0.960937 0.032119
vt 0.960937 0.032119
vt 0.960937 0.032119
vt 0.960937 0.032119
vt 0.960937 0.032119
vt 0.960937 0.032119
vt 0.960937 0.032119
vn -0.7366 -0.0048 -0.6763
vn 0.0001 -1.0000 0.0002
vn -0.0001 -1.0000 0.0002
vn 0.0000 -1.0000 0.0002
vn -0.0000 1.0000 -0.0000
vn 0.0000 1.0000 0.0001
vn 0.0001 1.0000 0.0001
vn -0.6417 0.0081 -0.7669
vn -0.8875 0.1999 -0.4153
vn -0.9913 -0.0106 0.1310
vn 0.8416 0.0022 0.5400
vn -0.5401 -0.0042 0.8416
vn 0.5400 -0.0101 -0.8416
vn -0.9143 -0.0045 -0.4050
vn -0.9584 -0.0040 0.2853
vn 0.9770 0.0042 -0.2132
vn -0.2161 -0.0012 -0.9764
vn 0.5400 0.0034 -0.8416
vn 0.2133 0.0036 0.9770
vn -0.2112 0.0004 -0.9775
vn 0.0001 -1.0000 0.0001
vn 0.0002 -1.0000 0.0002
vn 0.0001 -1.0000 -0.0000
vn 0.9769 -0.0126 -0.2132
vn 0.8416 -0.0067 0.5400
vn -0.5385 0.0128 0.8425
vn -0.9021 -0.0038 -0.4315
vn -0.7321 0.1099 -0.6723
vn -0.9215 0.0327 0.3870
vn -0.9929 0.0004 0.1186
vn 0.2133 -0.0012 0.9770
vn -0.1691 -0.0218 0.9854
vn -0.1691 -0.0218 -0.9854
vn -0.0056 -0.9999 0.0124
vn -0.0831 -0.0055 0.9965
vn -0.3644 -0.0858 -0.9273
vn 0.0361 -0.0236 -0.9991
vn -0.0002 -0.6934 -0.7205
vn 0.4079 -0.7155 0.5671
vn 0.0910 -0.0254 0.9955
vn 0.6775 -0.4490 -0.5826
vn 0.0329 -0.0067 -0.9994
vn -0.1966 -0.9804 0.0123
vn -0.2090 0.9779 -0.0000
vn -0.3823 -0.7069 -0.5951
vn 0.3205 -0.9473 0.0000
vn -0.6478 -0.4578 0.6089
vn -0.5935 -0.5497 -0.5878
vn -0.0926 -0.9957 -0.0005
vn 0.2009 0.0053 -0.9796
vn -0.0159 0.0104 0.9998
vn 0.0481 0.0098 0.9988
vn 0.0300 0.9996 -0.0000
vn 0.0580 -0.0357 -0.9977
vn 0.1537 -0.9881 0.0000
vn 0.0139 -0.0111 -0.9998
vn 0.0378 -0.0115 0.9992
vn 0.0424 -0.0240 0.9988
vn 0.0580 -0.0357 0.9977
vn -0.1873 -0.0160 0.9822
vn -0.1873 -0.0160 -0.9822
vn -0.9478 0.3190 -0.0000
vn 0.0181 -0.0069 -0.9998
vn -0.0495 0.9988 0.0000
vn 0.3053 -0.9522 0.0073
vn -0.3611 -0.0853 0.9286
vn -0.0830 -0.0055 -0.9965
vn 0.1370 -0.0334 -0.9900
vn -0.2077 -0.9782 0.0000
vn 0.0457 -0.0271 -0.9986
vn 0.0282 -0.0177 -0.9994
vn 0.7579 0.0245 -0.6519
vn -0.2499 0.9683 -0.0000
vn -0.0159 0.0104 -0.9998
vn 0.2920 0.9564 0.0000
vn -0.3894 -0.9211 0.0000
vn -0.4329 -0.0226 0.9011
vn 0.0488 -0.9988 0.0000
vn 0.0971 -0.0243 0.9950
vn 0.0874 -0.0286 0.9958
vn -0.1873 0.9823 -0.0000
vn -0.0580 0.9983 -0.0000
vn 0.0180 -0.0074 0.9998
vn 0.0931 -0.0258 -0.9953
vn -0.9666 0.2561 -0.0000
vn 0.0381 -0.0118 -0.9992
vn 0.2165 0.9763 -0.0000
vn 0.3892 -0.9212 0.0000
vn 0.8673 0.4977 -0.0000
vn -0.2542 -0.9672 0.0000
vn 0.2031 -0.9790 0.0139
vn -0.0280 0.9996 -0.0000
vn 0.2008 0.0054 0.9796
vn -0.0323 -0.9969 0.0718
vn -0.3443 -0.9389 0.0000
vn -0.4336 -0.0226 -0.9008
vn 0.1248 0.9922 0.0000
vn 0.1664 -0.9861 0.0000
vn 0.1370 -0.0295 0.9901
vn 0.0481 0.0098 -0.9988
vn 0.1536 -0.9881 0.0000
vn 0.7592 0.0249 0.6504
vn 0.1328 -0.0373 0.9904
vn -0.0932 -0.9956 -0.0000
vn -0.0931 -0.9957 0.0001
vn -0.0215 0.9998 -0.0000
vn 0.9705 0.2412 -0.0000
g Pickaxe_Pickaxe_CollorMaterial
usemtl CollorMaterial
s off
f 91/1/1 62/2/1 83/3/1
f 58/4/2 68/5/2 57/6/2
f 56/7/3 68/5/3 55/8/3
f 54/9/2 68/5/2 53/10/2
f 60/11/4 68/5/4 59/12/4
f 69/13/5 90/14/5 61/15/5
f 69/13/6 63/16/6 62/2/6
f 69/13/7 65/17/7 64/18/7
f 69/13/6 67/19/6 66/20/6
f 92/21/8 83/3/8 55/8/8
f 89/22/9 91/1/9 92/21/9
f 82/23/10 89/22/10 92/21/10
f 66/20/11 87/24/11 86/25/11 65/17/11
f 61/15/12 82/23/12 88/26/12 67/19/12
f 57/6/13 56/7/13 84/27/13 85/28/13
f 90/14/14 62/2/14 91/1/14 89/22/14
f 90/14/15 89/22/15 82/23/15 61/15/15
f 65/17/16 86/25/16 85/28/16 64/18/16
f 56/7/17 55/8/17 83/3/17 84/27/17
f 64/18/18 85/28/18 84/27/18 63/16/18
f 60/11/19 59/12/19 87/24/19 88/26/19
f 63/16/20 84/27/20 83/3/20 62/2/20
f 58/4/21 59/12/21 68/5/21
f 56/7/22 57/6/22 68/5/22
f 54/9/23 55/8/23 68/5/23
f 60/11/2 53/10/2 68/5/2
f 69/13/6 62/2/6 90/14/6
f 69/13/7 64/18/7 63/16/7
f 69/13/7 66/20/7 65/17/7
f 69/13/7 61/15/7 67/19/7
f 58/4/24 57/6/24 85/28/24 86/25/24
f 59/12/25 58/4/25 86/25/25 87/24/25
f 53/10/26 60/11/26 88/26/26 82/23/26
f 55/8/27 54/9/27 92/21/27
f 92/21/28 91/1/28 83/3/28
f 54/9/29 53/10/29 92/21/29
f 53/10/30 82/23/30 92/21/30
f 67/19/31 88/26/31 87/24/31 66/20/31
g Pickaxe_Pickaxe_Metal2
usemtl Metal2
f 14/29/32 26/30/32 25/31/32
f 27/32/33 13/33/33 6/34/33
f 28/35/34 31/36/34 29/37/34
f 23/38/35 32/39/35 21/40/35
f 24/41/36 33/42/36 35/43/36
f 80/44/37 48/45/37 24/41/37
f 78/46/38 79/47/38 80/44/38
f 75/48/39 76/49/39 77/50/39
f 75/48/40 45/51/40 43/52/40
f 70/53/41 71/54/41 72/55/41
f 10/56/42 72/55/42 71/54/42
f 27/32/43 28/35/43 29/37/43
f 16/57/44 17/58/44 15/59/44
f 70/53/45 72/55/45 73/60/45
f 3/61/46 70/53/46 73/60/46
f 75/48/47 77/50/47 74/62/47
f 78/46/48 80/44/48 81/63/48
f 34/64/49 78/46/49 81/63/49
f 18/65/50 29/37/50 31/36/50 20/66/50
f 39/67/51 37/68/51 43/52/51 41/69/51
f 7/70/52 1/71/52 51/72/52 49/73/52
f 14/29/53 11/74/53 12/75/53 13/33/53
f 5/76/54 6/34/54 13/33/54 12/75/54
f 71/54/55 70/53/55 3/61/55
f 1/71/46 3/61/46 73/60/46 2/77/46
f 72/55/56 10/56/56 73/60/56
f 4/78/57 3/61/57 9/79/57 11/74/57
f 36/80/58 34/64/58 23/38/58 47/81/58
f 14/29/59 25/31/59 4/78/59 11/74/59
f 14/29/60 15/59/60 26/30/60
f 27/32/61 16/57/61 13/33/61
f 23/38/62 21/40/62 22/82/62 24/41/62
f 8/83/63 2/77/63 73/60/63 10/56/63
f 48/45/64 47/81/64 23/38/64 24/41/64
f 35/43/65 33/42/65 32/39/65 34/64/65
f 23/38/66 34/64/66 32/39/66
f 24/41/67 22/82/67 33/42/67
f 80/44/68 79/47/68 46/84/68 48/45/68
f 74/62/69 77/50/69 79/47/69
f 35/43/70 81/63/70 24/41/70
f 81/63/71 80/44/71 24/41/71
f 16/57/72 27/32/72 29/37/72 18/65/72
f 7/70/73 49/73/73 50/85/73 8/83/73
f 40/86/74 42/87/74 44/88/74 38/89/74
f 46/84/75 44/88/75 43/52/75 45/51/75
f 39/67/76 40/86/76 38/89/76 37/68/76
f 30/90/77 19/91/77 21/40/77 32/39/77
f 25/31/78 6/34/78 5/76/78 4/78/78
f 37/68/79 76/49/79 43/52/79
f 76/49/80 75/48/80 43/52/80
f 7/70/81 8/83/81 10/56/81 9/79/81
f 11/74/82 9/79/82 10/56/82 12/75/82
f 9/79/83 3/61/83 1/71/83 7/70/83
f 38/89/84 44/88/84 46/84/84 79/47/84
f 40/86/85 39/67/85 41/69/85 42/87/85
f 12/75/86 10/56/86 71/54/86 5/76/86
f 42/87/87 41/69/87 43/52/87 44/88/87
f 52/92/88 51/72/88 1/71/88 2/77/88
f 15/59/89 14/29/89 13/33/89 16/57/89
f 27/32/90 26/30/90 28/35/90
f 30/90/91 32/39/91 33/42/91
f 19/91/92 20/66/92 22/82/92 21/40/92
f 30/90/93 28/35/93 17/58/93 19/91/93
f 16/57/44 18/65/44 17/58/44
f 30/90/94 33/42/94 31/36/94 28/35/94
f 77/50/95 76/49/95 37/68/95
f 20/66/96 31/36/96 33/42/96 22/82/96
f 48/45/97 46/84/97 45/51/97 47/81/97
f 27/32/98 6/34/98 25/31/98 26/30/98
f 74/62/99 36/80/99 47/81/99 45/51/99
f 8/83/100 50/85/100 52/92/100 2/77/100
f 71/54/101 3/61/101 4/78/101 5/76/101
f 28/35/102 26/30/102 15/59/102 17/58/102
f 45/51/103 75/48/103 74/62/103
f 81/63/104 35/43/104 34/64/104
f 34/64/105 36/80/105 78/46/105
f 74/62/69 79/47/69 78/46/69 36/80/69
f 19/91/106 17/58/106 18/65/106 20/66/106
f 77/50/95 37/68/95 38/89/95 79/47/95
f 51/72/107 52/92/107 50/85/107 49/73/107
