# Blender v3.0.0 OBJ File: 'Blender Medieval Village Megapack Low Poly .blend'
# www.blender.org
mtllib Pitchfork.mtl
o Pitchfork
v -0.015598 0.376284 0.015313
v -0.015598 0.376284 -0.014885
v 0.014600 0.376284 0.015313
v 0.014600 0.376284 -0.014885
v -0.000499 0.376284 -0.018945
v -0.000499 0.376284 0.019373
v -0.018819 0.376284 0.000214
v 0.017821 0.376284 0.000214
v -0.037474 1.641206 0.010914
v -0.037474 1.641206 -0.021437
v -0.005123 1.641206 0.010914
v -0.005123 1.641206 -0.021437
v -0.021298 1.641206 -0.025786
v -0.021298 1.641206 0.015263
v -0.040924 1.641206 -0.005261
v -0.001672 1.641206 -0.005261
v -0.021298 1.641206 -0.005261
v -0.000434 1.033940 -0.010281
v -0.015717 1.033940 -0.014391
v 0.002827 1.033940 0.005002
v -0.034262 1.033940 0.005002
v -0.031001 1.033940 0.020286
v -0.031001 1.033940 -0.010281
v -0.015717 1.033940 0.024395
v -0.000434 1.033940 0.020286
v -0.001884 1.414895 -0.007956
v 0.001522 1.414895 0.008013
v -0.037229 1.414895 0.008013
v -0.033822 1.414895 -0.007956
v -0.017853 1.414895 -0.012249
v -0.033822 1.414895 0.023981
v -0.017853 1.414895 0.028275
v -0.001884 1.414895 0.023981
v -0.017629 0.326270 0.017806
v -0.017624 0.326236 -0.017806
v 0.017992 0.326270 0.017806
v 0.017987 0.326236 -0.017806
v 0.000181 0.326236 -0.022593
v 0.000181 0.326236 0.022593
v -0.021416 0.326180 -0.000001
v 0.021779 0.326180 -0.000001
v -0.017624 0.279151 0.017806
v -0.017624 0.279151 -0.017806
v 0.017987 0.279151 0.017806
v 0.017987 0.279151 -0.017806
v 0.000181 0.279151 -0.022593
v 0.000181 0.279151 0.022593
v -0.156008 0.307938 0.017806
v -0.156008 0.307938 -0.017806
v 0.156371 0.307938 -0.017806
v 0.156371 0.307938 0.017806
v -0.156008 0.260853 0.017806
v -0.156008 0.260853 -0.017806
v 0.156371 0.260853 -0.017806
v 0.156371 0.260853 0.017806
v -0.120851 0.265501 -0.017806
v -0.120851 0.265501 0.017806
v -0.120857 0.312629 -0.017806
v -0.120845 0.312545 0.017805
v 0.125766 0.264899 0.017806
v 0.125761 0.311943 0.017805
v 0.125772 0.312027 -0.017806
v 0.125766 0.264899 -0.017806
v 0.000258 0.000000 -0.000000
v -0.099576 0.000000 -0.000000
v 0.102092 0.000000 -0.000000
v 0.151495 0.182280 -0.017366
v 0.151495 0.182280 0.017366
v 0.123632 0.185427 0.017366
v 0.123632 0.185427 -0.017366
v -0.119048 0.184982 -0.017666
v -0.150748 0.181383 0.017666
v -0.119048 0.184982 0.017666
v -0.150748 0.181383 -0.017666
v 0.000220 0.139575 -0.021314
v -0.016577 0.139575 -0.016797
v 0.017017 0.139575 0.016797
v 0.017017 0.139575 -0.016797
v 0.000220 0.139575 0.021313
v -0.016577 0.139575 0.016797
v -0.000499 0.380719 -0.016420
v -0.013609 0.380719 0.013323
v -0.000499 0.380719 0.016848
v 0.012610 0.380719 0.013323
v 0.012610 0.380719 -0.012895
v 0.015407 0.380719 0.000214
v -0.016405 0.380719 0.000214
v -0.013609 0.380719 -0.012895
vt 0.058902 0.935436
vt 0.058902 0.935436
vt 0.058902 0.935436
vt 0.058902 0.935436
vt 0.058902 0.935436
vt 0.058902 0.935436
vt 0.058902 0.935436
vt 0.058902 0.935436
vt 0.058902 0.935436
vt 0.058902 0.935436
vt 0.058902 0.935436
vt 0.058902 0.935436
vt 0.058902 0.935436
vt 0.058902 0.935436
vt 0.058902 0.935436
vt 0.058902 0.935436
vt 0.058902 0.935436
vt 0.058902 0.935436
vt 0.058902 0.935436
vt 0.058902 0.935436
vt 0.058902 0.935436
vt 0.058902 0.935436
vt 0.058902 0.935436
vt 0.058902 0.935436
vt 0.058902 0.935436
vt 0.058902 0.935436
vt 0.058902 0.935436
vt 0.058902 0.935436
vt 0.058902 0.935436
vt 0.058902 0.935436
vt 0.058902 0.935436
vt 0.058902 0.935436
vt 0.058902 0.935436
vt 0.951515 0.052042
vt 0.951515 0.052042
vt 0.951515 0.052042
vt 0.951515 0.052042
vt 0.951515 0.052042
vt 0.951515 0.052042
vt 0.951515 0.052042
vt 0.951515 0.052042
vt 0.951515 0.052042
vt 0.951515 0.052042
vt 0.951515 0.052042
vt 0.951515 0.052042
vt 0.951515 0.052042
vt 0.951515 0.052042
vt 0.951515 0.052042
vt 0.951515 0.052042
vt 0.951515 0.052042
vt 0.951515 0.052042
vt 0.951515 0.052042
vt 0.951515 0.052042
vt 0.951515 0.052042
vt 0.951515 0.052042
vt 0.951515 0.052042
vt 0.951515 0.052042
vt 0.951515 0.052042
vt 0.951515 0.052042
vt 0.951515 0.052042
vt 0.951515 0.052042
vt 0.951515 0.052042
vt 0.951515 0.052042
vt 0.951515 0.052042
vt 0.951515 0.052042
vt 0.951515 0.052042
vt 0.951515 0.052042
vt 0.951515 0.052042
vt 0.951515 0.052042
vt 0.951515 0.052042
vt 0.951515 0.052042
vt 0.951515 0.052042
vt 0.951515 0.052042
vt 0.951515 0.052042
vt 0.951515 0.052042
vt 0.951515 0.052042
vt 0.951515 0.052042
vt 0.951515 0.052042
vt 0.951515 0.052042
vt 0.951515 0.052042
vt 0.951515 0.052042
vt 0.951515 0.052042
vt 0.951515 0.052042
vt 0.951515 0.052042
vt 0.951515 0.052042
vt 0.951515 0.052042
vt 0.951515 0.052042
vt 0.951515 0.052042
vt 0.951515 0.052042
vt 0.951515 0.052042
vt 0.951515 0.052042
vt 0.951515 0.052042
vt 0.951515 0.052042
vt 0.951515 0.052042
vt 0.951515 0.052042
vt 0.951515 0.052042
vn 0.0000 1.0000 -0.0000
vn -0.2593 0.0515 0.9644
vn 0.9780 0.0016 -0.2086
vn -0.9780 -0.0037 0.2086
vn 0.9777 0.0260 0.2086
vn 0.2592 0.0594 0.9640
vn -0.9776 -0.0282 -0.2086
vn 0.2596 0.0090 -0.9657
vn -0.2596 -0.0030 -0.9657
vn 0.2596 -0.0051 0.9657
vn 0.9778 0.0173 0.2086
vn -0.2596 -0.0113 0.9656
vn -0.2596 -0.0172 0.9656
vn -0.9777 -0.0252 -0.2086
vn -0.9780 -0.0060 -0.2086
vn 0.9780 0.0017 0.2086
vn 0.2596 -0.0084 0.9657
vn -0.9779 -0.0093 0.2086
vn -0.9776 -0.0283 0.2086
vn 0.2593 -0.0537 -0.9643
vn 0.9778 0.0204 -0.2086
vn -0.2592 -0.0616 -0.9639
vn 0.2596 0.0069 -0.9657
vn 0.9780 0.0050 -0.2086
vn -0.2596 0.0040 -0.9657
vn 0.0107 -0.0940 -0.9955
vn 0.9929 -0.1192 0.0000
vn -0.2569 -0.1460 -0.9554
vn 0.9652 -0.2616 0.0000
vn -0.1306 0.9911 -0.0247
vn 0.1307 0.9911 -0.0247
vn 0.2569 -0.1458 0.9554
vn 0.2569 -0.1458 -0.9554
vn 0.0107 -0.0939 0.9955
vn -0.2569 -0.1460 0.9554
vn -0.0104 -0.0920 -0.9957
vn -0.9624 -0.2715 0.0000
vn 0.9945 0.1047 0.0000
vn -0.9928 -0.1198 0.0000
vn -0.9933 0.1154 0.0000
vn -0.0104 -0.0920 0.9957
vn -0.0007 -0.0055 -1.0000
vn 0.2596 -0.0000 0.9657
vn 0.9751 0.0780 -0.2077
vn -0.1311 0.9914 0.0012
vn -1.0000 -0.0075 0.0000
vn 0.2596 -0.0088 0.9657
vn -0.2591 0.0585 0.9641
vn 0.9753 0.0763 0.2075
vn -0.9769 0.0499 0.2079
vn 0.2589 0.0737 -0.9631
vn -0.2591 0.0667 -0.9636
vn -0.9768 0.0516 -0.2081
vn 0.2590 0.0656 0.9637
vn -0.2596 -0.0000 -0.9657
vn 0.0000 0.0000 1.0000
vn -0.2596 -0.0000 0.9657
vn 1.0000 0.0000 0.0000
vn 0.2596 -0.0000 -0.9657
vn 0.9997 0.0224 0.0000
vn 0.8633 0.4699 -0.1842
vn -0.0000 0.0000 -1.0000
vn -0.1311 -0.9914 0.0000
vn -1.0000 0.0000 0.0000
vn -0.2275 0.4817 0.8463
vn 0.0002 -0.0017 -1.0000
vn 0.9981 -0.0619 0.0000
vn -0.0007 -0.0055 1.0000
vn -0.9978 -0.0660 0.0000
vn 0.1311 0.9914 0.0012
vn 0.0002 -0.0017 1.0000
vn 1.0000 -0.0070 0.0000
vn -0.2596 -0.0089 -0.9657
vn -0.9996 0.0268 0.0000
vn -0.2596 -0.0089 0.9657
vn 0.2596 -0.0088 -0.9657
vn -0.2275 0.4817 -0.8463
vn -0.8633 0.4699 -0.1842
vn 0.1341 0.9909 0.0094
vn 0.8633 0.4699 0.1842
vn 0.2275 0.4817 0.8463
vn 0.2275 0.4817 -0.8463
vn -0.1342 0.9909 0.0094
vn -0.8633 0.4699 0.1842
vn 0.1311 -0.9914 0.0000
g Pitchfork_Pitchfork_CollorMaterial
usemtl CollorMaterial
s off
f 12/1/1 13/2/1 17/3/1 16/4/1
f 11/5/1 16/4/1 17/3/1 14/6/1
f 17/3/1 15/7/1 9/8/1 14/6/1
f 31/9/2 32/10/2 14/6/2 9/8/2
f 16/4/3 27/11/3 26/12/3 12/1/3
f 28/13/4 31/9/4 9/8/4 15/7/4
f 11/5/5 33/14/5 27/11/5 16/4/5
f 14/6/6 32/10/6 33/14/6 11/5/6
f 29/15/7 28/13/7 15/7/7 10/16/7
f 18/17/8 85/18/8 81/19/8 19/20/8
f 19/20/9 81/19/9 88/21/9 23/22/9
f 83/23/10 84/24/10 25/25/10 24/26/10
f 84/24/11 86/27/11 20/28/11 25/25/11
f 22/29/12 24/26/12 32/10/12 31/9/12
f 82/30/13 83/23/13 24/26/13 22/29/13
f 23/22/14 88/21/14 87/31/14 21/32/14
f 29/15/15 23/22/15 21/32/15 28/13/15
f 25/25/16 20/28/16 27/11/16 33/14/16
f 24/26/17 25/25/17 33/14/17 32/10/17
f 28/13/18 21/32/18 22/29/18 31/9/18
f 21/32/19 87/31/19 82/30/19 22/29/19
f 12/1/20 26/12/20 30/33/20 13/2/20
f 86/27/21 85/18/21 18/17/21 20/28/21
f 30/33/22 29/15/22 10/16/22 13/2/22
f 26/12/23 18/17/23 19/20/23 30/33/23
f 17/3/1 13/2/1 10/16/1 15/7/1
f 20/28/24 18/17/24 26/12/24 27/11/24
f 30/33/25 19/20/25 23/22/25 29/15/25
g Pitchfork_Pitchfork_Metal2
usemtl Metal2
f 74/34/26 71/35/26 65/36/26
f 78/37/27 77/38/27 64/39/27
f 76/40/28 75/41/28 64/39/28
f 67/42/29 68/43/29 66/44/29
f 40/45/30 35/46/30 58/47/30
f 37/48/31 41/49/31 62/50/31
f 77/38/32 79/51/32 64/39/32
f 75/41/33 78/37/33 64/39/33
f 73/52/34 72/53/34 65/36/34
f 79/51/35 80/54/35 64/39/35
f 70/55/36 67/42/36 66/44/36
f 72/53/37 74/34/37 65/36/37
f 71/35/38 73/52/38 65/36/38
f 80/54/39 76/40/39 64/39/39
f 69/56/40 70/55/40 66/44/40
f 68/43/41 69/56/41 66/44/41
f 70/55/42 63/57/42 54/58/42 67/42/42
f 44/59/43 36/60/43 39/61/43 47/62/43
f 41/49/44 37/48/44 4/63/44 8/64/44
f 48/65/45 59/66/45 58/47/45 49/67/45
f 76/40/46 80/54/46 42/68/46 43/69/46
f 77/38/47 44/59/47 47/62/47 79/51/47
f 34/70/48 39/61/48 6/71/48 1/72/48
f 41/49/49 8/64/49 3/73/49 36/60/49
f 40/45/50 34/70/50 1/72/50 7/74/50
f 38/75/51 5/76/51 4/63/51 37/48/51
f 35/46/52 2/77/52 5/76/52 38/75/52
f 40/45/53 7/74/53 2/77/53 35/46/53
f 39/61/54 36/60/54 3/73/54 6/71/54
f 46/78/55 43/69/55 35/46/55 38/75/55
f 48/65/56 52/79/56 57/80/56 59/66/56
f 42/68/57 47/62/57 39/61/57 34/70/57
f 54/58/58 50/81/58 51/82/58 55/83/58
f 46/78/59 38/75/59 37/48/59 45/84/59
f 71/35/60 56/85/60 57/80/60 73/52/60
f 8/64/61 4/63/61 85/86/61 86/87/61
f 50/81/62 54/58/62 63/57/62 62/50/62
f 58/47/62 35/46/62 43/69/62 56/85/62
f 49/67/62 58/47/62 56/85/62 53/88/62
f 62/50/62 63/57/62 45/84/62 37/48/62
f 63/57/63 60/89/63 44/59/63 45/84/63
f 53/88/64 52/79/64 48/65/64 49/67/64
f 61/90/56 36/60/56 44/59/56 60/89/56
f 82/91/65 1/72/65 6/71/65 83/92/65
f 59/66/56 57/80/56 42/68/56 34/70/56
f 71/35/66 74/34/66 53/88/66 56/85/66
f 67/42/67 54/58/67 55/83/67 68/43/67
f 69/56/68 68/43/68 55/83/68 60/89/68
f 74/34/69 72/53/69 52/79/69 53/88/69
f 51/82/70 50/81/70 62/50/70 61/90/70
f 51/82/56 61/90/56 60/89/56 55/83/56
f 73/52/71 57/80/71 52/79/71 72/53/71
f 78/37/72 45/84/72 44/59/72 77/38/72
f 76/40/73 43/69/73 46/78/73 75/41/73
f 69/56/74 60/89/74 63/57/74 70/55/74
f 80/54/75 79/51/75 47/62/75 42/68/75
f 78/37/76 75/41/76 46/78/76 45/84/76
f 5/76/77 2/77/77 88/93/77 81/94/77
f 88/93/78 2/77/78 7/74/78 87/95/78
f 61/90/79 62/50/79 41/49/79 36/60/79
f 84/96/80 3/73/80 8/64/80 86/87/80
f 6/71/81 3/73/81 84/96/81 83/92/81
f 85/86/82 4/63/82 5/76/82 81/94/82
f 59/66/83 34/70/83 40/45/83 58/47/83
f 7/74/84 1/72/84 82/91/84 87/95/84
f 56/85/85 43/69/85 42/68/85 57/80/85
