# Blender v3.0.0 OBJ File: 'Blender Medieval Village Megapack Low Poly .blend'
# www.blender.org
mtllib Plank_2.mtl
o Plank_2
v -0.886382 0.070426 -0.145268
v 0.883717 0.070426 -0.157122
v 0.888229 0.070427 0.138648
v -0.886234 0.070427 0.163741
v -0.895065 -0.012158 -0.145264
v 0.893049 -0.012158 -0.157126
v 0.897603 -0.012158 0.138644
v -0.894917 -0.012158 0.163746
vt 0.800971 0.524807
vt 0.800971 0.524799
vt 0.800972 0.524799
vt 0.800972 0.524807
vt 0.800969 0.524799
vt 0.800969 0.524807
vt 0.800969 0.524804
vt 0.800970 0.524807
vn -0.0000 -1.0000 0.0000
vn -0.0067 -0.0000 -1.0000
vn 0.9935 0.1125 -0.0152
vn 0.0000 1.0000 -0.0000
vn 0.0141 0.0001 0.9999
vn -0.9945 0.1046 0.0005
g Plank_2_Plank_2_CollorMaterial
usemtl CollorMaterial
s off
f 7/1/1 8/2/1 5/3/1 6/4/1
f 5/3/2 1/5/2 2/6/2 6/4/2
f 6/4/3 2/6/3 3/7/3 7/1/3
f 1/5/4 4/8/4 3/7/4 2/6/4
f 8/2/5 7/1/5 3/7/5 4/8/5
f 5/3/6 8/2/6 4/8/6 1/5/6
