# Blender v3.0.0 OBJ File: 'Blender Medieval Village Megapack Low Poly .blend'
# www.blender.org
mtllib Plate.mtl
o Plate
v -0.000021 0.000675 -0.264757
v -0.187779 -0.000376 -0.187796
v -0.264843 0.000317 0.000424
v -0.187739 0.000156 0.187745
v 0.000200 0.000106 0.265899
v 0.187263 0.000949 0.187177
v 0.265767 0.001490 0.001010
v 0.190031 -0.001544 -0.189014
v 0.000551 0.042758 -0.292136
v -0.210500 0.037484 -0.199721
v -0.290795 0.043680 -0.000187
v -0.204969 0.044587 0.204639
v 0.000119 0.043423 0.289122
v 0.187989 0.044927 0.208305
v 0.292012 0.042242 -0.001018
v 0.232057 0.037014 -0.199579
v 0.000302 0.045573 -0.325388
v -0.229761 0.042743 -0.229941
v -0.324151 0.044386 -0.000285
v -0.228442 0.043436 0.227856
v -0.001488 0.038559 0.326014
v 0.228236 0.047127 0.226360
v 0.324474 0.045571 -0.000213
v 0.234621 0.048086 -0.235130
v -0.000106 0.015516 -0.257459
v -0.182856 0.014845 -0.182639
v -0.257725 0.015377 0.000273
v -0.181806 0.015712 0.181783
v 0.000003 0.014902 0.258439
v 0.181230 0.015812 0.181602
v 0.258786 0.014841 0.000473
v 0.182538 0.014953 -0.182720
v 0.000098 0.058865 -0.286064
v -0.206701 0.053217 -0.196255
v -0.286160 0.059395 -0.000060
v -0.000169 0.059469 0.285496
v 0.184426 0.060616 0.204682
v 0.284991 0.059725 -0.000395
v 0.197573 0.056301 -0.206051
v -0.000050 0.061554 -0.323074
v -0.323201 0.060889 0.000059
v -0.228482 0.059994 0.228515
v 0.227669 0.063714 0.226347
v 0.323124 0.061195 0.000083
v 0.232097 0.065568 -0.232878
v -0.001626 0.045526 0.326310
v 0.141084 0.060451 0.264268
v -0.001391 0.056768 0.318331
v -0.009711 0.055057 0.323430
v -0.214029 0.060417 0.214035
v -0.185870 0.061296 0.207927
v -0.194650 0.047575 0.194649
v -0.207877 0.060687 0.185857
v -0.229374 0.048308 -0.229517
v -0.233372 0.059182 -0.217452
v -0.206977 0.054018 -0.196389
v -0.217398 0.059286 -0.233230
vt 0.960669 0.052042
vt 0.960669 0.052042
vt 0.960669 0.052042
vt 0.960669 0.052042
vt 0.960669 0.052042
vt 0.960669 0.052042
vt 0.960669 0.052042
vt 0.960669 0.052042
vt 0.960669 0.052042
vt 0.960669 0.052042
vt 0.960669 0.052042
vt 0.960669 0.052042
vt 0.960669 0.052042
vt 0.960669 0.052042
vt 0.960669 0.052042
vt 0.960669 0.052042
vt 0.960669 0.052042
vt 0.960669 0.052042
vt 0.960669 0.052042
vt 0.960669 0.052042
vt 0.960669 0.052042
vt 0.960669 0.052042
vt 0.960669 0.052042
vt 0.960669 0.052042
vt 0.960669 0.052042
vt 0.960669 0.052042
vt 0.960669 0.052042
vt 0.960669 0.052042
vt 0.960669 0.052042
vt 0.960669 0.052042
vt 0.960669 0.052042
vt 0.960669 0.052042
vt 0.960669 0.052042
vt 0.960669 0.052042
vt 0.960669 0.052042
vt 0.960669 0.052042
vt 0.960669 0.052042
vt 0.960669 0.052042
vt 0.960669 0.052042
vt 0.960669 0.052042
vt 0.960669 0.052042
vt 0.960669 0.052042
vt 0.960669 0.052042
vt 0.960669 0.052042
vt 0.960669 0.052042
vt 0.960669 0.052042
vt 0.960669 0.052042
vt 0.960669 0.052042
vt 0.960669 0.052042
vt 0.960669 0.052042
vt 0.960669 0.052042
vt 0.960669 0.052042
vt 0.960669 0.052042
vt 0.960669 0.052042
vt 0.960669 0.052042
vt 0.960669 0.052042
vt 0.960669 0.052042
vn 0.0010 1.0000 -0.0011
vn 0.1021 -0.9948 -0.0046
vn -0.0491 -0.9899 -0.1327
vn -0.8172 -0.4651 0.3404
vn 0.4007 0.0144 0.9161
vn 0.7635 0.4815 -0.4304
vn -0.1565 0.9848 0.0752
vn 0.9326 0.2835 -0.2233
vn -0.1649 0.7383 -0.6540
vn 0.5167 0.7141 -0.4724
vn -0.0534 0.9979 -0.0361
vn 0.2836 0.5511 0.7848
vn 0.3585 0.5353 0.7648
vn -0.3837 -0.0468 0.9223
vn 0.6449 0.7498 0.1480
vn -0.0251 0.9997 0.0041
vn -0.6011 0.7495 0.2772
vn -0.3741 0.0962 -0.9224
vn -0.0058 1.0000 -0.0053
vn -0.0017 1.0000 -0.0011
vn -0.0003 0.9999 0.0112
vn 0.0071 1.0000 -0.0023
vn 0.0085 -0.9999 0.0072
vn -0.0214 -0.9995 0.0245
vn 0.0021 -1.0000 -0.0057
vn 0.0021 -1.0000 -0.0017
vn -0.8420 0.3726 -0.3901
vn -0.9219 0.0737 -0.3803
vn 0.0698 -0.9783 -0.1951
vn -0.0631 0.9865 0.1508
vn 0.0022 -1.0000 -0.0003
vn -0.3144 0.5367 0.7830
vn 0.0294 0.9931 0.1133
vn -0.3435 -0.4457 0.8267
vn -0.0480 0.9984 -0.0297
vn 0.5388 -0.8146 -0.2148
vn 0.0458 -0.9988 0.0196
vn -0.1269 0.9905 0.0538
vn -0.3344 -0.4888 -0.8057
vn 0.8470 -0.3582 0.3928
vn -0.8093 0.4815 0.3365
vn 0.4012 -0.0311 0.9155
vn 0.3981 -0.0056 0.9173
vn -0.0314 -0.9927 -0.1166
vn 0.7966 0.5021 -0.3366
vn 0.0067 -1.0000 -0.0029
vn 0.7790 0.5464 0.3075
vn -0.3522 0.4670 -0.8111
vn -0.3979 -0.0461 0.9163
vn 0.3566 -0.4253 0.8318
vn -0.0348 0.9937 0.1068
vn -0.0318 0.9995 -0.0026
vn -0.0026 0.9983 0.0578
vn 0.3286 0.5068 0.7970
vn 0.3051 -0.5326 -0.7894
vn -0.7928 -0.5233 -0.3124
vn 0.4173 0.4798 -0.7718
vn -0.9169 0.0933 -0.3879
vn -0.3813 0.1133 -0.9175
vn -0.0998 -0.9948 -0.0225
vn 0.0655 -0.9971 0.0398
vn 0.8698 0.3567 0.3410
vn 0.0240 -0.9957 -0.0896
vn 0.3545 0.1563 -0.9219
vn -0.0073 1.0000 -0.0026
vn 0.0054 0.9966 0.0822
vn -0.9228 0.0137 0.3849
vn 0.3404 0.4897 -0.8027
vn 0.9248 0.1356 -0.3555
vn 0.7175 -0.6552 -0.2366
vn 0.0402 0.9989 -0.0239
vn -0.0137 0.9999 0.0096
vn 0.0970 0.9950 0.0226
vn 0.9198 0.0513 0.3889
g Plate_Plate_Metal2
usemtl Metal2
s off
f 30/1/1 32/2/1 25/3/1 28/4/1
f 16/5/2 23/6/2 15/7/2
f 14/8/3 21/9/3 13/10/3
f 12/11/4 11/12/4 3/13/4 4/14/4
f 22/15/5 43/16/5 47/17/5
f 53/18/6 52/19/6 28/4/6
f 49/20/7 48/21/7 36/22/7
f 57/23/8 56/24/8 34/25/8
f 50/26/9 51/27/9 52/19/9
f 54/28/10 55/29/10 56/24/10
f 47/17/11 43/16/11 37/30/11
f 46/31/12 47/17/12 48/21/12
f 46/31/13 48/21/13 49/20/13
f 21/9/14 46/31/14 49/20/14
f 50/26/15 52/19/15 53/18/15
f 42/32/16 50/26/16 53/18/16
f 54/28/17 56/24/17 57/23/17
f 18/33/18 54/28/18 57/23/18
f 25/3/19 26/34/19 27/35/19
f 27/35/20 28/4/20 25/3/20
f 28/4/21 29/36/21 30/1/21
f 30/1/22 31/37/22 32/2/22
f 3/13/23 2/38/23 1/39/23
f 1/39/24 8/40/24 7/41/24
f 6/42/25 5/43/25 4/14/25
f 3/13/26 6/42/26 4/14/26
f 38/44/27 31/37/27 30/1/27 37/30/27
f 19/45/28 41/46/28 55/29/28 18/33/28
f 24/47/29 16/5/29 9/48/29 17/49/29
f 40/50/30 33/51/30 39/52/30 45/53/30
f 7/41/31 6/42/31 3/13/31 1/39/31
f 25/3/32 32/2/32 39/52/32 33/51/32
f 33/51/33 40/50/33 57/23/33 34/25/33
f 13/10/34 12/11/34 4/14/34 5/43/34
f 38/44/35 37/30/35 43/16/35 44/54/35
f 16/5/36 24/47/36 23/6/36
f 14/8/37 22/15/37 21/9/37
f 45/53/38 39/52/38 38/44/38 44/54/38
f 9/48/39 1/39/39 2/38/39 10/55/39
f 15/7/40 14/8/40 6/42/40 7/41/40
f 32/2/41 31/37/41 38/44/41 39/52/41
f 46/31/42 21/9/42 47/17/42
f 21/9/43 22/15/43 47/17/43
f 18/33/44 17/49/44 9/48/44 10/55/44
f 27/35/45 35/56/45 53/18/45 28/4/45
f 20/57/46 19/45/46 11/12/46 12/11/46
f 27/35/47 26/34/47 34/25/47 35/56/47
f 37/30/48 30/1/48 29/36/48 36/22/48
f 20/57/49 21/9/49 49/20/49 42/32/49
f 14/8/50 13/10/50 5/43/50 6/42/50
f 36/22/51 51/27/51 49/20/51
f 51/27/52 50/26/52 42/32/52
f 49/20/53 51/27/53 42/32/53
f 26/34/54 25/3/54 33/51/54 34/25/54
f 9/48/55 16/5/55 8/40/55 1/39/55
f 10/55/56 2/38/56 3/13/56 11/12/56
f 28/4/57 52/19/57 51/27/57
f 54/28/58 18/33/58 55/29/58
f 17/49/59 18/33/59 57/23/59 40/50/59
f 19/45/60 18/33/60 10/55/60 11/12/60
f 22/15/61 14/8/61 15/7/61 23/6/61
f 35/56/62 34/25/62 56/24/62
f 21/9/63 20/57/63 12/11/63 13/10/63
f 45/53/64 24/47/64 17/49/64 40/50/64
f 37/30/65 36/22/65 47/17/65
f 36/22/66 48/21/66 47/17/66
f 41/46/67 19/45/67 20/57/67 42/32/67
f 51/27/68 36/22/68 29/36/68 28/4/68
f 45/53/69 44/54/69 23/6/69 24/47/69
f 16/5/70 15/7/70 7/41/70 8/40/70
f 53/18/71 35/56/71 41/46/71
f 41/46/72 42/32/72 53/18/72
f 55/29/73 41/46/73 35/56/73 56/24/73
f 44/54/74 43/16/74 22/15/74 23/6/74
