# Blender v3.0.0 OBJ File: 'Blender Medieval Village Megapack Low Poly .blend'
# www.blender.org
mtllib Pointer_1.mtl
o Pointer_1
v 0.000245 -0.000000 -0.170370
v -0.002425 2.387056 -0.124995
v 0.150947 -0.000000 -0.083362
v 0.082443 2.455585 -0.082148
v 0.150947 0.000000 0.090654
v 0.082089 2.407684 0.023996
v 0.000245 0.000000 0.177662
v -0.006254 2.472990 0.064794
v -0.150457 0.000000 0.090654
v -0.090401 2.404529 0.022385
v -0.150457 -0.000000 -0.083362
v -0.090023 2.452323 -0.084597
v -0.013994 0.940784 -0.096126
v 0.079530 0.940784 -0.058572
v 0.014485 0.940784 0.103417
v -0.086486 0.842697 0.068448
v -0.091092 0.909201 -0.000951
v -0.093093 0.986509 -0.034223
v -0.057346 0.940784 -0.062107
v -0.129065 0.351972 -0.064860
v 0.087626 1.048249 0.001967
v 0.091378 1.526963 0.045229
v 0.061382 1.047827 0.067008
v 0.097301 1.037623 0.045982
v -0.766012 2.007771 0.005057
v -0.026255 1.998629 0.010345
v -0.020486 2.291857 0.005057
v -1.027259 2.149814 0.005057
v -0.766012 2.007771 -0.035356
v -0.020486 2.007771 -0.035356
v -0.766012 2.291857 -0.035356
v -0.020486 2.291857 -0.035356
v -1.027259 2.149814 -0.035356
v -0.596772 2.026247 -0.005246
v -0.553612 2.291857 0.005057
v -0.583003 2.018987 -0.035356
v -0.553612 2.291857 -0.035356
v -0.421928 2.007771 0.005057
v -0.421928 2.007771 -0.035356
v -0.427697 2.282716 0.010345
v -0.421928 2.291857 -0.035356
v -0.462507 2.267333 0.004589
v -0.464617 2.265848 -0.035356
v -0.462507 2.009255 0.004589
v -0.464617 2.007771 -0.035356
v -0.971731 2.180005 0.005057
v -0.766012 2.291857 -0.024195
v -0.679933 2.291857 0.005057
v -0.779781 2.234440 -0.005247
v 0.042268 1.913827 0.739683
v 0.027099 1.917603 -0.004525
v 0.042269 2.162204 0.739683
v 0.040059 2.165980 -0.007470
v -0.013315 1.917603 -0.004525
v -0.023297 2.165581 0.741409
v -0.013315 2.165980 -0.004525
v -0.013315 2.041792 0.962809
v 0.029378 1.913956 0.559649
v 0.029378 2.179434 0.526943
v -0.015594 2.179434 0.526943
v 0.038702 1.925943 0.182261
v -0.011958 1.925943 0.185206
v 0.025741 2.157639 0.185206
v -0.020669 2.158441 0.184786
v -0.013315 2.170099 0.439605
v 0.027099 1.917603 0.439605
v -0.022026 1.918405 0.439186
v 0.009053 2.170099 0.439605
v 0.027003 2.169218 0.421610
v 0.027099 2.069804 0.439605
v 0.027563 2.172002 0.457410
v 0.027099 2.033826 0.948581
v 0.008403 2.041792 0.962809
v 0.027099 2.049759 0.948581
v -0.013315 1.929676 0.741001
v -0.019016 1.923855 0.756133
v 0.005063 1.917603 0.741001
v -0.019874 1.915136 0.558913
v 0.775380 1.893950 -0.060624
v 0.029855 1.893950 -0.060624
v 0.029855 2.230428 -0.060624
v 1.036628 2.062189 -0.060625
v 0.775380 1.893950 -0.020211
v 0.029855 1.893950 -0.020210
v 0.782391 2.225210 -0.013766
v 0.029855 2.230428 -0.020211
v 1.036628 2.062189 -0.020211
v 0.592371 1.907235 -0.060624
v 0.562980 2.230428 -0.060625
v 0.599383 1.902017 -0.013765
v 0.562980 2.230428 -0.020211
v 0.431296 1.893950 -0.060624
v 0.450278 1.888839 -0.009867
v 0.396396 2.196756 -0.075292
v 0.415377 2.191645 -0.024535
v 0.981100 2.097948 -0.060625
v 0.775380 2.230428 -0.050306
v -0.017728 1.787153 -0.796567
v -0.017728 1.787153 -0.051042
v -0.017728 2.081336 -0.051042
v 0.022685 1.787153 -0.051042
v 0.042228 2.074963 -0.768427
v 0.022685 2.081336 -0.051042
v 0.022685 1.934244 -1.018376
v -0.020007 1.782833 -0.615216
v -0.020007 2.097270 -0.582510
v 0.024964 2.097270 -0.582510
v -0.016371 1.797032 -0.240773
v 0.021328 1.797032 -0.240773
v -0.016371 2.071458 -0.240773
v 0.028067 2.071458 -0.228099
v 0.022685 2.086214 -0.495172
v -0.017728 1.787153 -0.495172
v 0.029424 1.787153 -0.482498
v -0.013309 2.074815 -0.495125
v -0.017729 1.924808 -1.004148
v 0.000967 1.934244 -1.018376
v 0.035960 1.809431 -0.760816
v 0.028953 1.782076 -0.818165
v 0.004307 1.787153 -0.796567
v 0.024964 1.782833 -0.615216
v -0.017729 1.943680 -1.004148
v -0.008087 2.081336 -0.796568
v -0.017729 2.066866 -0.796567
vt 0.224058 0.925660
vt 0.224058 0.925660
vt 0.224058 0.925660
vt 0.224058 0.925660
vt 0.224058 0.925660
vt 0.224058 0.925660
vt 0.224058 0.925660
vt 0.224058 0.925660
vt 0.224058 0.925660
vt 0.224058 0.925660
vt 0.224058 0.925660
vt 0.224058 0.925660
vt 0.224058 0.925660
vt 0.224058 0.925660
vt 0.224058 0.925660
vt 0.224058 0.925660
vt 0.224058 0.925660
vt 0.224058 0.925660
vt 0.224058 0.925660
vt 0.224058 0.925660
vt 0.224058 0.925660
vt 0.224058 0.925660
vt 0.224058 0.925660
vt 0.224058 0.925660
vt 0.224058 0.925660
vt 0.224058 0.925660
vt 0.224058 0.925660
vt 0.224058 0.925660
vt 0.224058 0.925660
vt 0.224058 0.925660
vt 0.224058 0.925660
vt 0.224058 0.925660
vt 0.224058 0.925660
vt 0.224058 0.925660
vt 0.224058 0.925660
vt 0.224058 0.925660
vt 0.224058 0.925660
vt 0.224058 0.925660
vt 0.224058 0.925660
vt 0.224058 0.925660
vt 0.224058 0.925660
vt 0.224058 0.925660
vt 0.224058 0.925660
vt 0.224058 0.925660
vt 0.224058 0.925660
vt 0.224058 0.925660
vt 0.224058 0.925660
vt 0.224058 0.925660
vt 0.224058 0.925660
vt 0.224058 0.925660
vt 0.224058 0.925660
vt 0.224058 0.925660
vt 0.224058 0.925660
vt 0.224058 0.925660
vt 0.224058 0.925660
vt 0.224058 0.925660
vt 0.224058 0.925660
vt 0.224058 0.925660
vt 0.224058 0.925660
vt 0.224058 0.925660
vt 0.224058 0.925660
vt 0.224058 0.925660
vt 0.224058 0.925660
vt 0.224058 0.925660
vt 0.224058 0.925660
vt 0.224058 0.925660
vt 0.224058 0.925660
vt 0.224058 0.925660
vt 0.224058 0.925660
vt 0.224058 0.925660
vt 0.224058 0.925660
vt 0.224058 0.925660
vt 0.224058 0.925660
vt 0.224058 0.925660
vt 0.224058 0.925660
vt 0.224058 0.925660
vt 0.224058 0.925660
vt 0.224058 0.925660
vt 0.224058 0.925660
vt 0.224058 0.925660
vt 0.224058 0.925660
vt 0.224058 0.925660
vt 0.224058 0.925660
vt 0.224058 0.925660
vt 0.224058 0.925660
vt 0.224058 0.925660
vt 0.224058 0.925660
vt 0.224058 0.925660
vt 0.224058 0.925660
vt 0.224058 0.925660
vt 0.224058 0.925660
vt 0.224058 0.925660
vt 0.224058 0.925660
vt 0.224058 0.925660
vt 0.224058 0.925660
vt 0.224058 0.925660
vt 0.087731 0.919289
vt 0.087731 0.919289
vt 0.087731 0.919289
vt 0.087731 0.919289
vt 0.087731 0.919289
vt 0.087731 0.919289
vt 0.087731 0.919289
vt 0.087731 0.919289
vt 0.087731 0.919289
vt 0.087731 0.919289
vt 0.087731 0.919289
vt 0.087731 0.919289
vt 0.087731 0.919289
vt 0.087731 0.919289
vt 0.087731 0.919289
vt 0.087731 0.919289
vt 0.087731 0.919289
vt 0.087731 0.919289
vt 0.087731 0.919289
vt 0.087731 0.919289
vt 0.087731 0.919289
vt 0.087731 0.919289
vt 0.087731 0.919289
vt 0.087731 0.919289
vt 0.087731 0.919289
vt 0.087731 0.919289
vt 0.087731 0.919289
vt 0.087731 0.919289
vt 0.087731 0.919289
vt 0.087731 0.919289
vt 0.087731 0.919289
vt 0.087731 0.919289
vt 0.087731 0.919289
vt 0.087731 0.919289
vt 0.087731 0.919289
vt 0.087731 0.919289
vt 0.087731 0.919289
vt 0.087731 0.919289
vt 0.087731 0.919289
vt 0.087731 0.919289
vt 0.087731 0.919289
vt 0.087731 0.919289
vt 0.087731 0.919289
vt 0.087731 0.919289
vt 0.087731 0.919289
vt 0.087731 0.919289
vt 0.087731 0.919289
vt 0.087731 0.919289
vt 0.087731 0.919289
vt 0.087731 0.919289
vt 0.087731 0.919289
vt 0.087731 0.919289
vt 0.087731 0.919289
vt 0.087731 0.919289
vt 0.087731 0.919289
vt 0.087731 0.919289
vt 0.087731 0.919289
vt 0.087731 0.919289
vt 0.087731 0.919289
vt 0.087731 0.919289
vt 0.087731 0.919289
vt 0.087731 0.919289
vt 0.087731 0.919289
vt 0.087731 0.919289
vt 0.087731 0.919289
vt 0.087731 0.919289
vt 0.087731 0.919289
vt 0.087731 0.919289
vt 0.087731 0.919289
vt 0.087731 0.919289
vt 0.087731 0.919289
vt 0.087731 0.919289
vt 0.087731 0.919289
vt 0.087731 0.919289
vt 0.087731 0.919289
vt 0.087731 0.919289
vt 0.087731 0.919289
vt 0.087731 0.919289
vt 0.087731 0.919289
vt 0.087731 0.919289
vt 0.087731 0.919289
vt 0.087731 0.919289
vt 0.087731 0.919289
vt 0.087731 0.919289
vt 0.087731 0.919289
vt 0.087731 0.919289
vt 0.087731 0.919289
vt 0.087731 0.919289
vt 0.087731 0.919289
vt 0.087731 0.919289
vt 0.087731 0.919289
vt 0.087731 0.919289
vt 0.087731 0.919289
vt 0.087731 0.919289
vt 0.087731 0.919289
vt 0.087731 0.919289
vt 0.087731 0.919289
vt 0.087731 0.919289
vt 0.087731 0.919289
vt 0.087731 0.919289
vt 0.087731 0.919289
vt 0.087731 0.919289
vt 0.087731 0.919289
vt 0.087731 0.919289
vt 0.087731 0.919289
vt 0.087731 0.919289
vt 0.087731 0.919289
vt 0.087731 0.919289
vt 0.087731 0.919289
vt 0.087731 0.919289
vt 0.087731 0.919289
vt 0.087731 0.919289
vt 0.087731 0.919289
vt 0.087731 0.919289
vt 0.087731 0.919289
vt 0.087731 0.919289
vt 0.087731 0.919289
vt 0.087731 0.919289
vt 0.087731 0.919289
vt 0.087731 0.919289
vt 0.087731 0.919289
vt 0.087731 0.919289
vt 0.087731 0.919289
vt 0.087731 0.919289
vn -0.0071 0.0326 0.9994
vn -1.0000 -0.0000 -0.0072
vn 0.0000 -0.0000 -1.0000
vn 0.0400 0.0478 0.9981
vn -1.0000 -0.0000 -0.0053
vn -0.9990 0.0050 0.0437
vn -0.9997 -0.0181 -0.0158
vn -0.0803 -0.0108 0.9967
vn 0.0000 -0.0388 0.9992
vn -0.0201 -0.0240 -0.9995
vn 0.9971 -0.0337 -0.0677
vn 1.0000 0.0000 0.0053
vn -1.0000 0.0079 -0.0035
vn -0.4854 -0.7390 -0.4672
vn -0.9997 0.0251 -0.0013
vn 0.9999 -0.0121 0.0110
vn 0.0474 -0.0185 -0.9987
vn 0.9978 -0.0042 -0.0657
vn 0.0000 0.0000 1.0000
vn 0.9997 -0.0000 -0.0261
vn -0.9999 -0.0116 -0.0029
vn 0.0127 -0.0197 0.9997
vn -0.0304 0.0306 -0.9991
vn 0.9991 0.0335 0.0263
vn -0.9999 0.0006 -0.0116
vn 0.9999 0.0113 -0.0096
vn 0.0266 0.0168 -0.9995
vn -1.0000 -0.0000 0.0000
vn -0.9998 -0.0172 0.0087
vn 0.9974 -0.0000 0.0724
vn 0.9963 -0.0144 0.0847
vn -0.0062 0.0226 0.9997
vn -0.0445 -0.0160 0.9989
vn 1.0000 0.0000 0.0072
vn 0.0000 0.8725 0.4886
vn 1.0000 -0.0000 -0.0053
vn 0.9998 0.0000 -0.0190
vn 0.9997 -0.0028 -0.0226
vn 0.0000 0.8334 -0.5527
vn 0.0869 -0.9891 0.1188
vn 0.9267 -0.0410 0.3736
vn 0.5175 0.0635 0.8533
vn -0.3502 0.0267 0.9363
vn -0.7802 -0.2642 -0.5670
vn -0.5303 0.0587 -0.8458
vn 0.4409 0.8218 -0.3609
vn 0.0021 0.5283 -0.8491
vn -0.6880 0.6635 0.2940
vn -0.0231 0.9113 0.4112
vn -1.0000 0.0020 -0.0026
vn -0.4991 0.0607 0.8644
vn 0.9999 0.0107 0.0082
vn 0.4554 0.0286 0.8898
vn -0.8933 0.1108 -0.4357
vn -0.9916 0.0541 0.1176
vn 0.3489 0.9256 0.1468
vn 0.9779 0.0417 -0.2049
vn -0.2998 0.3630 0.8822
vn 0.5414 -0.8407 0.0000
vn -0.4777 0.8785 0.0000
vn -0.0047 -0.9994 0.0343
vn 0.0000 -0.9986 -0.0520
vn -0.1929 -0.8012 -0.5665
vn -0.0179 -0.9997 0.0189
vn 0.0000 1.0000 0.0000
vn -0.1144 -0.9880 0.1043
vn 0.0095 0.9977 0.0668
vn 0.0080 0.9985 -0.0536
vn 0.0924 0.9918 -0.0881
vn 0.0827 -0.9885 -0.1266
vn -0.0405 0.3219 0.9459
vn 0.0316 0.9969 0.0721
vn 0.2233 0.8263 -0.5170
vn -0.1456 0.9887 0.0350
vn 0.0000 0.9943 -0.1063
vn 0.4533 0.0674 -0.8888
vn 0.7054 0.1269 0.6974
vn -0.0055 -0.9985 -0.0548
vn 0.0098 0.9988 -0.0474
vn 0.6814 0.1226 -0.7215
vn 0.6056 0.0000 0.7957
vn -0.5470 -0.8327 0.0862
vn -0.0059 -0.9992 0.0397
vn -0.0107 -0.9943 -0.1063
vn 0.5398 0.8418 0.0031
vn 0.0014 -0.9990 0.0442
vn -0.0571 -0.9983 0.0124
vn -0.0603 -0.9967 -0.0547
vn -0.4737 0.8788 0.0583
vn 0.0345 0.8759 0.4813
vn -0.0000 -0.9997 -0.0238
vn -0.8290 0.5524 -0.0873
vn -0.0198 -0.9994 -0.0285
vn -0.5328 -0.0203 -0.8460
vn 0.1718 -0.8972 0.4069
vn 0.2700 0.9625 -0.0249
vn -0.0037 -0.8679 0.4968
vn 0.0091 0.9991 0.0420
vn -0.2294 0.9680 0.1020
vn 0.0967 0.9947 0.0356
vn -0.1368 0.9722 0.1899
vn -0.6056 0.0000 -0.7958
vn -0.0088 -0.9995 -0.0314
vn 0.6399 -0.7630 -0.0911
vn -0.0106 0.9944 0.1049
vn -0.7905 0.5267 -0.3126
vn 0.4991 0.0607 0.8644
vn -0.4604 0.0161 0.8875
vn -0.4986 0.0757 -0.8635
vn -0.6154 0.0786 -0.7843
vn -0.9975 0.0046 0.0706
vn -0.9980 -0.0006 0.0633
vn -0.6173 -0.0029 -0.7867
vn -0.3933 0.0782 0.9161
vn 0.9900 0.0050 -0.1413
vn 0.9955 -0.0034 -0.0945
vn 0.6173 -0.0029 0.7867
vn 0.4351 0.0263 0.9000
vn -0.9982 0.0607 -0.0000
vn -0.9964 0.0766 0.0363
vn 0.9971 0.0757 -0.0000
vn 0.4166 -0.0181 -0.9089
vn 0.0000 -0.8725 0.4885
vn -0.0886 -0.9624 0.2566
vn 0.0000 0.9988 -0.0489
vn 0.5419 0.8403 0.0160
vn 0.5414 0.8407 0.0000
vn 0.0000 -0.8334 -0.5527
vn 0.0000 -0.9735 0.2288
vn -0.4777 -0.8785 0.0000
g Pointer_1_Pointer_1_CollorMaterial
usemtl CollorMaterial
s off
f 95/1/1 93/2/1 90/3/1 91/4/1
f 100/5/2 110/6/2 108/7/2 99/8/2
f 29/9/3 33/10/3 31/11/3
f 25/12/4 49/13/4 46/14/4
f 64/15/5 62/16/5 67/17/5 65/18/5
f 115/19/6 106/20/6 105/21/6 113/22/6
f 56/23/7 54/24/7 62/16/7 64/15/7
f 38/25/8 40/26/8 42/27/8 44/28/8
f 48/29/9 34/30/9 35/31/9
f 80/32/10 81/33/10 94/34/10 92/35/10
f 118/36/11 119/37/11 104/38/11 102/39/11
f 111/40/12 109/41/12 114/42/12 112/43/12
f 108/7/13 110/6/13 115/19/13 113/22/13
f 75/44/14 77/45/14 76/46/14
f 60/47/15 65/18/15 67/17/15 78/48/15
f 111/40/16 103/49/16 101/50/16 109/41/16
f 94/34/17 89/51/17 88/52/17 92/35/17
f 58/53/18 59/54/18 52/55/18 50/56/18
f 27/57/19 40/26/19 38/25/19 26/58/19
f 59/54/20 70/59/20 71/60/20
f 55/61/21 60/47/21 78/48/21 75/44/21
f 43/62/3 45/63/3 36/64/3 37/65/3
f 83/66/22 87/67/22 85/68/22
f 79/69/23 97/70/23 96/71/23
f 43/62/3 41/72/3 39/73/3 45/63/3
f 70/59/24 66/74/24 61/75/24 63/76/24
f 34/30/19 48/29/19 49/13/19 25/12/19
f 105/21/25 106/20/25 124/77/25 98/78/25
f 112/43/26 114/42/26 121/79/26 107/80/26
f 88/52/27 89/51/27 97/70/27 79/69/27
f 31/11/3 37/65/3 36/64/3 29/9/3
f 124/77/28 122/81/28 116/82/28 98/78/28
f 55/61/29 75/44/29 76/46/29 57/83/29
f 52/55/30 74/84/30 72/85/30 50/56/30
f 102/39/31 107/80/31 121/79/31 118/36/31
f 95/1/32 86/86/32 84/87/32 93/2/32
f 85/68/19 91/4/19 90/3/19 83/66/19
f 42/27/33 35/31/33 34/30/33 44/28/33
f 53/88/34 63/76/34 61/75/34 51/89/34
f 25/12/19 46/14/19 28/90/19
f 74/84/35 57/83/35 73/91/35
f 70/59/36 63/76/36 69/92/36
f 66/74/37 70/59/37 58/53/37
f 58/53/38 70/59/38 59/54/38
f 79/69/3 96/71/3 82/93/3
f 122/81/39 104/38/39 117/94/39
f 32/95/3 30/96/3 39/73/3 41/72/3
f 29/97/40 36/98/40 34/99/40 25/100/40
f 21/101/41 22/102/41 23/103/41
f 24/104/42 23/103/42 15/105/42
f 15/105/43 10/106/43 16/107/43
f 17/108/44 18/109/44 19/110/44
f 20/111/45 13/112/45 1/113/45
f 8/114/46 6/115/46 12/116/46
f 4/117/47 2/118/47 12/116/47
f 12/116/48 10/106/48 8/114/48
f 6/115/49 4/117/49 12/116/49
f 10/106/50 12/116/50 18/109/50
f 7/119/51 16/107/51 9/120/51
f 4/117/52 6/115/52 22/102/52
f 22/102/53 8/114/53 15/105/53
f 17/108/54 19/110/54 20/111/54
f 16/107/55 17/108/55 20/111/55
f 21/101/56 23/103/56 24/104/56
f 14/121/57 24/104/57 5/122/57
f 47/123/58 49/124/58 48/125/58
f 87/126/59 83/127/59 79/128/59 82/129/59
f 46/130/60 31/131/60 33/132/60
f 121/133/61 114/134/61 113/135/61 105/136/61
f 109/137/62 101/138/62 99/139/62 108/140/62
f 119/141/63 98/142/63 116/143/63 104/144/63
f 39/145/64 38/146/64 44/147/64 45/148/64
f 48/125/65 37/149/65 31/131/65
f 36/98/66 45/148/66 44/147/66 34/99/66
f 91/150/67 85/151/67 97/152/67 89/153/67
f 111/154/68 110/155/68 100/156/68 103/157/68
f 102/158/69 123/159/69 106/160/69 107/161/69
f 93/162/70 92/163/70 88/164/70 90/165/70
f 47/123/71 46/130/71 49/124/71
f 55/166/72 52/167/72 59/168/72 60/169/72
f 123/159/73 102/158/73 104/144/73 122/170/73
f 112/171/74 115/172/74 110/155/74 111/154/74
f 60/169/75 59/168/75 71/173/75 65/174/75
f 1/113/76 13/112/76 14/121/76 3/175/76
f 68/176/77 70/177/77 69/178/77
f 84/179/78 80/180/78 92/163/78 93/162/78
f 69/178/79 63/181/79 64/182/79 65/174/79
f 68/176/80 71/173/80 70/177/80
f 72/183/81 74/184/81 73/185/81
f 75/186/82 78/187/82 77/188/82
f 114/134/83 109/137/83 108/140/83 113/135/83
f 39/145/84 30/189/84 26/190/84 38/146/84
f 96/191/85 85/151/85 87/126/85
f 62/192/86 54/193/86 51/194/86 61/195/86
f 77/188/87 78/187/87 58/196/87 50/197/87
f 90/165/88 88/164/88 79/128/88 83/127/88
f 41/198/89 43/199/89 42/200/89 40/201/89
f 74/184/90 52/167/90 55/166/90 57/202/90
f 120/203/91 121/133/91 105/136/91 98/142/91
f 123/159/92 124/204/92 106/160/92
f 78/187/93 67/205/93 66/206/93 58/196/93
f 18/109/94 12/116/94 2/118/94 13/112/94
f 118/207/95 120/203/95 119/141/95
f 43/199/96 37/149/96 35/208/96 42/200/96
f 76/209/97 50/197/97 72/183/97 57/202/97
f 56/210/98 64/182/98 63/181/98 53/211/98
f 95/212/99 91/150/99 89/153/99 94/213/99
f 94/213/100 81/214/100 86/215/100 95/212/100
f 112/171/101 107/161/101 106/160/101 115/172/101
f 116/143/102 122/170/102 117/216/102
f 62/192/103 61/195/103 66/206/103 67/205/103
f 118/207/104 121/133/104 120/203/104
f 41/198/105 40/201/105 27/217/105 32/218/105
f 123/159/106 122/170/106 124/204/106
f 7/119/107 5/122/107 15/105/107
f 5/122/42 24/104/42 15/105/42
f 15/105/108 8/114/108 10/106/108
f 1/113/109 11/219/109 20/111/109
f 20/111/110 19/110/110 13/112/110
f 17/108/111 16/107/111 18/109/111
f 16/107/112 10/106/112 18/109/112
f 13/112/113 19/110/113 18/109/113
f 7/119/114 15/105/114 16/107/114
f 21/101/115 14/121/115 22/102/115
f 14/121/116 4/117/116 22/102/116
f 15/105/117 23/103/117 22/102/117
f 22/102/118 6/115/118 8/114/118
f 11/219/119 9/120/119 20/111/119
f 9/120/120 16/107/120 20/111/120
f 5/122/121 3/175/121 14/121/121
f 14/121/57 21/101/57 24/104/57
f 31/131/60 46/130/60 47/123/60
f 46/130/60 33/132/60 28/220/60
f 37/149/65 48/125/65 35/208/65
f 48/125/65 31/131/65 47/123/65
f 2/118/122 4/117/122 14/121/122 13/112/122
f 57/202/123 72/183/123 73/185/123
f 50/197/124 76/209/124 77/188/124
f 69/178/125 65/174/125 68/176/125
f 65/174/75 71/173/75 68/176/75
f 85/151/126 96/191/126 97/152/126
f 96/191/127 87/126/127 82/129/127
f 104/144/128 116/143/128 117/216/128
f 98/142/129 119/141/129 120/203/129
f 29/97/130 25/100/130 28/220/130 33/132/130
