# Blender v3.0.0 OBJ File: 'Blender Medieval Village Megapack Low Poly .blend'
# www.blender.org
mtllib Road_Mud_1.mtl
o Road_Mud_1
v -0.089554 0.189403 -1.083699
v -0.534315 0.294762 -0.026201
v 0.563798 0.302490 0.000066
v -0.454290 0.328693 0.991155
v 0.444601 0.293851 0.999407
v -0.583380 0.258626 -1.058132
v 0.417330 0.328470 -1.028067
v 0.501315 0.318969 -0.500487
v -0.435698 0.308491 -0.472364
v -0.536143 0.282138 -1.519482
v 0.499550 0.301561 1.497139
v -0.581531 0.293395 1.492522
v -0.543822 0.293424 0.343836
v 0.568347 0.319422 0.502065
v 0.565610 0.311310 -1.476081
v -0.988424 0.000001 1.998046
v 1.011576 0.000001 1.998046
v -0.969681 -0.000001 -1.971604
v 0.948233 -0.000001 -1.946666
v -0.897618 0.000000 0.020651
v 1.037104 0.015952 -0.066949
v -1.038479 0.000000 0.962116
v 0.016846 0.000001 2.055951
v 0.939553 0.015951 -1.024529
v 0.011576 -0.000001 -2.001954
v -1.080469 -0.000000 -0.989831
v 1.062413 0.015952 1.017917
v -1.082274 0.000001 1.497224
v 0.511576 0.000001 1.998046
v 1.047190 0.015951 -1.514517
v -0.479164 -0.000001 -1.926731
v -0.988424 -0.000000 -0.501954
v 0.917945 0.015952 0.497608
v -0.988424 0.000000 0.498046
v -0.494432 0.000001 1.949491
v 1.058085 0.015951 -0.524702
v 0.498897 -0.000001 -2.032474
v -1.059189 -0.000001 -1.477626
v 1.028928 0.015952 1.493333
v 0.797653 0.164294 -1.495148
v 0.687191 0.221652 -0.017321
v 0.686345 0.222191 -0.017525
v 0.528781 0.136563 -1.770170
v 0.582246 0.222389 -1.026293
v 0.645261 0.246740 0.501495
v -0.276690 0.193797 0.230284
v -0.293248 0.198175 0.372034
v -0.131346 0.181785 -0.007808
v 0.006995 0.146908 -0.000995
v 0.596307 0.216018 1.130752
v 0.646172 0.216018 1.494702
v -0.096919 0.174893 1.516448
v -0.073800 0.192685 0.994696
v -0.517187 0.177432 -1.695528
v -0.126502 0.184651 -1.521906
v 0.713103 0.167914 1.006126
v 0.802783 0.222190 -0.383453
v 0.052082 0.198547 -0.624500
v -0.887868 0.103812 -1.016077
v -0.820531 0.098111 -0.491211
v -0.094413 0.181062 -0.109765
v -0.887144 0.104172 -1.016532
v -0.723539 0.124757 -0.003601
v -0.794048 0.076514 -0.087617
v -0.875869 0.102780 -1.492648
v -0.831020 0.102780 -1.824951
v 0.467257 0.124346 1.781390
v -0.921997 0.098333 1.495142
v 0.140991 0.124346 1.668535
v -0.782151 0.145752 1.747897
v -0.866719 0.101003 0.969924
v -0.535845 0.169109 1.702883
v -0.832312 0.101003 0.650924
v -0.799445 0.088138 0.119095
v -0.102085 0.133402 0.397074
v -0.164938 0.198841 0.722215
v -0.102609 0.133157 0.393335
v 0.093126 0.139547 1.004149
v 0.582443 0.207570 0.860774
v 0.069497 0.142533 -1.526364
v 0.674592 0.217683 -1.339689
v 0.784582 0.140861 -1.818374
v 0.803957 0.169398 1.790966
vt 0.038042 0.931132
vt 0.038042 0.931132
vt 0.038042 0.931132
vt 0.038042 0.931132
vt 0.038042 0.931132
vt 0.038042 0.931132
vt 0.038042 0.931132
vt 0.038042 0.931132
vt 0.038042 0.931132
vt 0.038042 0.931132
vt 0.038042 0.931132
vt 0.038042 0.931132
vt 0.038042 0.931132
vt 0.038042 0.931132
vt 0.038042 0.931132
vt 0.038042 0.931132
vt 0.038042 0.931132
vt 0.038042 0.931132
vt 0.038042 0.931132
vt 0.038042 0.931132
vt 0.038042 0.931132
vt 0.038042 0.931132
vt 0.038042 0.931132
vt 0.038042 0.931132
vt 0.038042 0.931132
vt 0.038042 0.931132
vt 0.038042 0.931132
vt 0.038042 0.931132
vt 0.038042 0.931132
vt 0.038042 0.931132
vt 0.038042 0.931132
vt 0.038042 0.931132
vt 0.038042 0.931132
vt 0.038042 0.931132
vt 0.038042 0.931132
vt 0.038042 0.931132
vt 0.038042 0.931132
vt 0.038042 0.931132
vt 0.038042 0.931132
vt 0.038042 0.931132
vt 0.038042 0.931132
vt 0.038042 0.931132
vt 0.038042 0.931132
vt 0.038042 0.931132
vt 0.038042 0.931132
vt 0.038042 0.931132
vt 0.038042 0.931132
vt 0.038042 0.931132
vt 0.038042 0.931132
vt 0.038042 0.931132
vt 0.038042 0.931132
vt 0.038042 0.931132
vt 0.038042 0.931132
vt 0.038042 0.931132
vt 0.038042 0.931132
vt 0.038042 0.931132
vt 0.038042 0.931132
vt 0.038042 0.931132
vt 0.038042 0.931132
vt 0.038042 0.931132
vt 0.038042 0.931132
vt 0.038042 0.931132
vt 0.038042 0.931132
vt 0.038042 0.931132
vt 0.038042 0.931132
vt 0.038042 0.931132
vt 0.038042 0.931132
vt 0.038042 0.931132
vt 0.224065 0.931466
vt 0.224065 0.931466
vt 0.224065 0.931466
vt 0.224065 0.931466
vt 0.224065 0.931466
vt 0.224065 0.931466
vt 0.224065 0.931466
vt 0.224065 0.931466
vt 0.224065 0.931466
vt 0.224065 0.931466
vt 0.224065 0.931466
vt 0.224065 0.931466
vt 0.224065 0.931466
vt 0.224065 0.931466
vt 0.224065 0.931466
vt 0.224065 0.931466
vt 0.224065 0.931466
vt 0.224065 0.931466
vt 0.224065 0.931466
vt 0.224065 0.931466
vt 0.224065 0.931466
vt 0.224065 0.931466
vt 0.224065 0.931466
vt 0.224065 0.931466
vt 0.224065 0.931466
vt 0.224065 0.931466
vt 0.224065 0.931466
vt 0.224065 0.931466
vt 0.224065 0.931466
vt 0.224065 0.931466
vt 0.224065 0.931466
vt 0.224065 0.931466
vt 0.224065 0.931466
vt 0.224065 0.931466
vt 0.224065 0.931466
vt 0.224065 0.931466
vt 0.224065 0.931466
vt 0.224065 0.931466
vt 0.224065 0.931466
vt 0.224065 0.931466
vt 0.224065 0.931466
vt 0.224065 0.931466
vt 0.224065 0.931466
vt 0.224065 0.931466
vt 0.224065 0.931466
vt 0.224065 0.931466
vt 0.224065 0.931466
vt 0.224065 0.931466
vt 0.224065 0.931466
vt 0.224065 0.931466
vt 0.224065 0.931466
vt 0.224065 0.931466
vt 0.224065 0.931466
vt 0.224065 0.931466
vt 0.224065 0.931466
vt 0.224065 0.931466
vt 0.224065 0.931466
vt 0.224065 0.931466
vt 0.224065 0.931466
vt 0.224065 0.931466
vn 0.5806 0.8084 0.0969
vn -0.5870 0.8073 -0.0607
vn -0.5119 0.8550 -0.0832
vn -0.5020 0.8589 0.1016
vn 0.5418 0.8385 0.0581
vn 0.0161 0.9348 -0.3549
vn 0.5271 0.8353 -0.1563
vn -0.0934 0.9349 -0.3425
vn 0.3220 0.9467 0.0084
vn 0.2264 0.9219 -0.3143
vn 0.4390 0.8980 -0.0283
vn 0.2400 0.9675 0.0801
vn -0.4844 0.8711 0.0811
vn 0.5766 0.8143 0.0669
vn 0.2635 0.8590 0.4391
vn -0.4830 0.8755 -0.0176
vn 0.2409 0.9654 0.0998
vn 0.3065 0.9484 -0.0811
vn -0.5447 0.8351 -0.0774
vn -0.5043 0.8618 -0.0544
vn 0.4953 0.8585 0.1331
vn 0.5152 0.8502 0.1088
vn 0.5391 0.8332 -0.1234
vn 0.3007 0.9526 0.0458
vn 0.2232 0.9700 0.0965
vn 0.0586 0.7966 -0.6017
vn 0.2094 0.9774 -0.0283
vn -0.5172 0.8516 0.0853
vn 0.0000 0.7740 0.6332
vn 0.0244 0.8264 0.5626
vn 0.3455 0.9306 -0.1205
vn 0.3996 0.9099 -0.1110
vn 0.5127 0.8510 0.1136
vn -0.0998 0.8872 -0.4505
vn 0.3317 0.9372 -0.1078
vn 0.2372 0.7891 -0.5666
vn -0.4808 0.8737 -0.0737
vn -0.3064 0.9017 0.3051
vn 0.1254 0.7437 -0.6566
vn 0.3980 0.9170 0.0280
vn 0.0556 0.7922 -0.6078
vn 0.0526 0.8434 0.5347
vn 0.3330 0.9348 -0.1238
vn 0.2901 0.9514 -0.1029
vn 0.5142 0.8502 0.1130
vn 0.6036 0.7959 0.0459
vn 0.4603 0.8814 -0.1065
vn -0.5136 0.8568 -0.0458
vn 0.3541 0.9351 0.0125
vn 0.4251 0.9037 -0.0501
vn 0.5019 0.8622 -0.0688
vn 0.1998 0.8514 -0.4849
vn -0.4878 0.8712 -0.0545
vn 0.5402 0.8386 -0.0709
vn 0.2784 0.9562 0.0905
vn -0.4812 0.8731 0.0783
vn 0.5342 0.8329 0.1449
vn -0.3154 0.9076 0.2770
vn -0.4555 0.8900 -0.0199
vn 0.1611 0.9819 -0.1000
vn -0.3192 0.9470 0.0371
vn 0.4396 0.7389 0.5106
vn -0.4611 0.8873 -0.0078
vn 0.1879 0.8630 0.4691
vn -0.5947 0.8020 -0.0562
vn -0.4806 0.8754 -0.0518
vn 0.1821 0.9830 0.0226
vn 0.2650 0.9602 0.0883
vn 0.6743 0.7121 0.1955
vn -0.0253 0.9256 0.3777
vn 0.2635 0.9581 0.1125
vn -0.2713 0.9605 0.0624
vn 0.3448 0.9312 -0.1180
vn 0.6077 0.7941 -0.0104
vn -0.5536 0.8327 -0.0136
vn 0.2494 0.9628 0.1037
vn -0.1752 0.8443 0.5065
vn 0.3411 0.9338 -0.1081
vn 0.2634 -0.9643 0.0263
vn -0.2403 0.8474 -0.4734
vn 0.5381 0.8311 0.1405
vn -0.3211 0.9188 -0.2296
vn -0.2652 0.9636 -0.0345
vn 0.3768 0.9254 0.0411
vn -0.6307 0.7744 -0.0497
vn -0.2724 0.9602 0.0626
vn 0.2134 0.8221 0.5279
vn -0.2851 0.9552 -0.0789
vn -0.0454 0.9474 0.3167
vn -0.2738 0.9479 -0.1626
vn 0.5436 0.8384 -0.0401
vn -0.4660 0.8831 0.0551
vn 0.3359 0.9375 -0.0912
vn -0.2334 0.9719 -0.0310
vn 0.6569 0.7268 0.2008
vn -0.6713 0.7304 -0.1259
vn -0.1601 0.8342 0.5277
vn -0.5340 0.8450 0.0278
g Road_Mud_1_Road_Mud_1_CollorMaterial
usemtl CollorMaterial
s off
f 36/1/1 57/2/1 42/3/1 21/4/1
f 20/5/2 74/6/2 63/7/2 64/8/2
f 18/9/3 38/10/3 65/11/3 66/12/3
f 16/13/4 70/14/4 68/15/4 28/16/4
f 79/17/5 56/18/5 33/19/5 45/20/5
f 80/21/6 25/22/6 31/23/6 55/24/6
f 24/25/7 44/26/7 57/2/7 36/1/7
f 43/27/8 37/28/8 25/22/8 80/21/8
f 47/29/9 77/30/9 46/31/9
f 82/32/10 43/27/10 15/33/10 40/34/10
f 39/35/11 56/18/11 50/36/11 51/37/11
f 61/38/12 48/39/12 49/40/12
f 32/41/13 60/42/13 59/43/13 26/44/13
f 33/19/14 21/4/14 41/45/14 45/20/14
f 29/46/15 51/37/15 67/47/15
f 26/44/16 62/48/16 65/11/16 38/10/16
f 48/39/17 46/31/17 77/30/17 49/40/17
f 76/49/18 53/50/18 78/51/18
f 20/5/19 34/52/19 73/53/19 74/6/19
f 22/54/20 71/55/20 73/53/20 34/52/20
f 24/25/21 81/56/21 44/26/21
f 21/4/22 42/3/22 41/45/22
f 40/34/23 30/57/23 19/58/23 82/32/23
f 78/51/24 53/50/24 52/59/24
f 61/38/25 49/40/25 58/60/25
f 31/23/26 66/12/26 54/61/26
f 55/24/27 1/62/27 80/21/27
f 32/41/28 20/5/28 64/8/28 60/42/28
f 17/63/29 83/64/29 29/46/29
f 70/14/30 35/65/30 72/66/30
f 75/67/31 76/49/31 78/51/31
f 33/19/32 56/18/32 27/68/32
f 24/25/33 40/34/33 81/56/33
f 82/32/34 37/28/34 43/27/34
f 47/29/35 75/67/35 77/30/35
f 31/23/36 54/61/36 55/24/36
f 59/43/37 62/48/37 26/44/37
f 83/64/38 51/37/38 29/46/38
f 19/58/39 37/28/39 82/32/39
f 39/35/40 27/68/40 56/18/40
f 31/23/41 18/9/41 66/12/41
f 70/14/42 16/13/42 35/65/42
f 75/67/43 47/29/43 76/49/43
f 78/51/44 77/30/44 75/67/44
f 24/25/45 30/57/45 40/34/45
f 17/63/46 39/35/46 83/64/46
f 83/64/47 39/35/47 51/37/47
f 71/55/48 22/54/48 28/16/48 68/15/48
f 46/69/49 13/70/49 47/71/49
f 79/72/50 5/73/50 50/74/50 56/75/50
f 11/76/51 50/74/51 5/73/51
f 10/77/52 55/78/52 54/79/52
f 12/80/53 4/81/53 71/82/53 68/83/53
f 8/84/54 44/85/54 7/86/54
f 52/87/55 53/88/55 4/81/55 12/80/55
f 60/89/56 64/90/56 9/91/56
f 15/92/57 7/86/57 44/85/57 81/93/57
f 72/94/58 12/80/58 68/83/58 70/95/58
f 6/96/59 62/97/59 59/98/59
f 1/99/60 6/96/60 9/91/60 58/100/60
f 5/73/61 14/101/61 77/102/61 78/103/61
f 67/104/62 51/105/62 11/76/62
f 6/96/63 10/77/63 65/106/63 62/97/63
f 52/87/64 12/80/64 72/94/64
f 74/107/65 73/108/65 13/70/65
f 71/82/66 4/81/66 73/108/66
f 55/78/67 10/77/67 6/96/67 1/99/67
f 9/91/68 2/109/68 48/110/68 61/111/68
f 14/101/69 79/72/69 45/112/69
f 23/113/70 29/114/70 67/104/70 69/115/70
f 2/109/71 46/69/71 48/110/71
f 49/116/72 3/117/72 8/84/72 58/100/72
f 44/85/73 8/84/73 57/118/73
f 14/101/74 45/112/74 41/119/74 3/117/74
f 63/120/75 9/91/75 64/90/75
f 61/111/76 58/100/76 9/91/76
f 11/76/77 69/115/77 67/104/77
f 47/71/78 13/70/78 4/81/78 76/121/78
f 77/102/79 14/101/79 75/122/79
f 80/123/80 15/92/80 43/124/80
f 15/92/81 81/93/81 40/125/81
f 10/77/82 54/79/82 66/126/82 65/106/82
f 14/101/83 3/117/83 49/116/83 75/122/83
f 57/118/84 8/84/84 3/117/84 42/127/84
f 13/70/85 2/109/85 63/120/85 74/107/85
f 7/86/86 1/99/86 58/100/86 8/84/86
f 52/87/87 72/94/87 35/128/87
f 5/73/88 78/103/88 52/87/88 11/76/88
f 52/87/89 35/128/89 23/113/89 69/115/89
f 7/86/90 15/92/90 80/123/90 1/99/90
f 46/69/49 2/109/49 13/70/49
f 11/76/51 51/105/51 50/74/51
f 3/117/91 41/119/91 42/127/91
f 60/89/92 9/91/92 6/96/92 59/98/92
f 4/81/93 53/88/93 76/121/93
f 49/116/94 77/102/94 75/122/94
f 14/101/95 5/73/95 79/72/95
f 63/120/96 2/109/96 9/91/96
f 11/76/97 52/87/97 69/115/97
f 73/108/98 4/81/98 13/70/98
