# Blender v3.0.0 OBJ File: 'Blender Medieval Village Megapack Low Poly .blend'
# www.blender.org
mtllib Rock_7.mtl
o Rock_7
v 0.837386 -0.063040 1.006738
v 0.247950 4.097285 0.778753
v -0.581629 -0.068449 0.997989
v -0.646942 3.747762 0.545046
v 0.442655 -0.077959 -0.706768
v -0.582414 -0.069700 -0.973727
v -0.089761 -0.244789 1.230584
v -0.556506 2.057470 0.975661
v -0.554791 2.055078 -0.586436
v 0.074541 -0.240969 -0.960202
v 0.372924 2.056663 -0.591797
v -0.086245 2.047816 1.221918
v 0.897213 1.054938 1.120477
v -0.642696 1.055837 1.110421
v -0.646310 1.066427 -0.792242
v 0.511788 1.048093 -0.678424
v -0.090766 0.772783 1.393130
v -0.080117 0.767706 -1.018301
v 0.344454 3.055434 0.940216
v -0.817078 0.619001 -0.264680
v -0.087115 4.215833 1.029573
v -0.049334 3.330047 1.263754
v -0.880435 -0.027014 -0.250308
v 0.379614 4.314928 -0.128383
v -0.733481 2.053361 -0.194322
v -0.089640 -0.258654 -0.321266
v -0.710988 2.053444 0.241438
v 0.529068 3.166624 -0.290827
v -0.785382 -0.028170 0.606755
v -0.571411 4.331375 0.503709
v 0.981482 -0.026187 0.607266
v 0.491549 3.887280 0.550564
v -0.088928 -0.254728 0.697515
v 0.204325 4.704176 -0.104262
v -0.512129 4.419810 0.512185
v -0.649528 3.135557 0.763753
v -0.616954 3.136425 0.744446
v -0.558350 4.303974 0.543219
v -0.211606 3.254570 1.164407
v -0.090309 4.133456 1.049534
v -0.593172 2.680065 0.978498
v -0.450299 4.372510 0.632092
v -0.813910 0.943628 -0.361758
v -0.772453 1.639839 -0.221923
v -0.758318 0.274592 0.620101
v 0.305205 4.411884 0.513106
v -0.709103 1.008371 0.941884
v -0.685296 2.050704 0.611220
v -0.754349 2.758976 -0.212485
v 0.140415 4.279582 0.872200
v 0.288598 4.108425 -0.444343
v -0.026917 3.287862 -0.818870
v -0.103148 3.119330 -0.870395
v -0.686355 3.416584 -0.041455
v 0.101830 4.707524 -0.148660
v -0.541781 2.711751 -0.582278
v -0.575410 4.333495 0.332485
v -0.466130 4.495488 0.314817
v 0.145898 4.447062 -0.333192
v 0.615969 2.053760 -0.430976
v 0.827344 -0.039274 -0.321968
v 0.729952 2.730195 -0.164697
v 0.996265 -0.021914 -0.108654
v 1.084435 0.705255 0.074065
v 0.838527 1.714795 1.028421
v 0.966193 1.005422 0.949973
v 0.650324 2.874657 0.580750
v 1.045226 0.626168 0.634181
v 0.778654 2.053192 0.965815
v 0.381865 2.477501 -0.588016
v 0.152613 3.187648 -0.717729
v 0.375246 3.635523 -0.525561
v -0.128799 2.053190 -0.847817
v -0.092705 2.153776 -0.862079
v 0.104658 2.050307 -0.745026
v -0.083977 1.942307 -0.853209
v 0.512168 3.228966 0.045939
v 0.521920 3.174351 0.656188
vt 0.061057 0.227642
vt 0.061057 0.227642
vt 0.061057 0.227642
vt 0.061057 0.227642
vt 0.061057 0.227642
vt 0.061057 0.227642
vt 0.061057 0.227642
vt 0.061057 0.227642
vt 0.061057 0.227642
vt 0.061057 0.227642
vt 0.061057 0.227642
vt 0.061057 0.227642
vt 0.061057 0.227642
vt 0.061057 0.227642
vt 0.061057 0.227642
vt 0.061057 0.227642
vt 0.061057 0.227642
vt 0.061057 0.227642
vt 0.061057 0.227642
vt 0.061057 0.227642
vt 0.061057 0.227642
vt 0.061057 0.227642
vt 0.061057 0.227642
vt 0.061057 0.227642
vt 0.061057 0.227642
vt 0.061057 0.227642
vt 0.061057 0.227642
vt 0.061057 0.227642
vt 0.061057 0.227642
vt 0.061057 0.227642
vt 0.061057 0.227642
vt 0.061057 0.227642
vt 0.061057 0.227642
vt 0.061057 0.227642
vt 0.061057 0.227642
vt 0.061057 0.227642
vt 0.061057 0.227642
vt 0.061057 0.227642
vt 0.061057 0.227642
vt 0.061057 0.227642
vt 0.061057 0.227642
vt 0.061057 0.227642
vt 0.061057 0.227642
vt 0.061057 0.227642
vt 0.061057 0.227642
vt 0.061057 0.227642
vt 0.061057 0.227642
vt 0.061057 0.227642
vt 0.061057 0.227642
vt 0.061057 0.227642
vt 0.061057 0.227642
vt 0.061057 0.227642
vt 0.061057 0.227642
vt 0.061057 0.227642
vt 0.061057 0.227642
vt 0.061057 0.227642
vt 0.061057 0.227642
vt 0.061057 0.227642
vt 0.061057 0.227642
vt 0.061057 0.227642
vt 0.061057 0.227642
vt 0.061057 0.227642
vt 0.061057 0.227642
vt 0.061057 0.227642
vt 0.061057 0.227642
vt 0.061057 0.227642
vt 0.061057 0.227642
vt 0.061057 0.227642
vt 0.061057 0.227642
vt 0.061057 0.227642
vt 0.061057 0.227642
vt 0.061057 0.227642
vt 0.061057 0.227642
vt 0.061057 0.227642
vt 0.061057 0.227642
vt 0.061057 0.227642
vt 0.061057 0.227642
vt 0.061057 0.227642
vn 0.4866 0.2482 0.8376
vn -0.5740 0.1835 0.7981
vn 0.3860 -0.2638 -0.8840
vn -0.1123 0.0029 -0.9937
vn 0.9140 -0.0892 0.3957
vn -0.9912 0.1300 0.0248
vn 0.8275 0.0793 -0.5558
vn -0.9049 0.1454 0.4000
vn -0.3445 -0.9386 0.0170
vn -0.6901 0.2370 0.6838
vn -0.9946 0.0903 0.0513
vn -0.9983 -0.0282 0.0515
vn 0.7792 0.3155 0.5415
vn 0.9873 0.1326 0.0878
vn 0.9317 0.1302 0.3391
vn 0.6160 -0.0434 0.7866
vn 0.3966 0.2038 -0.8951
vn -0.4832 0.0494 -0.8741
vn 0.7932 0.1946 0.5771
vn 0.2756 0.2218 0.9353
vn 0.5246 0.1812 0.8318
vn -0.4642 -0.0314 0.8852
vn 0.1463 0.3636 -0.9200
vn -0.6315 0.4734 -0.6141
vn -0.4352 -0.0023 0.9003
vn -0.6378 0.3558 -0.6831
vn -0.6671 0.3522 -0.6564
vn -0.5094 0.2203 -0.8318
vn 0.9113 0.4107 -0.0303
vn 0.1069 -0.9943 -0.0037
vn 0.9801 0.1862 0.0693
vn 0.3645 -0.9287 0.0680
vn 0.2305 -0.9639 -0.1335
vn -0.9927 0.1207 -0.0014
vn 0.4363 0.2294 -0.8701
vn -0.9159 -0.1068 -0.3870
vn 0.7451 -0.0866 -0.6613
vn 0.7800 0.0619 -0.6227
vn 0.7196 0.1460 -0.6789
vn 0.8840 0.2317 -0.4061
vn 0.4960 -0.0027 -0.8683
vn 0.4927 0.0001 -0.8702
vn 0.5053 0.0350 -0.8622
vn -0.5177 -0.0130 0.8555
vn 0.4885 0.1412 -0.8611
vn -0.4817 -0.2930 -0.8259
vn -0.9062 0.1456 0.3970
vn 0.9385 -0.1053 0.3288
vn -0.9950 0.0542 0.0836
vn -0.9410 -0.0569 0.3336
vn -0.4530 -0.4254 -0.7834
vn -0.8829 0.0584 0.4658
vn -0.3166 -0.9462 0.0675
vn -0.6840 0.1967 0.7025
vn -0.6918 0.1857 0.6978
vn 0.8192 0.1181 0.5613
vn -0.9044 0.1127 -0.4116
vn -0.9966 0.0448 0.0696
vn -0.9943 0.0393 0.0990
vn 0.0137 0.9326 0.3608
vn -0.9909 0.0729 0.1135
vn -0.9965 -0.0228 0.0799
vn 0.8414 0.2510 0.4786
vn -0.3070 0.1315 -0.9426
vn 0.9803 0.1854 0.0688
vn 0.9828 0.1686 0.0749
vn -0.9198 0.0817 -0.3837
vn 0.2801 0.1456 0.9489
vn 0.5471 0.1461 -0.8242
vn 0.5518 -0.0042 -0.8340
vn -0.5229 0.0158 -0.8523
vn -0.5404 -0.0131 -0.8413
vn 0.7925 0.3560 0.4953
vn -0.9921 0.1045 0.0697
vn 0.7555 0.1150 0.6450
vn 0.9818 0.1793 0.0633
vn 0.5295 0.0983 -0.8426
vn 0.9333 -0.0941 0.3466
vn 0.7168 0.4709 -0.5142
vn 0.9991 0.0407 -0.0123
vn 0.8075 0.0607 -0.5868
vn 0.9515 0.3075 -0.0092
vn -0.0043 0.9290 0.3701
vn -0.9504 -0.0038 -0.3109
vn -0.9905 0.0230 0.1356
vn -0.4830 -0.1253 0.8666
vn 0.9283 0.3681 0.0520
vn -0.9272 -0.0908 0.3634
vn -0.9899 0.0945 0.1061
vn -0.1558 0.0409 -0.9869
vn -0.9253 0.1449 -0.3504
vn -0.6732 0.3610 -0.6454
vn 0.9201 0.3912 0.0215
vn -0.6896 0.1860 0.6999
vn -0.9963 0.0373 0.0771
vn 0.6434 0.4223 -0.6385
vn -0.7549 0.2947 -0.5859
vn 0.4467 0.1244 -0.8860
vn 0.2195 -0.9756 -0.0089
vn 0.7372 0.1286 -0.6633
vn 0.5114 -0.0014 -0.8593
vn -0.2701 -0.9600 -0.0740
vn 0.2380 0.1375 0.9615
vn -0.7209 0.4327 0.5414
vn -0.4240 0.1372 0.8952
vn 0.0071 0.9350 0.3545
vn -0.0244 0.9099 0.4140
vn 0.9928 -0.1146 0.0345
vn -0.2946 -0.9555 0.0164
vn 0.2017 -0.9795 0.0031
vn 0.7666 0.0120 -0.6421
vn 0.5227 0.0091 -0.8525
vn -0.8290 0.5588 0.0235
vn 0.2784 -0.1308 0.9515
vn 0.7160 0.1712 0.6768
vn -0.8898 -0.0098 -0.4563
vn -0.9356 0.1255 0.3299
vn 0.9865 0.0996 -0.1299
g Rock_7_Rock_7_CollorMaterial
usemtl CollorMaterial
s off
f 40/1/1 22/2/1 50/3/1
f 22/2/2 40/1/2 39/4/2
f 73/5/3 74/6/3 75/7/3
f 76/8/4 15/9/4 73/5/4
f 66/10/5 13/11/5 1/12/5
f 57/13/6 4/14/6 30/15/6
f 62/16/7 64/17/7 60/18/7
f 38/19/8 30/15/8 4/14/8
f 3/20/9 33/21/9 7/22/9
f 36/23/10 41/24/10 39/4/10
f 44/25/11 27/26/11 25/27/11
f 27/26/12 49/28/12 25/27/12
f 46/29/13 2/30/13 32/31/13
f 66/10/14 68/32/14 64/17/14
f 66/10/15 65/33/15 13/11/15
f 19/34/16 22/2/16 12/35/16
f 73/5/17 75/7/17 76/8/17
f 56/36/18 74/6/18 73/5/18
f 67/37/19 78/38/19 19/34/19
f 65/33/20 69/39/20 12/35/20
f 50/3/21 21/40/21 40/1/21
f 12/35/22 41/24/22 8/41/22
f 51/42/23 52/43/23 59/44/23
f 52/43/24 53/45/24 54/46/24
f 12/35/25 39/4/25 41/24/25
f 54/46/26 57/13/26 58/47/26
f 59/44/27 58/47/27 55/48/27
f 15/9/28 9/49/28 73/5/28
f 62/16/29 28/50/29 77/51/29
f 61/52/30 63/53/30 31/54/30
f 65/33/31 62/16/31 69/39/31
f 26/55/32 10/56/32 5/57/32
f 5/57/33 61/52/33 26/55/33
f 57/13/34 54/46/34 4/14/34
f 72/58/35 52/43/35 51/42/35
f 20/59/36 43/60/36 15/9/36
f 28/50/37 71/61/37 72/58/37
f 63/53/38 61/52/38 64/17/38
f 62/16/39 60/18/39 70/62/39
f 72/58/40 51/42/40 24/63/40
f 11/64/41 75/7/41 70/62/41
f 70/62/42 75/7/42 71/61/42
f 53/45/43 52/43/43 71/61/43
f 12/35/44 22/2/44 39/4/44
f 75/7/45 11/64/45 16/65/45
f 37/66/46 36/23/46 4/14/46
f 36/23/47 38/19/47 4/14/47
f 68/32/48 1/12/48 31/54/48
f 47/67/49 27/26/49 44/25/49
f 48/68/50 8/41/50 41/24/50
f 41/24/51 36/23/51 37/66/51
f 29/69/52 3/20/52 45/70/52
f 3/20/53 29/69/53 33/21/53
f 40/1/54 21/40/54 42/71/54
f 42/71/55 38/19/55 36/23/55
f 32/31/56 19/34/56 78/38/56
f 44/25/57 25/27/57 9/49/57
f 47/67/58 48/68/58 27/26/58
f 44/25/59 43/60/59 20/59/59
f 35/72/60 42/71/60 58/47/60
f 49/28/61 37/66/61 54/46/61
f 4/14/62 54/46/62 37/66/62
f 46/29/63 50/3/63 2/30/63
f 15/9/64 76/8/64 18/73/64
f 62/16/65 67/37/65 69/39/65
f 65/33/66 66/10/66 64/17/66
f 20/59/67 6/74/67 23/75/67
f 69/39/68 19/34/68 12/35/68
f 16/65/69 11/64/69 60/18/69
f 60/18/70 11/64/70 70/62/70
f 73/5/71 9/49/71 56/36/71
f 56/36/72 53/45/72 74/6/72
f 19/34/73 69/39/73 67/37/73
f 27/26/74 48/68/74 41/24/74
f 2/30/75 50/3/75 22/2/75
f 65/33/76 64/17/76 62/16/76
f 72/58/77 71/61/77 52/43/77
f 68/32/78 66/10/78 1/12/78
f 24/63/79 51/42/79 59/44/79
f 32/31/80 78/38/80 77/51/80
f 16/65/81 60/18/81 64/17/81
f 77/51/82 28/50/82 72/58/82
f 42/71/83 21/40/83 50/3/83
f 20/59/84 15/9/84 6/74/84
f 41/24/85 37/66/85 49/28/85 27/26/85
f 3/20/86 7/22/86 17/76/86 14/77/86
f 24/63/87 34/78/87 46/29/87 32/31/87
f 47/67/88 45/70/88 3/20/88 14/77/88
f 23/75/89 29/69/89 45/70/89 20/59/89
f 6/74/90 15/9/90 18/73/90 10/56/90
f 44/25/91 9/49/91 15/9/91 43/60/91
f 59/44/92 52/43/92 54/46/92 58/47/92
f 67/37/93 62/16/93 77/51/93 78/38/93
f 36/23/94 39/4/94 40/1/94 42/71/94
f 20/59/95 45/70/95 47/67/95 44/25/95
f 34/78/96 24/63/96 59/44/96 55/48/96
f 56/36/97 49/28/97 54/46/97 53/45/97
f 76/8/98 75/7/98 16/65/98 18/73/98
f 61/52/99 31/54/99 33/21/99 26/55/99
f 28/50/100 62/16/100 70/62/100 71/61/100
f 71/61/101 75/7/101 74/6/101 53/45/101
f 26/55/102 23/75/102 6/74/102 10/56/102
f 65/33/103 12/35/103 17/76/103 13/11/103
f 35/72/104 30/15/104 38/19/104 42/71/104
f 14/77/105 17/76/105 12/35/105 8/41/105
f 46/29/106 58/47/106 42/71/106 50/3/106
f 55/48/107 58/47/107 46/29/107 34/78/107
f 31/54/108 63/53/108 64/17/108 68/32/108
f 29/69/109 23/75/109 26/55/109 33/21/109
f 1/12/110 7/22/110 33/21/110 31/54/110
f 61/52/111 5/57/111 16/65/111 64/17/111
f 5/57/112 10/56/112 18/73/112 16/65/112
f 57/13/113 30/15/113 35/72/113 58/47/113
f 17/76/114 7/22/114 1/12/114 13/11/114
f 22/2/115 19/34/115 32/31/115 2/30/115
f 25/27/116 49/28/116 56/36/116 9/49/116
f 47/67/117 14/77/117 8/41/117 48/68/117
f 32/31/118 77/51/118 72/58/118 24/63/118
