# Blender v3.0.0 OBJ File: 'Blender Medieval Village Megapack Low Poly .blend'
# www.blender.org
mtllib Rock_6.mtl
o Rock_6
v -0.750369 0.001571 0.740498
v -0.631292 0.985398 0.653460
v -0.744632 0.004120 -1.075603
v -0.705862 0.668128 0.717450
v -0.664327 1.441654 -0.022380
v -0.718154 0.677436 -0.725210
v -0.023406 0.000976 -0.898075
v 0.712447 0.002895 -0.702709
v -0.998408 0.691665 0.013929
v -0.299916 0.274021 -0.878123
v 1.062982 0.000022 0.007882
v -0.018793 0.298822 1.027827
v -0.017984 0.002887 1.065991
v -1.816813 -0.013696 0.216577
v -1.253335 -0.011319 0.730615
v -1.297423 0.388173 0.692997
v -1.003896 -0.006096 0.835572
v -1.234441 0.644164 -0.015076
v -1.835630 0.253399 0.204790
v -1.789642 0.403883 -0.013192
v -1.501167 0.599531 0.081529
v -0.968535 0.495519 0.821627
v -1.205700 0.647154 -0.551211
v -1.227594 -0.003907 -0.925830
v -1.223866 -0.008131 -0.912063
v -1.643035 -0.012151 -0.623944
v -1.720315 0.363199 -0.410027
v -0.880120 0.664274 -0.765188
v -0.424969 1.376281 0.642464
v 0.000741 1.224158 0.805142
v -0.591473 1.509750 -0.022315
v 0.925267 0.870463 -0.006404
v 0.445970 0.673294 0.839882
v 0.962644 -0.000705 0.786527
v 0.087069 1.203727 0.788035
v 0.896825 0.603195 0.291285
v 0.874604 0.000343 0.894319
v 0.805370 1.119432 -0.101649
v -0.002965 1.069998 -0.809394
v 0.624060 1.226322 -0.534454
v -0.604301 1.202951 -0.638549
v -0.679244 1.417244 -0.203249
v 0.601162 1.183573 -0.656485
vt 0.055626 0.238044
vt 0.055626 0.238044
vt 0.055626 0.238044
vt 0.055626 0.238044
vt 0.055626 0.238044
vt 0.055626 0.238044
vt 0.055626 0.238044
vt 0.055626 0.238044
vt 0.055626 0.238044
vt 0.055626 0.238044
vt 0.055626 0.238044
vt 0.055626 0.238044
vt 0.055626 0.238044
vt 0.055626 0.238044
vt 0.055626 0.238044
vt 0.055626 0.238044
vt 0.055626 0.238044
vt 0.055626 0.238044
vt 0.055626 0.238044
vt 0.055626 0.238044
vt 0.055626 0.238044
vt 0.055626 0.238044
vt 0.055626 0.238044
vt 0.055626 0.238044
vt 0.055626 0.238044
vt 0.055626 0.238044
vt 0.055626 0.238044
vt 0.055626 0.238044
vt 0.055626 0.238044
vt 0.055626 0.238044
vt 0.055626 0.238044
vt 0.055626 0.238044
vt 0.055626 0.238044
vt 0.055626 0.238044
vt 0.055626 0.238044
vt 0.055626 0.238044
vt 0.055626 0.238044
vt 0.055626 0.238044
vt 0.055626 0.238044
vt 0.055626 0.238044
vt 0.055626 0.238044
vt 0.055626 0.238044
vt 0.055626 0.238044
vn -0.8821 0.2832 0.3763
vn -0.6377 -0.7677 -0.0628
vn 0.2292 0.2998 -0.9260
vn 0.2429 0.3131 -0.9181
vn 0.9002 0.3210 -0.2942
vn 0.9603 0.1557 0.2316
vn 0.9700 0.2084 0.1252
vn -0.0012 -1.0000 0.0088
vn -0.9833 0.0450 -0.1764
vn -0.0732 0.9968 -0.0316
vn -0.1967 0.9805 -0.0051
vn -0.5671 0.7016 0.4315
vn 0.0050 -1.0000 -0.0008
vn 0.2040 0.2250 0.9528
vn -0.4714 0.8529 0.2245
vn -0.5365 0.3318 -0.7759
vn -0.4843 0.5325 -0.6942
vn 0.0768 0.8997 -0.4297
vn 0.8928 0.3457 -0.2886
vn -0.2938 0.1815 0.9385
vn 0.0258 -0.9996 -0.0117
vn -0.6017 0.7110 0.3639
vn 0.2625 0.9447 0.1964
vn 0.2811 0.9498 0.1370
vn -0.0041 -1.0000 -0.0015
vn -0.2818 0.3603 -0.8893
vn -0.1662 0.9861 -0.0034
vn -0.0695 -0.9588 -0.2754
vn -0.0354 0.9408 0.3370
vn 0.0084 -1.0000 -0.0018
vn -0.6822 0.7299 -0.0422
vn -0.6509 0.6961 0.3028
vn 0.2462 0.2579 0.9343
vn 0.7008 0.4963 0.5125
vn -0.0985 0.9448 -0.3125
vn 0.0042 -1.0000 -0.0061
vn -0.0040 -1.0000 -0.0014
vn -0.4781 0.4324 -0.7645
vn -0.9129 0.4076 0.0203
vn 0.6976 0.4937 0.5192
vn 0.1334 0.4534 -0.8813
vn -0.3911 0.0761 0.9172
vn -0.0794 0.9956 -0.0493
vn -0.2112 0.1786 -0.9610
vn -0.5122 0.8407 -0.1758
vn 0.6878 0.5184 0.5082
vn 0.2024 0.0379 -0.9786
vn 0.9003 0.1158 -0.4195
vn 0.3586 0.0050 0.9335
vn -0.8502 0.4161 0.3225
vn 0.2047 0.1826 0.9616
vn 0.0049 0.8745 -0.4850
vn -0.9762 -0.0830 -0.2003
vn -0.3004 0.2360 0.9242
vn -0.3823 0.0491 0.9228
vn -0.3228 0.9089 0.2641
vn -0.9030 0.2784 -0.3273
vn -0.0005 -1.0000 0.0010
vn 0.2735 0.9541 0.1222
vn 0.0254 -0.9997 -0.0014
vn -0.6723 -0.0086 0.7402
g Rock_6_Rock_6_CollorMaterial
usemtl CollorMaterial
s off
f 2/1/1 9/2/1 4/3/1
f 24/4/2 25/5/2 27/6/2
f 3/7/3 10/8/3 7/9/3
f 7/9/4 10/8/4 8/10/4
f 38/11/5 32/12/5 43/13/5
f 11/14/6 32/12/6 36/15/6
f 11/14/7 36/15/7 34/16/7
f 13/17/8 34/16/8 37/18/8
f 19/19/9 20/20/9 27/6/9
f 6/21/10 28/22/10 23/23/10
f 9/2/11 23/23/11 18/24/11
f 21/25/12 19/19/12 16/26/12
f 26/27/13 15/28/13 14/29/13
f 33/30/14 30/31/14 12/32/14
f 9/2/15 22/33/15 4/3/15
f 25/5/16 26/27/16 27/6/16
f 27/6/17 23/23/17 28/22/17
f 42/34/18 39/35/18 41/36/18
f 43/13/19 40/37/19 38/11/19
f 30/31/20 29/38/20 2/1/20
f 15/28/21 1/39/21 17/40/21
f 21/25/22 20/20/22 19/19/22
f 29/38/23 30/31/23 35/41/23
f 35/41/24 38/11/24 29/38/24
f 13/17/25 11/14/25 34/16/25
f 24/4/26 28/22/26 3/7/26
f 21/25/27 18/24/27 23/23/27
f 24/4/28 3/7/28 25/5/28
f 16/26/29 18/24/29 21/25/29
f 26/27/30 25/5/30 15/28/30
f 31/42/31 42/34/31 5/43/31
f 29/38/32 31/42/32 5/43/32
f 33/30/33 35/41/33 30/31/33
f 36/15/34 32/12/34 33/30/34
f 40/37/35 43/13/35 39/35/35
f 7/9/36 8/10/36 11/14/36
f 1/39/37 3/7/37 7/9/37
f 24/4/38 27/6/38 28/22/38
f 5/43/39 42/34/39 9/2/39
f 34/16/40 36/15/40 33/30/40 37/18/40
f 3/7/41 28/22/41 6/21/41 10/8/41
f 1/39/42 13/17/42 12/32/42 4/3/42
f 9/2/43 6/21/43 23/23/43
f 39/35/44 10/8/44 6/21/44 41/36/44
f 27/6/45 20/20/45 21/25/45 23/23/45
f 33/30/46 32/12/46 38/11/46 35/41/46
f 8/10/47 10/8/47 39/35/47 43/13/47
f 32/12/48 11/14/48 8/10/48 43/13/48
f 22/33/49 17/40/49 1/39/49 4/3/49
f 2/1/50 29/38/50 5/43/50 9/2/50
f 12/32/51 13/17/51 37/18/51 33/30/51
f 31/42/52 40/37/52 39/35/52 42/34/52
f 14/29/53 19/19/53 27/6/53 26/27/53
f 30/31/54 2/1/54 4/3/54 12/32/54
f 17/40/55 22/33/55 16/26/55 15/28/55
f 9/2/56 18/24/56 16/26/56 22/33/56
f 41/36/57 6/21/57 9/2/57 42/34/57
f 13/17/58 1/39/58 7/9/58 11/14/58
f 38/11/59 40/37/59 31/42/59 29/38/59
f 1/39/60 15/28/60 25/5/60 3/7/60
f 16/26/61 19/19/61 14/29/61 15/28/61
