# Blender v3.0.0 OBJ File: 'Blender Medieval Village Megapack Low Poly .blend'
# www.blender.org
mtllib Rock_4.mtl
o Rock_4
v 1.401453 -0.025150 0.999535
v 0.483163 1.812296 0.820380
v -0.976491 -0.027197 0.993243
v -1.095842 1.672766 0.554265
v 0.705765 -0.035186 -0.695906
v 0.479930 1.807117 -0.441481
v -0.991983 -0.033820 -1.020464
v -0.926711 0.908474 0.975649
v 0.137148 -0.105598 -0.926793
v 0.622808 0.906644 -0.591072
v -0.145831 0.901283 1.223748
v 1.498375 0.462165 1.120496
v -1.072428 0.463464 1.109820
v -1.059253 0.467254 -0.740456
v 0.766789 0.468340 -0.715067
v -0.150856 0.344052 1.393088
v -0.145295 0.341782 -1.057630
v 0.641665 1.351193 0.979835
v -1.466842 -0.009814 -0.247913
v 0.649515 1.897575 -0.121874
v -1.232818 1.215356 -0.205179
v -1.231093 0.905873 0.246872
v 0.861372 1.391459 -0.283725
v 1.622620 -0.004798 0.604761
v 0.766022 1.713966 0.537880
v -0.150249 -0.108204 1.228650
v 0.344896 2.083080 -0.106587
v -1.063649 1.382738 0.744256
v -0.151279 1.464873 1.226317
v -0.144498 1.858390 1.027721
v -0.961956 1.182392 0.975934
v -0.748502 1.921916 0.629943
v -1.378979 0.277056 -0.271409
v -1.310807 -0.014188 0.606778
v 0.514552 1.938231 0.511136
v -1.190677 0.444690 0.942569
v 0.234708 1.887873 0.873480
v 0.306551 1.822670 -0.542558
v -0.044733 1.450693 -0.820849
v -0.146686 1.373048 -0.860795
v -1.170121 1.509256 -0.053853
v 0.156604 2.067268 -0.143308
v -0.931237 1.198679 -0.594350
v -0.946561 1.891371 0.323267
v -0.782841 1.990182 0.318821
v 0.258936 1.966546 -0.342982
v 1.413501 -0.018602 -0.338300
v 0.879405 0.461157 -0.690150
v 1.029888 0.906500 -0.432605
v 1.698764 -0.017369 -0.103717
v 1.273063 0.950410 0.960178
v 1.769193 0.313587 0.088793
v 1.397156 0.757059 1.023044
v 1.219267 1.203367 -0.169495
v 1.650650 0.435671 0.954938
v 0.614333 1.090191 -0.569835
v 0.268801 1.406964 -0.727535
v 0.574954 1.606553 -0.519936
v -0.152926 0.949915 -0.861396
v 0.174053 0.903684 -0.744505
v 1.104109 1.269763 0.581180
v 0.899776 1.430434 0.037426
v 0.865230 1.402721 0.656959
vt 0.061057 0.227642
vt 0.061057 0.227642
vt 0.061057 0.227642
vt 0.061057 0.227642
vt 0.061057 0.227642
vt 0.061057 0.227642
vt 0.061057 0.227642
vt 0.061057 0.227642
vt 0.061057 0.227642
vt 0.061057 0.227642
vt 0.061057 0.227642
vt 0.061057 0.227642
vt 0.061057 0.227642
vt 0.061057 0.227642
vt 0.061057 0.227642
vt 0.061057 0.227642
vt 0.061057 0.227642
vt 0.061057 0.227642
vt 0.061057 0.227642
vt 0.061057 0.227642
vt 0.061057 0.227642
vt 0.061057 0.227642
vt 0.061057 0.227642
vt 0.061057 0.227642
vt 0.061057 0.227642
vt 0.061057 0.227642
vt 0.061057 0.227642
vt 0.061057 0.227642
vt 0.061057 0.227642
vt 0.061057 0.227642
vt 0.061057 0.227642
vt 0.061057 0.227642
vt 0.061057 0.227642
vt 0.061057 0.227642
vt 0.061057 0.227642
vt 0.061057 0.227642
vt 0.061057 0.227642
vt 0.061057 0.227642
vt 0.061057 0.227642
vt 0.061057 0.227642
vt 0.061057 0.227642
vt 0.061057 0.227642
vt 0.061057 0.227642
vt 0.061057 0.227642
vt 0.061057 0.227642
vt 0.061057 0.227642
vt 0.061057 0.227642
vt 0.061057 0.227642
vt 0.061057 0.227642
vt 0.061057 0.227642
vt 0.061057 0.227642
vt 0.061057 0.227642
vt 0.061057 0.227642
vt 0.061057 0.227642
vt 0.061057 0.227642
vt 0.061057 0.227642
vt 0.061057 0.227642
vt 0.061057 0.227642
vt 0.061057 0.227642
vt 0.061057 0.227642
vt 0.061057 0.227642
vt 0.061057 0.227642
vt 0.061057 0.227642
vn 0.3675 -0.0608 -0.9280
vn -0.4819 0.4421 0.7565
vn 0.5970 0.1222 -0.7929
vn 0.0649 -0.2421 -0.9681
vn 0.7064 0.4366 0.5571
vn -0.2372 0.4494 -0.8612
vn 0.4488 -0.1468 -0.8815
vn -0.7335 -0.2658 0.6256
vn -0.4186 0.5879 0.6922
vn -0.9838 0.1459 0.1037
vn 0.6016 0.7166 0.3529
vn 0.0117 0.8952 -0.4456
vn 0.6980 0.4290 0.5733
vn 0.2966 -0.0015 0.9550
vn 0.5052 0.7462 0.4336
vn 0.9109 0.4125 0.0098
vn 0.1547 0.3939 0.9061
vn 0.2903 0.3346 -0.8965
vn -0.3026 0.7375 -0.6038
vn -0.3472 0.7473 -0.5665
vn -0.3593 0.7317 -0.5792
vn -0.7010 0.4389 -0.5621
vn -0.4627 0.7450 -0.4806
vn -0.3358 0.7605 -0.5557
vn 0.4993 0.8510 -0.1630
vn 0.3070 0.4036 0.8619
vn -0.0094 -0.9998 0.0167
vn 0.3518 -0.6580 -0.6658
vn -0.0628 -0.9980 -0.0076
vn -0.8445 0.5340 -0.0404
vn 0.0500 -0.9985 -0.0235
vn 0.3119 0.3625 -0.8782
vn 0.6051 0.3002 -0.7374
vn 0.7721 -0.3673 0.5186
vn -0.0686 -0.9976 -0.0053
vn 0.2965 0.0993 -0.9498
vn 0.3583 0.2908 -0.8872
vn 0.2118 -0.0628 -0.9753
vn 0.4680 0.5053 -0.7250
vn -0.7669 -0.2864 0.5743
vn -0.1163 -0.9909 0.0673
vn 0.9691 -0.1882 0.1592
vn -0.4591 0.4209 0.7823
vn 0.6572 0.1984 -0.7271
vn -0.9821 0.1535 0.1088
vn -0.1311 0.9566 0.2603
vn 0.3207 0.4168 0.8505
vn 0.3428 0.8573 0.3839
vn 0.3565 0.7962 -0.4889
vn -0.4971 0.8344 0.2380
vn -0.9377 0.3014 0.1727
vn -0.9823 0.1135 0.1490
vn 0.7871 0.6164 0.0208
vn 0.1707 0.2218 0.9600
vn 0.3600 0.1236 -0.9247
vn -0.7684 0.4018 0.4981
vn -0.8122 0.2029 -0.5470
vn -0.3228 0.0061 -0.9465
vn 0.3667 0.0057 -0.9303
vn -0.2629 0.2610 -0.9288
vn 0.3010 0.3498 -0.8871
vn 0.8373 0.5406 0.0812
vn -0.2613 0.3155 0.9122
vn 0.5906 0.8035 0.0743
vn -0.9433 -0.1217 0.3088
vn 0.0138 0.9849 0.1727
vn 0.7273 0.4820 -0.4886
vn 0.8296 0.5543 0.0672
vn 0.4520 0.4016 -0.7965
vn 0.3568 0.3525 -0.8651
vn 0.5547 0.8312 0.0371
vn 0.6686 0.2050 -0.7148
vn 0.1661 -0.3022 0.9387
vn 0.3190 -0.0168 -0.9476
vn -0.3029 -0.3005 0.9044
vn -0.8385 0.1884 -0.5114
vn 0.1419 0.3103 0.9400
vn -0.0144 0.9806 0.1953
vn 0.9578 -0.2665 0.1077
vn -0.9815 0.1372 0.1333
vn -0.2961 -0.0176 0.9550
vn 0.4076 0.7785 -0.4772
vn 0.8918 0.4239 -0.1581
vn -0.5977 0.7383 0.3125
vn -0.9040 0.2021 0.3768
vn 0.3132 0.3745 -0.8727
vn 0.0624 -0.9980 0.0052
vn -0.3525 0.7367 -0.5770
g Rock_4_Rock_4_CollorMaterial
usemtl CollorMaterial
s off
f 15/1/1 5/2/1 9/3/1 17/4/1
f 28/5/2 32/6/2 4/7/2
f 58/8/3 23/9/3 56/10/3 57/11/3
f 7/12/4 17/4/4 9/3/4
f 63/13/5 25/14/5 2/15/5 18/16/5
f 14/17/6 17/4/6 7/12/6
f 5/2/7 48/18/7 47/19/7
f 34/20/8 3/21/8 36/22/8
f 28/5/9 31/23/9 29/24/9
f 33/25/10 22/26/10 21/27/10
f 35/28/11 2/15/11 25/14/11
f 46/29/12 42/30/12 27/31/12
f 55/32/13 53/33/13 12/34/13
f 18/16/14 29/24/14 11/35/14
f 18/16/15 51/36/15 61/37/15 63/13/15
f 62/38/16 20/39/16 25/14/16 63/13/16
f 53/33/17 51/36/17 11/35/17
f 60/40/18 15/1/18 17/4/18
f 38/41/19 39/42/19 46/29/19
f 39/42/20 40/43/20 41/44/20
f 40/43/21 43/45/21 41/44/21
f 43/45/22 21/27/22 41/44/22
f 41/44/23 44/46/23 45/47/23
f 46/29/24 45/47/24 42/30/24
f 54/48/25 23/9/25 62/38/25
f 37/49/26 18/16/26 2/15/26
f 47/19/27 50/50/27 24/51/27
f 5/2/28 47/19/28 9/3/28
f 9/3/29 19/52/29 7/12/29
f 44/46/30 41/44/30 4/7/30
f 1/53/31 26/54/31 24/51/31
f 38/41/32 57/11/32 39/42/32
f 50/50/33 47/19/33 52/55/33
f 1/53/34 24/51/34 55/32/34 12/34/34
f 9/3/35 26/54/35 34/20/35 19/52/35
f 40/43/36 39/42/36 57/11/36
f 17/4/37 59/56/37 60/40/37
f 5/2/38 15/1/38 48/18/38
f 38/41/39 6/57/39 58/8/39
f 3/21/40 13/58/40 36/22/40
f 3/21/41 34/20/41 26/54/41
f 24/51/42 52/55/42 55/32/42
f 29/24/43 30/59/43 32/6/43 28/5/43
f 49/60/44 47/19/44 48/18/44
f 22/26/45 41/44/45 21/27/45
f 35/28/46 27/31/46 42/30/46
f 29/24/47 18/16/47 37/49/47 30/59/47
f 35/28/48 37/49/48 2/15/48
f 6/57/49 38/41/49 46/29/49
f 44/46/50 32/6/50 45/47/50
f 19/52/51 34/20/51 33/25/51
f 22/26/52 28/5/52 4/7/52 41/44/52
f 53/33/53 55/32/53 52/55/53
f 51/36/54 18/16/54 11/35/54
f 49/60/55 10/61/55 56/10/55
f 36/22/56 13/58/56 8/62/56
f 21/27/57 43/45/57 14/17/57 33/25/57
f 43/45/58 40/43/58 59/56/58
f 60/40/59 57/11/59 56/10/59 10/61/59
f 59/56/60 17/4/60 14/17/60 43/45/60
f 60/40/61 10/61/61 15/1/61
f 51/36/62 52/55/62 54/48/62 61/37/62
f 8/62/63 13/58/63 16/63/63 11/35/63
f 35/28/64 25/14/64 20/39/64 27/31/64
f 8/62/65 31/23/65 28/5/65
f 37/49/66 35/28/66 42/30/66 45/47/66
f 20/39/67 23/9/67 58/8/67 6/57/67
f 51/36/68 53/33/68 52/55/68
f 23/9/69 54/48/69 49/60/69 56/10/69
f 38/41/70 58/8/70 57/11/70
f 61/37/71 54/48/71 62/38/71 63/13/71
f 52/55/72 47/19/72 49/60/72 54/48/72
f 1/53/73 12/34/73 16/63/73 26/54/73
f 40/43/74 57/11/74 60/40/74 59/56/74
f 16/63/75 13/58/75 3/21/75 26/54/75
f 7/12/76 19/52/76 33/25/76 14/17/76
f 16/63/77 12/34/77 53/33/77 11/35/77
f 37/49/78 45/47/78 32/6/78 30/59/78
f 24/51/79 50/50/79 52/55/79
f 34/20/80 36/22/80 22/26/80 33/25/80
f 31/23/81 8/62/81 11/35/81 29/24/81
f 46/29/82 27/31/82 20/39/82 6/57/82
f 20/39/83 62/38/83 23/9/83
f 44/46/84 4/7/84 32/6/84
f 8/62/85 28/5/85 22/26/85 36/22/85
f 10/61/86 49/60/86 48/18/86 15/1/86
f 26/54/87 9/3/87 47/19/87 24/51/87
f 39/42/88 41/44/88 45/47/88 46/29/88
