# Blender v3.0.0 OBJ File: 'Blender Medieval Village Megapack Low Poly .blend'
# www.blender.org
mtllib Rock_5.mtl
o Rock_5
v -0.779884 0.040797 0.596836
v -0.734520 0.675509 0.593884
v -0.784260 0.035549 -0.689364
v -0.718348 0.690764 -0.607128
v 0.645402 -0.024135 0.521094
v 0.505397 0.628939 0.497683
v 0.815803 0.092450 -0.594611
v 0.772573 0.758661 -0.611337
v -0.896015 -0.016663 -0.039049
v -0.889560 0.348158 0.735337
v -0.841415 0.743266 0.020481
v -0.894740 0.343862 -0.746876
v 0.045825 0.026478 -0.763715
v 0.182625 0.854575 -0.812093
v 0.933401 0.432993 -0.735907
v 0.964702 0.005587 -0.033109
v 0.768953 0.737959 -0.044086
v 0.635417 0.230435 0.638188
v 0.081318 0.051805 0.727288
v -0.027865 0.790143 0.699559
v -1.067155 0.370599 0.038261
v 0.123021 0.445484 -1.018705
v 1.087162 0.362396 -0.066962
v 0.107118 0.478813 0.939369
v 0.026580 -0.025402 -0.006866
v -0.151966 0.876155 0.091642
vt 0.052160 0.220474
vt 0.052160 0.220474
vt 0.052160 0.220474
vt 0.052160 0.220474
vt 0.052160 0.220474
vt 0.052160 0.220474
vt 0.052160 0.220474
vt 0.052160 0.220474
vt 0.052160 0.220474
vt 0.052160 0.220474
vt 0.052160 0.220474
vt 0.052160 0.220474
vt 0.052160 0.220474
vt 0.052160 0.220474
vt 0.052160 0.220474
vt 0.052160 0.220474
vt 0.052160 0.220474
vt 0.052160 0.220474
vt 0.052160 0.220474
vt 0.052160 0.220474
vt 0.052160 0.220474
vt 0.052160 0.220474
vt 0.052160 0.220474
vt 0.052160 0.220474
vt 0.052160 0.220474
vt 0.052160 0.220474
vn 0.2402 0.9518 0.1906
vn -0.0926 -0.9895 0.1110
vn 0.0320 -0.9989 -0.0351
vn -0.8834 -0.4210 0.2057
vn 0.8888 -0.3729 -0.2663
vn 0.1516 0.9878 0.0343
vn -0.9124 -0.3641 -0.1871
vn 0.3246 0.4255 -0.8447
vn 0.7125 0.4890 0.5032
vn 0.8187 0.5713 -0.0572
vn 0.0656 -0.9917 -0.1108
vn -0.1923 0.9676 0.1635
vn -0.1499 -0.3961 -0.9059
vn -0.2243 0.5047 0.8337
vn -0.2736 0.4699 -0.8393
vn 0.2540 -0.4978 -0.8293
vn -0.8343 0.5044 0.2226
vn -0.8395 0.5037 -0.2038
vn 0.5214 0.5460 0.6558
vn -0.0077 -0.9951 0.0988
vn 0.8440 -0.2218 0.4883
vn -0.1909 0.9761 -0.1043
vn 0.2753 -0.4233 0.8632
vn -0.1267 -0.4391 0.8895
vn -0.0119 -0.9971 -0.0749
g Rock_5_Rock_5_CollorMaterial
usemtl CollorMaterial
s off
f 26/1/1 20/2/1 6/3/1 17/4/1
f 25/5/2 5/6/2 19/7/2
f 25/5/3 16/8/3 5/6/3
f 1/9/4 10/10/4 21/11/4 9/12/4
f 7/13/5 15/14/5 23/15/5 16/8/5
f 14/16/6 26/1/6 17/4/6 8/17/6
f 9/12/7 21/11/7 12/18/7 3/19/7
f 22/20/8 14/16/8 8/17/8 15/14/8
f 23/15/9 17/4/9 6/3/9 18/21/9
f 8/17/10 17/4/10 23/15/10 15/14/10
f 7/13/11 16/8/11 25/5/11 13/22/11
f 26/1/12 11/23/12 2/24/12 20/2/12
f 12/18/13 22/20/13 13/22/13 3/19/13
f 24/25/14 20/2/14 2/24/14 10/10/14
f 4/26/15 14/16/15 22/20/15 12/18/15
f 22/20/16 15/14/16 7/13/16 13/22/16
f 2/24/17 11/23/17 21/11/17 10/10/17
f 21/11/18 11/23/18 4/26/18 12/18/18
f 6/3/19 20/2/19 24/25/19 18/21/19
f 25/5/20 19/7/20 1/9/20 9/12/20
f 16/8/21 23/15/21 18/21/21 5/6/21
f 4/26/22 11/23/22 26/1/22 14/16/22
f 18/21/23 24/25/23 19/7/23 5/6/23
f 19/7/24 24/25/24 10/10/24 1/9/24
f 3/19/25 13/22/25 25/5/25 9/12/25
