# Blender v3.0.0 OBJ File: 'Blender Medieval Village Megapack Low Poly .blend'
# www.blender.org
mtllib Rope_1.mtl
o Rope_1
v -0.022069 -0.007663 -0.257441
v -0.034543 -0.007070 -0.295419
v -0.032448 0.032437 -0.296337
v -0.020012 0.033247 -0.258165
v 0.003080 -0.007581 -0.297034
v -0.005432 -0.007913 -0.258065
v -0.006449 0.032739 -0.258318
v 0.001947 0.032243 -0.297512
v -0.143345 0.000671 -0.211355
v -0.167549 0.002230 -0.243525
v -0.167046 0.041412 -0.243174
v -0.143097 0.042170 -0.211361
v -0.243091 -0.007517 -0.078607
v -0.268358 -0.007969 -0.109615
v -0.269002 0.033279 -0.108567
v -0.243583 0.031819 -0.077459
v -0.329063 -0.001590 -0.044192
v -0.341039 -0.001173 -0.069194
v -0.340848 0.026544 -0.068810
v -0.328890 0.026076 -0.043795
v 0.011943 0.000523 -0.146328
v 0.011177 -0.001072 -0.105858
v 0.011484 0.040428 -0.105951
v 0.012225 0.039580 -0.145624
v -0.002074 -0.008562 0.283659
v 0.008240 -0.009719 0.242920
v 0.007934 0.035742 0.244150
v -0.002329 0.032365 0.284681
v 0.174680 -0.006471 0.226058
v 0.152395 -0.006813 0.195358
v 0.153040 0.032759 0.196252
v 0.175239 0.030395 0.226832
v 0.281724 -0.007509 0.080362
v 0.243524 -0.007931 0.068562
v 0.244713 0.033951 0.068744
v 0.282670 0.031423 0.080583
v 0.282089 -0.007698 -0.098191
v 0.242569 -0.007714 -0.091728
v 0.243743 0.033547 -0.090322
v 0.283311 0.031583 -0.096923
v 0.232125 0.001643 -0.227483
v 0.204253 -0.000213 -0.198835
v 0.204783 0.041884 -0.198339
v 0.232313 0.040457 -0.226809
v -0.120091 -0.007787 -0.189898
v -0.098212 -0.007717 -0.156675
v -0.099290 0.034533 -0.158493
v -0.121102 0.030825 -0.191354
v -0.197958 -0.006034 -0.079977
v -0.163550 -0.005874 -0.068452
v -0.164369 0.032143 -0.070520
v -0.198921 0.029311 -0.081969
v -0.202420 0.003924 0.057570
v -0.164230 0.002733 0.044697
v -0.164799 0.044513 0.045022
v -0.202310 0.042910 0.057654
v -0.124625 -0.008112 0.156824
v -0.094299 -0.007289 0.130604
v -0.093735 0.033072 0.132552
v -0.124347 0.031821 0.158995
v 0.001673 -0.007928 0.158240
v 0.016728 -0.007487 0.121157
v 0.015950 0.034318 0.123083
v 0.000999 0.030960 0.159906
v 0.131136 -0.009211 0.163879
v 0.112641 -0.009191 0.125593
v 0.113623 0.036112 0.127628
v 0.131962 0.032117 0.165590
v 0.212207 -0.007912 0.052271
v 0.173948 -0.007393 0.040130
v 0.175953 0.034254 0.040731
v 0.213919 0.030944 0.052807
v -0.074297 -0.010273 -0.123691
v -0.044859 -0.010313 -0.090408
v -0.047923 0.036855 -0.090057
v -0.077251 0.033255 -0.123507
v -0.099271 -0.008426 -0.061321
v -0.060742 -0.006655 -0.049230
v -0.063137 0.033802 -0.049131
v -0.101431 0.031298 -0.061161
v -0.116840 -0.011298 0.022650
v -0.077711 -0.010453 0.015791
v -0.080275 0.031633 0.016145
v -0.119323 0.027445 0.022997
v -0.003133 -0.001720 0.060440
v 0.000205 0.000108 0.034045
v -0.000015 0.026679 0.035869
v -0.003414 0.024745 0.062262
v 0.068412 -0.008266 0.075367
v 0.059989 -0.007282 0.036455
v 0.057511 0.034216 0.039249
v 0.066171 0.030594 0.078289
v 0.135300 0.002397 0.034214
v 0.100336 -0.000592 0.015192
v 0.099775 0.042181 0.015484
v 0.134147 0.040819 0.034122
v 0.133616 -0.007854 -0.054613
v 0.095856 -0.007646 -0.041753
v 0.096304 0.033835 -0.044510
v 0.134355 0.031114 -0.057320
v 0.083782 -0.007832 -0.123043
v 0.060563 -0.007736 -0.090700
v 0.063291 0.033905 -0.090352
v 0.086528 0.031103 -0.122985
v -0.074958 -0.008279 0.090557
v -0.044241 -0.006859 0.064406
v -0.046451 0.033863 0.065101
v -0.076929 0.031328 0.091080
v 0.273913 -0.010188 -0.022312
v 0.233783 -0.008698 -0.022486
v 0.234768 0.031111 -0.022448
v 0.275124 0.030413 -0.022258
v 0.117925 -0.002645 -0.278085
v 0.106952 -0.003195 -0.241089
v 0.105579 0.035982 -0.241503
v 0.116594 0.035409 -0.278498
v 0.066285 -0.008038 -0.197572
v 0.066308 0.031062 -0.199085
v 0.064050 0.034254 -0.166138
v 0.063815 -0.007395 -0.164399
v 0.200245 0.030428 -0.119005
v 0.176000 0.034296 -0.093860
v 0.174506 -0.007511 -0.092658
v 0.199281 -0.007353 -0.117714
vt 0.088344 0.522576
vt 0.088344 0.522576
vt 0.088344 0.522576
vt 0.088344 0.522576
vt 0.088344 0.522576
vt 0.088344 0.522576
vt 0.088344 0.522576
vt 0.088344 0.522576
vt 0.088344 0.522576
vt 0.088344 0.522576
vt 0.088344 0.522576
vt 0.088344 0.522576
vt 0.088344 0.522576
vt 0.088344 0.522576
vt 0.088344 0.522576
vt 0.088344 0.522576
vt 0.088344 0.522576
vt 0.088344 0.522576
vt 0.088344 0.522576
vt 0.088344 0.522576
vt 0.088344 0.522576
vt 0.088344 0.522576
vt 0.088344 0.522576
vt 0.088344 0.522576
vt 0.088344 0.522576
vt 0.088344 0.522576
vt 0.088344 0.522576
vt 0.088344 0.522576
vt 0.088344 0.522576
vt 0.088344 0.522576
vt 0.088344 0.522576
vt 0.088344 0.522576
vt 0.088344 0.522576
vt 0.088344 0.522576
vt 0.088344 0.522576
vt 0.088344 0.522576
vt 0.088344 0.522576
vt 0.088344 0.522576
vt 0.088344 0.522576
vt 0.088344 0.522576
vt 0.088344 0.522576
vt 0.088344 0.522576
vt 0.088344 0.522576
vt 0.088344 0.522576
vt 0.088344 0.522576
vt 0.088344 0.522576
vt 0.088344 0.522576
vt 0.088344 0.522576
vt 0.088344 0.522576
vt 0.088344 0.522576
vt 0.088344 0.522576
vt 0.088344 0.522576
vt 0.088344 0.522576
vt 0.088344 0.522576
vt 0.088344 0.522576
vt 0.088344 0.522576
vt 0.088344 0.522576
vt 0.088344 0.522576
vt 0.088344 0.522576
vt 0.088344 0.522576
vt 0.088344 0.522576
vt 0.088344 0.522576
vt 0.088344 0.522576
vt 0.088344 0.522576
vt 0.088344 0.522576
vt 0.088344 0.522576
vt 0.088344 0.522576
vt 0.088344 0.522576
vt 0.088344 0.522576
vt 0.088344 0.522576
vt 0.088344 0.522576
vt 0.088344 0.522576
vt 0.088344 0.522576
vt 0.088344 0.522576
vt 0.088344 0.522576
vt 0.088344 0.522576
vt 0.088344 0.522576
vt 0.088344 0.522576
vt 0.088344 0.522576
vt 0.088344 0.522576
vt 0.088344 0.522576
vt 0.088344 0.522576
vt 0.088344 0.522576
vt 0.088344 0.522576
vt 0.088344 0.522576
vt 0.088344 0.522576
vt 0.088344 0.522576
vt 0.088344 0.522576
vt 0.088344 0.522576
vt 0.088344 0.522576
vt 0.088344 0.522576
vt 0.088344 0.522576
vt 0.088344 0.522576
vt 0.088344 0.522576
vt 0.088344 0.522576
vt 0.088344 0.522576
vt 0.088344 0.522576
vt 0.088344 0.522576
vt 0.088344 0.522576
vt 0.088344 0.522576
vt 0.088344 0.522576
vt 0.088344 0.522576
vt 0.088344 0.522576
vt 0.088344 0.522576
vt 0.088344 0.522576
vt 0.088344 0.522576
vt 0.088344 0.522576
vt 0.088344 0.522576
vt 0.088344 0.522576
vt 0.088344 0.522576
vt 0.088344 0.522576
vt 0.088344 0.522576
vt 0.088344 0.522576
vt 0.088344 0.522576
vt 0.088344 0.522576
vt 0.088344 0.522576
vt 0.088344 0.522576
vt 0.088344 0.522576
vt 0.088344 0.522576
vt 0.088344 0.522576
vt 0.088344 0.522576
vt 0.088344 0.522576
vt 0.088344 0.522576
vt 0.088344 0.522576
vn 0.1430 0.9896 -0.0144
vn -0.0138 -0.9999 0.0008
vn 0.0448 0.9987 -0.0239
vn 0.0260 0.0116 0.9996
vn 0.0335 -0.9985 -0.0437
vn 0.3693 -0.0197 0.9291
vn -0.9919 -0.0007 -0.1267
vn 0.1634 -0.0061 -0.9865
vn -0.0482 0.9966 0.0663
vn 0.7998 -0.0061 0.6002
vn -0.0502 -0.9956 -0.0786
vn -0.3651 0.0053 -0.9309
vn 0.0453 -0.9986 0.0274
vn -0.8104 0.0479 0.5840
vn -0.0973 0.9952 0.0112
vn 0.8071 -0.0561 -0.5878
vn 0.0504 0.9975 -0.0486
vn 0.2615 0.0053 0.9652
vn -0.0606 -0.9973 0.0410
vn 0.9998 0.0175 0.0032
vn -0.1055 -0.9929 -0.0552
vn -0.2470 0.0024 -0.9690
vn 0.1211 0.9926 -0.0100
vn -0.3985 -0.0051 0.9172
vn 0.0027 -0.9999 -0.0137
vn 0.2995 -0.0023 -0.9541
vn 0.1210 -0.9903 -0.0690
vn -0.7905 -0.0136 0.6123
vn 0.0395 0.9965 0.0738
vn -0.6614 -0.0432 0.7488
vn -0.0756 0.9870 0.1417
vn 0.5136 -0.0379 -0.8572
vn -0.0128 -0.9972 0.0736
vn -0.0412 -0.0387 -0.9984
vn 0.0047 -0.9999 0.0113
vn -0.8117 0.0260 -0.5835
vn 0.0182 0.9944 0.1043
vn 0.9652 0.0566 0.2552
vn -0.1184 0.9886 0.0935
vn 0.8083 -0.0420 0.5872
vn -0.0145 -0.9998 -0.0113
vn 0.8205 0.0545 -0.5691
vn -0.0924 0.9957 0.0082
vn -0.9939 0.0262 0.1068
vn 0.0499 0.9978 0.0444
vn 0.9316 -0.0078 -0.3634
vn -0.0628 0.9928 -0.1020
vn -0.7983 0.0091 -0.6022
vn 0.9999 0.0050 -0.0087
vn 0.8057 -0.0238 0.5919
vn 0.0426 -0.9991 -0.0007
vn -0.1490 0.0038 0.9888
vn -0.0515 0.9971 0.0563
vn 0.3552 -0.0017 0.9348
vn -0.0166 -0.9997 0.0193
vn 0.7387 0.0227 -0.6737
vn -0.0531 0.9979 0.0366
vn 0.4062 0.0091 -0.9138
vn 0.0602 0.9938 -0.0933
vn -0.9991 0.0419 -0.0023
vn -0.0044 0.9947 -0.1030
vn -0.9996 -0.0122 -0.0273
vn 0.0007 -0.9999 0.0105
vn 0.7769 0.0175 -0.6294
vn -0.0206 -0.9994 -0.0263
vn 0.9338 0.0564 0.3533
vn 0.0356 0.9989 0.0296
vn -0.4851 0.0150 -0.8744
vn -0.1009 -0.9943 -0.0349
vn -0.9765 -0.0564 -0.2082
vn 0.0149 -0.9997 -0.0187
vn -0.8117 0.0455 -0.5823
vn -0.0173 0.9950 0.0986
vn -0.9914 0.0287 -0.1277
vn 0.1255 -0.9903 -0.0597
vn -0.3133 0.0250 -0.9493
vn 0.0868 0.9951 0.0476
vn 0.0463 0.0453 -0.9979
vn 0.0281 -0.9928 0.1167
vn -0.0434 -0.0419 0.9982
vn 0.0867 0.9962 0.0003
vn -0.7181 -0.0273 0.6955
vn 0.8028 0.0477 0.5944
vn 0.0029 -1.0000 -0.0035
vn 0.0735 0.9963 0.0443
vn 0.9964 -0.0356 -0.0775
vn -0.0835 0.9957 -0.0408
vn -0.9289 -0.0555 -0.3662
vn -0.0297 0.9984 -0.0480
vn 0.6803 0.0479 -0.7314
vn 0.0361 -0.9987 -0.0363
vn 0.9969 -0.0268 -0.0740
vn -0.0374 0.9985 0.0405
vn -0.8475 -0.0540 0.5280
vn 0.0142 0.9997 -0.0176
vn -0.8145 -0.0487 -0.5781
vn -0.0875 0.9960 0.0196
vn -0.0674 -0.9977 0.0046
vn 0.0400 -0.9991 -0.0129
vn -0.0250 0.9995 -0.0204
vn 0.0655 0.9907 -0.1195
vn 0.0491 0.0695 -0.9964
vn -0.9977 0.0006 0.0677
vn -0.0130 -0.9999 -0.0055
vn -0.4806 0.0148 -0.8768
vn 0.0213 -0.9996 0.0174
vn 0.5354 -0.0074 0.8445
vn 0.0587 0.9974 -0.0420
vn -0.0389 -0.0171 -0.9991
vn -0.0079 -0.9987 0.0500
vn -0.9408 0.0115 0.3388
vn -0.0066 -0.9999 0.0134
vn -0.0022 -1.0000 0.0073
vn 0.0471 0.0428 0.9980
vn 0.9937 -0.0320 0.1072
vn -0.0078 -0.9976 -0.0682
vn -0.0110 -0.9999 -0.0017
vn 0.3097 -0.0231 0.9505
vn -0.5427 0.0408 0.8390
vn -0.2139 -0.0790 0.9736
vn -0.0030 -1.0000 0.0027
vn -0.2899 0.0076 0.9570
vn -0.0743 0.9967 -0.0316
vn -0.9020 -0.0002 0.4316
g Rope_1_Rope_1_CollorMaterial
usemtl CollorMaterial
s off
f 122/1/1 72/2/1 121/3/1
f 123/4/2 69/5/2 70/6/2
f 35/7/3 36/8/3 112/9/3 111/10/3
f 7/11/4 4/12/4 1/13/4 6/14/4
f 9/15/5 13/16/5 14/17/5 10/18/5
f 16/19/6 20/20/6 17/21/6 13/16/6
f 86/22/7 85/23/7 88/24/7 87/25/7
f 113/26/8 5/27/8 8/28/8 116/29/8
f 15/30/9 19/31/9 20/20/9 16/19/9
f 16/19/10 13/16/10 9/15/10 12/32/10
f 54/33/11 58/34/11 57/35/11 53/36/11
f 10/18/12 11/37/12 3/38/12 2/39/12
f 82/40/13 106/41/13 105/42/13 81/43/13
f 99/44/14 103/45/14 102/46/14 98/47/14
f 75/48/15 76/49/15 80/50/15 79/51/15
f 100/52/16 97/53/16 101/54/16 104/55/16
f 3/38/17 11/37/17 12/32/17 4/12/17
f 22/56/18 23/57/18 75/48/18 74/58/18
f 17/21/19 18/59/19 14/17/19 13/16/19
f 51/60/20 55/61/20 54/33/20 50/62/20
f 102/46/21 22/56/21 21/63/21 101/54/21
f 21/63/22 73/64/22 76/49/22 24/65/22
f 103/45/23 104/55/23 24/65/23 23/57/23
f 42/66/24 43/67/24 115/68/24 114/69/24
f 66/70/25 70/6/25 69/5/25 65/71/25
f 104/55/26 101/54/26 21/63/26 24/65/26
f 21/63/27 22/56/27 74/58/27 73/64/27
f 53/36/28 57/35/28 60/72/28 56/73/28
f 27/74/29 28/75/29 32/76/29 31/77/29
f 105/42/30 61/78/30 64/79/30 108/80/30
f 92/81/31 96/82/31 95/83/31 91/84/31
f 121/3/32 124/85/32 117/86/32 118/87/32
f 49/88/33 50/62/33 54/33/33 53/36/33
f 118/87/34 117/86/34 45/89/34 48/90/34
f 29/91/35 30/92/35 34/93/35 33/94/35
f 31/77/36 35/7/36 34/93/36 30/92/36
f 55/61/37 56/73/37 60/72/37 59/95/37
f 78/96/38 79/51/38 83/97/38 82/40/38
f 88/24/39 92/81/39 91/84/39 87/25/39
f 65/71/40 69/5/40 72/2/40 68/98/40
f 5/27/41 6/14/41 1/13/41 2/39/41
f 83/97/42 107/99/42 106/41/42 82/40/42
f 83/97/43 84/100/43 108/80/43 107/99/43
f 34/93/44 35/7/44 111/10/44 110/101/44
f 32/76/45 36/8/45 35/7/45 31/77/45
f 40/102/46 37/103/46 41/104/46 44/105/46
f 52/106/47 56/73/47 55/61/47 51/60/47
f 10/18/48 14/17/48 15/30/48 11/37/48
f 93/107/49 97/53/49 100/52/49 96/82/49
f 32/76/50 29/91/50 33/94/50 36/8/50
f 114/69/51 6/14/51 5/27/51 113/26/51
f 114/69/52 115/68/52 7/11/52 6/14/52
f 108/80/53 64/79/53 63/108/53 107/99/53
f 4/12/54 12/32/54 9/15/54 1/13/54
f 34/93/55 110/101/55 109/109/55 33/94/55
f 59/95/56 27/74/56 26/110/56 58/34/56
f 60/72/57 28/75/57 27/74/57 59/95/57
f 41/104/58 113/26/58 116/29/58 44/105/58
f 121/3/59 118/87/59 119/111/59 122/1/59
f 71/112/60 122/1/60 123/4/60 70/6/60
f 118/87/61 48/90/61 47/113/61 119/111/61
f 52/106/62 49/88/62 53/36/62 56/73/62
f 117/86/63 120/114/63 46/115/63 45/89/63
f 54/33/64 55/61/64 59/95/64 58/34/64
f 109/109/65 110/101/65 38/116/65 37/103/65
f 75/48/66 79/51/66 78/96/66 74/58/66
f 112/9/67 40/102/67 39/117/67 111/10/67
f 18/59/68 19/31/68 15/30/68 14/17/68
f 85/23/69 86/22/69 90/118/69 89/119/69
f 77/120/70 81/43/70 84/100/70 80/50/70
f 105/42/71 106/41/71 62/121/71 61/78/71
f 66/70/72 67/122/72 71/112/72 70/6/72
f 64/79/73 68/98/73 67/122/73 63/108/73
f 111/10/74 39/117/74 38/116/74 110/101/74
f 89/119/75 90/118/75 94/123/75 93/107/75
f 26/110/76 27/74/76 31/77/76 30/92/76
f 67/122/77 68/98/77 72/2/77 71/112/77
f 63/108/78 67/122/78 66/70/78 62/121/78
f 94/123/79 98/47/79 97/53/79 93/107/79
f 64/79/80 61/78/80 65/71/80 68/98/80
f 122/1/81 71/112/81 72/2/81
f 60/72/82 57/35/82 25/124/82 28/75/82
f 46/115/83 47/113/83 51/60/83 50/62/83
f 123/4/84 124/85/84 69/5/84
f 40/102/85 44/105/85 43/67/85 39/117/85
f 72/2/86 69/5/86 124/85/86 121/3/86
f 47/113/87 48/90/87 52/106/87 51/60/87
f 76/49/88 73/64/88 77/120/88 80/50/88
f 43/67/89 44/105/89 116/29/89 115/68/89
f 106/41/90 107/99/90 63/108/90 62/121/90
f 77/120/91 78/96/91 82/40/91 81/43/91
f 33/94/92 109/109/92 112/9/92 36/8/92
f 15/30/93 16/19/93 12/32/93 11/37/93
f 84/100/94 81/43/94 105/42/94 108/80/94
f 8/28/95 3/38/95 4/12/95 7/11/95
f 45/89/96 49/88/96 52/106/96 48/90/96
f 80/50/97 84/100/97 83/97/97 79/51/97
f 9/15/98 10/18/98 2/39/98 1/13/98
f 42/66/99 114/69/99 113/26/99 41/104/99
f 115/68/100 116/29/100 8/28/100 7/11/100
f 95/83/101 96/82/101 100/52/101 99/44/101
f 86/22/102 87/25/102 91/84/102 90/118/102
f 94/123/103 95/83/103 99/44/103 98/47/103
f 61/78/104 62/121/104 66/70/104 65/71/104
f 91/84/105 95/83/105 94/123/105 90/118/105
f 26/110/106 30/92/106 29/91/106 25/124/106
f 92/81/107 89/119/107 93/107/107 96/82/107
f 100/52/108 104/55/108 103/45/108 99/44/108
f 5/27/109 2/39/109 3/38/109 8/28/109
f 74/58/110 78/96/110 77/120/110 73/64/110
f 39/117/111 43/67/111 42/66/111 38/116/111
f 46/115/112 50/62/112 49/88/112 45/89/112
f 124/85/113 123/4/113 120/114/113 117/86/113
f 119/111/114 47/113/114 46/115/114 120/114/114
f 112/9/115 109/109/115 37/103/115 40/102/115
f 37/103/116 38/116/116 42/66/116 41/104/116
f 57/35/117 58/34/117 26/110/117 25/124/117
f 25/124/118 29/91/118 32/76/118 28/75/118
f 122/1/119 119/111/119 120/114/119 123/4/119
f 85/23/120 89/119/120 92/81/120 88/24/120
f 97/53/121 98/47/121 102/46/121 101/54/121
f 103/45/122 23/57/122 22/56/122 102/46/122
f 24/65/123 76/49/123 75/48/123 23/57/123
f 18/59/124 17/21/124 20/20/124 19/31/124
