# Blender v3.0.0 OBJ File: 'Blender Medieval Village Megapack Low Poly .blend'
# www.blender.org
mtllib Spikes_2.mtl
o Spikes_2
v 0.520252 0.679212 0.090364
v 0.519569 0.706869 0.113543
v 0.519759 0.699183 0.107101
v 0.519038 0.728322 0.131522
v 0.494867 0.679212 0.090400
v 0.494183 0.706869 0.113579
v 0.494373 0.699183 0.107137
v 0.493652 0.728322 0.131558
v -0.491069 0.679232 0.091804
v -0.491752 0.706889 0.114983
v -0.491562 0.699203 0.108541
v -0.492283 0.728342 0.132962
v -0.519594 0.679232 0.091844
v -0.520277 0.706890 0.115023
v -0.520087 0.699203 0.108582
v -0.520807 0.728342 0.133002
v 0.027780 0.679222 0.091138
v 0.027097 0.706880 0.114317
v 0.027287 0.699193 0.107875
v 0.026566 0.728332 0.132296
v -0.001834 0.679223 0.091180
v -0.002518 0.706880 0.114359
v -0.002328 0.699194 0.107917
v -0.003048 0.728333 0.132338
v -0.492566 0.446574 -0.096913
v -0.496985 0.414778 -0.123827
v -0.495462 0.425736 -0.114552
v -0.493894 0.437017 -0.105003
v -0.510411 0.448952 -0.096235
v -0.514831 0.417156 -0.123149
v -0.513308 0.428114 -0.113874
v -0.511740 0.439395 -0.104325
v 0.523209 0.204946 -0.307096
v 0.523856 0.178782 -0.329023
v 0.523655 0.186891 -0.322227
v 0.523447 0.195290 -0.315188
v 0.508344 0.204946 -0.307075
v 0.508991 0.178782 -0.329002
v 0.508790 0.186892 -0.322206
v 0.508583 0.195290 -0.315167
v 0.027695 0.204957 -0.306317
v 0.028342 0.178793 -0.328245
v 0.028141 0.186902 -0.321448
v 0.027933 0.195301 -0.314410
v 0.008267 0.204957 -0.306290
v 0.008914 0.178793 -0.328217
v 0.008713 0.186903 -0.321421
v 0.008506 0.195301 -0.314382
v -0.493445 0.204966 -0.305649
v -0.492798 0.178802 -0.327576
v -0.492998 0.186912 -0.320779
v -0.493206 0.195310 -0.313741
v -0.509723 0.204966 -0.305625
v -0.509077 0.178802 -0.327553
v -0.509277 0.186912 -0.320756
v -0.509485 0.195310 -0.313718
v 0.494862 0.681974 0.087104
v 0.520248 0.681974 0.087068
v 0.494178 0.709632 0.110283
v 0.519564 0.709631 0.110247
v 0.494368 0.701945 0.103841
v 0.519754 0.701945 0.103805
v 0.493648 0.731084 0.128262
v 0.519034 0.731084 0.128226
v -0.519598 0.681995 0.088548
v -0.491073 0.681994 0.088508
v -0.520282 0.709652 0.111727
v -0.491757 0.709651 0.111686
v -0.520092 0.701966 0.105285
v -0.491567 0.701965 0.105245
v -0.520812 0.731105 0.129706
v -0.492287 0.731104 0.129665
v -0.001839 0.681985 0.087884
v 0.027776 0.681985 0.087842
v -0.002522 0.709643 0.111063
v 0.027092 0.709642 0.111021
v -0.002332 0.701956 0.104621
v 0.027282 0.701956 0.104579
v -0.003053 0.731095 0.129042
v 0.026562 0.731095 0.129000
v -0.510170 0.451707 -0.099529
v -0.492324 0.449329 -0.100206
v -0.514589 0.419911 -0.126443
v -0.496743 0.417533 -0.127121
v -0.513066 0.430869 -0.117168
v -0.495220 0.428490 -0.117846
v -0.511498 0.442149 -0.107619
v -0.493652 0.439771 -0.108297
v 0.508339 0.207708 -0.310371
v 0.523204 0.207708 -0.310392
v 0.508986 0.181544 -0.332298
v 0.523851 0.181544 -0.332320
v 0.508786 0.189654 -0.325502
v 0.523650 0.189654 -0.325523
v 0.508578 0.198053 -0.318463
v 0.523443 0.198052 -0.318484
v 0.008262 0.207719 -0.309586
v 0.027690 0.207719 -0.309613
v 0.008909 0.181555 -0.331513
v 0.028337 0.181555 -0.331541
v 0.008709 0.189665 -0.324717
v 0.028136 0.189665 -0.324744
v 0.008501 0.198064 -0.317678
v 0.027929 0.198063 -0.317706
v -0.509728 0.207729 -0.308922
v -0.493449 0.207728 -0.308945
v -0.509081 0.181565 -0.330849
v -0.492802 0.181564 -0.330872
v -0.509282 0.189674 -0.324052
v -0.493003 0.189674 -0.324076
v -0.509489 0.198073 -0.317014
v -0.493211 0.198072 -0.317037
v -0.554708 0.101851 -0.341444
v -0.554707 0.755561 0.207084
v -0.464536 0.101851 -0.341444
v -0.464535 0.791740 0.237441
v -0.419450 0.051655 -0.281623
v -0.419449 0.705365 0.266905
v -0.464535 0.003923 -0.221836
v -0.464535 0.691348 0.357083
v -0.554707 0.003923 -0.221836
v -0.554707 0.655170 0.326726
v -0.599793 0.051655 -0.281623
v -0.599793 0.741544 0.297262
v -0.509621 1.040485 0.548103
v -0.036920 0.101851 -0.341444
v -0.036919 0.791740 0.237441
v 0.053252 0.101851 -0.341445
v 0.053252 0.755561 0.207084
v 0.098338 0.051655 -0.281624
v 0.098338 0.741544 0.297262
v 0.053252 0.003923 -0.221837
v 0.053252 0.655170 0.326726
v -0.036919 0.003923 -0.221837
v -0.036919 0.691348 0.357083
v -0.082005 0.051655 -0.281624
v -0.082006 0.705365 0.266905
v 0.008166 1.040485 0.548103
v 0.456704 0.101851 -0.341445
v 0.456704 0.755561 0.207084
v 0.546875 0.101851 -0.341445
v 0.591961 0.051655 -0.281623
v 0.591961 0.705365 0.266905
v 0.546876 0.003923 -0.221837
v 0.546876 0.691348 0.357083
v 0.456704 0.003923 -0.221837
v 0.456704 0.655170 0.326725
v 0.411618 0.051655 -0.281623
v 0.411618 0.741544 0.297262
v 0.501791 1.040485 0.548103
v -0.469013 0.584438 0.248080
v -0.481973 0.559517 0.227169
v -0.537270 0.559517 0.227169
v -0.550230 0.584438 0.248081
v -0.481973 0.666346 0.316809
v -0.469013 0.641610 0.296053
v -0.550230 0.641610 0.296053
v -0.537270 0.666346 0.316809
v 0.050779 0.595270 0.263755
v 0.037820 0.570386 0.242875
v -0.017008 0.570387 0.242875
v -0.029968 0.595270 0.263755
v 0.037819 0.669946 0.326415
v 0.050779 0.645226 0.305673
v -0.029968 0.645226 0.305673
v -0.017009 0.669946 0.326415
v 0.542415 0.616957 0.277298
v 0.529455 0.592103 0.256444
v 0.474125 0.592104 0.256444
v 0.461166 0.616957 0.277298
v 0.529455 0.671788 0.323307
v 0.542414 0.647063 0.302560
v 0.461166 0.647063 0.302560
v 0.474125 0.671788 0.323307
v -0.625266 0.715211 0.173277
v 0.609506 0.715187 0.171519
v 0.611327 0.641525 0.109785
v -0.623445 0.641549 0.111543
v -0.617655 0.407368 -0.084719
v -0.619056 0.464045 -0.037220
v 0.622489 0.190045 -0.268591
v -0.612283 0.190069 -0.266833
v 0.623626 0.144066 -0.307125
v -0.611146 0.144091 -0.305366
v -0.538031 0.003923 0.331410
v 0.038963 0.003923 0.467456
v 0.473278 0.003923 0.370709
v 0.459697 0.003923 0.399797
v 0.543890 0.003923 0.399694
v -0.018212 0.003923 0.467445
v -0.031696 0.003923 0.437532
v -0.017879 0.003923 0.352427
v -0.031449 0.003923 0.381564
v -0.551701 0.003923 0.424492
v -0.538305 0.003923 0.454214
v 0.052267 0.003923 0.381462
v -0.480991 0.003923 0.454223
v 0.530620 0.003923 0.463309
v -0.467745 0.003923 0.360420
v -0.481194 0.003923 0.331386
v 0.472898 0.003923 0.463299
v 0.459425 0.003923 0.433372
v -0.551492 0.003923 0.360509
v -0.467537 0.003923 0.424401
v 0.052511 0.003923 0.437428
v 0.038712 0.003923 0.352401
v 0.530323 0.003923 0.370683
v 0.544158 0.003923 0.433267
v -0.611901 0.215111 -0.297465
v 0.622871 0.215087 -0.299222
v -0.610764 0.169133 -0.335998
v -0.618674 0.489087 -0.067852
v -0.617273 0.432411 -0.115351
v 0.611709 0.666567 0.079153
v 0.609888 0.740229 0.140888
v 0.624008 0.169109 -0.337756
v 0.174419 0.215438 -0.261011
v 0.174802 0.240480 -0.291643
v 0.173401 0.297156 -0.244143
v 0.173018 0.272114 -0.213511
v 0.235542 0.641532 0.110320
v 0.233721 0.715194 0.172054
v 0.234103 0.740236 0.141423
v 0.429232 0.715190 0.171776
v 0.429615 0.740232 0.141144
v 0.431054 0.641528 0.110042
v 0.431436 0.666571 0.079410
v 0.312071 0.638086 0.109137
v 0.312454 0.663128 0.078505
v 0.310250 0.711748 0.170871
v 0.310088 0.722585 0.126408
v 0.267456 0.190052 -0.268086
v 0.268593 0.144073 -0.306619
v 0.268975 0.169116 -0.337251
v 0.268309 0.196044 -0.314682
v 0.072538 0.215098 -0.298439
v 0.267597 0.199295 -0.279393
v 0.293546 0.215093 -0.298754
v 0.513822 0.778478 0.226313
v 0.542718 0.814677 0.266088
v 0.563035 0.760783 0.248001
v 0.546876 0.679740 0.143462
v -0.623259 0.674513 0.087550
v -0.623163 0.660022 0.088947
v 0.235824 0.660005 0.087724
v 0.235729 0.674496 0.086327
v 0.246606 0.666094 0.079523
v -0.625074 0.727792 0.157888
v -0.604606 0.740253 0.142617
v -0.624512 0.725228 0.130053
v -0.223019 0.368080 -0.103480
v -0.221236 0.336445 -0.181611
v -0.221618 0.311403 -0.150979
v -0.222637 0.393122 -0.134112
vt 0.775831 0.778493
vt 0.775831 0.778493
vt 0.775831 0.778493
vt 0.775831 0.778493
vt 0.775831 0.778493
vt 0.775831 0.778493
vt 0.775831 0.778493
vt 0.775831 0.778493
vt 0.775831 0.778493
vt 0.775831 0.778493
vt 0.775831 0.778493
vt 0.775831 0.778493
vt 0.775831 0.778493
vt 0.775831 0.778493
vt 0.775831 0.778493
vt 0.775831 0.778493
vt 0.775831 0.778493
vt 0.775831 0.778493
vt 0.775831 0.778493
vt 0.775831 0.778493
vt 0.775831 0.778493
vt 0.775831 0.778493
vt 0.775831 0.778493
vt 0.775831 0.778493
vt 0.042969 0.968750
vt 0.042969 0.968750
vt 0.042969 0.968750
vt 0.042969 0.968750
vt 0.042969 0.968750
vt 0.042969 0.968750
vt 0.042969 0.968750
vt 0.042969 0.968750
vt 0.042969 0.968750
vt 0.042969 0.968750
vt 0.042969 0.968750
vt 0.042969 0.968750
vt 0.042969 0.968750
vt 0.042969 0.968750
vt 0.042969 0.968750
vt 0.042969 0.968750
vt 0.042969 0.968750
vt 0.042969 0.968750
vt 0.042969 0.968750
vt 0.042969 0.968750
vt 0.042969 0.968750
vt 0.042969 0.968750
vt 0.042969 0.968750
vt 0.042969 0.968750
vt 0.042969 0.968750
vt 0.042969 0.968750
vt 0.042969 0.968750
vt 0.042969 0.968750
vt 0.042969 0.968750
vt 0.042969 0.968750
vt 0.042969 0.968750
vt 0.042969 0.968750
vt 0.042969 0.968750
vt 0.042969 0.968750
vt 0.042969 0.968750
vt 0.042969 0.968750
vt 0.042969 0.968750
vt 0.042969 0.968750
vt 0.042969 0.968750
vt 0.042969 0.968750
vt 0.042969 0.968750
vt 0.042969 0.968750
vt 0.042969 0.968750
vt 0.042969 0.968750
vt 0.042969 0.968750
vt 0.042969 0.968750
vt 0.042969 0.968750
vt 0.042969 0.968750
vt 0.042969 0.968750
vt 0.042969 0.968750
vt 0.042969 0.968750
vt 0.042969 0.968750
vt 0.042969 0.968750
vt 0.042969 0.968750
vt 0.042969 0.968750
vt 0.042969 0.968750
vt 0.042969 0.968750
vt 0.042969 0.968750
vt 0.042969 0.968750
vt 0.042969 0.968750
vt 0.042969 0.968750
vt 0.042969 0.968750
vt 0.042969 0.968750
vt 0.042969 0.968750
vt 0.042969 0.968750
vt 0.042969 0.968750
vt 0.042969 0.968750
vt 0.042969 0.968750
vt 0.042969 0.968750
vt 0.042969 0.968750
vt 0.042969 0.968750
vt 0.042969 0.968750
vt 0.042969 0.968750
vt 0.042969 0.968750
vt 0.042969 0.968750
vt 0.042969 0.968750
vt 0.042969 0.968750
vt 0.042969 0.968750
vt 0.042969 0.968750
vt 0.042969 0.968750
vt 0.042969 0.968750
vt 0.042969 0.968750
vt 0.042969 0.968750
vt 0.042969 0.968750
vt 0.042969 0.968750
vt 0.042969 0.968750
vt 0.220111 0.935529
vt 0.220111 0.935529
vt 0.220111 0.935529
vt 0.220111 0.935529
vt 0.220111 0.935529
vt 0.220111 0.935529
vt 0.220111 0.935529
vt 0.220111 0.935529
vt 0.220111 0.935529
vt 0.220111 0.935529
vt 0.220111 0.935529
vt 0.220111 0.935529
vt 0.220111 0.935529
vt 0.220111 0.935529
vt 0.220111 0.935529
vt 0.220111 0.935529
vt 0.220111 0.935529
vt 0.220111 0.935529
vt 0.220111 0.935529
vt 0.220111 0.935529
vt 0.220111 0.935529
vt 0.220111 0.935529
vt 0.220111 0.935529
vt 0.220111 0.935529
vt 0.220111 0.935529
vt 0.220111 0.935529
vt 0.220111 0.935529
vt 0.220111 0.935529
vt 0.220111 0.935529
vt 0.220111 0.935529
vt 0.220111 0.935529
vt 0.220111 0.935529
vt 0.220111 0.935529
vt 0.220111 0.935529
vt 0.220111 0.935529
vt 0.220111 0.935529
vt 0.220111 0.935529
vt 0.220111 0.935529
vt 0.220111 0.935529
vt 0.220111 0.935529
vt 0.220111 0.935529
vt 0.220111 0.935529
vt 0.220111 0.935529
vt 0.220111 0.935529
vt 0.220111 0.935529
vt 0.220111 0.935529
vt 0.220111 0.935529
vt 0.220111 0.935529
vt 0.220111 0.935529
vt 0.220111 0.935529
vt 0.220111 0.935529
vt 0.220111 0.935529
vt 0.949219 0.054688
vt 0.949219 0.054688
vt 0.949219 0.054688
vt 0.949219 0.054688
vt 0.949219 0.054688
vt 0.949219 0.054688
vt 0.949219 0.054688
vt 0.949219 0.054688
vt 0.949219 0.054688
vt 0.949219 0.054688
vt 0.949219 0.054688
vt 0.949219 0.054688
vt 0.949219 0.054688
vt 0.949219 0.054688
vt 0.949219 0.054688
vt 0.949219 0.054688
vt 0.949219 0.054688
vt 0.949219 0.054688
vt 0.949219 0.054688
vt 0.949219 0.054688
vt 0.949219 0.054688
vt 0.949219 0.054688
vt 0.949219 0.054688
vt 0.949219 0.054688
vt 0.949219 0.054688
vt 0.949219 0.054688
vt 0.949219 0.054688
vt 0.949219 0.054688
vt 0.949219 0.054688
vt 0.949219 0.054688
vt 0.949219 0.054688
vt 0.949219 0.054688
vt 0.949219 0.054688
vt 0.949219 0.054688
vt 0.949219 0.054688
vt 0.949219 0.054688
vt 0.949219 0.054688
vt 0.949219 0.054688
vt 0.949219 0.054688
vt 0.949219 0.054688
vt 0.949219 0.054688
vt 0.949219 0.054688
vt 0.949219 0.054688
vt 0.949219 0.054688
vt 0.949219 0.054688
vt 0.949219 0.054688
vt 0.949219 0.054688
vt 0.949219 0.054688
vt 0.949219 0.054688
vt 0.949219 0.054688
vt 0.949219 0.054688
vt 0.949219 0.054688
vt 0.949219 0.054688
vt 0.949219 0.054688
vt 0.949219 0.054688
vt 0.949219 0.054688
vt 0.949219 0.054688
vt 0.949219 0.054688
vt 0.949219 0.054688
vt 0.949219 0.054688
vt 0.949219 0.054688
vt 0.949219 0.054688
vt 0.949219 0.054688
vt 0.949219 0.054688
vt 0.949219 0.054688
vt 0.949219 0.054688
vt 0.949219 0.054688
vt 0.949219 0.054688
vt 0.949219 0.054688
vt 0.949219 0.054688
vt 0.949219 0.054688
vt 0.949219 0.054688
vt 0.949219 0.054688
vt 0.949219 0.054688
vt 0.949219 0.054688
vt 0.949219 0.054688
vt 0.949219 0.054688
vt 0.949219 0.054688
vt 0.949219 0.054688
vt 0.949219 0.054688
vt 0.949219 0.054688
vt 0.949219 0.054688
vt 0.949219 0.054688
vt 0.949219 0.054688
vt 0.949219 0.054688
vt 0.949219 0.054688
vt 0.949219 0.054688
vt 0.949219 0.054688
vt 0.949219 0.054688
vt 0.949219 0.054688
vt 0.949219 0.054688
vt 0.949219 0.054688
vt 0.949219 0.054688
vt 0.949219 0.054688
vt 0.949219 0.054688
vt 0.949219 0.054688
vt 0.949219 0.054688
vt 0.949219 0.054688
vt 0.949219 0.054688
vt 0.949219 0.054688
vt 0.949219 0.054688
vt 0.949219 0.054688
vt 0.949219 0.054688
vt 0.949219 0.054688
vt 0.949219 0.054688
vt 0.949219 0.054688
vt 0.949219 0.054688
vt 0.949219 0.054688
vt 0.949219 0.054688
vt 0.949219 0.054688
vt 0.949219 0.054688
vt 0.949219 0.054688
vn -0.7987 -0.2268 0.5574
vn -0.0967 0.7701 -0.6306
vn 0.8954 -0.1192 0.4291
vn -0.7987 0.5095 -0.3201
vn -0.0967 -0.4873 0.8679
vn 0.8954 0.4019 -0.1919
vn -0.8953 -0.1192 0.4291
vn 0.0967 0.7701 -0.6306
vn 0.7987 -0.2268 0.5574
vn -0.8954 0.4019 -0.1919
vn 0.0967 -0.4873 0.8679
vn 0.7987 0.5095 -0.3201
vn 0.4897 0.4377 -0.7541
vn 0.4897 0.6508 -0.5802
vn 0.0000 -0.7737 -0.6335
vn -0.0002 -0.1844 -0.9829
vn 0.8660 0.3214 -0.3830
vn -0.8660 0.3214 -0.3830
vn 0.8637 -0.3243 0.3858
vn 0.0005 -0.6442 0.7649
vn -0.8638 -0.3242 0.3856
vn 0.0000 0.6428 -0.7660
vn -0.0005 -0.6442 0.7649
vn -0.8637 -0.3243 0.3858
vn 1.0000 0.0017 -0.0027
vn -0.9001 0.0889 0.4264
vn -0.0002 -0.1899 -0.9818
vn -1.0000 0.0015 -0.0054
vn -1.0000 0.0019 -0.0035
vn -0.0001 0.2031 0.9792
vn 1.0000 0.0019 -0.0035
vn -1.0000 0.0017 -0.0027
vn -0.0002 -0.1907 -0.9817
vn 0.8973 -0.0811 -0.4340
vn 0.8968 -0.0834 -0.4345
vn 0.9003 0.0899 0.4259
vn 1.0000 0.0015 -0.0053
vn -0.0001 0.2052 0.9787
vn 0.9001 0.0889 0.4266
vn -0.8966 -0.0840 -0.4347
vn 0.9002 0.0908 0.4258
vn -0.9003 0.0909 0.4256
vn -0.0001 0.2072 0.9783
vn -0.9004 0.0900 0.4257
vn -0.8969 -0.0835 -0.4342
vn 0.8965 -0.0840 -0.4351
vn -0.8974 -0.0811 -0.4337
vn 0.0209 -0.7736 -0.6334
vn -0.0209 -0.7736 -0.6334
vn 0.8638 -0.3242 0.3856
vn -0.0011 0.6423 -0.7664
vn 0.0011 -0.6423 0.7664
vn 0.0272 -0.7741 -0.6325
vn 0.0009 0.7742 0.6329
vn -0.1074 0.8972 0.4284
vn -0.0014 -0.0960 -0.9954
vn -0.2816 -0.7412 -0.6094
vn 0.9998 0.0085 0.0194
vn 0.2816 0.7412 0.6094
vn -0.0009 -0.7742 -0.6329
vn 0.0891 0.9920 -0.0896
vn 0.0576 -0.6404 0.7659
vn 0.3418 0.7255 0.5974
vn -0.9998 -0.0085 -0.0194
vn -0.0171 -0.6425 0.7661
vn -0.3418 -0.7255 -0.5974
vn -0.0022 0.6423 -0.7665
vn 0.1682 0.8893 0.4254
vn -0.5646 0.8208 -0.0870
vn -0.5735 -0.0824 -0.8151
vn 0.0127 -0.6421 0.7665
vn 0.0276 0.6425 -0.7658
vn -0.0056 0.6356 -0.7720
vn -0.0446 -0.7732 -0.6326
vn 0.0162 0.6277 -0.7783
vn 0.0065 0.6343 -0.7730
vn -0.0276 -0.6425 0.7658
vn -0.0576 0.6404 -0.7659
vn 0.0563 0.6405 -0.7659
vn -0.0009 -0.7664 -0.6423
vn -0.0009 -0.7665 -0.6423
vn 0.9928 -0.1170 -0.0249
vn 0.0009 0.7664 0.6423
vn -0.9928 0.1169 0.0249
vn -0.9998 -0.0152 -0.0113
vn 0.9998 0.0152 0.0114
vn 0.0009 0.7665 0.6423
vn 0.1252 0.7565 0.6419
vn 0.9998 0.0152 0.0113
vn -0.9998 -0.0152 -0.0114
vn -0.1252 -0.7565 -0.6419
vn 0.9928 -0.1169 -0.0249
g Spikes_2_Spikes_2_CollorMaterial
usemtl CollorMaterial
s off
f 124/1/1 122/2/1 125/3/1
f 116/4/2 114/5/2 125/3/2
f 120/6/3 118/7/3 125/3/3
f 114/5/4 124/1/4 125/3/4
f 122/2/5 120/6/5 125/3/5
f 118/7/6 116/4/6 125/3/6
f 137/8/7 135/9/7 138/10/7
f 129/11/8 127/12/8 138/10/8
f 133/13/9 131/14/9 138/10/9
f 127/12/10 137/8/10 138/10/10
f 135/9/11 133/13/11 138/10/11
f 131/14/12 129/11/12 138/10/12
f 239/15/13 240/16/13 241/17/13
f 143/18/6 240/16/6 150/19/6
f 149/20/1 147/21/1 150/19/1
f 145/22/3 143/18/3 150/19/3
f 140/23/4 149/20/4 150/19/4
f 147/21/5 145/22/5 150/19/5
f 239/15/14 241/17/14 242/24/14
f 240/16/2 140/23/2 150/19/2
f 143/18/6 241/17/6 240/16/6
f 240/16/2 239/15/2 140/23/2
f 139/25/15 141/26/15 144/27/15 146/28/15
f 113/29/15 115/30/15 119/31/15 121/32/15
f 126/33/15 128/34/15 132/35/15 134/36/15
f 200/37/16 185/38/16 153/39/16 152/40/16
f 115/30/17 116/41/17 118/42/17 117/43/17
f 148/44/18 149/45/18 140/46/18 139/25/18
f 143/47/19 145/48/19 144/27/19 142/49/19
f 144/27/20 145/48/20 147/50/20 146/28/20
f 147/50/21 149/45/21 148/44/21 146/28/21
f 137/51/18 127/52/18 126/33/18 136/53/18
f 119/31/20 120/54/20 122/55/20 121/32/20
f 126/33/22 127/52/22 129/56/22 128/34/22
f 122/55/21 124/57/21 123/58/21 121/32/21
f 118/42/19 120/54/19 119/31/19 117/43/19
f 129/56/17 131/59/17 130/60/17 128/34/17
f 133/61/23 135/62/23 134/36/23 132/35/23
f 134/36/24 135/62/24 137/51/24 136/53/24
f 242/63/17 143/47/17 142/49/17
f 140/46/22 239/64/22 242/63/22
f 123/58/18 124/57/18 114/65/18 113/29/18
f 204/66/25 199/67/25 151/68/25 156/69/25
f 157/70/26 194/71/26 195/72/26 158/73/26
f 206/74/27 192/75/27 161/76/27 160/77/27
f 202/78/28 173/79/28 170/80/28 188/81/28
f 191/82/29 165/83/29 162/84/29 193/85/29
f 158/73/30 195/72/30 197/86/30 155/87/30
f 205/88/31 196/89/31 159/90/31 164/91/31
f 194/71/32 157/70/32 154/92/32 203/93/32
f 207/94/33 187/95/33 169/96/33 168/97/33
f 199/67/34 200/37/34 152/40/34 151/68/34
f 196/89/35 206/74/35 160/77/35 159/90/35
f 198/98/36 208/99/36 172/100/36 171/101/36
f 208/99/37 189/102/37 167/103/37 172/100/37
f 174/104/38 201/105/38 198/98/38 171/101/38
f 156/69/39 155/87/39 197/86/39 204/66/39
f 169/96/40 187/95/40 188/81/40 170/80/40
f 164/91/41 163/106/41 186/107/41 205/88/41
f 165/83/42 191/82/42 190/108/42 166/109/42
f 166/109/43 190/108/43 186/107/43 163/106/43
f 173/79/44 202/78/44 201/105/44 174/104/44
f 193/85/45 162/84/45 161/76/45 192/75/45
f 189/102/46 207/94/46 168/97/46 167/103/46
f 114/65/22 116/41/22 115/30/22 113/29/22
f 203/93/47 154/92/47 153/39/47 185/38/47
f 123/58/48 113/29/48 121/32/48
f 115/30/49 117/43/49 119/31/49
f 136/53/48 126/33/48 134/36/48
f 128/34/49 130/60/49 132/35/49
f 148/44/48 139/25/48 146/28/48
f 141/26/49 142/49/49 144/27/49
f 142/49/17 141/26/17 242/63/17
f 242/63/17 241/110/17 143/47/17
f 141/26/22 139/25/22 242/63/22
f 139/25/22 140/46/22 242/63/22
f 130/60/50 131/59/50 133/61/50 132/35/50
f 227/111/51 225/112/51 215/113/51 214/114/51
f 184/115/52 233/116/52 232/117/52 182/118/52
f 229/119/53 227/111/53 226/120/53 228/121/53
f 226/120/52 177/122/52 176/123/52 224/124/52
f 222/125/54 223/126/54 249/127/54 175/128/54
f 225/112/55 231/129/55 230/130/55 224/124/55
f 244/131/56 243/132/56 246/133/56 245/134/56
f 176/123/54 215/113/54 225/112/54 224/124/54
f 243/132/51 250/135/51 249/127/51
f 179/136/57 213/137/57 252/138/57 253/139/57
f 183/140/58 216/141/58 210/142/58 181/143/58
f 238/144/51 210/142/51 216/141/51 234/145/51
f 177/122/58 214/114/58 215/113/58 176/123/58
f 254/146/59 212/147/59 180/148/59 251/149/59
f 234/145/60 216/141/60 183/140/60 233/116/60
f 217/150/58 218/151/58 219/152/58 220/153/58
f 249/127/54 248/154/54 175/128/54
f 236/155/54 209/156/54 182/118/54
f 235/157/61 236/155/61 237/158/61
f 253/139/62 217/150/62 220/153/62 251/149/62
f 220/153/63 219/152/63 254/146/63 251/149/63
f 212/147/64 213/137/64 179/136/64 180/148/64
f 181/143/54 210/142/54 238/144/54 232/117/54
f 209/156/64 211/159/64 184/115/64 182/118/64
f 178/160/52 221/161/52 222/125/52 175/128/52
f 221/161/65 228/121/65 230/130/65 222/125/65
f 244/131/60 245/134/60 221/161/60 178/160/60
f 252/138/66 218/151/66 217/150/66 253/139/66
f 246/133/67 223/126/67 231/129/67
f 230/130/68 231/129/68 223/126/68 222/125/68
f 246/133/51 243/132/51 249/127/51 223/126/51
f 236/155/51 234/145/51 211/159/51
f 233/116/52 183/140/52 181/143/52 232/117/52
f 227/111/60 214/114/60 177/122/60 226/120/60
f 235/157/69 237/158/69 238/144/69
f 238/144/54 237/158/54 232/117/54
f 245/134/70 246/133/70 247/162/70
f 226/120/71 224/124/71 230/130/71 228/121/71
f 211/159/60 234/145/60 233/116/60 184/115/60
f 248/154/69 249/127/69 250/135/69
f 243/132/64 244/131/64 178/160/64
f 254/146/72 252/138/72 213/137/72 212/147/72
f 250/135/64 243/132/64 178/160/64 175/128/64
f 227/111/73 229/119/73 231/129/73 225/112/73
f 228/121/74 221/161/74 247/162/74 229/119/74
f 221/161/74 245/134/74 247/162/74
f 182/118/54 232/117/54 236/155/54
f 232/117/54 237/158/54 236/155/54
f 231/129/75 229/119/75 247/162/75
f 247/162/76 246/133/76 231/129/76
f 211/159/51 209/156/51 236/155/51
f 236/155/51 235/157/51 234/145/51
f 234/145/51 235/157/51 238/144/51
f 179/136/77 253/139/77 251/149/77 180/148/77
f 219/152/78 218/151/78 252/138/78 254/146/78
f 175/128/64 248/154/64 250/135/64
g Spikes_2_Spikes_2_Metal2
usemtl Metal2
f 83/163/79 85/164/79 86/165/79 84/166/79
f 59/167/51 63/168/51 64/169/51 60/170/51
f 75/171/51 79/172/51 80/173/51 76/174/51
f 67/175/51 71/176/51 72/177/51 68/178/51
f 57/179/51 61/180/51 62/181/51 58/182/51
f 73/183/51 77/184/51 78/185/51 74/186/51
f 65/187/51 69/188/51 70/189/51 66/190/51
f 111/191/51 105/192/51 106/193/51 112/194/51
f 91/195/51 93/196/51 94/197/51 92/198/51
f 99/199/51 101/200/51 102/201/51 100/202/51
f 50/203/80 54/204/80 107/205/80 108/206/80
f 9/207/81 13/208/81 65/187/81 66/190/81
f 25/209/82 28/210/82 88/211/82 82/212/82
f 19/213/83 78/185/83 77/184/83 23/214/83
f 29/215/84 81/216/84 87/217/84 32/218/84
f 47/219/83 43/220/83 102/201/83 101/200/83
f 48/221/80 103/222/80 104/223/80 44/224/80
f 8/225/85 63/168/85 59/167/85 6/226/85
f 36/227/86 96/228/86 90/229/86 33/230/86
f 7/231/85 61/180/85 57/179/85 5/232/85
f 4/233/87 64/169/87 63/168/87 8/225/87
f 12/234/83 72/177/83 71/176/83 16/235/83
f 31/236/88 27/237/88 86/165/88 85/164/88
f 48/221/85 45/238/85 97/239/85 103/222/85
f 42/240/89 100/202/89 102/201/89 43/220/89
f 21/241/80 73/183/80 74/186/80 17/242/80
f 49/243/86 52/244/86 112/194/86 106/193/86
f 46/245/85 47/219/85 101/200/85 99/199/85
f 29/215/88 25/209/88 82/212/88 81/216/88
f 34/246/89 92/198/89 94/197/89 35/247/89
f 2/248/89 60/170/89 64/169/89 4/233/89
f 18/249/89 76/174/89 80/173/89 20/250/89
f 38/251/90 39/252/90 93/196/90 91/195/90
f 44/224/89 104/223/89 98/253/89 41/254/89
f 28/210/91 32/218/91 87/217/91 88/211/91
f 10/255/89 68/178/89 72/177/89 12/234/89
f 52/244/80 56/256/80 111/191/80 112/194/80
f 1/257/89 58/182/89 62/181/89 3/258/89
f 35/247/83 94/197/83 93/196/83 39/252/83
f 33/230/83 90/229/83 89/259/83 37/260/83
f 6/226/80 59/167/80 60/170/80 2/248/80
f 51/261/83 110/262/83 109/263/83 55/264/83
f 24/265/85 79/172/85 75/171/85 22/266/85
f 10/255/80 14/267/80 67/175/80 68/178/80
f 51/261/89 50/203/89 108/206/89 110/262/89
f 3/258/87 62/181/87 61/180/87 7/231/87
f 17/242/89 74/186/89 78/185/89 19/213/89
f 49/243/83 106/193/83 105/192/83 53/268/83
f 54/204/90 55/264/90 109/263/90 107/205/90
f 34/246/80 38/251/80 91/195/80 92/198/80
f 13/208/85 15/269/85 69/188/85 65/187/85
f 16/235/85 71/176/85 67/175/85 14/267/85
f 53/268/90 105/192/90 111/191/90 56/256/90
f 30/270/91 83/163/91 84/166/91 26/271/91
f 11/272/89 9/207/89 66/190/89 70/189/89
f 5/232/80 57/179/80 58/182/80 1/257/80
f 40/273/90 37/260/90 89/259/90 95/274/90
f 36/227/80 40/273/80 95/274/80 96/228/80
f 15/269/83 11/272/83 70/189/83 69/188/83
f 27/237/92 26/271/92 84/166/92 86/165/92
f 23/214/85 77/184/85 73/183/85 21/241/85
f 42/240/80 46/245/80 99/199/80 100/202/80
f 45/238/87 41/254/87 98/253/87 97/239/87
f 24/265/83 20/250/83 80/173/83 79/172/83
f 30/270/84 31/236/84 85/164/84 83/163/84
f 107/205/51 109/263/51 110/262/51 108/206/51
f 95/274/51 89/259/51 90/229/51 96/228/51
f 103/222/51 97/239/51 98/253/51 104/223/51
f 87/217/79 81/216/79 82/212/79 88/211/79
f 18/249/81 22/266/81 75/171/81 76/174/81
