# Blender v3.0.0 OBJ File: 'Blender Medieval Village Megapack Low Poly .blend'
# www.blender.org
mtllib Stone_4.mtl
o Stone_4
v -0.290428 -0.006146 -0.317299
v -0.236945 0.046839 -0.399527
v -0.528208 0.005271 0.121008
v 0.395966 0.020919 -0.346512
v -0.464459 -0.001832 0.208316
v 0.355552 0.005712 0.075446
v -0.491434 0.141655 0.300656
v 0.285573 0.459179 -0.391357
v -0.524194 0.071420 0.232406
v -0.146376 0.367538 0.037239
v -0.160555 0.317570 0.199487
v -0.012328 0.316764 0.266327
v 0.325238 0.356002 0.288904
v 0.293724 0.267882 0.301018
v 0.391787 0.394093 0.219328
v 0.373617 0.286185 0.272878
v 0.444446 0.346345 0.174405
v 0.492369 0.343543 -0.041404
v 0.492820 0.444195 -0.115206
v 0.502923 0.314395 -0.325402
v 0.408235 0.441925 -0.377446
v 0.456131 0.334057 -0.391763
v 0.374175 0.070192 -0.420069
vt 0.353432 0.643767
vt 0.353432 0.643767
vt 0.353432 0.643767
vt 0.353432 0.643767
vt 0.353432 0.643767
vt 0.353432 0.643767
vt 0.353432 0.643767
vt 0.353432 0.643767
vt 0.353432 0.643767
vt 0.353432 0.643767
vt 0.353432 0.643767
vt 0.353432 0.643767
vt 0.353432 0.643767
vt 0.353432 0.643767
vt 0.353432 0.643767
vt 0.353432 0.643767
vt 0.353432 0.643767
vt 0.353432 0.643767
vt 0.353432 0.643767
vt 0.353432 0.643767
vt 0.353432 0.643767
vt 0.353432 0.643767
vt 0.353432 0.643767
vn -0.8750 0.3220 -0.3616
vn -0.0841 -0.9963 -0.0197
vn -0.6506 0.6631 -0.3702
vn -0.6503 0.6633 -0.3704
vn -0.6995 0.3283 -0.6348
vn -0.5851 0.7477 -0.3139
vn -0.3982 0.8859 0.2380
vn -0.1222 0.9515 0.2824
vn -0.2485 0.7899 0.5606
vn -0.1295 0.9494 0.2862
vn -0.1142 0.4826 0.8684
vn 0.3298 0.0118 0.9440
vn -0.0237 0.1445 0.9892
vn -0.1635 0.9228 0.3488
vn 0.9402 0.3082 -0.1451
vn 0.3868 -0.5473 0.7422
vn 0.8496 -0.3391 0.4040
vn 0.7709 0.5532 0.3157
vn 0.9654 0.1514 0.2124
vn 0.9293 -0.3036 0.2103
vn 0.1452 0.9878 -0.0554
vn 0.1370 0.1898 -0.9722
vn 0.0618 0.0875 -0.9942
vn -0.0360 0.0654 -0.9972
vn 0.7976 0.4125 -0.4401
vn -0.3742 -0.5506 0.7462
vn -0.6356 -0.6535 0.4110
vn 0.0223 -0.9997 -0.0065
vn 0.8229 -0.2330 -0.5182
vn -0.0897 0.9886 0.1210
vn 0.0115 -0.8370 -0.5471
vn 0.6839 0.2286 0.6928
vn 0.1153 -0.5970 0.7939
vn 0.9340 -0.3494 0.0743
g Stone_4_Stone_4_CollorMaterial
usemtl CollorMaterial
s off
f 2/1/1 1/2/1 7/3/1
f 3/4/2 1/2/2 5/5/2
f 1/2/3 3/4/3 7/3/3
f 7/3/4 3/4/4 9/6/4
f 8/7/5 7/3/5 10/8/5
f 7/3/6 8/7/6 2/1/6
f 7/3/7 11/9/7 10/8/7
f 10/8/8 11/9/8 12/10/8
f 7/3/9 12/10/9 11/9/9
f 13/11/10 10/8/10 12/10/10
f 7/3/11 13/11/11 12/10/11
f 14/12/12 16/13/12 13/11/12
f 14/12/13 13/11/13 7/3/13
f 10/8/14 13/11/14 15/14/14
f 18/15/15 20/16/15 21/17/15 19/18/15
f 6/19/16 16/13/16 14/12/16
f 17/20/17 16/13/17 6/19/17
f 15/14/18 17/20/18 19/18/18
f 17/20/19 18/15/19 19/18/19
f 18/15/20 17/20/20 6/19/20
f 21/17/21 8/7/21 19/18/21
f 8/7/22 21/17/22 22/21/22
f 23/22/23 8/7/23 22/21/23
f 2/1/24 8/7/24 23/22/24
f 20/16/25 22/21/25 21/17/25
f 9/6/26 5/5/26 7/3/26
f 9/6/27 3/4/27 5/5/27
f 1/2/28 4/23/28 6/19/28 5/5/28
f 23/22/29 22/21/29 20/16/29 4/23/29
f 19/18/30 8/7/30 10/8/30 15/14/30
f 4/23/31 1/2/31 2/1/31 23/22/31
f 16/13/32 17/20/32 15/14/32 13/11/32
f 5/5/33 6/19/33 14/12/33 7/3/33
f 4/23/34 20/16/34 18/15/34 6/19/34
