# Blender v3.0.0 OBJ File: 'Blender Medieval Village Megapack Low Poly .blend'
# www.blender.org
mtllib Stone_2.mtl
o Stone_2
v -0.401075 0.501908 -0.329898
v -0.330097 0.521874 -0.137190
v -0.274546 0.537934 -0.199232
v 0.006184 0.456763 -0.329632
v 0.281078 0.425224 -0.269609
v -0.353513 0.434514 -0.386674
v -0.298613 0.159351 -0.361779
v 0.218431 0.032675 -0.210733
v 0.321737 0.533040 -0.001011
v -0.164751 0.544657 -0.101666
v -0.488440 0.510332 -0.026009
v -0.651043 0.485624 0.368027
v -0.660049 0.365607 0.443385
v -0.676802 0.388852 0.358927
v -0.566203 0.426877 0.438797
v 0.407067 0.483395 0.033336
v 0.484306 0.418041 -0.045875
v 0.429191 0.222454 0.052260
v 0.410140 0.486707 -0.115566
v 0.498695 0.264291 -0.058909
v 0.437460 0.120223 -0.100743
v 0.467001 0.185449 -0.160009
v 0.489322 0.379326 -0.126580
v 0.308586 0.019748 -0.124903
v -0.162953 -0.011684 0.282233
v -0.034003 0.085335 0.325875
v -0.355171 0.024557 0.121322
v -0.439131 0.123542 0.318245
v -0.613059 0.193943 0.354616
v -0.462583 0.425619 -0.324518
v -0.403163 0.286150 -0.369366
vt 0.339141 0.647976
vt 0.339141 0.647976
vt 0.339141 0.647976
vt 0.339141 0.647976
vt 0.339141 0.647976
vt 0.339141 0.647976
vt 0.339141 0.647976
vt 0.339141 0.647976
vt 0.339141 0.647976
vt 0.339141 0.647976
vt 0.339141 0.647976
vt 0.339141 0.647976
vt 0.339141 0.647976
vt 0.339141 0.647976
vt 0.339141 0.647976
vt 0.339141 0.647976
vt 0.339141 0.647976
vt 0.339141 0.647976
vt 0.339141 0.647976
vt 0.339141 0.647976
vt 0.339141 0.647976
vt 0.339141 0.647976
vt 0.339141 0.647976
vt 0.339141 0.647976
vt 0.339141 0.647976
vt 0.339141 0.647976
vt 0.339141 0.647976
vt 0.339141 0.647976
vt 0.339141 0.647976
vt 0.339141 0.647976
vt 0.339141 0.647976
vn -0.2757 0.9612 0.0020
vn 0.1032 0.9288 -0.3560
vn 0.4370 -0.7813 0.4458
vn 0.0751 0.6729 -0.7359
vn 0.1598 -0.0573 -0.9855
vn 0.1613 0.9554 -0.2474
vn -0.1006 0.9947 0.0209
vn -0.1214 0.9901 -0.0701
vn -0.1591 0.9809 0.1115
vn -0.0017 0.9924 0.1229
vn -0.3025 0.5230 0.7968
vn -0.9414 0.2271 0.2493
vn -0.8955 0.2715 -0.3525
vn 0.4828 0.1040 0.8695
vn 0.3582 0.2618 0.8962
vn 0.4997 -0.6084 -0.6165
vn 0.9956 0.0917 0.0179
vn 0.9659 -0.0682 -0.2497
vn 0.7703 0.5923 -0.2362
vn 0.5652 0.4852 -0.6672
vn 0.4682 -0.7228 0.5082
vn -0.3941 -0.8776 0.2731
vn -0.0509 -0.3527 0.9344
vn -0.0002 -0.4594 0.8882
vn -0.2955 -0.8982 0.3255
vn -0.0637 -0.5036 0.8616
vn -0.9449 -0.3113 0.1018
vn 0.1291 -0.1241 0.9838
vn -0.6868 -0.6753 -0.2688
vn -0.7297 -0.6190 -0.2904
vn -0.4981 0.0658 -0.8646
vn -0.0487 -0.0996 -0.9938
vn -0.7645 0.5997 -0.2364
vn -0.4869 0.3357 -0.8064
vn -0.8089 0.5435 -0.2243
vn -0.1498 -0.9477 -0.2820
vn 0.0031 0.9279 -0.3729
vn -0.1147 0.9916 -0.0605
vn 0.4986 -0.7194 0.4836
vn 0.1767 0.8140 0.5533
vn 0.7942 0.0785 0.6025
vn 0.8695 -0.4366 0.2310
vn 0.6029 -0.6686 -0.4353
vn 0.4080 -0.0985 -0.9076
vn 0.1238 0.9338 -0.3356
vn 0.5828 0.8121 0.0301
vn 0.2249 -0.1570 -0.9616
vn -0.0564 -0.9896 -0.1327
vn -0.9085 -0.2905 -0.3004
g Stone_2_Stone_2_CollorMaterial
usemtl CollorMaterial
s off
f 1/1/1 2/2/1 3/3/1
f 1/1/2 3/3/2 4/4/2
f 24/5/3 26/6/3 25/7/3
f 6/8/4 1/1/4 4/4/4
f 6/8/5 4/4/5 7/9/5
f 10/10/6 4/4/6 3/3/6
f 10/10/7 11/11/7 12/12/7
f 11/11/8 10/10/8 2/2/8
f 10/10/9 3/3/9 2/2/9
f 10/10/10 12/12/10 9/13/10
f 15/14/11 12/12/11 13/15/11
f 14/16/12 13/15/12 12/12/12
f 12/12/13 11/11/13 14/16/13
f 26/6/14 18/17/14 16/18/14
f 15/14/15 26/6/15 16/18/15
f 22/19/16 24/5/16 8/20/16
f 23/21/17 17/22/17 20/23/17
f 22/19/18 23/21/18 20/23/18
f 23/21/19 19/24/19 17/22/19
f 5/25/20 19/24/20 23/21/20
f 24/5/21 21/26/21 18/17/21
f 27/27/22 25/7/22 28/28/22
f 25/7/23 26/6/23 28/28/23
f 13/15/24 29/29/24 28/28/24
f 27/27/25 28/28/25 29/29/25
f 26/6/26 13/15/26 28/28/26
f 13/15/27 14/16/27 29/29/27
f 13/15/28 26/6/28 15/14/28
f 29/29/29 7/9/29 27/27/29
f 31/30/30 7/9/30 29/29/30
f 6/8/31 31/30/31 30/31/31
f 31/30/32 6/8/32 7/9/32
f 11/11/33 1/1/33 30/31/33
f 6/8/34 30/31/34 1/1/34
f 14/16/35 11/11/35 30/31/35
f 7/9/36 8/20/36 27/27/36
f 9/13/37 19/24/37 5/25/37
f 2/2/38 1/1/38 11/11/38
f 24/5/39 18/17/39 26/6/39
f 15/14/40 16/18/40 9/13/40 12/12/40
f 17/22/41 16/18/41 18/17/41 20/23/41
f 21/26/42 22/19/42 20/23/42 18/17/42
f 22/19/43 21/26/43 24/5/43
f 22/19/44 8/20/44 5/25/44 23/21/44
f 9/13/45 5/25/45 4/4/45 10/10/45
f 16/18/46 17/22/46 19/24/46 9/13/46
f 4/4/47 5/25/47 8/20/47 7/9/47
f 25/7/48 27/27/48 8/20/48 24/5/48
f 29/29/49 14/16/49 30/31/49 31/30/49
