# Blender v3.0.0 OBJ File: 'Blender Medieval Village Megapack Low Poly .blend'
# www.blender.org
mtllib Stone_3.mtl
o Stone_3
v 0.093199 -0.001579 0.239001
v 0.274679 0.093349 0.319222
v -0.266246 0.079645 0.258119
v 0.075512 0.448133 0.537745
v 0.346419 0.046184 -0.188669
v 0.294267 0.183678 -0.301826
v 0.404783 0.195636 0.299022
v 0.083531 -0.009410 -0.250636
v -0.052814 0.386033 -0.394784
v -0.308234 0.420926 -0.327525
v 0.122600 0.690834 -0.018145
v -0.340110 0.237858 -0.291359
v -0.379063 0.153151 -0.149054
v -0.502322 0.311654 -0.030758
v -0.481355 0.223102 -0.046419
v -0.409336 0.103459 0.051106
v -0.435181 0.165749 0.169366
v -0.349409 0.208548 0.327855
v -0.453420 0.258898 0.237571
v -0.422080 0.361986 0.282172
v -0.506194 0.369117 0.083180
v -0.463457 0.450399 0.023258
v 0.065784 0.684880 0.298676
v -0.009628 0.699314 0.145004
v 0.293473 0.647515 0.047587
v 0.327734 0.606534 -0.054705
v 0.427145 0.437213 0.360037
v 0.481733 0.392005 0.201897
v 0.172996 0.627878 0.412916
v 0.253986 0.583631 0.445001
v 0.322660 0.432778 0.481555
v -0.029104 0.525503 0.509287
v 0.222247 0.386886 0.521098
vt 0.372306 0.648282
vt 0.372306 0.648282
vt 0.372306 0.648282
vt 0.372306 0.648282
vt 0.372306 0.648282
vt 0.372306 0.648282
vt 0.372306 0.648282
vt 0.372306 0.648282
vt 0.372306 0.648282
vt 0.372306 0.648282
vt 0.372306 0.648282
vt 0.372306 0.648282
vt 0.372306 0.648282
vt 0.372306 0.648282
vt 0.372306 0.648282
vt 0.372306 0.648282
vt 0.372306 0.648282
vt 0.372306 0.648282
vt 0.372306 0.648282
vt 0.372306 0.648282
vt 0.372306 0.648282
vt 0.372306 0.648282
vt 0.372306 0.648282
vt 0.372306 0.648282
vt 0.372306 0.648282
vt 0.372306 0.648282
vt 0.372306 0.648282
vt 0.372306 0.648282
vt 0.372306 0.648282
vt 0.372306 0.648282
vt 0.372306 0.648282
vt 0.372306 0.648282
vt 0.372306 0.648282
vn 0.1843 0.9815 0.0515
vn -0.0810 -0.5537 0.8287
vn -0.8497 -0.0057 -0.5273
vn 0.2994 -0.5360 -0.7893
vn -0.9520 -0.2824 0.1180
vn 0.6253 -0.7639 0.1593
vn 0.9311 -0.3647 0.0003
vn -0.4482 -0.0577 0.8921
vn -0.1013 -0.5623 0.8207
vn -0.2701 -0.1411 -0.9524
vn -0.0537 0.7883 -0.6129
vn -0.3819 -0.7445 -0.5477
vn -0.7684 -0.4351 -0.4693
vn 0.0797 0.5391 0.8385
vn -0.8762 -0.4782 0.0604
vn -0.9580 -0.2513 0.1382
vn -0.7127 -0.6480 -0.2687
vn -0.3721 -0.8861 -0.2763
vn -0.5514 -0.7817 0.2912
vn 0.2995 -0.9514 0.0711
vn -0.5253 0.7758 0.3496
vn -0.6807 -0.1066 0.7248
vn -0.9142 0.1090 0.3903
vn -0.7169 0.6167 0.3251
vn -0.9203 0.3359 -0.2007
vn 0.9122 0.1238 -0.3907
vn -0.8302 0.3883 -0.4000
vn -0.2133 -0.9767 0.0244
vn -0.5205 0.7878 0.3294
vn 0.7847 0.6166 0.0636
vn 0.3285 0.9096 -0.2544
vn 0.3604 0.5453 -0.7568
vn 0.6854 0.7052 0.1815
vn 0.3271 0.9317 0.1579
vn 0.4139 0.8914 0.1844
vn 0.6696 0.4483 0.5921
vn 0.2160 0.3217 0.9219
vn -0.6268 -0.5972 0.5005
vn 0.2365 0.3171 0.9184
vn -0.3813 0.8815 -0.2784
vn -0.0458 -0.3560 -0.9334
vn -0.1522 0.8199 0.5519
vn 0.7424 -0.2278 0.6300
vn 0.9136 -0.1770 0.3660
vn -0.1164 -0.5296 0.8402
vn 0.4767 -0.4332 0.7649
g Stone_3_Stone_3_CollorMaterial
usemtl CollorMaterial
s off
f 24/1/1 23/2/1 25/3/1 11/4/1
f 3/5/2 1/6/2 4/7/2
f 15/8/3 14/9/3 10/10/3 12/11/3
f 5/12/4 8/13/4 6/14/4
f 21/15/5 14/9/5 17/16/5 19/17/5
f 7/18/6 2/19/6 5/12/6
f 7/18/7 5/12/7 28/20/7
f 18/21/8 4/7/8 32/22/8 20/23/8
f 2/19/9 33/24/9 4/7/9 1/6/9
f 10/10/10 9/25/10 12/11/10
f 10/10/11 11/4/11 9/25/11
f 8/13/12 13/26/12 12/11/12
f 12/11/13 13/26/13 15/8/13
f 32/22/14 4/7/14 30/27/14 29/28/14
f 15/8/15 16/29/15 17/16/15
f 14/9/16 15/8/16 17/16/16
f 13/26/17 16/29/17 15/8/17
f 16/29/18 13/26/18 8/13/18
f 16/29/19 3/5/19 17/16/19
f 8/13/20 5/12/20 2/19/20 1/6/20
f 20/23/21 32/22/21 23/2/21 22/30/21
f 20/23/22 19/17/22 18/21/22
f 19/17/23 20/23/23 21/15/23
f 22/30/24 21/15/24 20/23/24
f 14/9/25 21/15/25 22/30/25
f 6/14/26 26/31/26 28/20/26 5/12/26
f 10/10/27 14/9/27 22/30/27
f 3/5/28 16/29/28 8/13/28 1/6/28
f 22/30/29 23/2/29 24/1/29
f 28/20/30 26/31/30 25/3/30 27/32/30
f 11/4/31 25/3/31 26/31/31
f 9/25/32 11/4/32 26/31/32 6/14/32
f 30/27/33 27/32/33 25/3/33
f 23/2/34 29/28/34 25/3/34
f 29/28/35 30/27/35 25/3/35
f 30/27/36 31/33/36 27/32/36
f 33/24/37 31/33/37 30/27/37
f 18/21/38 19/17/38 17/16/38 3/5/38
f 4/7/39 33/24/39 30/27/39
f 11/4/40 10/10/40 22/30/40 24/1/40
f 12/11/41 9/25/41 6/14/41 8/13/41
f 29/28/42 23/2/42 32/22/42
f 7/18/43 27/32/43 31/33/43
f 28/20/44 27/32/44 7/18/44
f 18/21/45 3/5/45 4/7/45
f 31/33/46 33/24/46 2/19/46 7/18/46
