# Blender v3.0.0 OBJ File: 'Blender Medieval Village Megapack Low Poly .blend'
# www.blender.org
mtllib Stool.mtl
o Stool
v 0.256887 -0.000940 -0.044270
v 0.214793 0.518174 -0.036809
v 0.226942 0.519433 -0.024595
v 0.300920 -0.000940 0.000000
v 0.226942 0.519433 0.024595
v 0.214793 0.518174 0.036809
v 0.256886 -0.000940 0.044270
v 0.165866 0.513102 0.036809
v 0.153717 0.511842 0.024595
v 0.212853 -0.000940 0.000000
v 0.153717 0.511842 -0.024595
v 0.165866 0.513102 -0.036809
v -0.090105 -0.000940 0.244605
v -0.075519 0.518174 0.204421
v -0.092171 0.519433 0.208835
v -0.150460 -0.000940 0.260605
v -0.134771 0.519433 0.184240
v -0.139274 0.518174 0.167612
v -0.166782 -0.000940 0.200336
v -0.114810 0.513102 0.125239
v -0.098158 0.511842 0.120825
v -0.106426 -0.000940 0.184336
v -0.055559 0.511842 0.145420
v -0.051055 0.513102 0.162048
v -0.166782 -0.000940 -0.200335
v -0.139274 0.518174 -0.167612
v -0.134771 0.519433 -0.184240
v -0.150460 -0.000940 -0.260604
v -0.092171 0.519433 -0.208835
v -0.075519 0.518174 -0.204421
v -0.090105 -0.000940 -0.244605
v -0.051056 0.513102 -0.162049
v -0.055559 0.511842 -0.145420
v -0.106427 -0.000940 -0.184336
v -0.098158 0.511842 -0.120826
v -0.114810 0.513102 -0.125240
v 0.000000 0.501925 -0.265618
v 0.000000 0.555049 -0.265618
v 0.132809 0.501925 -0.230032
v 0.132809 0.555049 -0.230032
v 0.230032 0.501926 -0.132809
v 0.265618 0.501926 -0.000000
v 0.265618 0.555049 -0.000000
v 0.230032 0.501926 0.132809
v 0.132809 0.501926 0.230031
v 0.000000 0.501926 0.265617
v -0.132809 0.501926 0.230031
v -0.230032 0.499411 0.132809
v -0.228845 0.560674 0.128483
v -0.265618 0.499411 -0.000000
v -0.230032 0.499411 -0.132809
v -0.132809 0.501925 -0.230032
v -0.132051 0.560673 -0.226060
v 0.000000 0.555049 -0.000000
v 0.000000 0.501926 -0.000000
v 0.160348 0.555049 -0.092577
v 0.235876 0.555049 -0.110999
v 0.230032 0.532469 -0.132809
v 0.214065 0.555049 -0.148775
v -0.218612 0.560412 -0.122846
v -0.220624 0.560673 -0.137487
v -0.229425 0.548467 -0.129629
v -0.264431 0.560673 -0.004326
v -0.124946 0.555049 0.216412
v -0.132809 0.539323 0.230031
v 0.126280 0.555049 0.218724
v -0.004866 0.554990 0.274712
v 0.132809 0.541993 0.230031
v 0.230032 0.555049 0.132809
vt 0.074745 0.945872
vt 0.074745 0.945872
vt 0.074745 0.945872
vt 0.074745 0.945872
vt 0.074745 0.945872
vt 0.074745 0.945872
vt 0.074745 0.945872
vt 0.074745 0.945872
vt 0.074745 0.945872
vt 0.074745 0.945872
vt 0.074745 0.945872
vt 0.074745 0.945872
vt 0.074745 0.945872
vt 0.074745 0.945872
vt 0.074745 0.945872
vt 0.074745 0.945872
vt 0.074745 0.945872
vt 0.074745 0.945872
vt 0.074745 0.945872
vt 0.074745 0.945872
vt 0.074745 0.945872
vt 0.074745 0.945872
vt 0.074745 0.945872
vt 0.074745 0.945872
vt 0.074745 0.945872
vt 0.074745 0.945872
vt 0.074745 0.945872
vt 0.074745 0.945872
vt 0.074745 0.945872
vt 0.074745 0.945872
vt 0.074745 0.945872
vt 0.074745 0.945872
vt 0.074745 0.945872
vt 0.074745 0.945872
vt 0.074745 0.945872
vt 0.074745 0.945872
vt 0.074745 0.945872
vt 0.074745 0.945872
vt 0.074745 0.945872
vt 0.074745 0.945872
vt 0.074745 0.945872
vt 0.074745 0.945872
vt 0.074745 0.945872
vt 0.074745 0.945872
vt 0.074745 0.945872
vt 0.074745 0.945872
vt 0.074745 0.945872
vt 0.074745 0.945872
vt 0.074745 0.945872
vt 0.074745 0.945872
vt 0.074745 0.945872
vt 0.074745 0.945872
vt 0.074745 0.945872
vt 0.074745 0.945872
vt 0.074745 0.945872
vt 0.074745 0.945872
vt 0.074745 0.945872
vt 0.074745 0.945872
vt 0.074745 0.945872
vt 0.074745 0.945872
vt 0.074745 0.945872
vt 0.074745 0.945872
vt 0.074745 0.945872
vt 0.074745 0.945872
vt 0.074745 0.945872
vt 0.074745 0.945872
vt 0.074745 0.945872
vt 0.074745 0.945872
vt 0.074745 0.945872
vn -0.0015 0.0143 -0.9999
vn -0.0015 0.0143 0.9999
vn 0.4967 -0.1146 -0.8603
vn 0.9900 0.1407 0.0000
vn 0.8667 0.0143 0.4987
vn -0.8652 0.0143 -0.5012
vn 0.4967 -0.1146 0.8603
vn -0.4950 0.1407 0.8574
vn -0.8652 0.0143 0.5012
vn 0.8667 0.0143 -0.4987
vn -0.4950 0.1407 -0.8574
vn -0.0004 1.0000 0.0002
vn 0.0363 0.9991 0.0210
vn 0.0157 0.9998 0.0157
vn 0.0164 -0.9998 -0.0095
vn -0.9934 -0.1146 -0.0000
vn -0.0000 1.0000 -0.0000
vn 0.0426 0.9991 -0.0000
vn -0.1676 0.7070 -0.6871
vn -0.7684 0.6292 0.1168
vn 0.7071 -0.0000 -0.7071
vn 0.0214 0.9998 -0.0057
vn -0.4364 0.7037 0.5607
vn 0.2784 0.7045 0.6528
vn 0.0000 -1.0000 0.0000
vn 0.0095 -1.0000 0.0025
vn 0.0095 -1.0000 -0.0025
vn 0.0164 -0.9998 0.0095
vn 0.5112 0.7070 0.4887
vn -0.6429 0.7240 -0.2501
vn 0.0212 0.9998 0.0060
vn -0.3089 0.7062 0.6371
vn 0.0004 1.0000 0.0002
vn 0.4542 0.7021 0.5485
vn 0.2567 0.0673 -0.9641
vn 0.7066 0.0673 -0.7044
vn -0.7031 -0.1145 -0.7019
vn -0.9643 0.0129 -0.2644
vn 0.9594 -0.1145 0.2579
vn -0.9633 0.0673 -0.2598
vn 0.9594 -0.1145 -0.2579
vn -0.7031 -0.1145 0.7019
vn 0.7066 0.0673 0.7044
vn 0.2567 0.0673 0.9641
vn -0.2563 -0.1145 0.9598
vn -0.2563 -0.1145 -0.9598
vn 0.9659 0.0000 0.2588
vn 0.9659 0.0000 -0.2588
vn 0.7071 0.0000 0.7071
vn -0.2863 -0.1111 0.9517
vn -0.9633 0.0673 0.2598
vn -0.7146 0.0392 0.6985
vn -0.7061 0.0545 -0.7061
vn -0.2721 0.0360 -0.9616
vn -0.9653 0.0370 0.2586
vn -0.7064 0.0557 -0.7056
vn 0.2801 -0.0788 0.9567
vn 0.2588 -0.0000 -0.9659
g Stool_Stool_CollorMaterial
usemtl CollorMaterial
s off
f 12/1/1 2/2/1 1/3/1
f 6/4/2 8/5/2 7/6/2
f 21/7/3 23/8/3 22/9/3
f 3/10/4 5/11/4 4/12/4
f 24/13/5 14/14/5 13/15/5
f 18/16/6 20/17/6 19/18/6
f 33/19/7 35/20/7 34/21/7
f 15/22/8 17/23/8 16/24/8
f 36/25/9 26/26/9 25/27/9
f 30/28/10 32/29/10 31/30/10
f 27/31/11 29/32/11 28/33/11
f 67/34/12 66/35/12 54/36/12
f 49/37/13 64/38/13 54/36/13
f 53/39/14 60/40/14 54/36/14
f 51/41/15 52/42/15 55/43/15
f 9/44/16 11/45/16 10/46/16
f 56/47/17 40/48/17 38/49/17 54/36/17
f 38/49/18 53/39/18 54/36/18
f 56/47/19 57/50/19 58/51/19
f 60/40/20 61/52/20 62/53/20
f 59/54/21 58/51/21 41/55/21
f 63/56/22 49/37/22 54/36/22
f 64/38/23 49/37/23 65/57/23
f 66/35/24 67/34/24 68/58/24
f 39/59/25 41/55/25 55/43/25
f 50/60/26 51/41/26 55/43/26
f 48/61/27 50/60/27 55/43/27
f 47/62/28 48/61/28 55/43/28
f 46/63/25 47/62/25 55/43/25
f 45/64/25 46/63/25 55/43/25
f 44/65/25 45/64/25 55/43/25
f 42/66/25 44/65/25 55/43/25
f 52/42/25 37/67/25 55/43/25
f 37/67/25 39/59/25 55/43/25
f 41/55/25 42/66/25 55/43/25
f 56/47/29 58/51/29 59/54/29
f 60/40/30 62/53/30 63/56/30
f 60/40/31 63/56/31 54/36/31
f 64/38/32 65/57/32 67/34/32
f 64/38/33 67/34/33 54/36/33
f 66/35/34 68/58/34 69/68/34
f 66/35/17 69/68/17 54/36/17
f 31/30/35 28/33/35 29/32/35 30/28/35
f 3/10/36 4/12/36 1/3/36 2/2/36
f 12/1/37 1/3/37 10/46/37 11/45/37
f 62/53/38 51/41/38 50/60/38 63/56/38
f 34/21/39 31/30/39 32/29/39 33/19/39
f 27/31/40 28/33/40 25/27/40 26/26/40
f 24/13/41 13/15/41 22/9/41 23/8/41
f 10/46/42 7/6/42 8/5/42 9/44/42
f 7/6/43 4/12/43 5/11/43 6/4/43
f 15/22/44 16/24/44 13/15/44 14/14/44
f 36/25/45 25/27/45 34/21/45 35/20/45
f 22/9/46 19/18/46 20/17/46 21/7/46
f 69/68/47 44/65/47 42/66/47 43/69/47
f 43/69/17 56/47/17 54/36/17 69/68/17
f 41/55/48 58/51/48 57/50/48
f 43/69/17 57/50/17 56/47/17
f 68/58/49 45/64/49 44/65/49 69/68/49
f 39/59/21 40/48/21 59/54/21 41/55/21
f 65/57/50 47/62/50 46/63/50 67/34/50
f 19/18/51 16/24/51 17/23/51 18/16/51
f 48/61/52 47/62/52 65/57/52 49/37/52
f 51/41/53 62/53/53 61/52/53
f 38/49/54 37/67/54 52/42/54 53/39/54
f 50/60/55 48/61/55 49/37/55 63/56/55
f 53/39/14 61/52/14 60/40/14
f 57/50/48 43/69/48 42/66/48 41/55/48
f 61/52/56 53/39/56 52/42/56 51/41/56
f 46/63/57 45/64/57 68/58/57 67/34/57
f 56/47/17 59/54/17 40/48/17
f 39/59/58 37/67/58 38/49/58 40/48/58
