# Blender v3.0.0 OBJ File: 'Blender Medieval Village Megapack Low Poly .blend'
# www.blender.org
mtllib Tree_Trunk_2.mtl
o Tree_Trunk_2
v -1.395000 0.595800 0.284506
v 1.590526 0.359421 0.391710
v -1.370740 0.403774 0.365826
v 1.583995 0.116206 0.277407
v -1.488887 0.095837 0.284506
v 1.568229 0.015463 0.001454
v -1.505092 -0.007708 0.000876
v 1.552463 0.116206 -0.274498
v -1.398612 0.095837 -0.282754
v 1.545933 0.359421 -0.388802
v -1.463240 0.345819 -0.400238
v 1.552464 0.602635 -0.274499
v -1.427409 0.595800 -0.282754
v 0.845136 0.522428 -0.078110
v 0.264991 0.513686 -0.047262
v -0.284456 0.554590 -0.063499
v -0.854440 0.576603 -0.023540
v -0.801773 0.497173 0.187928
v -0.273152 0.482357 0.134362
v 0.275503 0.446522 0.136715
v 0.879658 0.450585 0.115956
v -0.779959 0.305412 0.275521
v 0.893958 0.277140 0.196341
v -0.801774 0.113651 0.187928
v -0.273152 0.133581 0.134363
v 0.275502 0.122222 0.136715
v 0.879658 0.103695 0.115956
v -0.854440 0.034221 -0.023540
v -0.284456 0.061347 -0.063499
v 0.264991 0.055057 -0.047261
v 0.845135 0.031852 -0.078110
v -0.907107 0.113651 -0.235008
v -0.295761 0.133581 -0.261360
v 0.254480 0.122222 -0.231237
v 0.810613 0.103695 -0.272175
v 0.796313 0.277140 -0.352560
v -0.907107 0.497173 -0.235008
v -0.295761 0.482356 -0.261360
v 0.254480 0.446521 -0.231238
v 0.810613 0.450585 -0.272176
v 1.262405 0.535974 0.190870
v 1.272195 0.335978 0.284344
v 1.262404 0.135981 0.190870
v 1.238768 0.053140 -0.034797
v 1.215132 0.135981 -0.260464
v 1.215133 0.535973 -0.260465
v 1.550113 0.665397 -0.223028
v -0.288845 0.439033 -0.297854
v -1.388288 0.345819 0.401990
v 1.593030 0.639566 -0.006426
v -1.429972 0.633630 0.003418
v 1.609828 0.558970 0.224431
v -1.413764 0.547489 0.233812
v 1.615009 0.358372 0.318667
v -1.387150 0.378531 0.296226
v 1.602442 0.160243 0.221807
v -1.499588 0.143060 0.230271
v 1.578695 0.082551 -0.002267
v -1.511766 0.059827 0.001957
v 1.558400 0.164782 -0.221081
v -1.405759 0.142085 -0.226872
v 1.553881 0.358144 -0.312178
v -1.474649 0.344563 -0.324053
v 1.561998 0.576749 -0.203929
v -1.443393 0.549560 -0.228723
v 0.854109 0.511825 -0.077546
v 0.266670 0.445913 -0.048429
v -0.289329 0.486939 -0.062182
v -0.865723 0.509546 -0.022278
v -0.814639 0.449960 0.134151
v -0.278705 0.433847 0.080827
v 0.276383 0.399541 0.081174
v 0.892924 0.452324 0.082217
v -0.791972 0.306761 0.199431
v -0.273193 0.307514 0.139419
v 0.280450 0.285143 0.135879
v 0.906146 0.308431 0.148599
v -0.810960 0.161790 0.134459
v -0.276272 0.181694 0.080167
v 0.276550 0.170059 0.082128
v 0.885642 0.164766 0.082734
v -0.859770 0.101853 -0.023080
v -0.285999 0.129122 -0.062299
v 0.266873 0.122828 -0.048210
v 0.844373 0.104556 -0.076486
v -0.910523 0.161641 -0.180694
v -0.296483 0.180682 -0.205946
v 0.256994 0.170905 -0.177674
v 0.806816 0.163444 -0.237401
v -0.933495 0.306860 -0.245707
v -0.301591 0.308921 -0.266286
v 0.252502 0.285938 -0.230453
v 0.794014 0.308119 -0.304547
v -0.915150 0.450674 -0.179518
v -0.299533 0.419963 -0.231459
v 0.256756 0.398723 -0.176643
v 0.813260 0.452562 -0.237685
v 1.282624 0.490568 0.137348
v 1.290895 0.336184 0.209601
v 1.274177 0.182976 0.136601
v 1.242143 0.120872 -0.034924
v 1.214285 0.183665 -0.205701
v 1.206508 0.335928 -0.276899
v 1.224243 0.488031 -0.206755
v 1.256494 0.552921 -0.038556
v 1.573842 0.603188 -0.203664
v -0.290807 0.415872 -0.225469
v -1.400680 0.371653 0.331842
v -0.268469 0.307969 0.216319
v 0.277843 0.209378 0.177675
v 0.372001 0.287883 0.214766
v 0.277843 0.359366 0.177675
v 1.577911 0.641516 0.170905
v 1.586516 0.508769 0.321521
v -0.928922 0.305412 -0.322601
v -0.297131 0.345403 -0.330332
v 0.250126 0.284371 -0.307443
v -0.299470 0.271708 -0.326275
v 1.269826 0.340416 -0.360539
v 1.207930 0.283109 -0.329229
v 1.207930 0.388845 -0.329229
v 1.570143 0.691156 0.034933
v 1.581074 0.670329 -0.002627
v 1.565399 0.697443 -0.033626
v 1.238769 0.618815 -0.034797
v -1.413308 0.685902 -0.035949
v -1.424635 0.652317 0.002695
v -1.409100 0.685902 0.037701
v -1.063777 0.622753 -0.014360
vt 0.066377 0.923550
vt 0.066377 0.923550
vt 0.066377 0.923550
vt 0.066377 0.923550
vt 0.066377 0.923550
vt 0.066377 0.923550
vt 0.066377 0.923550
vt 0.066377 0.923550
vt 0.066377 0.923550
vt 0.066377 0.923550
vt 0.066377 0.923550
vt 0.066377 0.923550
vt 0.066377 0.923550
vt 0.066377 0.923550
vt 0.066377 0.923550
vt 0.066377 0.923550
vt 0.066377 0.923550
vt 0.066377 0.923550
vt 0.066377 0.923550
vt 0.066377 0.923550
vt 0.066377 0.923550
vt 0.066377 0.923550
vt 0.066377 0.923550
vt 0.066377 0.923550
vt 0.066377 0.923550
vt 0.066377 0.923550
vt 0.066377 0.923550
vt 0.066377 0.923550
vt 0.066377 0.923550
vt 0.066377 0.923550
vt 0.066377 0.923550
vt 0.066377 0.923550
vt 0.066377 0.923550
vt 0.066377 0.923550
vt 0.066377 0.923550
vt 0.066377 0.923550
vt 0.066377 0.923550
vt 0.066377 0.923550
vt 0.066377 0.923550
vt 0.066377 0.923550
vt 0.066377 0.923550
vt 0.066377 0.923550
vt 0.066377 0.923550
vt 0.066377 0.923550
vt 0.066377 0.923550
vt 0.066377 0.923550
vt 0.066377 0.923550
vt 0.066377 0.923550
vt 0.066377 0.923550
vt 0.066377 0.923550
vt 0.066377 0.923550
vt 0.066377 0.923550
vt 0.066377 0.923550
vt 0.066377 0.923550
vt 0.066377 0.923550
vt 0.066377 0.923550
vt 0.066377 0.923550
vt 0.066377 0.923550
vt 0.066377 0.923550
vt 0.066377 0.923550
vt 0.066377 0.923550
vt 0.066377 0.923550
vt 0.066377 0.923550
vt 0.066377 0.923550
vt 0.066377 0.923550
vt 0.066377 0.923550
vt 0.066377 0.923550
vt 0.066377 0.923550
vt 0.066377 0.923550
vt 0.066377 0.923550
vt 0.066377 0.923550
vt 0.066377 0.923550
vt 0.066377 0.923550
vt 0.066377 0.923550
vt 0.066377 0.923550
vt 0.066377 0.923550
vt 0.066377 0.923550
vt 0.066377 0.923550
vt 0.066377 0.923550
vt 0.066377 0.923550
vt 0.066377 0.923550
vt 0.066377 0.923550
vt 0.066377 0.923550
vt 0.066377 0.923550
vt 0.066377 0.923550
vt 0.066377 0.923550
vt 0.066377 0.923550
vt 0.066377 0.923550
vt 0.066377 0.923550
vt 0.066377 0.923550
vt 0.066377 0.923550
vt 0.066377 0.923550
vt 0.066377 0.923550
vt 0.066377 0.923550
vt 0.066377 0.923550
vt 0.066377 0.923550
vt 0.066377 0.923550
vt 0.066377 0.923550
vt 0.066377 0.923550
vt 0.066377 0.923550
vt 0.066377 0.923550
vt 0.066377 0.923550
vt 0.066377 0.923550
vt 0.066377 0.923550
vt 0.066377 0.923550
vt 0.066377 0.923550
vt 0.066377 0.923550
vt 0.066377 0.923550
vt 0.066377 0.923550
vt 0.066377 0.923550
vt 0.066377 0.923550
vt 0.066377 0.923550
vt 0.066377 0.923550
vt 0.066377 0.923550
vt 0.066377 0.923550
vt 0.066377 0.923550
vt 0.066377 0.923550
vt 0.066377 0.923550
vt 0.066377 0.923550
vt 0.066377 0.923550
vt 0.066377 0.923550
vt 0.066377 0.923550
vt 0.066377 0.923550
vt 0.066377 0.923550
vt 0.066377 0.923550
vt 0.066377 0.923550
vt 0.066377 0.923550
vt 0.066377 0.923550
vt 0.066377 0.923550
vn 0.9949 -0.0212 -0.0985
vn -0.0327 -0.4158 0.9089
vn -0.0179 -0.9377 0.3469
vn -0.0594 -0.9392 -0.3382
vn -0.0628 -0.4256 -0.9027
vn -0.0567 0.9397 0.3373
vn -0.1937 -0.9104 0.3655
vn -0.0266 -0.4212 -0.9066
vn -0.0439 0.8721 0.4874
vn 0.9932 0.0233 -0.1137
vn -0.0006 -0.9394 -0.3429
vn 0.1693 -0.4054 -0.8984
vn 0.0359 -0.4222 -0.9058
vn -0.0175 0.9367 0.3498
vn 0.0566 -0.0000 -0.9984
vn -0.2631 0.3932 0.8810
vn -0.0899 0.4155 0.9052
vn 0.1440 -0.4492 0.8817
vn -0.1029 -0.4242 -0.8997
vn -0.0847 -0.3892 0.9173
vn 0.0479 0.9398 0.3384
vn -0.0730 -0.6105 -0.7886
vn 0.0641 0.4260 0.9024
vn 0.1599 0.3984 -0.9032
vn 0.0599 0.9388 0.3393
vn -0.1899 0.9295 -0.3162
vn -0.3665 0.0000 0.9304
vn -0.0343 0.4243 0.9049
vn -0.1060 0.4217 -0.9005
vn 0.1026 0.4241 0.8998
vn -0.9565 -0.0188 0.2912
vn 0.0603 0.9390 0.3385
vn 0.1067 -0.4241 0.8993
vn 0.1131 -0.4372 0.8922
vn 0.0263 0.4188 0.9077
vn 0.0177 -0.9367 -0.3498
vn 0.1192 0.9795 0.1622
vn 0.0202 0.9385 -0.3448
vn 0.1102 0.4098 -0.9055
vn 0.0355 -0.0560 -0.9978
vn -0.1114 -0.9770 0.1820
vn 0.9343 0.1711 0.3128
vn 0.0870 -0.9308 -0.3551
vn -0.2635 -0.4015 0.8771
vn -0.2733 0.8953 0.3517
vn 0.0338 0.4395 0.8976
vn -0.0632 -0.4251 -0.9029
vn -0.9602 0.2755 -0.0450
vn -0.1404 0.4398 -0.8871
vn -0.0747 0.9313 0.3564
vn -0.0401 0.4200 0.9066
vn -0.0462 0.3915 -0.9190
vn 0.2718 -0.8986 -0.3445
vn -0.3176 0.3920 0.8634
vn 0.0943 0.3854 -0.9179
vn -0.0559 -0.9392 -0.3387
vn -0.0637 0.4245 -0.9032
vn 0.0009 0.9378 -0.3470
vn -0.0612 -0.9383 -0.3405
vn -0.1477 -0.9250 0.3501
vn -0.0127 -0.4250 0.9051
vn 0.0096 0.9372 -0.3487
vn 0.0585 -0.4179 -0.9066
vn -0.0803 -0.4251 -0.9016
vn 0.0049 0.9387 0.3446
vn -0.1437 -0.4100 0.9007
vn -0.1704 0.6974 0.6961
vn -0.0138 -0.9322 0.3618
vn -0.0729 0.9387 -0.3368
vn -0.9704 0.2038 -0.1298
vn -0.1212 0.4250 -0.8971
vn 0.3148 -0.3932 -0.8639
vn 0.1237 -0.9378 0.3244
vn 0.0203 -0.4286 0.9032
vn 0.0724 -0.9388 0.3369
vn 0.1047 0.4227 0.9002
vn -0.0209 -0.9388 0.3439
vn -0.0322 0.9393 -0.3416
vn 0.0408 -0.4241 -0.9047
vn 0.0239 0.4257 0.9045
vn 0.0798 0.9349 -0.3459
vn 0.0295 -0.6085 -0.7930
vn -0.0743 -0.9293 0.3617
vn 0.0005 0.9394 0.3427
vn 0.0105 0.9369 -0.3495
vn -0.0685 0.9384 -0.3386
vn 0.0383 -0.3959 0.9175
vn 0.0835 -0.9312 -0.3547
vn 0.2088 0.4148 0.8856
vn -0.0244 -0.4265 -0.9042
vn -0.1830 0.8329 0.5223
vn 0.0124 -0.9388 0.3443
vn 0.1023 -0.4023 -0.9098
vn -0.1585 -0.3962 0.9044
vn 0.2616 0.4023 -0.8773
vn -0.9566 0.2482 0.1524
vn 0.0037 0.4193 -0.9078
vn -0.9543 -0.2972 -0.0328
vn -0.1014 0.8934 0.4376
vn 0.1353 -0.9226 -0.3611
vn 0.9692 -0.2462 0.0113
vn -0.2101 -0.9264 -0.3124
vn -0.9301 0.0678 -0.3611
vn 0.9898 -0.0944 -0.1070
vn -0.9899 -0.1065 0.0937
vn 0.2253 -0.4911 -0.8415
vn -0.1026 0.3981 0.9116
vn 0.9325 0.3531 0.0756
vn -0.9192 0.2404 0.3119
vn 0.9288 0.3417 -0.1433
vn 0.0256 0.7157 -0.6980
vn 0.9507 -0.1663 0.2617
vn 0.1072 0.8695 0.4821
vn 0.1467 0.9260 -0.3479
vn 0.2645 -0.9383 0.2228
vn 0.1982 0.9116 -0.3601
vn -0.2795 0.9318 -0.2317
vn -0.2646 0.8924 0.3655
vn 0.0706 0.0000 0.9975
vn 0.0689 -0.9389 0.3371
vn -0.1161 0.5084 0.8533
vn -0.2036 -0.3980 -0.8945
vn -0.0088 -0.0547 -0.9985
vn 0.1396 -0.4310 0.8915
vn -0.4514 0.0000 -0.8923
vn -0.1211 0.4252 -0.8970
vn 0.0560 -0.9385 -0.3407
vn -0.0019 -0.4253 0.9051
vn 0.9349 0.1712 0.3109
vn 0.0702 0.9377 0.3404
vn 0.9132 0.4007 0.0735
vn -0.0696 -0.9386 -0.3380
vn -0.0692 0.4250 -0.9025
vn -0.0825 0.8612 -0.5015
vn 0.0589 -0.9380 0.3416
vn 0.0921 0.7381 0.6684
vn 0.2049 0.9281 0.3108
vn -0.9483 0.2768 0.1552
vn -0.9611 0.2727 -0.0447
vn 0.1825 0.9046 -0.3852
vn 0.9174 0.3735 -0.1372
vn 0.2180 0.9303 0.2951
vn 0.2172 0.9209 0.3238
vn 0.0117 0.4244 -0.9054
g Tree_Trunk_2_Tree_Trunk_2_CollorMaterial
usemtl CollorMaterial
s off
f 8/1/1 10/2/1 62/3/1 60/4/1
f 103/5/2 104/6/2 97/7/2 93/8/2
f 26/9/3 30/10/3 31/11/3 27/12/3
f 67/13/4 72/14/4 71/15/4 68/16/4
f 8/1/5 45/17/5 119/18/5 10/2/5
f 61/19/6 59/20/6 82/21/6 86/22/6
f 94/23/7 69/24/7 51/25/7 65/26/7
f 32/27/8 115/28/8 118/29/8 33/30/8
f 39/31/9 48/32/9 107/33/9 96/34/9
f 12/35/10 64/36/10 62/3/10 10/2/10
f 29/37/11 33/30/11 34/38/11 30/10/11
f 98/39/12 99/40/12 77/41/12 73/42/12
f 76/43/13 72/14/13 73/42/13 77/41/13
f 87/44/14 86/22/14 82/21/14 83/45/14
f 120/46/15 36/47/15 121/48/15
f 21/49/16 23/50/16 42/51/16 41/52/16
f 103/5/17 93/8/17 89/53/17 102/54/17
f 49/55/18 5/56/18 24/57/18 22/58/18
f 71/15/19 75/59/19 74/60/19 70/61/19
f 107/33/20 91/62/20 92/63/20 96/34/20
f 89/53/21 88/64/21 84/65/21 85/66/21
f 37/67/22 38/68/22 95/69/22 94/23/22
f 60/4/23 62/3/23 103/5/23 102/54/23
f 13/70/24 37/67/24 115/28/24 11/71/24
f 15/72/25 16/73/25 19/74/25 20/75/25
f 46/76/26 40/77/26 14/78/26 125/79/26
f 110/80/27 111/81/27 112/82/27
f 20/75/28 112/82/28 111/81/28
f 79/83/29 78/84/29 74/60/29 75/59/29
f 19/74/30 18/85/30 22/58/30 109/86/30
f 3/87/31 1/88/31 53/89/31 55/90/31
f 16/73/32 17/91/32 18/85/32 19/74/32
f 22/58/33 24/57/33 25/92/33 109/86/33
f 62/3/34 64/36/34 104/6/34 103/5/34
f 91/62/35 90/93/35 86/22/35 87/44/35
f 28/94/36 32/27/36 33/30/36 29/37/36
f 22/58/37 74/60/37 108/95/37 49/55/37
f 84/65/38 83/45/38 79/83/38 80/96/38
f 100/97/39 81/98/39 77/41/39 99/40/39
f 116/99/40 117/100/40 118/29/40
f 3/87/41 55/90/41 74/60/41 22/58/41
f 114/101/42 54/102/42 52/103/42
f 31/11/43 35/104/43 45/17/43 44/105/43
f 42/51/44 43/106/44 4/107/44 2/108/44
f 41/52/45 113/109/45 122/110/45 125/79/45
f 21/49/46 20/75/46 111/81/46 23/50/46
f 45/17/47 120/46/47 119/18/47
f 126/111/48 13/70/48 65/26/48 51/25/48
f 78/84/49 57/112/49 108/95/49 74/60/49
f 102/54/50 89/53/50 85/66/50 101/113/50
f 92/63/51 91/62/51 87/44/51 88/64/51
f 116/99/52 115/28/52 37/67/52 48/32/52
f 50/114/53 52/103/53 98/39/53 105/115/53
f 114/101/54 41/52/54 42/51/54 2/108/54
f 117/100/55 116/99/55 48/32/55 39/31/55
f 30/10/56 34/38/56 35/104/56 31/11/56
f 121/48/57 36/47/57 40/77/57 46/76/57
f 101/113/58 85/66/58 81/98/58 100/97/58
f 68/16/59 71/15/59 70/61/59 69/24/59
f 43/106/60 44/105/60 6/116/60 4/107/60
f 110/80/61 109/86/61 25/92/61 26/9/61
f 38/68/62 37/67/62 17/91/62 16/73/62
f 35/104/63 36/47/63 120/46/63 45/17/63
f 34/38/64 117/100/64 36/47/64 35/104/64
f 14/78/65 15/72/65 20/75/65 21/49/65
f 23/50/66 27/12/66 43/106/66 42/51/66
f 123/117/67 124/118/67 125/79/67
f 95/69/68 68/16/68 69/24/68 94/23/68
f 82/21/69 59/20/69 57/112/69 78/84/69
f 63/119/70 65/26/70 13/70/70 11/71/70
f 119/18/71 46/76/71 12/35/71 10/2/71
f 52/103/72 54/102/72 99/40/72 98/39/72
f 97/7/73 66/120/73 67/13/73 96/34/73
f 27/12/74 23/50/74 111/81/74 26/9/74
f 5/56/75 7/121/75 28/94/75 24/57/75
f 89/53/76 93/8/76 92/63/76 88/64/76
f 25/92/77 29/37/77 30/10/77 26/9/77
f 40/77/78 39/31/78 15/72/78 14/78/78
f 117/100/79 34/38/79 33/30/79 118/29/79
f 19/74/80 109/86/80 112/82/80 20/75/80
f 16/73/81 15/72/81 39/31/81 38/68/81
f 39/31/82 96/34/82 95/69/82 38/68/82
f 96/34/83 67/13/83 68/16/83 95/69/83
f 88/64/84 87/44/84 83/45/84 84/65/84
f 85/66/85 84/65/85 80/96/85 81/98/85
f 83/45/86 82/21/86 78/84/86 79/83/86
f 91/62/87 107/33/87 94/23/87 90/93/87
f 66/120/88 73/42/88 72/14/88 67/13/88
f 18/85/89 1/88/89 3/87/89 22/58/89
f 72/14/90 76/43/90 75/59/90 71/15/90
f 46/76/91 104/6/91 64/36/91 12/35/91
f 27/12/92 31/11/92 44/105/92 43/106/92
f 9/122/93 11/71/93 115/28/93 32/27/93
f 65/26/94 63/119/94 90/93/94 94/23/94
f 56/123/95 100/97/95 99/40/95 54/102/95
f 53/89/96 1/88/96 128/124/96 51/25/96
f 81/98/97 80/96/97 76/43/97 77/41/97
f 9/122/98 61/19/98 63/119/98 11/71/98
f 41/52/99 114/101/99 52/103/99
f 105/115/100 98/39/100 73/42/100 66/120/100
f 6/116/101 58/125/101 56/123/101 4/107/101
f 69/24/102 70/61/102 53/89/102 51/25/102
f 7/121/103 59/20/103 61/19/103 9/122/103
f 60/4/104 58/125/104 6/116/104 8/1/104
f 7/121/105 5/56/105 57/112/105 59/20/105
f 46/76/106 47/126/106 106/127/106 104/6/106
f 90/93/107 63/119/107 61/19/107 86/22/107
f 50/114/108 122/110/108 113/109/108
f 49/55/109 108/95/109 57/112/109 5/56/109
f 106/127/110 47/126/110 124/118/110 50/114/110
f 127/128/111 128/124/111 129/129/111
f 4/107/112 56/123/112 54/102/112 2/108/112
f 37/67/113 94/23/113 107/33/113 48/32/113
f 58/125/114 101/113/114 100/97/114 56/123/114
f 106/127/115 50/114/115 105/115/115 104/6/115
f 37/67/116 13/70/116 126/111/116 129/129/116
f 47/126/117 46/76/117 125/79/117 124/118/117
f 125/79/118 14/78/118 21/49/118 41/52/118
f 110/80/119 112/82/119 109/86/119
f 24/57/120 28/94/120 29/37/120 25/92/120
f 41/52/121 52/103/121 113/109/121
f 70/61/122 74/60/122 55/90/122 53/89/122
f 116/99/123 118/29/123 115/28/123
f 93/8/124 97/7/124 96/34/124 92/63/124
f 120/46/125 121/48/125 119/18/125
f 119/18/126 121/48/126 46/76/126
f 9/122/127 32/27/127 28/94/127 7/121/127
f 111/81/128 110/80/128 26/9/128
f 114/101/129 2/108/129 54/102/129
f 60/4/130 102/54/130 101/113/130 58/125/130
f 113/109/131 52/103/131 50/114/131
f 44/105/132 45/17/132 8/1/132 6/116/132
f 36/47/133 117/100/133 39/31/133 40/77/133
f 123/117/134 125/79/134 122/110/134
f 104/6/135 105/115/135 66/120/135 97/7/135
f 127/128/136 129/129/136 126/111/136
f 129/129/137 1/88/137 18/85/137
f 128/124/138 127/128/138 51/25/138
f 51/25/139 127/128/139 126/111/139
f 17/91/140 37/67/140 129/129/140
f 50/114/108 123/117/108 122/110/108
f 124/118/141 123/117/141 50/114/141
f 18/85/142 17/91/142 129/129/142
f 129/129/143 128/124/143 1/88/143
f 76/43/144 80/96/144 79/83/144 75/59/144
