# Blender v3.0.0 OBJ File: 'Blender Medieval Village Megapack Low Poly .blend'
# www.blender.org
mtllib TreeTrunk_3.mtl
o TreeTrunk_3
v 0.017985 -0.000000 -0.420286
v 0.269735 -0.000000 -0.321458
v 0.445109 -0.000000 -0.074278
v 0.395264 0.000000 0.208407
v 0.284556 0.000000 0.290169
v -0.143509 0.000000 0.394620
v -0.363399 0.000000 0.210111
v -0.461956 -0.000000 -0.195046
v -0.251750 -0.000000 -0.322111
v -0.361092 0.097924 -0.119700
v -0.273142 0.094694 -0.264124
v -0.436295 0.058370 -0.218082
v -0.413258 -0.000000 -0.072868
v -0.393033 0.056781 -0.289124
v -0.382511 -0.000000 -0.317647
v -0.646241 0.029690 -0.262904
v -0.650571 -0.000000 -0.278267
v -0.646492 -0.000000 -0.201678
v -0.642699 0.031279 -0.219380
v -0.738518 0.042177 -0.322348
v -0.731549 -0.000000 -0.329510
v -0.771779 -0.000000 -0.303296
v -0.760996 0.043171 -0.306789
v -0.759995 0.047033 -0.355091
v -0.753026 -0.000000 -0.362253
v -0.793256 -0.000000 -0.336039
v -0.782474 0.048028 -0.339532
v -0.745618 0.018191 -0.557283
v -0.740576 -0.000001 -0.558727
v -0.767349 -0.000001 -0.552666
v -0.762016 0.018341 -0.553504
v -0.864262 0.014383 -0.257951
v -0.870664 -0.000000 -0.247074
v -0.870750 0.019239 -0.287914
v -0.882069 -0.000000 -0.299750
v -0.935991 0.021496 -0.342101
v -0.941064 -0.000000 -0.333481
v -0.941133 0.026352 -0.365847
v -0.950103 -0.000000 -0.375227
v -0.976757 0.012715 -0.221366
v -0.980333 -0.000000 -0.215289
v -0.980381 0.017571 -0.238106
v -0.986705 -0.000000 -0.244719
v 0.417410 0.000000 0.082813
v 0.115874 0.000000 0.372061
v -0.060133 0.000000 0.426499
v 0.417565 0.058639 -0.070231
v -0.029966 0.097182 0.386961
v 0.067529 0.095423 0.361204
v 0.398402 0.066164 0.018917
v 0.121973 0.000000 0.501814
v -0.025142 0.000001 0.537712
v 0.003918 0.070166 0.511639
v 0.075401 0.068407 0.494655
v 0.038661 0.000001 0.732294
v -0.064926 0.000001 0.757570
v -0.044464 0.024504 0.739212
v 0.005869 0.023265 0.727253
v 0.181956 0.000001 0.853857
v 0.118339 0.000001 0.869380
v 0.130905 0.014853 0.858105
v 0.161817 0.014092 0.850761
v 0.208782 0.000001 1.035569
v 0.177282 0.000001 1.043255
v 0.183505 0.013444 1.037673
v 0.198810 0.013067 1.034036
v 0.582710 0.017243 -0.022849
v 0.601754 -0.000000 -0.025648
v 0.582603 0.000000 0.082963
v 0.569462 0.022445 0.038787
v 0.652876 0.014681 -0.057822
v 0.653947 -0.000000 -0.072101
v 0.729660 -0.000000 -0.040503
v 0.695454 0.018551 -0.038163
v 0.678888 0.017046 -0.045812
v 0.683681 -0.000000 -0.059692
v 0.641947 0.016232 -0.125493
v 0.622207 -0.000000 -0.130654
v 0.669922 0.018596 -0.131681
v 0.674244 -0.000000 -0.147952
v 0.532445 0.011773 -0.200051
v 0.518496 -0.000000 -0.207079
v 0.554738 0.014138 -0.206385
v 0.557451 -0.000000 -0.219730
v 0.567388 -0.000000 -0.286448
v 0.563125 -0.000000 -0.294059
v 0.579688 0.005732 -0.282418
v 0.585112 -0.000000 -0.287749
v 0.751800 -0.000000 -0.119843
v 0.779889 -0.000000 -0.101936
v 0.758694 0.019592 -0.107238
v 0.748994 0.018710 -0.111717
v 0.853647 -0.000000 -0.164541
v 0.853217 -0.000000 -0.132862
v 0.846947 0.011519 -0.136814
v 0.847827 0.008944 -0.153899
v -0.012164 0.608471 -0.291989
v 0.248151 0.602909 -0.242236
v 0.316834 0.604367 -0.168374
v 0.271880 0.627881 0.156970
v 0.117933 0.603277 0.295006
v -0.096815 0.603277 0.295006
v -0.271881 0.627881 0.156970
v -0.309171 0.627881 -0.054516
v -0.231875 0.562648 -0.238706
v -0.000000 0.313940 -0.313941
v 0.201797 0.313940 -0.240492
v 0.309171 0.313940 -0.054515
v 0.271880 0.313940 0.156970
v 0.107374 0.313941 0.295007
v -0.107374 0.313941 0.295007
v -0.271881 0.313940 0.156970
v -0.309171 0.313940 -0.054515
v -0.201797 0.313940 -0.240492
v -0.152459 0.559321 0.274327
v -0.017628 0.461983 -0.301356
v 0.217075 0.458580 -0.232248
v 0.320837 0.458580 -0.052528
v 0.262403 0.470646 0.152686
v 0.108533 0.458757 0.286079
v -0.098991 0.458757 0.286079
v -0.263065 0.470646 0.152686
v -0.299101 0.470645 -0.051685
v -0.212636 0.461984 -0.230378
v 0.251241 0.728474 -0.234365
v 0.355525 0.602909 -0.056259
v -0.030078 0.562648 -0.312154
v 0.233225 0.156931 -0.277877
v 0.373039 0.153428 -0.063688
v 0.329952 0.153428 0.180670
v 0.171306 0.156128 0.304141
v -0.123996 0.149975 0.341006
v -0.314073 0.149975 0.181513
v 0.008954 0.151592 -0.363065
v 0.224713 0.698194 0.321307
v 0.289064 0.729277 -0.193690
v -0.357168 0.156931 -0.062991
v -0.224210 0.151593 -0.278200
v 0.319969 0.713418 0.235896
v -0.018742 0.609356 -0.264526
v 0.230137 0.606321 -0.220739
v 0.294828 0.609463 -0.151401
v 0.249636 0.630689 0.139776
v 0.104744 0.605358 0.270107
v -0.096815 0.605019 0.266806
v -0.246519 0.630718 0.144845
v -0.281127 0.630443 -0.052229
v -0.211427 0.566630 -0.219618
v 0.000038 0.308898 -0.286140
v 0.184507 0.309122 -0.218672
v 0.281751 0.309123 -0.049688
v 0.248191 0.308376 0.142611
v 0.098398 0.309588 0.268573
v -0.098329 0.309454 0.268618
v -0.247871 0.308738 0.143014
v -0.281719 0.309228 -0.049772
v -0.183926 0.309536 -0.219056
v -0.133298 0.563360 0.253960
v -0.016291 0.462414 -0.273136
v 0.200316 0.461075 -0.209638
v 0.292869 0.461970 -0.050388
v 0.238658 0.471932 0.137428
v 0.098661 0.458901 0.259606
v -0.089953 0.458943 0.259310
v -0.238431 0.471251 0.138861
v -0.271106 0.471433 -0.047952
v -0.193657 0.463597 -0.209511
v 0.230564 0.727778 -0.215124
v 0.329131 0.606791 -0.065564
v -0.020513 0.566650 -0.285871
v 0.307000 0.143473 0.167541
v -0.290721 0.141841 0.167845
v 0.008692 0.143465 -0.336006
v 0.121950 0.700231 0.262490
v 0.268386 0.728581 -0.174449
v 0.300976 0.715455 0.215077
v 0.216265 0.147992 -0.257123
v 0.347094 0.143338 -0.058862
v 0.159800 0.148579 0.279465
v -0.115453 0.143144 0.314956
v -0.330500 0.148978 -0.058107
v -0.207157 0.143962 -0.257005
v -0.125454 0.364678 -0.149478
v 0.000071 0.382949 -0.164529
v -0.138713 0.364687 -0.039154
v -0.142454 0.382857 0.082195
v -0.046993 0.370769 0.135954
v 0.066106 0.370846 0.135928
v 0.142736 0.382649 0.081964
v 0.202383 0.358151 -0.035702
v 0.118705 0.379883 -0.111983
v 0.000115 0.383075 -0.000057
vt 0.781119 0.758601
vt 0.781119 0.758601
vt 0.781119 0.758601
vt 0.781119 0.758601
vt 0.781119 0.758601
vt 0.781119 0.758601
vt 0.781119 0.758601
vt 0.781119 0.758601
vt 0.781119 0.758601
vt 0.781119 0.758601
vt 0.781119 0.758601
vt 0.781119 0.758601
vt 0.781119 0.758601
vt 0.781119 0.758601
vt 0.781119 0.758601
vt 0.781119 0.758601
vt 0.781119 0.758601
vt 0.781119 0.758601
vt 0.781119 0.758601
vt 0.047216 0.962627
vt 0.047216 0.962627
vt 0.047216 0.962627
vt 0.047216 0.962627
vt 0.047216 0.962627
vt 0.047216 0.962627
vt 0.047216 0.962627
vt 0.047216 0.962627
vt 0.047216 0.962627
vt 0.047216 0.962627
vt 0.047216 0.962627
vt 0.047216 0.962627
vt 0.047216 0.962627
vt 0.047216 0.962627
vt 0.047216 0.962627
vt 0.047216 0.962627
vt 0.047216 0.962627
vt 0.047216 0.962627
vt 0.047216 0.962627
vt 0.047216 0.962627
vt 0.047216 0.962627
vt 0.047216 0.962627
vt 0.047216 0.962627
vt 0.047216 0.962627
vt 0.047216 0.962627
vt 0.047216 0.962627
vt 0.047216 0.962627
vt 0.047216 0.962627
vt 0.047216 0.962627
vt 0.047216 0.962627
vt 0.047216 0.962627
vt 0.047216 0.962627
vt 0.047216 0.962627
vt 0.047216 0.962627
vt 0.047216 0.962627
vt 0.047216 0.962627
vt 0.047216 0.962627
vt 0.047216 0.962627
vt 0.047216 0.962627
vt 0.047216 0.962627
vt 0.047216 0.962627
vt 0.047216 0.962627
vt 0.047216 0.962627
vt 0.047216 0.962627
vt 0.047216 0.962627
vt 0.047216 0.962627
vt 0.047216 0.962627
vt 0.047216 0.962627
vt 0.047216 0.962627
vt 0.047216 0.962627
vt 0.047216 0.962627
vt 0.047216 0.962627
vt 0.047216 0.962627
vt 0.047216 0.962627
vt 0.047216 0.962627
vt 0.047216 0.962627
vt 0.047216 0.962627
vt 0.047216 0.962627
vt 0.047216 0.962627
vt 0.047216 0.962627
vt 0.047216 0.962627
vt 0.047216 0.962627
vt 0.047216 0.962627
vt 0.047216 0.962627
vt 0.047216 0.962627
vt 0.047216 0.962627
vt 0.047216 0.962627
vt 0.047216 0.962627
vt 0.047216 0.962627
vt 0.047216 0.962627
vt 0.047216 0.962627
vt 0.047216 0.962627
vt 0.047216 0.962627
vt 0.047216 0.962627
vt 0.047216 0.962627
vt 0.047216 0.962627
vt 0.047216 0.962627
vt 0.047216 0.962627
vt 0.047216 0.962627
vt 0.047216 0.962627
vt 0.047216 0.962627
vt 0.047216 0.962627
vt 0.047216 0.962627
vt 0.047216 0.962627
vt 0.047216 0.962627
vt 0.047216 0.962627
vt 0.047216 0.962627
vt 0.047216 0.962627
vt 0.047216 0.962627
vt 0.047216 0.962627
vt 0.047216 0.962627
vt 0.047216 0.962627
vt 0.047216 0.962627
vt 0.047216 0.962627
vt 0.047216 0.962627
vt 0.047216 0.962627
vt 0.047216 0.962627
vt 0.047216 0.962627
vt 0.047216 0.962627
vt 0.047216 0.962627
vt 0.047216 0.962627
vt 0.047216 0.962627
vt 0.047216 0.962627
vt 0.047216 0.962627
vt 0.047216 0.962627
vt 0.047216 0.962627
vt 0.047216 0.962627
vt 0.047216 0.962627
vt 0.047216 0.962627
vt 0.047216 0.962627
vt 0.047216 0.962627
vt 0.047216 0.962627
vt 0.047216 0.962627
vt 0.047216 0.962627
vt 0.047216 0.962627
vt 0.047216 0.962627
vt 0.047216 0.962627
vt 0.047216 0.962627
vt 0.047216 0.962627
vt 0.047216 0.962627
vt 0.047216 0.962627
vt 0.047216 0.962627
vt 0.047216 0.962627
vt 0.047216 0.962627
vt 0.047216 0.962627
vt 0.047216 0.962627
vt 0.047216 0.962627
vt 0.047216 0.962627
vt 0.047216 0.962627
vt 0.047216 0.962627
vt 0.047216 0.962627
vt 0.047216 0.962627
vt 0.047216 0.962627
vt 0.047216 0.962627
vt 0.047216 0.962627
vt 0.047216 0.962627
vt 0.047216 0.962627
vt 0.047216 0.962627
vt 0.047216 0.962627
vt 0.047216 0.962627
vt 0.047216 0.962627
vt 0.047216 0.962627
vt 0.047216 0.962627
vt 0.047216 0.962627
vt 0.047216 0.962627
vt 0.047216 0.962627
vt 0.047216 0.962627
vt 0.047216 0.962627
vt 0.047216 0.962627
vt 0.047216 0.962627
vt 0.047216 0.962627
vt 0.047216 0.962627
vt 0.047216 0.962627
vt 0.047216 0.962627
vt 0.047216 0.962627
vt 0.047216 0.962627
vt 0.047216 0.962627
vt 0.047216 0.962627
vt 0.047216 0.962627
vt 0.047216 0.962627
vt 0.047216 0.962627
vt 0.047216 0.962627
vt 0.047216 0.962627
vt 0.047216 0.962627
vt 0.047216 0.962627
vt 0.047216 0.962627
vt 0.047216 0.962627
vt 0.047216 0.962627
vt 0.047216 0.962627
vt 0.047216 0.962627
vt 0.047216 0.962627
vt 0.047216 0.962627
vt 0.047216 0.962627
vt 0.047216 0.962627
vt 0.047216 0.962627
vt 0.047216 0.962627
vt 0.047216 0.962627
vt 0.047216 0.962627
vt 0.047216 0.962627
vt 0.047216 0.962627
vt 0.047216 0.962627
vt 0.047216 0.962627
vn 0.5354 0.8391 0.0967
vn 0.4685 0.8409 -0.2711
vn 0.2830 0.8684 0.4072
vn -0.4226 0.8908 -0.1669
vn -0.4633 0.8862 -0.0055
vn -0.0166 0.9995 -0.0260
vn -0.1367 0.9906 -0.0071
vn -0.0005 0.9078 0.4194
vn -0.1835 0.8396 -0.5112
vn 0.1173 0.9927 -0.0287
vn 0.1993 0.8525 -0.4833
vn -0.0007 0.9960 0.0899
vn 0.0262 0.9997 -0.0008
vn -0.0669 0.9903 0.1215
vn -0.2566 0.8771 0.4061
vn -0.9744 0.0007 -0.2250
vn -0.9867 -0.0067 -0.1625
vn -0.7904 0.2921 0.5385
vn 0.0868 0.5995 0.7957
vn 0.6645 -0.0741 0.7436
vn 0.6372 0.2836 0.7166
vn 0.9158 0.1182 0.3839
vn -0.6053 0.3366 0.7213
vn -0.8953 0.3382 -0.2900
vn 0.0688 0.1783 0.9816
vn -0.5877 0.3218 -0.7423
vn -0.6456 0.2961 -0.7040
vn 0.3909 0.6623 -0.6392
vn 0.8979 0.4108 0.1583
vn 0.7319 0.0247 -0.6810
vn -0.9830 -0.0598 0.1733
vn 0.1343 0.9898 -0.0471
vn -0.0976 0.9951 0.0165
vn -0.9464 0.2737 0.1714
vn 0.3298 0.1379 0.9339
vn 0.8650 0.5018 0.0056
vn -0.0548 0.9883 -0.1424
vn -0.0014 0.9974 0.0722
vn -0.1190 0.9757 0.1839
vn 0.9781 0.0566 -0.2003
vn 0.4528 0.4007 0.7965
vn -0.1205 0.9903 -0.0692
vn 0.7409 -0.0230 -0.6712
vn -0.1706 0.9594 0.2247
vn 0.3587 0.9144 0.1876
vn 0.9442 -0.1045 0.3124
vn -0.9665 0.2269 -0.1197
vn 0.5251 -0.7175 0.4577
vn 0.6750 0.7286 -0.1160
vn -0.6488 0.5129 0.5621
vn 0.1178 -0.0936 -0.9886
vn 0.1669 0.7995 0.5770
vn 0.0325 0.9989 0.0332
vn -0.9138 -0.1206 -0.3878
vn -0.9322 0.3376 -0.1304
vn 0.3780 0.5521 0.7431
vn 0.5158 0.6036 -0.6080
vn 0.7763 0.3538 -0.5217
vn 0.0646 0.7810 0.6212
vn -0.6338 0.0699 0.7703
vn -0.3855 0.8916 -0.2375
vn 0.2670 0.4345 -0.8602
vn 0.3323 0.2843 -0.8993
vn -0.7311 0.5030 -0.4610
vn -0.2621 0.9480 -0.1808
vn -0.5503 0.5612 -0.6183
vn -0.0501 0.9888 -0.1408
vn 0.1940 0.9432 0.2699
vn -0.6478 0.6761 0.3511
vn -0.0863 0.9940 0.0673
vn -0.5791 0.2170 0.7858
vn 0.0000 1.0000 -0.0000
vn -0.4629 0.2573 -0.8482
vn 0.9387 -0.1236 0.3217
vn 0.3106 0.5465 0.7777
vn 0.4945 0.7520 0.4359
vn 0.3969 0.2440 0.8848
vn 0.9416 0.3226 -0.0966
vn 0.8443 0.5357 0.0115
vn 0.0075 0.9779 -0.2088
vn -0.3095 0.6378 -0.7053
vn -0.9258 0.2985 0.2319
vn -0.8280 0.2548 -0.4994
vn 0.8833 -0.0193 0.4683
vn 0.0247 0.9997 0.0006
vn -0.6223 -0.2440 0.7437
vn -0.9830 0.0600 0.1733
vn -0.3418 0.0391 -0.9390
vn -0.3312 0.2556 -0.9083
vn -0.3098 -0.0689 0.9483
vn 0.3362 0.3370 -0.8794
vn 0.9212 0.3536 0.1626
vn -0.0479 0.4262 0.9034
vn 0.5998 0.3026 0.7407
vn -0.6190 0.2697 0.7377
vn -0.9350 0.1316 -0.3293
vn -0.6203 0.2690 0.7368
vn 0.9746 -0.0054 0.2240
vn -0.7227 0.0479 -0.6895
vn 0.0007 -0.0611 -0.9981
vn 0.6335 -0.0694 -0.7706
vn 0.9834 0.0568 -0.1724
vn -0.6482 -0.0536 -0.7596
vn -0.3244 0.3171 -0.8912
vn 0.8241 0.2130 -0.5248
vn 0.1635 0.9852 -0.0513
vn -0.3536 0.7337 0.5803
vn 0.2328 -0.0313 -0.9720
vn 0.0213 0.9414 -0.3366
vn 0.8087 0.3128 -0.4982
vn -0.9291 0.3294 0.1681
vn 0.6468 0.0512 0.7609
vn 0.6254 0.2213 -0.7483
vn 0.0000 -0.0617 0.9981
vn 0.9833 0.1740 0.0536
vn 0.2506 0.9677 -0.0278
vn 0.0693 0.9786 0.1936
vn 0.9342 -0.1374 0.3293
vn -0.9463 0.2744 0.1710
vn 0.9200 0.3568 0.1622
vn -0.0685 0.9965 -0.0477
vn -0.7733 0.5363 0.3382
vn -0.3306 0.2566 -0.9082
vn -0.1346 0.4408 -0.8875
vn 0.3313 0.2855 -0.8993
vn -0.3386 -0.1417 -0.9302
vn -0.6669 0.0685 -0.7420
vn 0.1002 0.9916 0.0814
vn 0.0092 0.0614 -0.9981
vn 0.0000 0.0615 0.9981
vn -0.8641 0.0627 0.4995
vn 0.3397 -0.0401 0.9397
vn 0.8643 -0.0629 -0.4990
vn 0.3102 0.0700 -0.9481
vn 0.8086 0.3155 -0.4967
vn -0.5297 0.7196 -0.4490
vn -0.0906 0.9954 0.0318
vn 0.1471 0.9075 0.3936
vn -0.7308 -0.0296 0.6820
vn 0.5320 0.2709 -0.8022
vn 0.7383 0.1391 -0.6600
vn 0.7026 0.6475 0.2950
vn -0.7390 0.6311 0.2357
vn 0.6004 0.3063 0.7387
vn -0.8277 0.2540 -0.5004
vn 0.5676 0.3603 0.7402
vn -0.2242 0.0293 0.9741
vn -0.8827 0.0177 -0.4696
vn 0.9831 -0.0619 -0.1724
vn 0.7685 0.4043 0.4960
vn -0.9954 0.0160 -0.0941
vn -0.0038 0.4953 -0.8687
vn -0.5695 0.3263 0.7544
vn -0.6614 0.6324 0.4032
vn -0.0514 0.9909 0.1241
vn -0.2360 0.9499 -0.2050
vn -0.2716 0.3867 0.8813
vn 0.0301 0.9969 -0.0724
vn 0.7883 -0.3053 -0.5343
vn -0.8570 0.4203 0.2983
vn 0.2277 0.2823 0.9319
vn -0.2222 0.0179 -0.9748
vn 0.0742 0.9746 0.2113
vn -0.8840 0.3974 -0.2461
vn 0.7511 0.3896 -0.5329
vn 0.0908 0.9936 0.0677
vn -0.0239 0.9895 -0.1428
vn -0.1583 0.9601 0.2306
vn 0.4354 -0.0360 0.8995
vn 0.7427 -0.0145 -0.6695
vn 0.2484 0.9582 0.1422
vn 0.0717 0.1812 0.9808
vn -0.8106 0.5670 -0.1467
vn 0.5186 0.5987 -0.6104
vn 0.4349 0.7366 0.5180
vn 0.3185 0.2133 -0.9236
vn -0.4296 -0.3386 -0.8371
vn -0.0294 0.9909 -0.1315
vn -0.0190 0.9959 -0.0882
vn -0.9644 -0.2171 0.1508
vn -0.0726 0.9960 0.0525
vn -0.5264 0.4020 0.7491
vn -0.0556 0.6513 -0.7568
vn 0.8198 0.4656 0.3334
vn 0.3437 0.4667 0.8149
vn 0.8817 0.4711 -0.0256
vn 0.0412 0.9883 -0.1468
vn -0.3427 0.3306 -0.8794
vn -0.7167 -0.0591 0.6948
vn 0.7116 0.0623 -0.6999
vn -0.2534 -0.0317 -0.9669
vn 0.6029 0.3309 -0.7260
vn -0.4882 0.1575 0.8584
vn -0.0393 0.9904 0.1327
vn -0.0279 0.9996 0.0062
g TreeTrunk_3_TreeTrunk_3_CollorMaterial
usemtl CollorMaterial
s off
f 152/1/1 151/2/1 190/3/1 189/4/1
f 150/5/2 191/6/2 190/3/2 151/2/2
f 152/1/3 189/4/3 188/7/3 153/8/3
f 156/9/4 185/10/4 183/11/4 157/12/4
f 156/9/5 155/13/5 186/14/5 185/10/5
f 186/14/6 187/15/6 192/16/6 185/10/6
f 184/17/7 183/11/7 185/10/7 192/16/7
f 153/8/8 188/7/8 187/15/8 154/18/8
f 149/19/9 157/12/9 183/11/9 184/17/9
f 189/4/10 190/3/10 191/6/10 192/16/10
f 150/5/11 149/19/11 184/17/11 191/6/11
f 187/15/12 188/7/12 192/16/12
f 191/6/13 184/17/13 192/16/13
f 188/7/14 189/4/14 192/16/14
f 154/18/15 187/15/15 186/14/15 155/13/15
f 152/20/16 162/21/16 161/22/16 151/23/16
f 121/24/17 102/25/17 145/26/17 164/27/17
f 160/28/18 161/22/18 142/29/18 141/30/18
f 131/31/19 132/32/19 49/33/19
f 119/34/20 100/35/20 101/36/20 120/37/20
f 136/38/21 175/39/21 142/29/21 99/40/21
f 166/41/22 167/42/22 148/43/22 147/44/22
f 132/32/23 133/45/23 7/46/23 6/47/23
f 10/48/24 13/49/24 137/50/24
f 110/51/25 111/52/25 132/32/25 131/31/25
f 9/53/26 11/54/26 138/55/26
f 76/56/27 75/57/27 92/58/27 89/59/27
f 80/60/28 84/61/28 83/62/28 79/63/28
f 44/64/29 50/65/29 130/66/29 4/67/29
f 98/68/30 125/69/30 136/38/30 99/40/30
f 103/70/31 104/71/31 123/72/31 122/73/31
f 16/74/32 23/75/32 19/76/32
f 104/71/33 103/70/33 146/77/33 147/44/33
f 155/78/34 156/79/34 181/80/34 172/81/34
f 167/42/35 159/82/35 170/83/35 148/43/35
f 45/84/36 49/33/36 54/85/36 51/86/36
f 24/87/37 31/88/37 27/89/37
f 102/25/38 101/36/38 144/90/38 145/26/38
f 34/91/39 36/92/39 32/93/39
f 116/94/40 127/95/40 170/83/40 159/82/40
f 22/96/41 32/93/41 33/97/41
f 12/98/42 14/99/42 16/74/42 19/76/42
f 35/100/43 38/101/43 34/91/43
f 23/75/44 27/89/44 34/91/44 32/93/44
f 36/92/45 42/102/45 40/103/45
f 37/104/46 36/92/46 40/103/46 41/105/46
f 129/106/29 130/66/29 50/65/29
f 27/89/47 31/88/47 30/107/47 26/108/47
f 101/36/48 100/35/48 139/109/48 135/110/48
f 59/111/49 62/112/49 66/113/49 63/114/49
f 32/93/50 36/92/50 37/104/50 33/97/50
f 118/115/51 161/22/51 169/116/51 126/117/51
f 132/32/52 48/118/52 49/33/52
f 58/119/53 61/120/53 62/112/53
f 123/72/54 104/71/54 105/121/54 124/122/54
f 52/123/55 57/124/55 53/125/55
f 118/115/56 99/40/56 142/29/56 161/22/56
f 55/126/57 62/112/57 59/111/57
f 2/127/58 128/128/58 129/106/58 47/129/58
f 44/64/59 69/130/59 70/131/59 50/65/59
f 121/24/60 122/73/60 112/132/60 111/52/60
f 82/133/61 81/134/61 85/135/61 86/136/61
f 3/137/62 67/138/62 68/139/62
f 150/140/63 177/141/63 173/142/63 149/143/63
f 10/48/64 137/50/64 138/55/64 11/54/64
f 11/54/65 14/99/65 12/98/65 10/48/65
f 68/139/66 71/144/66 72/145/66
f 127/95/67 105/121/67 148/43/67 170/83/67
f 74/146/68 75/57/68 70/131/68 69/130/68
f 72/145/69 77/147/69 78/148/69
f 77/147/70 83/62/70 81/134/70
f 78/148/71 81/134/71 82/133/71
f 85/135/72 88/149/72 86/136/72
f 26/108/73 35/100/73 34/91/73 27/89/73
f 84/61/74 87/150/74 83/62/74
f 90/151/75 95/152/75 91/153/75
f 73/154/76 90/151/76 91/153/76 74/146/76
f 49/33/77 45/84/77 5/155/77 131/31/77
f 76/56/78 80/60/78 79/63/78 75/57/78
f 96/156/79 94/157/79 93/158/79
f 91/153/80 96/156/80 92/58/80
f 89/59/81 96/156/81 93/158/81
f 40/103/82 42/102/82 43/159/82 41/105/82
f 137/50/83 113/160/83 114/161/83 138/55/83
f 156/79/84 157/162/84 167/42/84 166/41/84
f 62/112/85 61/120/85 65/163/85 66/113/85
f 115/164/86 122/73/86 121/24/86
f 112/132/87 122/73/87 123/72/87 113/160/87
f 114/161/88 124/122/88 116/94/88 106/165/88
f 149/143/89 173/142/89 182/166/89 157/162/89
f 150/140/90 160/28/90 159/82/90 149/143/90
f 1/167/91 134/168/91 128/128/91 2/127/91
f 151/23/92 152/20/92 171/169/92 178/170/92
f 8/171/93 12/98/93 19/76/93 18/172/93
f 152/20/94 153/173/94 179/174/94 171/169/94
f 111/52/95 112/132/95 133/45/95 132/32/95
f 161/22/96 162/21/96 143/175/96 169/116/96
f 155/78/97 172/81/97 180/176/97 154/177/97
f 118/115/98 119/34/98 109/178/98 108/179/98
f 125/69/99 98/68/99 141/30/99 168/180/99
f 153/173/100 154/177/100 164/27/100 163/181/100
f 155/78/101 165/182/101 164/27/101 154/177/101
f 166/41/102 147/44/102 146/77/102 165/182/102
f 152/20/103 153/173/103 163/181/103 162/21/103
f 9/53/104 138/55/104 134/168/104 1/167/104
f 20/183/105 21/184/105 25/185/105 24/87/105
f 126/117/106 169/116/106 143/175/106 100/35/106
f 57/124/107 56/186/107 60/187/107 61/120/107
f 97/188/108 98/68/108 117/189/108 116/94/108
f 104/71/109 147/44/109 148/43/109 105/121/109
f 151/23/110 178/170/110 177/141/110 150/140/110
f 133/45/111 137/50/111 13/49/111 7/46/111
f 109/178/112 119/34/112 120/37/112 110/51/112
f 165/182/113 158/190/113 164/27/113
f 120/37/114 101/36/114 102/25/114 121/24/114
f 25/185/115 29/191/115 28/192/115 24/87/115
f 47/129/116 50/65/116 70/131/116 67/138/116
f 48/118/117 53/125/117 54/85/117 49/33/117
f 126/117/118 100/35/118 119/34/118 118/115/118
f 112/132/119 113/160/119 137/50/119 133/45/119
f 108/179/120 109/178/120 130/66/120 129/106/120
f 74/146/121 91/153/121 92/58/121 75/57/121
f 13/49/122 10/48/122 12/98/122 8/171/122
f 138/55/123 114/161/123 106/165/123 134/168/123
f 14/99/124 15/193/124 17/194/124 16/74/124
f 134/168/125 106/165/125 107/195/125 128/128/125
f 124/122/126 105/121/126 127/95/126 116/94/126
f 162/21/127 163/181/127 144/90/127 143/175/127
f 20/183/128 24/87/128 27/89/128 23/75/128
f 164/27/129 145/26/129 144/90/129 163/181/129
f 110/51/130 120/37/130 121/24/130 111/52/130
f 151/23/131 161/22/131 160/28/131 150/140/131
f 157/162/132 149/143/132 159/82/132 167/42/132
f 117/189/133 118/115/133 108/179/133 107/195/133
f 116/94/134 117/189/134 107/195/134 106/165/134
f 128/128/135 107/195/135 108/179/135 129/106/135
f 144/90/136 176/196/136 143/175/136
f 71/144/137 75/57/137 79/63/137 77/147/137
f 115/164/138 158/190/138 146/77/138 103/70/138
f 175/39/139 168/180/139 141/30/139 142/29/139
f 17/194/140 21/184/140 20/183/140 16/74/140
f 139/109/141 143/175/141 176/196/141
f 54/85/142 58/119/142 55/126/142 51/86/142
f 60/187/143 64/197/143 65/163/143 61/120/143
f 109/178/144 110/51/144 131/31/144 130/66/144
f 157/162/145 182/166/145 181/80/145 156/79/145
f 130/66/146 131/31/146 5/155/146 4/67/146
f 160/28/147 141/30/147 140/198/147 159/82/147
f 113/160/148 123/72/148 124/122/148 114/161/148
f 155/78/149 156/79/149 166/41/149 165/182/149
f 121/24/150 164/27/150 158/190/150 115/164/150
f 97/188/151 116/94/151 159/82/151 140/198/151
f 11/54/152 9/53/152 15/193/152 14/99/152
f 19/76/153 23/75/153 22/96/153 18/172/153
f 135/110/154 144/90/154 101/36/154
f 135/110/155 176/196/155 174/199/155
f 83/62/156 87/150/156 85/135/156 81/134/156
f 6/47/157 46/200/157 48/118/157 132/32/157
f 97/188/158 140/198/158 141/30/158 98/68/158
f 117/189/159 98/68/159 99/40/159 118/115/159
f 46/200/160 52/123/160 53/125/160 48/118/160
f 66/113/161 65/163/161 64/197/161 63/114/161
f 30/107/162 31/88/162 28/192/162 29/191/162
f 53/125/163 57/124/163 58/119/163 54/85/163
f 38/101/164 39/201/164 43/159/164 42/102/164
f 3/137/165 2/127/165 47/129/165
f 16/74/166 20/183/166 23/75/166
f 24/87/167 28/192/167 31/88/167
f 34/91/168 38/101/168 36/92/168
f 22/96/169 23/75/169 32/93/169
f 35/100/170 39/201/170 38/101/170
f 36/92/171 38/101/171 42/102/171
f 153/173/172 154/177/172 180/176/172 179/174/172
f 50/65/29 47/129/29 129/106/29
f 58/119/53 57/124/53 61/120/53
f 52/123/173 56/186/173 57/124/173
f 55/126/174 58/119/174 62/112/174
f 69/130/175 73/154/175 74/146/175
f 3/137/176 47/129/176 67/138/176
f 68/139/177 67/138/177 71/144/177
f 71/144/178 67/138/178 75/57/178
f 67/138/179 70/131/179 75/57/179
f 72/145/180 71/144/180 77/147/180
f 77/147/181 79/63/181 83/62/181
f 78/148/182 77/147/182 81/134/182
f 85/135/183 87/150/183 88/149/183
f 84/61/184 88/149/184 87/150/184
f 90/151/185 94/157/185 95/152/185
f 96/156/186 95/152/186 94/157/186
f 91/153/187 95/152/187 96/156/187
f 89/59/188 92/58/188 96/156/188
f 115/164/189 103/70/189 122/73/189
f 165/182/190 146/77/190 158/190/190
f 144/90/191 174/199/191 176/196/191
f 139/109/192 100/35/192 143/175/192
f 135/110/193 174/199/193 144/90/193
f 135/110/194 139/109/194 176/196/194
f 125/69/195 168/180/195 175/39/195 136/38/195
