# Blender v3.0.0 OBJ File: 'Blender Medieval Village Megapack Low Poly .blend'
# www.blender.org
mtllib Wheel.mtl
o Wheel
v -0.341676 0.018039 0.213632
v -0.304072 0.018045 0.265151
v -0.303833 0.063206 -0.265267
v -0.343356 0.063210 -0.210700
v -0.303833 0.018045 -0.265266
v -0.343356 0.018041 -0.210700
v 0.155284 0.018043 -0.371640
v 0.093767 0.018041 -0.391517
v 0.155284 0.063208 -0.371640
v 0.093767 0.063210 -0.391517
v 0.042504 0.063247 -0.030444
v 0.042504 0.018005 -0.030444
v -0.014547 0.063245 -0.048879
v -0.014547 0.018007 -0.048879
v -0.014269 0.018002 -0.052228
v -0.014269 0.063249 -0.052228
v -0.050846 0.018007 -0.001730
v -0.050846 0.063245 -0.001730
v -0.050015 0.018009 0.003287
v -0.050015 0.063242 0.003287
v -0.015115 0.018003 0.051098
v -0.015115 0.063249 0.051098
v 0.038633 0.063242 0.031847
v 0.038633 0.018010 0.031847
v -0.014873 0.063246 0.049315
v -0.014873 0.018006 0.049315
v 0.042006 0.063248 -0.032755
v 0.042006 0.018004 -0.032755
v 0.042139 0.063241 0.024403
v 0.042139 0.018011 0.024403
v -0.304072 0.063207 0.265151
v -0.341676 0.063213 0.213632
v 0.152054 0.018039 0.373021
v 0.152054 0.063214 0.373021
v 0.094567 0.063210 0.391790
v 0.094567 0.018043 0.391790
v 0.401375 0.018045 -0.036018
v 0.401375 0.063207 -0.036018
v 0.401516 0.063215 0.025450
v 0.401516 0.018037 0.025450
v 0.145532 0.091353 -0.450970
v -0.147497 0.091353 -0.450458
v -0.384262 0.091353 -0.277807
v -0.474327 0.091353 0.001039
v -0.383289 0.091353 0.279568
v -0.145923 0.091353 0.451392
v 0.147106 0.091353 0.450881
v 0.383871 0.091353 0.278229
v 0.473936 0.091353 -0.000616
v 0.382898 0.091353 -0.279145
v 0.132162 0.091353 -0.409576
v -0.133983 0.091353 -0.409111
v -0.349025 0.091353 -0.252299
v -0.430827 0.091353 0.000963
v -0.348142 0.091353 0.253938
v -0.132554 0.091353 0.409998
v 0.133592 0.091353 0.409534
v 0.348634 0.091353 0.252722
v 0.430435 0.091353 -0.000540
v 0.347751 0.091353 -0.253515
v 0.145532 0.000754 -0.450970
v -0.147497 0.000754 -0.450458
v -0.384262 0.000754 -0.277807
v -0.474327 0.000755 0.001039
v -0.383289 0.000755 0.279568
v -0.145923 0.000755 0.451392
v 0.147106 0.000755 0.450881
v 0.383871 0.000755 0.278229
v 0.473936 0.000755 -0.000616
v 0.382898 0.000755 -0.279145
v 0.132162 -0.001024 -0.409576
v -0.133983 -0.001024 -0.409111
v -0.349025 -0.001024 -0.252299
v -0.430827 -0.001024 0.000963
v -0.348142 -0.001023 0.253938
v -0.132554 -0.001023 0.409998
v 0.133592 -0.001023 0.409534
v 0.348634 -0.001023 0.252722
v 0.430435 -0.001024 -0.000540
v 0.347751 -0.001024 -0.253515
v -0.133165 0.074537 -0.406607
v 0.131352 0.074537 -0.407069
v -0.346892 0.074537 -0.250755
v -0.428193 0.074537 0.000958
v -0.346014 0.074537 0.252386
v -0.131744 0.074537 0.407492
v 0.132773 0.074537 0.407030
v 0.346500 0.074537 0.251177
v 0.427801 0.074537 -0.000536
v 0.345622 0.074537 -0.251963
v -0.133165 0.014786 -0.406607
v 0.131352 0.014786 -0.407069
v -0.346892 0.014786 -0.250755
v -0.428193 0.014786 0.000958
v -0.346014 0.014786 0.252386
v -0.131744 0.014786 0.407492
v 0.132773 0.014786 0.407030
v 0.346500 0.014786 0.251177
v 0.427801 0.014786 -0.000536
v 0.345622 0.014786 -0.251963
v -0.114397 0.076315 -0.349189
v 0.112786 0.076315 -0.349586
v -0.297960 0.076315 -0.215333
v -0.367786 0.076315 0.000853
v -0.297205 0.076315 0.216795
v -0.113177 0.076315 0.350009
v 0.114006 0.076315 0.349612
v 0.297568 0.076315 0.215757
v 0.367395 0.076315 -0.000430
v 0.296814 0.076315 -0.216372
v -0.114397 0.013007 -0.349189
v 0.112786 0.013008 -0.349586
v -0.297960 0.013007 -0.215333
v -0.367786 0.013008 0.000853
v -0.297205 0.013008 0.216795
v -0.113177 0.013008 0.350009
v 0.114006 0.013008 0.349612
v 0.297568 0.013008 0.215757
v 0.367395 0.013008 -0.000430
v 0.296814 0.013007 -0.216372
v -0.009491 0.011904 -0.028228
v 0.066327 0.062226 -0.048297
v 0.066496 0.062226 0.048488
v -0.030116 0.011904 0.000264
v -0.025500 0.062226 0.078557
v -0.009392 0.011904 0.028684
v -0.082525 0.062226 0.000356
v 0.024042 0.011904 0.017757
v -0.025773 0.062226 -0.078044
v 0.023980 0.011904 -0.017417
v 0.045921 0.091353 -0.033416
v 0.046038 0.091353 0.033679
v -0.017737 0.091353 0.054524
v -0.057270 0.091353 0.000311
v -0.017927 0.091353 -0.054038
v 0.015326 0.091353 -0.011106
v 0.015365 0.091353 0.011476
v -0.006099 0.091353 0.018492
v -0.019404 0.091353 0.000245
v -0.006163 0.091353 -0.018047
v 0.010854 0.066309 -0.007845
v 0.010882 0.066309 0.008230
v -0.004398 0.066309 0.013225
v -0.013869 0.066309 0.000236
v -0.004443 0.066309 -0.012786
v -0.079801 0.015336 0.000351
v -0.024927 0.015336 -0.075455
v -0.024663 0.015336 0.075964
v 0.064289 0.015336 0.046891
v 0.064126 0.015336 -0.046692
v -0.007771 0.030318 -0.022967
v -0.024581 0.030318 0.000254
v -0.007690 0.030318 0.023417
v 0.019558 0.030318 0.014511
v 0.019508 0.030318 -0.014156
vt 0.075577 0.932420
vt 0.075577 0.932420
vt 0.075577 0.932420
vt 0.075577 0.932420
vt 0.075577 0.932420
vt 0.075577 0.932420
vt 0.075577 0.932420
vt 0.075577 0.932420
vt 0.075577 0.932420
vt 0.075577 0.932420
vt 0.075577 0.932420
vt 0.075577 0.932420
vt 0.075577 0.932420
vt 0.075577 0.932420
vt 0.075577 0.932420
vt 0.075577 0.932420
vt 0.075577 0.932420
vt 0.075577 0.932420
vt 0.075577 0.932420
vt 0.075577 0.932420
vt 0.075577 0.932420
vt 0.075577 0.932420
vt 0.075577 0.932420
vt 0.075577 0.932420
vt 0.075577 0.932420
vt 0.075577 0.932420
vt 0.075577 0.932420
vt 0.075577 0.932420
vt 0.075577 0.932420
vt 0.075577 0.932420
vt 0.075577 0.932420
vt 0.075577 0.932420
vt 0.075577 0.932420
vt 0.075577 0.932420
vt 0.075577 0.932420
vt 0.075577 0.932420
vt 0.075577 0.932420
vt 0.075577 0.932420
vt 0.075577 0.932420
vt 0.075577 0.932420
vt 0.202001 0.911357
vt 0.202001 0.911357
vt 0.202001 0.911357
vt 0.202001 0.911357
vt 0.202001 0.911357
vt 0.202001 0.911357
vt 0.202001 0.911357
vt 0.202001 0.911357
vt 0.202001 0.911357
vt 0.202001 0.911357
vt 0.202001 0.911357
vt 0.202001 0.911357
vt 0.202001 0.911357
vt 0.202001 0.911357
vt 0.202001 0.911357
vt 0.202001 0.911357
vt 0.202001 0.911357
vt 0.202001 0.911357
vt 0.202001 0.911357
vt 0.202001 0.911357
vt 0.202001 0.911357
vt 0.202001 0.911357
vt 0.202001 0.911357
vt 0.202001 0.911357
vt 0.202001 0.911357
vt 0.202001 0.911357
vt 0.202001 0.911357
vt 0.202001 0.911357
vt 0.202001 0.911357
vt 0.202001 0.911357
vt 0.202001 0.911357
vt 0.202001 0.911357
vt 0.202001 0.911357
vt 0.202001 0.911357
vt 0.202001 0.911357
vt 0.202001 0.911357
vt 0.202001 0.911357
vt 0.202001 0.911357
vt 0.202001 0.911357
vt 0.202001 0.911357
vt 0.761669 0.504515
vt 0.761669 0.504515
vt 0.761669 0.504515
vt 0.761669 0.504515
vt 0.761669 0.504515
vt 0.761669 0.504515
vt 0.761669 0.504515
vt 0.761669 0.504515
vt 0.761669 0.504515
vt 0.761669 0.504515
vt 0.761669 0.504515
vt 0.761669 0.504515
vt 0.761669 0.504515
vt 0.761669 0.504515
vt 0.761669 0.504515
vt 0.761669 0.504515
vt 0.761669 0.504515
vt 0.761669 0.504515
vt 0.761669 0.504515
vt 0.761669 0.504515
vt 0.761669 0.504515
vt 0.761669 0.504515
vt 0.761669 0.504515
vt 0.761669 0.504515
vt 0.761669 0.504515
vt 0.761669 0.504515
vt 0.761669 0.504515
vt 0.761669 0.504515
vt 0.761669 0.504515
vt 0.761669 0.504515
vt 0.761669 0.504515
vt 0.761669 0.504515
vt 0.761669 0.504515
vt 0.761669 0.504515
vt 0.761669 0.504515
vt 0.936852 0.057517
vt 0.936852 0.057517
vt 0.936852 0.057517
vt 0.936852 0.057517
vt 0.936852 0.057517
vt 0.936852 0.057517
vt 0.936852 0.057517
vt 0.936852 0.057517
vt 0.936852 0.057517
vt 0.936852 0.057517
vt 0.936852 0.057517
vt 0.936852 0.057517
vt 0.936852 0.057517
vt 0.936852 0.057517
vt 0.936852 0.057517
vt 0.936852 0.057517
vt 0.936852 0.057517
vt 0.936852 0.057517
vt 0.936852 0.057517
vt 0.936852 0.057517
vt 0.936852 0.057517
vt 0.936852 0.057517
vt 0.936852 0.057517
vt 0.936852 0.057517
vt 0.936852 0.057517
vt 0.936852 0.057517
vt 0.936852 0.057517
vt 0.936852 0.057517
vt 0.936852 0.057517
vt 0.936852 0.057517
vt 0.936852 0.057517
vt 0.936852 0.057517
vt 0.936852 0.057517
vt 0.936852 0.057517
vt 0.936852 0.057517
vt 0.936852 0.057517
vt 0.936852 0.057517
vt 0.936852 0.057517
vt 0.936852 0.057517
vt 0.936852 0.057517
vt 0.936852 0.057517
vt 0.936852 0.057517
vt 0.936852 0.057517
vt 0.936852 0.057517
vt 0.936852 0.057517
vt 0.936852 0.057517
vt 0.936852 0.057517
vt 0.936852 0.057517
vt 0.936852 0.057517
vt 0.936852 0.057517
vt 0.936852 0.057517
vt 0.936852 0.057517
vt 0.936852 0.057517
vt 0.936852 0.057517
vt 0.936852 0.057517
vt 0.936852 0.057517
vt 0.936852 0.057517
vt 0.936852 0.057517
vt 0.936852 0.057517
vt 0.936852 0.057517
vn 0.9516 0.0000 0.3074
vn -0.0001 0.9995 -0.0309
vn 0.0182 0.9995 0.0250
vn -0.5892 -0.0000 -0.8080
vn -0.0001 -0.9995 -0.0309
vn -0.0182 -0.9995 -0.0250
vn -0.0294 0.9995 -0.0095
vn 0.0181 0.9995 -0.0251
vn 0.0001 -0.9995 0.0309
vn -0.0181 -0.9995 0.0251
vn -0.0181 0.9995 0.0251
vn 0.0182 -0.9995 0.0250
vn -0.0017 -0.0000 -1.0000
vn -0.9516 0.0000 -0.3074
vn 0.0294 0.9995 0.0095
vn 0.0294 -0.9995 0.0095
vn -0.0294 -0.9995 0.0096
vn -0.0294 0.9995 0.0096
vn 0.0294 0.9995 -0.0096
vn 0.0001 0.9995 0.0309
vn 0.0017 0.0000 1.0000
vn -0.5864 0.0000 0.8100
vn 0.9505 -0.0000 -0.3107
vn 0.5892 0.0000 0.8080
vn 0.5864 -0.0000 -0.8100
vn -0.9505 0.0000 0.3107
vn 0.0181 -0.9995 -0.0251
vn 0.0294 -0.9995 -0.0096
vn -0.0294 -0.9995 -0.0095
vn -0.0182 0.9995 -0.0250
vn -0.0001 -1.0000 -0.0001
vn -0.0001 1.0000 0.0001
vn -0.0001 -1.0000 0.0001
vn -0.5813 0.0000 0.8137
vn -0.9535 -0.0000 -0.3014
vn -0.0029 0.0000 1.0000
vn 0.0000 1.0000 0.0001
vn 0.0001 -1.0000 -0.0000
vn 0.5952 0.0000 0.8035
vn 0.0000 -1.0000 0.0001
vn -0.0001 1.0000 -0.0001
vn -0.9525 0.0000 0.3044
vn 0.0000 -1.0000 -0.0001
vn -0.5849 0.0000 -0.8111
vn -0.0091 -0.0000 -1.0000
vn 0.5926 -0.0000 -0.8055
vn 0.0000 1.0000 -0.0001
vn 0.0001 1.0000 -0.0000
vn 0.9495 0.0000 0.3138
vn 0.9489 0.0000 -0.3155
vn -0.0000 1.0000 0.0000
vn -0.0687 -0.9964 0.0501
vn 0.2516 0.5743 -0.7790
vn 0.3103 -0.0469 0.9495
vn -0.6631 0.5743 -0.4800
vn 0.2543 0.5743 0.7782
vn 0.0264 -0.9964 0.0808
vn 0.8187 0.5743 -0.0014
vn -0.6615 0.5743 0.4824
vn -0.9844 0.1760 0.0017
vn 0.9989 -0.0469 -0.0017
vn -0.8071 -0.0469 0.5885
vn -0.3058 0.1760 -0.9357
vn -0.0000 -1.0000 0.0000
vn 0.0851 -0.9964 -0.0001
vn 0.3070 -0.0469 -0.9505
vn -0.8091 -0.0469 -0.5857
vn 0.0261 -0.9964 -0.0809
vn -0.0689 -0.9964 -0.0499
vn -0.3026 0.1760 0.9367
vn -0.2987 -0.2363 0.9246
vn 0.7974 0.1760 0.5772
vn 0.7954 0.1760 -0.5800
vn 0.7871 -0.2363 0.5698
vn -0.3019 -0.2363 -0.9236
vn 0.7851 -0.2363 -0.5725
vn -0.9717 -0.2363 0.0017
vn 0.9399 -0.1565 0.3036
vn 0.9412 0.1473 0.3040
vn 0.5819 -0.1565 0.7980
vn -0.0408 -0.9991 0.0133
vn -0.0001 -0.9991 -0.0429
vn -0.0252 -0.9991 0.0348
vn -0.5800 0.1473 0.8012
vn 0.0017 0.1473 0.9891
vn -0.0253 -0.9991 -0.0347
vn -0.0409 -0.9991 -0.0132
vn 0.0409 -0.9991 0.0132
vn 0.0408 -0.9991 -0.0133
vn -0.9388 -0.1565 0.3068
vn -0.5791 -0.1565 0.8001
vn 0.5791 -0.1565 -0.8001
vn -0.9401 0.1473 0.3073
vn -0.5819 -0.1565 -0.7980
vn 0.9401 0.1473 -0.3073
vn -0.0017 -0.1565 -0.9877
vn -0.5828 0.1473 -0.7992
vn -0.9399 -0.1565 -0.3036
vn -0.0017 0.1473 -0.9891
vn 0.9388 -0.1565 -0.3068
vn 0.0017 -0.1565 0.9877
vn 0.0253 -0.9991 0.0347
vn -0.9412 0.1473 -0.3040
vn 0.5828 0.1473 0.7992
vn 0.0001 -0.9991 0.0429
vn 0.5800 0.1473 -0.8012
vn 0.0252 -0.9991 -0.0348
g Wheel_Wheel_CollorMaterial
usemtl CollorMaterial
s off
f 103/1/1 104/2/1 114/3/1 113/4/1
f 101/5/2 102/6/2 82/7/2 81/8/2
f 107/9/3 87/10/3 88/11/3 108/12/3
f 108/12/4 118/13/4 117/14/4 107/9/4
f 91/15/5 92/16/5 112/17/5 111/18/5
f 111/18/6 113/4/6 93/19/6 91/15/6
f 103/1/7 83/20/7 84/21/7 104/2/7
f 102/6/8 110/22/8 90/23/8 82/7/8
f 116/24/9 117/14/9 97/25/9 96/26/9
f 115/27/10 116/24/10 96/26/10 95/28/10
f 105/29/11 85/30/11 86/31/11 106/32/11
f 98/33/12 97/25/12 117/14/12 118/13/12
f 107/9/13 117/14/13 116/24/13 106/32/13
f 108/12/14 109/34/14 119/35/14 118/13/14
f 109/34/15 108/12/15 88/11/15 89/36/15
f 119/35/16 99/37/16 98/33/16 118/13/16
f 114/3/17 115/27/17 95/28/17 94/38/17
f 104/2/18 84/21/18 85/30/18 105/29/18
f 110/22/19 109/34/19 89/36/19 90/23/19
f 106/32/20 86/31/20 87/10/20 107/9/20
f 101/5/21 111/18/21 112/17/21 102/6/21
f 110/22/22 102/6/22 112/17/22 120/39/22
f 105/29/23 115/27/23 114/3/23 104/2/23
f 101/5/24 103/1/24 113/4/24 111/18/24
f 106/32/25 116/24/25 115/27/25 105/29/25
f 110/22/26 120/39/26 119/35/26 109/34/26
f 112/17/27 92/16/27 100/40/27 120/39/27
f 120/39/28 100/40/28 99/37/28 119/35/28
f 113/4/29 114/3/29 94/38/29 93/19/29
f 101/5/30 81/8/30 83/20/30 103/1/30
f 6/41/31 5/42/31 15/43/31 17/44/31
f 32/45/32 31/46/32 22/47/32 20/48/32
f 1/49/33 19/50/33 21/51/33 2/52/33
f 18/53/34 4/54/34 6/41/34 17/44/34
f 14/55/35 13/56/35 10/57/35 8/58/35
f 29/59/36 30/60/36 40/61/36 39/62/36
f 34/63/37 23/64/37 25/65/37 35/66/37
f 40/61/38 30/60/38 28/67/38 37/68/38
f 21/51/39 22/47/39 31/46/39 2/52/39
f 33/69/40 36/70/40 26/71/40 24/72/40
f 4/54/41 18/53/41 16/73/41 3/74/41
f 35/66/42 25/65/42 26/71/42 36/70/42
f 8/58/43 7/75/43 12/76/43 14/55/43
f 20/48/44 19/50/44 1/49/44 32/45/44
f 27/77/45 38/78/45 37/68/45 28/67/45
f 15/43/46 5/42/46 3/74/46 16/73/46
f 10/57/47 13/56/47 11/79/47 9/80/47
f 39/62/48 38/78/48 27/77/48 29/59/48
f 12/76/49 7/75/49 9/80/49 11/79/49
f 23/64/50 34/63/50 33/69/50 24/72/50
f 145/81/51 142/82/51 141/83/51
f 145/81/51 144/84/51 143/85/51 142/82/51
f 146/86/52 124/87/52 126/88/52 148/89/52
f 135/90/53 131/91/53 122/92/53 129/93/53
f 136/94/51 137/95/51 132/96/51 131/91/51
f 149/97/54 123/98/54 125/99/54 148/89/54
f 129/93/55 127/100/55 134/101/55 135/90/55
f 133/102/56 125/99/56 123/98/56 132/96/56
f 131/91/51 135/90/51 140/103/51 136/94/51
f 126/88/57 128/104/57 149/97/57 148/89/57
f 132/96/58 123/98/58 122/92/58 131/91/58
f 134/101/59 127/100/59 125/99/59 133/102/59
f 137/95/60 136/94/60 141/83/60 142/82/60
f 149/97/61 150/105/61 122/92/61 123/98/61
f 148/89/62 125/99/62 127/100/62 146/86/62
f 137/95/63 142/82/63 143/85/63 138/106/63
f 155/107/64 154/108/64 152/109/64 151/110/64
f 149/97/65 128/104/65 130/111/65 150/105/65
f 147/112/66 129/93/66 122/92/66 150/105/66
f 146/86/67 127/100/67 129/93/67 147/112/67
f 135/90/51 134/101/51 139/113/51 140/103/51
f 147/112/68 150/105/68 130/111/68 121/114/68
f 134/101/51 133/102/51 138/106/51 139/113/51
f 121/114/69 124/87/69 146/86/69 147/112/69
f 140/103/70 145/81/70 141/83/70 136/94/70
f 151/110/71 121/114/71 130/111/71 155/107/71
f 140/103/72 139/113/72 144/84/72 145/81/72
f 138/106/51 133/102/51 132/96/51 137/95/51
f 139/113/73 138/106/73 143/85/73 144/84/73
f 151/110/74 152/109/74 124/87/74 121/114/74
f 153/115/75 154/108/75 128/104/75 126/88/75
f 153/115/76 126/88/76 124/87/76 152/109/76
f 155/107/77 130/111/77 128/104/77 154/108/77
f 154/108/64 153/115/64 152/109/64
g Wheel_Wheel_Metal2
usemtl Metal2
f 46/116/51 47/117/51 57/118/51 56/119/51
f 52/120/51 42/121/51 43/122/51 53/123/51
f 73/124/78 93/125/78 94/126/78 74/127/78
f 53/123/79 54/128/79 84/129/79 83/130/79
f 72/131/80 91/132/80 93/125/80 73/124/80
f 43/122/4 42/121/4 62/133/4 63/134/4
f 49/135/1 48/136/1 68/137/1 69/138/1
f 64/139/81 74/127/81 75/140/81 65/141/81
f 51/142/51 41/143/51 42/121/51 52/120/51
f 60/144/51 59/145/51 49/135/51 50/146/51
f 55/147/51 54/128/51 44/148/51 45/149/51
f 71/150/82 72/131/82 62/133/82 61/151/82
f 76/152/83 66/153/83 65/141/83 75/140/83
f 47/117/51 48/136/51 58/154/51 57/118/51
f 53/123/51 43/122/51 44/148/51 54/128/51
f 51/142/84 82/155/84 90/156/84 60/144/84
f 52/120/85 81/157/85 82/155/85 51/142/85
f 44/148/26 64/139/26 65/141/26 45/149/26
f 45/149/51 46/116/51 56/119/51 55/147/51
f 72/131/86 73/124/86 63/134/86 62/133/86
f 73/124/87 74/127/87 64/139/87 63/134/87
f 68/137/88 78/158/88 79/159/88 69/138/88
f 69/138/89 79/159/89 80/160/89 70/161/89
f 59/145/51 58/154/51 48/136/51 49/135/51
f 47/117/24 67/162/24 68/137/24 48/136/24
f 45/149/22 65/141/22 66/153/22 46/116/22
f 43/122/14 63/134/14 64/139/14 44/148/14
f 79/159/90 99/163/90 100/164/90 80/160/90
f 41/143/13 61/151/13 62/133/13 42/121/13
f 71/150/91 80/160/91 100/164/91 92/165/91
f 76/152/92 75/140/92 95/166/92 96/167/92
f 60/144/93 90/156/93 89/168/93 59/145/93
f 77/169/94 97/170/94 98/171/94 78/158/94
f 55/147/95 85/172/95 84/129/95 54/128/95
f 76/152/96 96/167/96 97/170/96 77/169/96
f 57/118/97 58/154/97 88/173/97 87/174/97
f 79/159/98 78/158/98 98/171/98 99/163/98
f 57/118/99 87/174/99 86/175/99 56/119/99
f 74/127/100 94/126/100 95/166/100 75/140/100
f 71/150/101 92/165/101 91/132/101 72/131/101
f 78/158/102 68/137/102 67/162/102 77/169/102
f 59/145/103 89/168/103 88/173/103 58/154/103
f 52/120/104 53/123/104 83/130/104 81/157/104
f 77/169/105 67/162/105 66/153/105 76/152/105
f 56/119/106 86/175/106 85/172/106 55/147/106
f 50/146/25 70/161/25 61/151/25 41/143/25
f 80/160/107 71/150/107 61/151/107 70/161/107
f 50/146/51 41/143/51 51/142/51 60/144/51
f 49/135/23 69/138/23 70/161/23 50/146/23
f 46/116/21 66/153/21 67/162/21 47/117/21
